<svg width="73" height="47" viewBox="0 0 73 47" fill="none" xmlns="http://www.w3.org/2000/svg">
<path d="M12.9076 39.8362C12.7559 39.8362 12.6041 39.8599 12.4761 39.8762C12.5082 39.1496 12.5082 38.3824 12.5082 37.6079V37.3441H9.87831V37.6079C9.87831 38.2308 9.87042 38.9895 9.90201 39.8762C9.77395 39.8605 9.6222 39.8362 9.47046 39.8362C9.32661 39.8362 9.15906 39.8599 9.03101 39.8762C9.06316 39.4766 9.09532 38.5104 9.09532 37.0566C9.09532 35.9067 9.06316 35.0121 9.03101 34.5166C9.14327 34.5324 9.28712 34.5566 9.43097 34.5566C9.60697 34.5566 9.77452 34.5329 9.90257 34.5166C9.87888 35.2274 9.87888 35.9146 9.87888 36.5696V36.7612H12.5088V35.9867C12.5088 35.5713 12.5009 35.06 12.4846 34.5172C12.6126 34.5329 12.7723 34.5572 12.9483 34.5572C13.0921 34.5572 13.236 34.5335 13.3482 34.5172C13.3161 35.1564 13.2924 36.0425 13.2924 37.0572C13.2924 38.4788 13.3161 39.4456 13.3482 39.8768C13.2202 39.861 13.0521 39.8368 12.9088 39.8368L12.9076 39.8362Z" fill="white"/>
<path d="M17.1679 39.836C17.0562 39.836 16.9202 39.8597 16.8243 39.876C16.7442 39.5807 16.7442 39.3169 16.7442 39.0931C16.4881 39.6844 15.9849 39.9877 15.4016 39.9877C14.618 39.9877 14.1549 39.4843 14.1549 38.8377C14.1549 37.5277 15.594 37.7515 16.6968 37.1923C16.681 36.641 16.4328 36.3535 15.7457 36.3535C15.2499 36.3535 14.9464 36.5215 14.6666 36.7131V36.1382C15.0423 35.9623 15.3943 35.8828 15.8495 35.8828C16.241 35.8828 16.6246 35.9865 16.8644 36.1303C17.3281 36.4178 17.3924 36.8169 17.3924 37.4403C17.3924 37.6957 17.376 37.8394 17.376 38.0953C17.376 38.6303 17.3439 39.2216 17.5199 39.8766C17.4161 39.8608 17.2638 39.8366 17.1679 39.8366V39.836ZM14.89 38.7735C14.89 39.1246 15.1376 39.46 15.6171 39.46C15.9133 39.46 16.201 39.3084 16.4007 39.0525C16.6805 38.6928 16.7121 38.2216 16.7121 37.6066C15.7051 38.1337 14.89 37.9662 14.89 38.7729V38.7735Z" fill="white"/>
<path d="M20.4618 39.3477C20.0144 40.6814 19.8147 41.5445 18.7914 41.5445C18.5037 41.5445 18.3277 41.4644 18.1996 41.4165V40.8257C18.3277 40.9137 18.4552 40.9937 18.6791 40.9937C19.0785 40.9937 19.3346 40.6425 19.5501 39.9233C18.9747 38.6854 18.4546 37.3596 17.8397 35.9932C17.9757 36.0089 18.1432 36.0253 18.2713 36.0253C18.4151 36.0253 18.5669 36.0095 18.6949 35.9932C18.8867 36.5924 19.1265 37.1916 19.3662 37.7902L19.87 39.0524L20.27 37.7502C20.4697 37.0952 20.6299 36.496 20.7416 35.9932C20.8612 36.0089 21.0056 36.0253 21.1489 36.0253C21.2921 36.0253 21.4523 36.0095 21.5646 35.9932C21.2532 36.7919 20.9413 37.934 20.4612 39.3477H20.4618Z" fill="white"/>
<path d="M24.1788 39.3477C23.7314 40.6814 23.5317 41.5445 22.5084 41.5445C22.2207 41.5445 22.0447 41.4644 21.9167 41.4165V40.8257C22.0447 40.9137 22.1722 40.9937 22.3962 40.9937C22.7956 40.9937 23.0517 40.6425 23.2672 39.9233C22.6918 38.6854 22.1717 37.3596 21.5568 35.9932C21.6927 36.0089 21.8603 36.0253 21.9883 36.0253C22.1322 36.0253 22.2839 36.0095 22.412 35.9932C22.6038 36.5924 22.8435 37.1916 23.0833 37.7902L23.587 39.0524L23.987 37.7502C24.1867 37.0952 24.3469 36.496 24.4586 35.9932C24.5782 36.0089 24.7226 36.0253 24.8659 36.0253C25.0092 36.0253 25.1694 36.0095 25.2816 35.9932C24.9703 36.7919 24.6583 37.934 24.1782 39.3477H24.1788Z" fill="white"/>
<path d="M28.4553 39.836C28.3436 39.836 28.2077 39.8597 28.1118 39.876C28.0316 39.5807 28.0316 39.3169 28.0316 39.0931C27.7755 39.6844 27.2723 39.9877 26.689 39.9877C25.9055 39.9877 25.4418 39.4843 25.4418 38.8377C25.4418 37.5277 26.8808 37.7515 27.9837 37.1923C27.9679 36.641 27.7197 36.3535 27.0326 36.3535C26.5367 36.3535 26.2332 36.5215 25.9534 36.7131V36.1382C26.3291 35.9623 26.6806 35.8828 27.1364 35.8828C27.5279 35.8828 27.9115 35.9865 28.1512 36.1303C28.6149 36.4178 28.6793 36.8169 28.6793 37.4403C28.6793 37.6957 28.6629 37.8394 28.6629 38.0953C28.6629 38.6303 28.6307 39.2216 28.8068 39.8766C28.703 39.8608 28.5506 39.8366 28.4547 39.8366L28.4553 39.836ZM26.1774 38.7735C26.1774 39.1246 26.425 39.46 26.9045 39.46C27.2007 39.46 27.4878 39.3084 27.6881 39.0525C27.9679 38.6928 28.0001 38.2216 28.0001 37.6066C26.9931 38.1337 26.1774 37.9662 26.1774 38.7729V38.7735Z" fill="white"/>
<path d="M32.8121 39.8358C32.6604 39.8358 32.5165 39.8595 32.4048 39.8758C32.0212 39.1013 31.6291 38.4542 31.3093 37.9029L30.5979 38.7174C30.5979 38.9812 30.5979 39.3646 30.6301 39.8753C30.5184 39.8516 30.3824 39.8352 30.2465 39.8352C30.1105 39.8352 29.9825 39.851 29.8629 39.8753C29.9108 39.2045 29.9108 38.2541 29.9108 37.032C29.9108 35.714 29.8708 34.8352 29.855 34.5156C29.9667 34.5314 30.119 34.5478 30.2465 34.5478C30.3903 34.5478 30.5342 34.532 30.6385 34.5156C30.5906 35.2343 30.5985 36.2569 30.5985 37.5827V37.8623C31.3019 37.1193 31.8537 36.5044 32.213 35.9931C32.349 36.0173 32.5007 36.0252 32.6446 36.0252C32.7963 36.0252 32.9723 36.0094 33.1004 35.9931C32.6045 36.4643 32.1972 36.9598 31.7815 37.4226C32.3732 38.4767 32.8606 39.3076 33.2363 39.8747C33.1083 39.851 32.9565 39.8347 32.8127 39.8347L32.8121 39.8358Z" fill="white"/>
<path d="M36.7603 39.8353C36.6486 39.8353 36.5285 39.8511 36.4168 39.8754C36.3925 39.6279 36.3688 39.372 36.3688 39.1245C36.1449 39.6758 35.7133 39.987 35.1137 39.987C34.5783 39.987 34.0825 39.7474 33.8828 39.2203C33.731 38.8207 33.7632 38.0219 33.7632 37.5828C33.7632 37.0557 33.7553 36.5208 33.7152 35.9932C33.8433 36.0089 33.9792 36.0253 34.1067 36.0253C34.2427 36.0253 34.3707 36.0174 34.5067 35.9932C34.4587 36.6245 34.4672 37.2632 34.4672 37.8945C34.4672 38.2141 34.4429 38.8449 34.6426 39.1166C34.7786 39.3083 35.0262 39.412 35.2581 39.412C36.0896 39.412 36.2893 38.7333 36.2893 38.0225V37.527C36.2893 37.0157 36.2735 36.5044 36.2334 35.9932C36.3694 36.0089 36.4975 36.0253 36.6334 36.0253C36.7615 36.0253 36.8974 36.0095 37.0249 35.9932C36.977 36.7919 36.977 37.5907 36.977 38.3973C36.977 38.8928 37.0091 39.3878 37.0887 39.8748C36.977 39.859 36.8732 39.8348 36.7609 39.8348L36.7603 39.8353Z" fill="white"/>
<path d="M43.4192 39.8358C43.3075 39.8358 43.1552 39.8594 43.0271 39.8758C43.0435 39.4603 43.0672 38.9254 43.0672 38.2704C43.0672 37.152 43.123 36.457 42.34 36.457C41.9164 36.457 41.6123 36.6565 41.3167 37.024C41.3325 38.0782 41.3088 39.0291 41.3726 39.8752C41.2688 39.8594 41.1249 39.8352 40.9969 39.8352C40.8609 39.8352 40.7092 39.8589 40.589 39.8752C40.637 39.276 40.6291 38.7411 40.6291 38.2777C40.6291 37.0635 40.6934 36.4564 39.9098 36.4564C39.542 36.4564 39.1742 36.6881 38.8786 37.1272V37.4226C38.8786 38.2371 38.8786 39.0601 38.9345 39.8747C38.7748 39.8425 38.631 39.8346 38.5272 39.8346C38.3912 39.8346 38.2474 39.8583 38.1436 39.8747C38.1915 39.3397 38.1915 38.6605 38.1915 37.8538C38.1915 37.183 38.1836 36.5596 38.1436 35.9925C38.2474 36.0083 38.3754 36.0246 38.4871 36.0246C38.6152 36.0246 38.7511 36.0088 38.8628 35.9925L38.8386 36.6238C39.1985 36.1683 39.5578 35.8809 40.1174 35.8809C40.677 35.8809 41.0206 36.1125 41.1808 36.5759C41.5164 36.1368 41.86 35.8809 42.4839 35.8809C42.8438 35.8809 43.1394 35.9688 43.3713 36.1841C43.7791 36.5595 43.7633 37.0708 43.7633 37.7495C43.7633 38.037 43.7554 38.1971 43.7554 38.4846C43.7554 38.7399 43.7554 39.1954 43.8113 39.8741C43.6996 39.8583 43.5394 39.8341 43.4198 39.8341L43.4192 39.8358Z" fill="white"/>
<path d="M50.8938 39.8357C50.7579 39.8357 50.5824 39.8593 50.438 39.8757C50.398 39.7319 50.2541 39.1491 49.8705 38.1023H47.7844C47.7206 38.286 47.513 38.8531 47.2248 39.8757C47.0809 39.8599 46.897 39.8357 46.7611 39.8357C46.633 39.8357 46.4576 39.8593 46.3137 39.8757C46.6815 39.029 46.9771 38.1423 47.2885 37.2641C47.5762 36.4495 47.9119 35.5386 48.2159 34.5166C48.432 34.5408 48.6396 34.5566 48.8314 34.5566C49.0232 34.5566 49.2314 34.5408 49.4468 34.5166C49.6866 35.3396 49.8948 35.9067 50.0144 36.25C50.5339 37.7116 50.9497 38.9337 51.3491 39.8762C51.2052 39.8605 51.0213 39.8362 50.8932 39.8362L50.8938 39.8357ZM48.8314 35.1389L47.9762 37.5589H49.6945L48.8314 35.1389Z" fill="white"/>
<path d="M52.2613 39.8362C52.1174 39.8362 51.9814 39.852 51.8534 39.8762C51.9013 39.3013 51.9092 38.3988 51.9092 37.1925C51.9092 35.9862 51.9013 35.0916 51.8534 34.5166C52.0136 34.5408 52.1496 34.5487 52.2613 34.5487C52.3729 34.5487 52.5089 34.5408 52.6612 34.5166C52.6054 35.3311 52.5969 36.2257 52.5969 37.1925C52.5969 38.1592 52.6048 39.0617 52.6612 39.8762C52.5174 39.8441 52.3814 39.8362 52.2613 39.8362Z" fill="white"/>
<path d="M54.1155 39.8362C53.9716 39.8362 53.8357 39.852 53.7076 39.8762C53.7556 39.3013 53.7635 38.3988 53.7635 37.1925C53.7635 35.9862 53.7556 35.0916 53.7076 34.5166C53.8679 34.5408 54.0038 34.5487 54.1155 34.5487C54.2272 34.5487 54.3631 34.5408 54.5155 34.5166C54.4596 35.3311 54.4512 36.2257 54.4512 37.1925C54.4512 38.1592 54.4591 39.0617 54.5155 39.8762C54.3716 39.8441 54.2357 39.8362 54.1155 39.8362Z" fill="white"/>
<path d="M58.3035 39.836C58.1918 39.836 58.0558 39.8597 57.9599 39.876C57.8798 39.5807 57.8798 39.3169 57.8798 39.0931C57.6237 39.6844 57.1205 39.9877 56.5372 39.9877C55.7537 39.9877 55.2905 39.4843 55.2905 38.8377C55.2905 37.5277 56.7296 37.7515 57.8325 37.1923C57.8167 36.641 57.5684 36.3535 56.8813 36.3535C56.3855 36.3535 56.082 36.5215 55.8022 36.7131V36.1382C56.1779 35.9623 56.5299 35.8828 56.9851 35.8828C57.3766 35.8828 57.7602 35.9865 58 36.1303C58.4637 36.4178 58.528 36.8169 58.528 37.4403C58.528 37.6957 58.5117 37.8394 58.5117 38.0953C58.5117 38.6303 58.4795 39.2216 58.6555 39.8766C58.5517 39.8608 58.3994 39.8366 58.3035 39.8366V39.836ZM56.0256 38.7735C56.0256 39.1246 56.2732 39.46 56.7527 39.46C57.0489 39.46 57.3366 39.3084 57.5363 39.0525C57.8161 38.6928 57.8477 38.2216 57.8477 37.6066C56.8407 38.1337 56.0256 37.9662 56.0256 38.7729V38.7735Z" fill="white"/>
<path d="M62.6924 39.8362C62.5485 39.8362 62.4047 39.8599 62.2924 39.8762C62.3725 39.2455 62.3646 38.5425 62.3646 37.7917C62.3646 37.5758 62.3646 37.4563 62.3489 37.2404C62.3167 36.7691 62.0053 36.4574 61.5337 36.4574C61.0943 36.4574 60.7744 36.6812 60.4466 37.0487V37.7438C60.4466 38.9495 60.4867 39.6609 60.4946 39.8762C60.3829 39.8605 60.2306 39.8362 60.1031 39.8362C59.9993 39.8362 59.8312 39.8599 59.7031 39.8762C59.7674 39.2455 59.759 38.3266 59.759 37.1045C59.759 36.0899 59.7511 35.2195 59.7031 34.5166C59.8069 34.5324 59.9592 34.5487 60.1031 34.5487C60.2469 34.5487 60.3829 34.5329 60.4946 34.5166C60.4466 35.0916 60.4387 35.6107 60.4387 36.0662C60.4387 36.2342 60.4466 36.33 60.4466 36.4974C60.8223 36.1299 61.1258 35.8824 61.7255 35.8824C62.1334 35.8824 62.4848 36.0183 62.7167 36.2658C63.0286 36.609 63.0523 36.9924 63.0523 37.5115V38.1902C63.0523 38.8774 63.0365 39.4444 63.0845 39.8757C62.9643 39.852 62.8205 39.8357 62.6924 39.8357V39.8362Z" fill="white"/>
<path d="M28.4537 24.4247C28.4537 25.1367 28.2726 25.7601 28.184 26.4523L28.2139 26.4957C28.4475 26.3802 29.0934 24.9833 29.1763 24.6902C29.3704 24.0042 29.464 23.2612 29.464 22.5527C29.464 19.9427 28.6629 17.4253 27.9962 14.9134C27.6131 13.4698 27.2814 12.0132 27.0343 10.5437L27.0061 10.5312C26.8527 10.5312 26.0262 12.184 26.0262 12.4349C26.0262 13.1412 26.7686 15.9895 26.9898 16.8232C27.6532 19.3232 28.4537 21.8272 28.4537 24.4253" fill="white"/>
<path d="M16.7622 12.0127L16.7797 12.0167C16.8536 11.9389 17.0759 11.5403 17.0759 11.4456C17.0759 11.0668 17.0099 10.4845 16.8531 10.1367C16.778 10.166 16.5405 10.63 16.5405 10.7117V10.7275C16.6793 11.1615 16.7509 11.5589 16.7622 12.0127Z" fill="white"/>
<path d="M17.8549 12.6312C17.9915 12.7992 18.1398 13.0986 18.1398 13.3178V13.3708C18.0281 13.4666 17.8042 13.5027 17.6603 13.5027C17.0415 13.5027 17.0793 12.6363 17.081 12.2113L17.0629 12.2068C16.9839 12.302 16.7594 12.7406 16.7594 12.8443C16.7594 13.2789 16.716 14.1685 17.3489 14.1685C17.6135 14.1685 17.8104 14.0822 17.996 13.8956C18.1748 13.7158 18.4619 13.0461 18.4619 12.793C18.4619 12.4909 18.3627 12.2028 18.1714 11.9678C18.0953 12.0044 17.8521 12.5202 17.8521 12.6115L17.8538 12.6307L17.8549 12.6312Z" fill="white"/>
<path d="M16.3882 13.57C16.0024 13.57 15.7575 13.3422 15.7575 12.9522C15.7575 12.6816 15.9335 12.4527 15.9335 12.3017V12.2842C15.7784 12.2943 15.4354 13.4076 15.4354 13.5903C15.4354 13.9927 15.6729 14.2357 16.0774 14.2357C16.3595 14.2357 16.6754 14.0187 16.8705 13.8276C16.9444 13.7554 17.174 13.2881 17.174 13.19V13.1726C16.9834 13.3484 16.6517 13.57 16.3888 13.57" fill="white"/>
<path d="M8.47249 24.2766L8.51085 24.3042L8.56331 24.2541C10.0667 22.6227 11.1853 22.0382 13.2275 21.1447C14.0263 20.7952 14.9091 20.4198 15.5319 19.8138C15.7903 19.5619 16.457 18.2372 16.4853 17.8894L16.4469 17.8623L16.4283 17.877C15.6594 18.5387 14.7743 18.9074 13.8429 19.3155C12.0992 20.0799 10.5975 20.9311 9.39144 22.3888C9.13646 22.6966 8.50408 23.9057 8.47192 24.2772" fill="white"/>
<path d="M11.1679 25.1681C11.9915 25.1681 12.7694 24.9658 13.408 24.4252C13.7521 24.1337 14.5114 22.6828 14.5244 22.2358L14.4861 22.207C13.6568 22.8632 13.2202 23.0802 12.1438 23.0802C11.4618 23.0802 10.4441 22.9026 9.92063 22.4404L9.89017 22.4438C9.6459 22.658 8.47253 23.9596 8.47253 24.2769L8.47987 24.3096C9.07727 24.7905 10.4171 25.1681 11.1673 25.1681" fill="white"/>
<path d="M24.2391 23.9024V24.045C23.9774 24.2423 23.4471 24.3556 23.1221 24.3556C22.3831 24.3556 21.7243 24.045 21.2769 23.4537C20.5955 22.5524 20.165 19.5806 19.9191 18.3664C19.7261 17.4126 19.5157 16.4616 19.2664 15.5208L19.2382 15.5073C18.9747 15.7677 18.2583 17.2277 18.2583 17.5546C18.2583 17.6443 18.797 19.8579 18.8659 20.1922C19.1265 21.4599 19.5744 24.5963 20.2818 25.5332C20.732 26.1296 21.401 26.4441 22.1457 26.4441C22.6804 26.4441 23.1881 26.2367 23.5977 25.899C24.5014 25.1544 25.2494 23.0563 25.2494 21.8889C25.2494 20.4864 24.401 18.6832 23.9125 17.3585C23.605 16.5236 23.323 15.6792 23.0787 14.8241L23.0505 14.8105C22.901 14.8105 22.0706 16.58 22.0706 16.8579L22.0723 16.8782C22.3076 17.7373 22.6032 18.5913 22.9112 19.4267C23.385 20.7125 24.2397 22.5496 24.2397 23.9024" fill="white"/>
<path d="M17.4782 24.4063C14.3558 24.4063 14.547 20.953 14.5374 19.3324C14.5324 18.4666 14.5713 17.5697 14.4585 16.7084L14.4438 16.6836C14.1465 16.7665 13.1249 18.4542 13.1249 18.7338C13.1249 19.6019 13.1976 20.4762 13.2033 21.3471C13.2134 22.9902 13.0245 26.4953 16.1892 26.4953C18.2116 26.4953 19.3646 24.1819 19.9959 23.0128C20.1719 22.687 20.5967 22.05 20.6254 21.7287L20.5752 21.6999C19.4193 22.6041 19.5987 24.4074 17.4782 24.4074" fill="white"/>
<path d="M64.4304 22.3915H64.3176C63.1916 22.3915 61.4745 23.0877 60.3981 23.5076C57.8003 24.5206 55.004 25.6858 52.1958 25.6858C50.5661 25.6858 47.8583 25.0713 48.0281 22.8357L47.9999 22.7895C47.7793 22.9603 47.4905 23.7466 47.3212 24.0369C46.7312 25.0493 45.8551 25.6564 44.7071 25.6564C42.9978 25.6564 42.5488 24.5989 42.2701 23.0324C41.9034 20.9721 41.8453 18.8098 41.6592 16.7224C41.4516 14.4016 41.1887 12.0505 40.8553 9.74551L40.8446 9.7207C40.6144 9.84584 39.8923 11.4738 39.8923 11.7703C39.8923 12.4411 40.0633 13.2139 40.1468 13.8859C40.3436 15.4715 40.5445 17.0567 40.6866 18.6486C40.8773 20.7776 40.936 22.9845 41.31 25.086C41.5915 26.6672 42.0495 27.7438 43.7757 27.7438C45.5019 27.7438 46.3103 26.5251 47.0499 25.1322L47.0476 25.2235C47.0476 27.1655 49.8304 27.7731 51.265 27.7731C53.9559 27.7731 56.6326 26.7089 59.1221 25.7331C60.4071 25.2292 62.1311 24.4789 63.4996 24.4789C63.6627 24.4789 64.4468 22.701 64.4468 22.4276C64.4468 22.418 64.4344 22.3994 64.4304 22.3904" fill="white"/>
<path d="M37.5547 23.5808L37.5885 23.5825C37.8536 23.2669 38.5605 21.9174 38.5605 21.5397L38.556 21.5126C37.4633 18.4151 33.1094 13.2218 30.8693 10.6152L30.8388 10.6192C30.5742 10.9349 29.8668 12.2843 29.8668 12.662L29.8742 12.6947C32.1041 15.5194 36.4727 20.281 37.5541 23.5814" fill="white"/>
<path d="M29.9351 12.657C34.4943 10.1745 43.0458 7.5426 48.2261 7.5426C49.0333 7.5426 50.1266 7.55049 50.1266 8.65027C50.1266 9.8904 49.0599 11.4953 48.8805 12.6232L48.9188 12.652C49.5371 12.0866 51.1369 7.53076 51.1369 6.65252C51.1369 5.47045 50.0922 5.4541 49.2026 5.4541C44.4803 5.4541 37.694 7.50314 33.3626 9.38364C32.6981 9.67225 31.4429 10.1638 30.885 10.5753C30.5979 10.7867 29.974 12.2382 29.9052 12.6232L29.9351 12.6565V12.657Z" fill="white"/>
<path d="M35.3743 23.7061C34.8632 23.7061 34.3482 23.5843 33.8495 23.5843C33.6052 23.5843 32.7991 25.652 32.719 25.9851C32.6541 26.2568 32.6265 26.5308 32.6265 26.8104C32.6265 28.9067 34.4063 30.5347 36.4698 30.5347C36.5172 30.5347 36.6774 30.5319 36.7186 30.5217C36.9409 30.4671 37.6629 28.7867 37.7098 28.4986C37.7583 28.2027 37.7876 27.8977 37.7876 27.5984C37.7876 25.6582 36.6808 24.347 34.9038 23.6942C34.6477 23.6001 33.876 23.3583 33.6289 23.3583C33.4574 23.3583 32.6355 25.1311 32.6355 25.4096L32.64 25.4366C34.3538 25.8741 36.0665 26.4986 36.6069 28.3735C35.3292 28.1835 34.1355 26.9992 33.7987 25.7737C33.9978 25.7901 34.197 25.7946 34.3967 25.7946C35.4002 25.7946 36.1821 25.5584 36.885 24.8149C37.2821 24.3943 38.4251 22.3853 38.438 21.8442L38.3997 21.8154C38.1864 22.0093 38.0888 22.3205 37.9405 22.5618C37.4096 23.4259 36.3282 23.7061 35.3726 23.7061" fill="white"/>
<path d="M46.9872 31.8426L47.0138 31.8393C47.2281 31.6493 47.8628 30.3336 47.8628 30.0551L47.8594 30.0315C47.2394 29.5298 46.5534 29.116 45.9391 28.6064L45.9126 28.6098C45.6982 28.7998 45.0636 30.1155 45.0636 30.3939C45.0636 30.4255 45.283 30.5901 45.3045 30.6064C45.8539 31.0337 46.4372 31.4165 46.9872 31.8426Z" fill="white"/>
<path d="M49.2957 31.5399L49.3222 31.5365C49.5366 31.3466 50.1712 30.0309 50.1712 29.7524L50.1679 29.7287C49.5479 29.227 48.8619 28.8133 48.2476 28.3037L48.2211 28.3071C48.0067 28.4971 47.3721 29.8127 47.3721 30.0912C47.3721 30.1228 47.5915 30.2874 47.613 30.3037C48.1624 30.731 48.7457 31.1137 49.2957 31.5399Z" fill="white"/>
<path d="M18.5262 31.4131L18.5308 31.4418C22.3374 31.3341 28.8677 30.3871 31.7188 27.6002C32.3664 26.9672 32.8216 26.1701 33.2063 25.3437C33.4021 24.9238 33.8038 24.0579 33.8669 23.6261L33.8286 23.5957C33.4929 23.9446 33.3981 24.4356 33.1528 24.8403C32.926 25.2135 32.4578 25.6307 32.1204 25.9001C29.6027 27.9108 25.3899 28.6701 22.2968 29.0213C21.7902 29.0788 19.8282 29.1786 19.5197 29.2643C19.3132 29.3217 18.5262 31.1385 18.5262 31.4125" fill="white"/>
<path d="M60.573 11.5186L45.375 16.1612C45.2808 16.1899 44.9711 16.8427 44.9655 16.9537C45.5375 16.823 46.0864 16.62 46.6448 16.4498L50.0403 15.4126L60.1724 12.3179C60.2695 12.288 60.5724 11.6392 60.582 11.5253L60.573 11.5191V11.5186Z" fill="white"/>
<path d="M48.0308 19.1762C48.1674 19.3441 48.3157 19.6435 48.3157 19.8628V19.9157C48.204 20.0116 47.9801 20.0476 47.8362 20.0476C47.2174 20.0476 47.2552 19.1812 47.2569 18.7562L47.2388 18.7517C47.1598 18.847 46.9353 19.2855 46.9353 19.3892C46.9353 19.8239 46.8919 20.7134 47.5248 20.7134C47.7894 20.7134 47.9863 20.6271 48.1719 20.4405C48.3507 20.2607 48.6378 19.591 48.6378 19.3379C48.6378 19.0358 48.5386 18.7478 48.3473 18.5127C48.2712 18.5493 48.028 19.0651 48.028 19.1564L48.0297 19.1756L48.0308 19.1762Z" fill="white"/>
<path d="M46.5641 20.1149C46.1783 20.1149 45.9334 19.8872 45.9334 19.4971C45.9334 19.2265 46.1094 18.9976 46.1094 18.8466V18.8291C45.9543 18.8392 45.6113 19.9526 45.6113 20.1352C45.6113 20.5377 45.8488 20.7806 46.2533 20.7806C46.5354 20.7806 46.8513 20.5636 47.0465 20.3725C47.1204 20.3004 47.3499 19.833 47.3499 19.735V19.7175C47.1593 19.8934 46.8276 20.1149 46.5647 20.1149" fill="white"/>
<path d="M53.3573 29.1303C53.3573 29.5046 53.342 29.8789 53.3059 30.2515L53.3195 30.2746C53.4363 30.1782 53.7375 29.4674 53.764 29.2983C53.8215 28.9302 53.8187 28.5131 53.8187 28.1399C53.8187 26.0976 52.8761 24.2819 52.2522 22.4082C52.1297 22.4984 51.793 23.2413 51.793 23.3986L51.7941 23.4257C52.374 25.3411 53.3567 27.0457 53.3567 29.1303" fill="white"/>
<path d="M52.9878 22.8741C54.1578 22.8741 55.312 23.1441 56.4532 23.382C58.6792 23.8459 60.9131 24.4197 63.1972 24.4197C63.318 24.4197 63.4556 24.4287 63.5746 24.4163C63.7523 24.3977 64.5274 22.6283 64.5274 22.3651L64.5235 22.338C64.3937 22.3318 64.264 22.3318 64.1337 22.3318C61.8501 22.3318 59.6162 21.7579 57.3896 21.294C56.2484 21.0561 55.0942 20.7861 53.9242 20.7861C53.4617 20.7861 53.1559 20.8498 52.8129 21.1931C52.554 21.4524 51.8161 23.0235 51.7947 23.3961L51.8313 23.4248C52.3723 22.9598 52.0485 22.8741 52.9884 22.8741" fill="white"/>
</svg>
