<svg width="1280" height="31" viewBox="0 0 1280 31" fill="none" xmlns="http://www.w3.org/2000/svg">
<path d="M32.848 13.4739L29.9373 10.5632L27.0266 13.4739C25.4187 15.0818 25.4187 17.6913 27.0266 19.2992C28.6345 20.9071 31.244 20.9071 32.8519 19.2992C34.4598 17.6913 34.4598 15.0818 32.8519 13.4739H32.848Z" fill="#161616" fill-opacity="0.1"/>
<path d="M44.2863 12.257L52.9754 7.82446L61.6644 12.257C62.4312 12.6482 62.9124 13.4385 62.9085 14.2992L62.9007 16.7991L52.9715 21.7168L43.0423 16.7991L43.0344 14.2992C43.0344 13.4385 43.5117 12.6482 44.2824 12.257H44.2863Z" fill="#161616" fill-opacity="0.1"/>
<path d="M62.8929 19.1152L62.8733 24.6432C62.8733 25.5078 62.3765 26.2981 61.6018 26.6815L52.9754 30.9536L44.3489 26.6815C43.5743 26.2981 43.0814 25.5078 43.0775 24.6432L43.0579 19.1152L52.9754 24.029L62.8929 19.1152Z" fill="#161616" fill-opacity="0.1"/>
<path d="M16.7982 1.69423C15.6284 1.69423 15.0807 2.33975 14.4391 2.8992L11.5558 5.77077L0.0225964 0.000244141C0.0225964 0.000244141 -0.869391 8.99835 8.55515 8.75971L1.51707 15.7704H7.81184L9.60362 12.3081L10.8164 12.4646C13.7623 12.8401 16.4226 10.6689 16.6456 7.70732L16.7904 5.78642C16.853 4.95312 17.7097 4.41713 18.4844 4.7262L19.2864 5.04701C19.2864 5.04701 19.2864 1.69815 16.7943 1.69815L16.7982 1.69423Z" fill="#161616" fill-opacity="0.1"/>
<path d="M104.442 13.4739L101.531 10.5632L98.6202 13.4739C97.0123 15.0818 97.0123 17.6913 98.6202 19.2992C100.228 20.9071 102.838 20.9071 104.445 19.2992C106.053 17.6913 106.053 15.0818 104.445 13.4739H104.442Z" fill="#161616" fill-opacity="0.1"/>
<path d="M115.88 12.257L124.569 7.82446L133.258 12.257C134.025 12.6482 134.506 13.4385 134.502 14.2992L134.494 16.7991L124.565 21.7168L114.636 16.7991L114.628 14.2992C114.628 13.4385 115.105 12.6482 115.876 12.257H115.88Z" fill="#161616" fill-opacity="0.1"/>
<path d="M134.487 19.1152L134.467 24.6432C134.467 25.5078 133.97 26.2981 133.195 26.6815L124.569 30.9536L115.943 26.6815C115.168 26.2981 114.675 25.5078 114.671 24.6432L114.652 19.1152L124.569 24.029L134.487 19.1152Z" fill="#161616" fill-opacity="0.1"/>
<path d="M88.3918 1.69423C87.2221 1.69423 86.6743 2.33975 86.0327 2.8992L83.1494 5.77077L71.6162 0.000244141C71.6162 0.000244141 70.7242 8.99835 80.1488 8.75971L73.1107 15.7704H79.4055L81.1972 12.3081L82.41 12.4646C85.356 12.8401 88.0162 10.6689 88.2392 7.70732L88.384 5.78642C88.4466 4.95312 89.3034 4.41713 90.078 4.7262L90.88 5.04701C90.88 5.04701 90.88 1.69815 88.3879 1.69815L88.3918 1.69423Z" fill="#161616" fill-opacity="0.1"/>
<path d="M176.035 13.4739L173.125 10.5632L170.214 13.4739C168.606 15.0818 168.606 17.6913 170.214 19.2992C171.822 20.9071 174.431 20.9071 176.039 19.2992C177.647 17.6913 177.647 15.0818 176.039 13.4739H176.035Z" fill="#161616" fill-opacity="0.1"/>
<path d="M187.474 12.257L196.163 7.82446L204.852 12.257C205.618 12.6482 206.1 13.4385 206.096 14.2992L206.088 16.7991L196.159 21.7168L186.229 16.7991L186.222 14.2992C186.222 13.4385 186.699 12.6482 187.47 12.257H187.474Z" fill="#161616" fill-opacity="0.1"/>
<path d="M206.08 19.1152L206.061 24.6432C206.061 25.5078 205.564 26.2981 204.789 26.6815L196.163 30.9536L187.536 26.6815C186.762 26.2981 186.269 25.5078 186.265 24.6432L186.245 19.1152L196.163 24.029L206.08 19.1152Z" fill="#161616" fill-opacity="0.1"/>
<path d="M159.985 1.69423C158.816 1.69423 158.268 2.33975 157.626 2.8992L154.743 5.77077L143.21 0.000244141C143.21 0.000244141 142.318 8.99835 151.742 8.75971L144.704 15.7704H150.999L152.791 12.3081L154.004 12.4646C156.95 12.8401 159.61 10.6689 159.833 7.70732L159.978 5.78642C160.04 4.95312 160.897 4.41713 161.672 4.7262L162.474 5.04701C162.474 5.04701 162.474 1.69815 159.982 1.69815L159.985 1.69423Z" fill="#161616" fill-opacity="0.1"/>
<path d="M247.629 13.4739L244.718 10.5632L241.807 13.4739C240.2 15.0818 240.2 17.6913 241.807 19.2992C243.415 20.9071 246.025 20.9071 247.633 19.2992C249.241 17.6913 249.241 15.0818 247.633 13.4739H247.629Z" fill="#161616" fill-opacity="0.1"/>
<path d="M259.067 12.257L267.756 7.82446L276.445 12.257C277.212 12.6482 277.693 13.4385 277.689 14.2992L277.682 16.7991L267.752 21.7168L257.823 16.7991L257.815 14.2992C257.815 13.4385 258.293 12.6482 259.063 12.257H259.067Z" fill="#161616" fill-opacity="0.1"/>
<path d="M277.674 19.1152L277.654 24.6432C277.654 25.5078 277.157 26.2981 276.383 26.6815L267.756 30.9536L259.13 26.6815C258.355 26.2981 257.862 25.5078 257.858 24.6432L257.839 19.1152L267.756 24.029L277.674 19.1152Z" fill="#161616" fill-opacity="0.1"/>
<path d="M231.579 1.69423C230.409 1.69423 229.862 2.33975 229.22 2.8992L226.337 5.77077L214.803 0.000244141C214.803 0.000244141 213.911 8.99835 223.336 8.75971L216.298 15.7704H222.593L224.384 12.3081L225.597 12.4646C228.543 12.8401 231.203 10.6689 231.426 7.70732L231.571 5.78642C231.634 4.95312 232.491 4.41713 233.265 4.7262L234.067 5.04701C234.067 5.04701 234.067 1.69815 231.575 1.69815L231.579 1.69423Z" fill="#161616" fill-opacity="0.1"/>
<path d="M319.222 13.4739L316.312 10.5632L313.401 13.4739C311.793 15.0818 311.793 17.6913 313.401 19.2992C315.009 20.9071 317.618 20.9071 319.226 19.2992C320.834 17.6913 320.834 15.0818 319.226 13.4739H319.222Z" fill="#161616" fill-opacity="0.1"/>
<path d="M330.661 12.257L339.35 7.82446L348.039 12.257C348.806 12.6482 349.287 13.4385 349.283 14.2992L349.275 16.7991L339.346 21.7168L329.417 16.7991L329.409 14.2992C329.409 13.4385 329.886 12.6482 330.657 12.257H330.661Z" fill="#161616" fill-opacity="0.1"/>
<path d="M349.267 19.1152L349.248 24.6432C349.248 25.5078 348.751 26.2981 347.976 26.6815L339.35 30.9536L330.723 26.6815C329.949 26.2981 329.456 25.5078 329.452 24.6432L329.432 19.1152L339.35 24.029L349.267 19.1152Z" fill="#161616" fill-opacity="0.1"/>
<path d="M303.173 1.69423C302.003 1.69423 301.455 2.33975 300.814 2.8992L297.93 5.77077L286.397 0.000244141C286.397 0.000244141 285.505 8.99835 294.93 8.75971L287.892 15.7704H294.186L295.978 12.3081L297.191 12.4646C300.137 12.8401 302.797 10.6689 303.02 7.70732L303.165 5.78642C303.227 4.95312 304.084 4.41713 304.859 4.7262L305.661 5.04701C305.661 5.04701 305.661 1.69815 303.169 1.69815L303.173 1.69423Z" fill="#161616" fill-opacity="0.1"/>
<path d="M390.816 13.4739L387.905 10.5632L384.995 13.4739C383.387 15.0818 383.387 17.6913 384.995 19.2992C386.603 20.9071 389.212 20.9071 390.82 19.2992C392.428 17.6913 392.428 15.0818 390.82 13.4739H390.816Z" fill="#161616" fill-opacity="0.1"/>
<path d="M402.254 12.257L410.943 7.82446L419.633 12.257C420.399 12.6482 420.881 13.4385 420.877 14.2992L420.869 16.7991L410.94 21.7168L401.01 16.7991L401.003 14.2992C401.003 13.4385 401.48 12.6482 402.251 12.257H402.254Z" fill="#161616" fill-opacity="0.1"/>
<path d="M420.861 19.1152L420.841 24.6432C420.841 25.5078 420.345 26.2981 419.57 26.6815L410.943 30.9536L402.317 26.6815C401.542 26.2981 401.049 25.5078 401.046 24.6432L401.026 19.1152L410.943 24.029L420.861 19.1152Z" fill="#161616" fill-opacity="0.1"/>
<path d="M374.766 1.69423C373.597 1.69423 373.049 2.33975 372.407 2.8992L369.524 5.77077L357.991 0.000244141C357.991 0.000244141 357.099 8.99835 366.523 8.75971L359.485 15.7704H365.78L367.572 12.3081L368.785 12.4646C371.73 12.8401 374.391 10.6689 374.614 7.70732L374.758 5.78642C374.821 4.95312 375.678 4.41713 376.452 4.7262L377.254 5.04701C377.254 5.04701 377.254 1.69815 374.762 1.69815L374.766 1.69423Z" fill="#161616" fill-opacity="0.1"/>
<path d="M462.41 13.4739L459.499 10.5632L456.588 13.4739C454.98 15.0818 454.98 17.6913 456.588 19.2992C458.196 20.9071 460.806 20.9071 462.414 19.2992C464.021 17.6913 464.021 15.0818 462.414 13.4739H462.41Z" fill="#161616" fill-opacity="0.1"/>
<path d="M473.848 12.257L482.537 7.82446L491.226 12.257C491.993 12.6482 492.474 13.4385 492.47 14.2992L492.462 16.7991L482.533 21.7168L472.604 16.7991L472.596 14.2992C472.596 13.4385 473.073 12.6482 473.844 12.257H473.848Z" fill="#161616" fill-opacity="0.1"/>
<path d="M492.455 19.1152L492.435 24.6432C492.435 25.5078 491.938 26.2981 491.164 26.6815L482.537 30.9536L473.911 26.6815C473.136 26.2981 472.643 25.5078 472.639 24.6432L472.62 19.1152L482.537 24.029L492.455 19.1152Z" fill="#161616" fill-opacity="0.1"/>
<path d="M446.36 1.69423C445.19 1.69423 444.642 2.33975 444.001 2.8992L441.118 5.77077L429.584 0.000244141C429.584 0.000244141 428.692 8.99835 438.117 8.75971L431.079 15.7704H437.374L439.165 12.3081L440.378 12.4646C443.324 12.8401 445.984 10.6689 446.207 7.70732L446.352 5.78642C446.415 4.95312 447.271 4.41713 448.046 4.7262L448.848 5.04701C448.848 5.04701 448.848 1.69815 446.356 1.69815L446.36 1.69423Z" fill="#161616" fill-opacity="0.1"/>
<path d="M534.003 13.4739L531.093 10.5632L528.182 13.4739C526.574 15.0818 526.574 17.6913 528.182 19.2992C529.79 20.9071 532.399 20.9071 534.007 19.2992C535.615 17.6913 535.615 15.0818 534.007 13.4739H534.003Z" fill="#161616" fill-opacity="0.1"/>
<path d="M545.442 12.257L554.131 7.82446L562.82 12.257C563.587 12.6482 564.068 13.4385 564.064 14.2992L564.056 16.7991L554.127 21.7168L544.198 16.7991L544.19 14.2992C544.19 13.4385 544.667 12.6482 545.438 12.257H545.442Z" fill="#161616" fill-opacity="0.1"/>
<path d="M564.048 19.1152L564.029 24.6432C564.029 25.5078 563.532 26.2981 562.757 26.6815L554.131 30.9536L545.504 26.6815C544.73 26.2981 544.237 25.5078 544.233 24.6432L544.213 19.1152L554.131 24.029L564.048 19.1152Z" fill="#161616" fill-opacity="0.1"/>
<path d="M517.954 1.69423C516.784 1.69423 516.236 2.33975 515.595 2.8992L512.711 5.77077L501.178 0.000244141C501.178 0.000244141 500.286 8.99835 509.711 8.75971L502.672 15.7704H508.967L510.759 12.3081L511.972 12.4646C514.918 12.8401 517.578 10.6689 517.801 7.70732L517.946 5.78642C518.008 4.95312 518.865 4.41713 519.64 4.7262L520.442 5.04701C520.442 5.04701 520.442 1.69815 517.95 1.69815L517.954 1.69423Z" fill="#161616" fill-opacity="0.1"/>
<path d="M605.597 13.4739L602.686 10.5632L599.776 13.4739C598.168 15.0818 598.168 17.6913 599.776 19.2992C601.384 20.9071 603.993 20.9071 605.601 19.2992C607.209 17.6913 607.209 15.0818 605.601 13.4739H605.597Z" fill="#161616" fill-opacity="0.1"/>
<path d="M617.035 12.257L625.724 7.82446L634.413 12.257C635.18 12.6482 635.661 13.4385 635.657 14.2992L635.65 16.7991L625.72 21.7168L615.791 16.7991L615.783 14.2992C615.783 13.4385 616.261 12.6482 617.031 12.257H617.035Z" fill="#161616" fill-opacity="0.1"/>
<path d="M635.642 19.1152L635.622 24.6432C635.622 25.5078 635.125 26.2981 634.351 26.6815L625.724 30.9536L617.098 26.6815C616.323 26.2981 615.83 25.5078 615.826 24.6432L615.807 19.1152L625.724 24.029L635.642 19.1152Z" fill="#161616" fill-opacity="0.1"/>
<path d="M589.547 1.69423C588.377 1.69423 587.83 2.33975 587.188 2.8992L584.305 5.77077L572.772 0.000244141C572.772 0.000244141 571.88 8.99835 581.304 8.75971L574.266 15.7704H580.561L582.353 12.3081L583.565 12.4646C586.511 12.8401 589.172 10.6689 589.395 7.70732L589.539 5.78642C589.602 4.95312 590.459 4.41713 591.233 4.7262L592.035 5.04701C592.035 5.04701 592.035 1.69815 589.543 1.69815L589.547 1.69423Z" fill="#161616" fill-opacity="0.1"/>
<path d="M677.191 13.4739L674.28 10.5632L671.369 13.4739C669.761 15.0818 669.761 17.6913 671.369 19.2992C672.977 20.9071 675.587 20.9071 677.194 19.2992C678.802 17.6913 678.802 15.0818 677.194 13.4739H677.191Z" fill="#161616" fill-opacity="0.1"/>
<path d="M688.629 12.257L697.318 7.82446L706.007 12.257C706.774 12.6482 707.255 13.4385 707.251 14.2992L707.243 16.7991L697.314 21.7168L687.385 16.7991L687.377 14.2992C687.377 13.4385 687.854 12.6482 688.625 12.257H688.629Z" fill="#161616" fill-opacity="0.1"/>
<path d="M707.235 19.1152L707.216 24.6432C707.216 25.5078 706.719 26.2981 705.944 26.6815L697.318 30.9536L688.692 26.6815C687.917 26.2981 687.424 25.5078 687.42 24.6432L687.401 19.1152L697.318 24.029L707.235 19.1152Z" fill="#161616" fill-opacity="0.1"/>
<path d="M661.141 1.69423C659.971 1.69423 659.423 2.33975 658.782 2.8992L655.898 5.77077L644.365 0.000244141C644.365 0.000244141 643.473 8.99835 652.898 8.75971L645.86 15.7704H652.154L653.946 12.3081L655.159 12.4646C658.105 12.8401 660.765 10.6689 660.988 7.70732L661.133 5.78642C661.196 4.95312 662.052 4.41713 662.827 4.7262L663.629 5.04701C663.629 5.04701 663.629 1.69815 661.137 1.69815L661.141 1.69423Z" fill="#161616" fill-opacity="0.1"/>
<path d="M748.784 13.4739L745.873 10.5632L742.963 13.4739C741.355 15.0818 741.355 17.6913 742.963 19.2992C744.571 20.9071 747.18 20.9071 748.788 19.2992C750.396 17.6913 750.396 15.0818 748.788 13.4739H748.784Z" fill="#161616" fill-opacity="0.1"/>
<path d="M760.222 12.257L768.912 7.82446L777.601 12.257C778.367 12.6482 778.849 13.4385 778.845 14.2992L778.837 16.7991L768.908 21.7168L758.978 16.7991L758.971 14.2992C758.971 13.4385 759.448 12.6482 760.219 12.257H760.222Z" fill="#161616" fill-opacity="0.1"/>
<path d="M778.829 19.1152L778.81 24.6432C778.81 25.5078 778.313 26.2981 777.538 26.6815L768.912 30.9536L760.285 26.6815C759.511 26.2981 759.018 25.5078 759.014 24.6432L758.994 19.1152L768.912 24.029L778.829 19.1152Z" fill="#161616" fill-opacity="0.1"/>
<path d="M732.734 1.69423C731.565 1.69423 731.017 2.33975 730.375 2.8992L727.492 5.77077L715.959 0.000244141C715.959 0.000244141 715.067 8.99835 724.491 8.75971L717.453 15.7704H723.748L725.54 12.3081L726.753 12.4646C729.699 12.8401 732.359 10.6689 732.582 7.70732L732.727 5.78642C732.789 4.95312 733.646 4.41713 734.421 4.7262L735.223 5.04701C735.223 5.04701 735.223 1.69815 732.73 1.69815L732.734 1.69423Z" fill="#161616" fill-opacity="0.1"/>
<path d="M820.378 13.4739L817.467 10.5632L814.556 13.4739C812.948 15.0818 812.948 17.6913 814.556 19.2992C816.164 20.9071 818.774 20.9071 820.382 19.2992C821.99 17.6913 821.99 15.0818 820.382 13.4739H820.378Z" fill="#161616" fill-opacity="0.1"/>
<path d="M831.816 12.257L840.505 7.82446L849.194 12.257C849.961 12.6482 850.442 13.4385 850.438 14.2992L850.43 16.7991L840.501 21.7168L830.572 16.7991L830.564 14.2992C830.564 13.4385 831.042 12.6482 831.812 12.257H831.816Z" fill="#161616" fill-opacity="0.1"/>
<path d="M850.423 19.1152L850.403 24.6432C850.403 25.5078 849.906 26.2981 849.132 26.6815L840.505 30.9536L831.879 26.6815C831.104 26.2981 830.611 25.5078 830.607 24.6432L830.588 19.1152L840.505 24.029L850.423 19.1152Z" fill="#161616" fill-opacity="0.1"/>
<path d="M804.328 1.69423C803.158 1.69423 802.611 2.33975 801.969 2.8992L799.086 5.77077L787.552 0.000244141C787.552 0.000244141 786.66 8.99835 796.085 8.75971L789.047 15.7704H795.342L797.133 12.3081L798.346 12.4646C801.292 12.8401 803.952 10.6689 804.175 7.70732L804.32 5.78642C804.383 4.95312 805.24 4.41713 806.014 4.7262L806.816 5.04701C806.816 5.04701 806.816 1.69815 804.324 1.69815L804.328 1.69423Z" fill="#161616" fill-opacity="0.1"/>
<path d="M891.971 13.4739L889.061 10.5632L886.15 13.4739C884.542 15.0818 884.542 17.6913 886.15 19.2992C887.758 20.9071 890.367 20.9071 891.975 19.2992C893.583 17.6913 893.583 15.0818 891.975 13.4739H891.971Z" fill="#161616" fill-opacity="0.1"/>
<path d="M903.41 12.257L912.099 7.82446L920.788 12.257C921.555 12.6482 922.036 13.4385 922.032 14.2992L922.024 16.7991L912.095 21.7168L902.166 16.7991L902.158 14.2992C902.158 13.4385 902.635 12.6482 903.406 12.257H903.41Z" fill="#161616" fill-opacity="0.1"/>
<path d="M922.016 19.1152L921.997 24.6432C921.997 25.5078 921.5 26.2981 920.725 26.6815L912.099 30.9536L903.472 26.6815C902.698 26.2981 902.205 25.5078 902.201 24.6432L902.181 19.1152L912.099 24.029L922.016 19.1152Z" fill="#161616" fill-opacity="0.1"/>
<path d="M875.922 1.69423C874.752 1.69423 874.204 2.33975 873.563 2.8992L870.679 5.77077L859.146 0.000244141C859.146 0.000244141 858.254 8.99835 867.679 8.75971L860.641 15.7704H866.935L868.727 12.3081L869.94 12.4646C872.886 12.8401 875.546 10.6689 875.769 7.70732L875.914 5.78642C875.976 4.95312 876.833 4.41713 877.608 4.7262L878.41 5.04701C878.41 5.04701 878.41 1.69815 875.918 1.69815L875.922 1.69423Z" fill="#161616" fill-opacity="0.1"/>
<path d="M963.565 13.4739L960.654 10.5632L957.744 13.4739C956.136 15.0818 956.136 17.6913 957.744 19.2992C959.352 20.9071 961.961 20.9071 963.569 19.2992C965.177 17.6913 965.177 15.0818 963.569 13.4739H963.565Z" fill="#161616" fill-opacity="0.1"/>
<path d="M975.003 12.257L983.692 7.82446L992.381 12.257C993.148 12.6482 993.629 13.4385 993.626 14.2992L993.618 16.7991L983.689 21.7168L973.759 16.7991L973.751 14.2992C973.751 13.4385 974.229 12.6482 974.999 12.257H975.003Z" fill="#161616" fill-opacity="0.1"/>
<path d="M993.61 19.1152L993.59 24.6432C993.59 25.5078 993.094 26.2981 992.319 26.6815L983.692 30.9536L975.066 26.6815C974.291 26.2981 973.798 25.5078 973.795 24.6432L973.775 19.1152L983.692 24.029L993.61 19.1152Z" fill="#161616" fill-opacity="0.1"/>
<path d="M947.515 1.69423C946.345 1.69423 945.798 2.33975 945.156 2.8992L942.273 5.77077L930.74 0.000244141C930.74 0.000244141 929.848 8.99835 939.272 8.75971L932.234 15.7704H938.529L940.321 12.3081L941.533 12.4646C944.479 12.8401 947.14 10.6689 947.363 7.70732L947.507 5.78642C947.57 4.95312 948.427 4.41713 949.201 4.7262L950.003 5.04701C950.003 5.04701 950.003 1.69815 947.511 1.69815L947.515 1.69423Z" fill="#161616" fill-opacity="0.1"/>
<path d="M1035.16 13.4739L1032.25 10.5632L1029.34 13.4739C1027.73 15.0818 1027.73 17.6913 1029.34 19.2992C1030.95 20.9071 1033.55 20.9071 1035.16 19.2992C1036.77 17.6913 1036.77 15.0818 1035.16 13.4739H1035.16Z" fill="#161616" fill-opacity="0.1"/>
<path d="M1046.6 12.257L1055.29 7.82446L1063.98 12.257C1064.74 12.6482 1065.22 13.4385 1065.22 14.2992L1065.21 16.7991L1055.28 21.7168L1045.35 16.7991L1045.35 14.2992C1045.35 13.4385 1045.82 12.6482 1046.59 12.257H1046.6Z" fill="#161616" fill-opacity="0.1"/>
<path d="M1065.2 19.1152L1065.18 24.6432C1065.18 25.5078 1064.69 26.2981 1063.91 26.6815L1055.29 30.9536L1046.66 26.6815C1045.89 26.2981 1045.39 25.5078 1045.39 24.6432L1045.37 19.1152L1055.29 24.029L1065.2 19.1152Z" fill="#161616" fill-opacity="0.1"/>
<path d="M1019.11 1.69423C1017.94 1.69423 1017.39 2.33975 1016.75 2.8992L1013.87 5.77077L1002.33 0.000244141C1002.33 0.000244141 1001.44 8.99835 1010.87 8.75971L1003.83 15.7704H1010.12L1011.91 12.3081L1013.13 12.4646C1016.07 12.8401 1018.73 10.6689 1018.96 7.70732L1019.1 5.78642C1019.16 4.95312 1020.02 4.41713 1020.8 4.7262L1021.6 5.04701C1021.6 5.04701 1021.6 1.69815 1019.1 1.69815L1019.11 1.69423Z" fill="#161616" fill-opacity="0.1"/>
<path d="M1106.75 13.4739L1103.84 10.5632L1100.93 13.4739C1099.32 15.0818 1099.32 17.6913 1100.93 19.2992C1102.54 20.9071 1105.15 20.9071 1106.76 19.2992C1108.36 17.6913 1108.36 15.0818 1106.76 13.4739H1106.75Z" fill="#161616" fill-opacity="0.1"/>
<path d="M1118.19 12.257L1126.88 7.82446L1135.57 12.257C1136.34 12.6482 1136.82 13.4385 1136.81 14.2992L1136.8 16.7991L1126.88 21.7168L1116.95 16.7991L1116.94 14.2992C1116.94 13.4385 1117.42 12.6482 1118.19 12.257H1118.19Z" fill="#161616" fill-opacity="0.1"/>
<path d="M1136.8 19.1152L1136.78 24.6432C1136.78 25.5078 1136.28 26.2981 1135.51 26.6815L1126.88 30.9536L1118.25 26.6815C1117.48 26.2981 1116.99 25.5078 1116.98 24.6432L1116.96 19.1152L1126.88 24.029L1136.8 19.1152Z" fill="#161616" fill-opacity="0.1"/>
<path d="M1090.7 1.69423C1089.53 1.69423 1088.99 2.33975 1088.34 2.8992L1085.46 5.77077L1073.93 0.000244141C1073.93 0.000244141 1073.03 8.99835 1082.46 8.75971L1075.42 15.7704H1081.72L1083.51 12.3081L1084.72 12.4646C1087.67 12.8401 1090.33 10.6689 1090.55 7.70732L1090.69 5.78642C1090.76 4.95312 1091.61 4.41713 1092.39 4.7262L1093.19 5.04701C1093.19 5.04701 1093.19 1.69815 1090.7 1.69815L1090.7 1.69423Z" fill="#161616" fill-opacity="0.1"/>
<path d="M1178.35 13.4739L1175.44 10.5632L1172.52 13.4739C1170.92 15.0818 1170.92 17.6913 1172.52 19.2992C1174.13 20.9071 1176.74 20.9071 1178.35 19.2992C1179.96 17.6913 1179.96 15.0818 1178.35 13.4739H1178.35Z" fill="#161616" fill-opacity="0.1"/>
<path d="M1189.78 12.257L1198.47 7.82446L1207.16 12.257C1207.93 12.6482 1208.41 13.4385 1208.41 14.2992L1208.4 16.7991L1198.47 21.7168L1188.54 16.7991L1188.53 14.2992C1188.53 13.4385 1189.01 12.6482 1189.78 12.257H1189.78Z" fill="#161616" fill-opacity="0.1"/>
<path d="M1208.39 19.1152L1208.37 24.6432C1208.37 25.5078 1207.87 26.2981 1207.1 26.6815L1198.47 30.9536L1189.85 26.6815C1189.07 26.2981 1188.58 25.5078 1188.58 24.6432L1188.56 19.1152L1198.47 24.029L1208.39 19.1152Z" fill="#161616" fill-opacity="0.1"/>
<path d="M1162.3 1.69423C1161.13 1.69423 1160.58 2.33975 1159.94 2.8992L1157.05 5.77077L1145.52 0.000244141C1145.52 0.000244141 1144.63 8.99835 1154.05 8.75971L1147.02 15.7704H1153.31L1155.1 12.3081L1156.31 12.4646C1159.26 12.8401 1161.92 10.6689 1162.14 7.70732L1162.29 5.78642C1162.35 4.95312 1163.21 4.41713 1163.98 4.7262L1164.78 5.04701C1164.78 5.04701 1164.78 1.69815 1162.29 1.69815L1162.3 1.69423Z" fill="#161616" fill-opacity="0.1"/>
<path d="M1249.94 13.4739L1247.03 10.5632L1244.12 13.4739C1242.51 15.0818 1242.51 17.6913 1244.12 19.2992C1245.73 20.9071 1248.34 20.9071 1249.94 19.2992C1251.55 17.6913 1251.55 15.0818 1249.94 13.4739H1249.94Z" fill="#161616" fill-opacity="0.1"/>
<path d="M1261.38 12.257L1270.07 7.82446L1278.76 12.257C1279.52 12.6482 1280 13.4385 1280 14.2992L1279.99 16.7991L1270.06 21.7168L1260.13 16.7991L1260.13 14.2992C1260.13 13.4385 1260.6 12.6482 1261.37 12.257H1261.38Z" fill="#161616" fill-opacity="0.1"/>
<path d="M1279.98 19.1152L1279.96 24.6432C1279.96 25.5078 1279.47 26.2981 1278.69 26.6815L1270.07 30.9536L1261.44 26.6815C1260.67 26.2981 1260.17 25.5078 1260.17 24.6432L1260.15 19.1152L1270.07 24.029L1279.98 19.1152Z" fill="#161616" fill-opacity="0.1"/>
<path d="M1233.89 1.69423C1232.72 1.69423 1232.17 2.33975 1231.53 2.8992L1228.65 5.77077L1217.11 0.000244141C1217.11 0.000244141 1216.22 8.99835 1225.65 8.75971L1218.61 15.7704H1224.9L1226.7 12.3081L1227.91 12.4646C1230.85 12.8401 1233.51 10.6689 1233.74 7.70732L1233.88 5.78642C1233.94 4.95312 1234.8 4.41713 1235.58 4.7262L1236.38 5.04701C1236.38 5.04701 1236.38 1.69815 1233.89 1.69815L1233.89 1.69423Z" fill="#161616" fill-opacity="0.1"/>
</svg>
