<svg width="60" height="40" viewBox="0 0 60 40" fill="none" xmlns="http://www.w3.org/2000/svg">
<g clip-path="url(#clip0_151_7400)">
<path fill-rule="evenodd" clip-rule="evenodd" d="M51.5663 11.7891C46.8455 11.7891 43.4134 15.3076 43.4134 19.6039V19.6471C43.4134 23.9433 46.8012 27.4194 51.5227 27.4194C56.2442 27.4194 59.6757 23.9001 59.6757 19.6039V19.5607C59.6757 15.2651 56.2872 11.7891 51.5663 11.7891ZM56.1569 19.6471C56.1569 22.2381 54.2767 24.3538 51.5663 24.3538C48.856 24.3538 46.9328 22.1949 46.9328 19.6039V19.5607C46.9328 16.9704 48.8123 14.8546 51.5227 14.8546C54.2331 14.8546 56.1569 17.0136 56.1569 19.6039V19.6471ZM5.6271 24.289H11.4605V27.1601H0.138723V24.5266L5.23135 20.4032C7.13334 18.8485 7.87625 18.0282 7.87625 16.7759C7.87625 15.5027 7.02348 14.8114 5.82145 14.8114C4.64125 14.8114 3.83214 15.4588 2.6963 16.8407L0.335894 14.9627C1.84354 12.9334 3.30823 11.8323 6.04045 11.8323C9.20926 11.8323 11.3077 13.6672 11.3077 16.4951V16.5383C11.3077 19.0645 9.99653 20.3161 7.28614 22.3886L3.9427 24.9385L3.29274 25.434L5.6271 24.289ZM47.7673 9.6197H48.4384V8.95697H47.7673V9.6197ZM49.1095 9.6197H49.7805V8.95697H49.1095V9.6197ZM7.01433 8.25731H7.72555V2.03349H7.01433V8.25731ZM13.5428 6.56807V6.5855C13.5428 7.65172 12.6428 8.34581 11.3915 8.34581C10.3923 8.34581 9.57402 8.01688 8.81773 7.34997L9.25855 6.83498C9.91555 7.42105 10.5458 7.71444 11.419 7.71444C12.2647 7.71444 12.8231 7.27053 12.8231 6.65658V6.63916C12.8231 6.06075 12.5083 5.73252 11.1845 5.45655C9.73528 5.14505 9.06983 4.68302 9.06983 3.66V3.64328C9.06983 2.66486 9.94301 1.94499 11.1401 1.94499C12.0577 1.94499 12.7154 2.20283 13.3541 2.70946L12.94 3.25163C12.3548 2.78054 11.7697 2.57636 11.1218 2.57636C10.3028 2.57636 9.78035 3.02027 9.78035 3.58056V3.59868C9.78035 4.18475 10.1043 4.51438 11.4908 4.80706C12.8949 5.11021 13.5428 5.61684 13.5428 6.56807ZM19.8762 1.92687C17.9587 1.92687 16.6538 3.42934 16.6538 5.14575V5.16317C16.6538 6.87888 17.9411 8.36393 19.8586 8.36393C21.7753 8.36393 23.0809 6.86146 23.0809 5.14575V5.12693C23.0809 3.41191 21.7936 1.92687 19.8762 1.92687ZM22.3429 5.16317C22.3429 6.57713 21.3162 7.71444 19.8762 7.71444C18.4361 7.71444 17.3918 6.55901 17.3918 5.14575V5.12693C17.3918 3.71436 18.4185 2.57636 19.8586 2.57636C21.2986 2.57636 22.3429 3.73178 22.3429 5.14575V5.16317ZM14.7159 8.25731H15.4265V2.03349H14.7159V8.25731ZM2.70968 8.30191L0 2.03349H0.792202L1.1795 2.96034L3.0336 7.39457L3.21106 7.81897L3.14205 7.13533L5.28346 2.03349H6.0489L3.33992 8.30191H2.70968ZM28.8798 2.03349H29.5727V8.25731H29.0058L24.5428 2.65929L24.9378 3.56662V8.25731H24.2442V2.03349H24.9103L29.172 7.3883L28.8798 6.62382V2.03349ZM35.154 1.37773H35.8258V0.714997H35.154V1.37773ZM51.936 6.01336C52.191 6.19315 52.4853 6.32556 52.8212 6.41128C53.1564 6.49699 53.5113 6.5395 53.8859 6.5395H54.0634L54.2887 6.0719V6.72975C54.2887 7.07749 54.188 7.32628 53.9873 7.47611C53.7852 7.62454 53.5028 7.69911 53.1395 7.69911C52.9325 7.69911 52.7466 7.68029 52.5818 7.64127C52.417 7.60294 52.2283 7.53604 52.0156 7.44266L51.8058 8.0803C52.0635 8.17438 52.2909 8.24476 52.4895 8.29145C52.6881 8.33814 52.8881 8.36184 53.0895 8.36184C53.7437 8.36184 54.219 8.20852 54.5154 7.9026C54.8112 7.59527 54.9598 7.18272 54.9598 6.66424V2.04046H53.8859C53.4726 2.04046 53.0951 2.099 52.7543 2.21468C52.4128 2.33106 52.1205 2.48925 51.8769 2.69065C51.6347 2.89274 51.4452 3.13316 51.3107 3.41191C51.1769 3.69067 51.11 3.99311 51.11 4.31925C51.11 4.71159 51.184 5.04679 51.3319 5.32554C51.4804 5.60429 51.6818 5.83426 51.936 6.01336ZM51.936 3.66418C52.0396 3.46557 52.1769 3.29623 52.3473 3.15477C52.5177 3.014 52.712 2.90528 52.9303 2.82793C53.1416 2.75267 53.3606 2.71504 53.588 2.71295V2.71155H54.6725L54.2887 2.90041V5.87677H53.6092C53.3578 5.87677 53.1212 5.84193 52.9008 5.77294C52.6797 5.70464 52.4853 5.60359 52.3177 5.47049C52.1501 5.33808 52.0184 5.17501 51.9234 4.98198C51.8283 4.78825 51.7811 4.56803 51.7811 4.31925C51.7811 4.08161 51.8325 3.86349 51.936 3.66418ZM36.4969 1.37773H37.168V0.714997H36.4969V1.37773ZM56.659 8.36184C56.4801 8.36184 56.2984 8.33745 56.1139 8.28727L56.29 7.64963C56.3681 7.67123 56.4301 7.68517 56.4745 7.69074C56.5195 7.69632 56.5724 7.69911 56.6336 7.69911C56.7625 7.69911 56.8674 7.68099 56.9484 7.64545C57.0294 7.60921 57.0942 7.55137 57.1413 7.47123C57.1885 7.39109 57.2223 7.28586 57.242 7.15694C57.261 7.02732 57.2716 6.86773 57.2716 6.68027V2.04046H57.9427V6.68027C57.9427 6.94021 57.9216 7.17296 57.8793 7.38063C57.8371 7.58761 57.7659 7.76392 57.6659 7.91096C57.5653 8.0573 57.4322 8.1688 57.2674 8.24616C57.1019 8.32351 56.8991 8.36184 56.659 8.36184ZM54.9598 1.37773H53.4895V0.836253C53.4895 0.545655 53.5592 0.33032 53.6951 0.19861C53.831 0.0669003 54.0303 0 54.2873 0H54.7605V0.461333H54.2993C54.195 0.461333 54.1225 0.481543 54.0922 0.519174C54.057 0.563774 54.0387 0.628584 54.0387 0.712906V0.866916H54.9598V1.37773ZM35.3371 8.26985H36.7321V7.77367C36.7455 7.79667 36.7589 7.82106 36.7737 7.84266C36.8743 7.98901 37.0067 8.10121 37.1722 8.17856C37.337 8.25591 37.5398 8.29424 37.7799 8.29424H50.015V2.04046H49.344V7.63151H48.6468H37.8053C37.6764 7.63151 37.5715 7.61339 37.4905 7.57785C37.4095 7.54161 37.3454 7.48377 37.2976 7.40433C37.2504 7.32349 37.2173 7.21826 37.1969 7.08864C37.1771 6.95902 37.168 6.80013 37.168 6.61267V2.04046H35.3547C33.4992 2.04046 32.2359 3.49484 32.2359 5.1555V5.17223C32.2359 6.83289 33.4816 8.26985 35.3371 8.26985ZM32.9507 5.13808C32.9507 3.77011 33.9436 2.66904 35.3371 2.66904H36.9081L36.4969 2.87114V6.61267C36.4969 6.87191 36.5173 7.10537 36.5596 7.31234C36.5842 7.4336 36.6194 7.54231 36.6638 7.64196H35.3547C33.9612 7.64196 32.9507 6.52347 32.9507 5.1555V5.13808ZM42.5458 22.4318V22.475C42.5458 25.3252 40.4474 27.4194 37.0377 27.4194C34.2837 27.4194 32.3824 26.3399 31.0712 24.8068L33.388 22.6262C34.4365 23.7928 35.5301 24.4395 37.0814 24.4395C38.3489 24.4395 39.2453 23.7273 39.2453 22.6053V22.5621C39.2453 21.3314 38.1306 20.6408 36.2504 20.6408H34.8519L34.3273 18.5244L39.2355 13.6477L37.2687 14.8979H31.9669V12.0483H42.305V14.5522L38.4362 18.2011C40.5128 18.5467 42.5458 19.6255 42.5458 22.4318Z" fill="white"/>
<path fill-rule="evenodd" clip-rule="evenodd" d="M20.5776 10.6455L21.4053 11.4355L20.6107 12.2584L19.7837 11.4684L20.5776 10.6455Z" fill="white"/>
<path fill-rule="evenodd" clip-rule="evenodd" d="M22.3784 11.4684L23.2058 12.2584L24 11.4355L23.1727 10.6455L22.3784 11.4684Z" fill="white"/>
<path fill-rule="evenodd" clip-rule="evenodd" d="M21.0811 12.5938L21.7432 13.2259L22.3784 12.5676L21.7162 11.9355L21.0811 12.5938Z" fill="white"/>
<path fill-rule="evenodd" clip-rule="evenodd" d="M23.3513 12.9161L24.0131 13.5481L24.6486 12.8899L23.9868 12.2578L23.3513 12.9161Z" fill="white"/>
<path fill-rule="evenodd" clip-rule="evenodd" d="M20.1082 13.5616L20.7699 14.1936L21.4055 13.5354L20.7437 12.9033L20.1082 13.5616Z" fill="white"/>
<path fill-rule="evenodd" clip-rule="evenodd" d="M22.3784 13.5616L23.0402 14.1936L23.6757 13.5354L23.0139 12.9033L22.3784 13.5616Z" fill="white"/>
<path fill-rule="evenodd" clip-rule="evenodd" d="M21.4055 14.3652L21.9023 14.8388L22.3785 14.3455L21.8817 13.8711L21.4055 14.3652Z" fill="white"/>
<path fill-rule="evenodd" clip-rule="evenodd" d="M23.0271 14.3652L23.5239 14.8388L24.0001 14.3455L23.5041 13.8711L23.0271 14.3652Z" fill="white"/>
<path fill-rule="evenodd" clip-rule="evenodd" d="M26.5945 11.217L26.8452 12.5807L28.2161 12.3307L27.9654 10.9678L26.5945 11.217Z" fill="white"/>
<path fill-rule="evenodd" clip-rule="evenodd" d="M24.9729 11.8128L25.1733 12.9036L26.2702 12.7034L26.0698 11.6133L24.9729 11.8128Z" fill="white"/>
<path fill-rule="evenodd" clip-rule="evenodd" d="M26.9189 13.4252L27.12 14.5159L28.2162 14.3163L28.0159 13.2256L26.9189 13.4252Z" fill="white"/>
<path fill-rule="evenodd" clip-rule="evenodd" d="M25.6216 13.3751L25.7715 14.1933L26.5946 14.0431L26.4432 13.2256L25.6216 13.3751Z" fill="white"/>
<path fill-rule="evenodd" clip-rule="evenodd" d="M26.9189 14.9883L27.0696 15.8066L27.8919 15.6564L27.7413 14.8389L26.9189 14.9883Z" fill="white"/>
<path fill-rule="evenodd" clip-rule="evenodd" d="M24.3242 13.6983L24.4742 14.5166L25.2972 14.3671L25.1465 13.5488L24.3242 13.6983Z" fill="white"/>
<path fill-rule="evenodd" clip-rule="evenodd" d="M25.6216 14.9883L25.7722 15.8066L26.5946 15.6564L26.4439 14.8389L25.6216 14.9883Z" fill="white"/>
<path fill-rule="evenodd" clip-rule="evenodd" d="M24.6577 14.9454L24.755 15.4744L25.2882 15.3777L25.1909 14.8486L24.6577 14.9454Z" fill="white"/>
<path fill-rule="evenodd" clip-rule="evenodd" d="M25.9551 16.2354L26.0524 16.7645L26.5856 16.6671L26.4876 16.1387L25.9551 16.2354Z" fill="white"/>
<path fill-rule="evenodd" clip-rule="evenodd" d="M30.6852 15.8066L30.1621 16.8996L31.2613 17.4195L31.7837 16.3266L30.6852 15.8066Z" fill="white"/>
<path fill-rule="evenodd" clip-rule="evenodd" d="M28.9587 15.1611L28.5405 16.036L29.4197 16.4515L29.8378 15.5772L28.9587 15.1611Z" fill="white"/>
<path fill-rule="evenodd" clip-rule="evenodd" d="M29.6074 17.4189L29.1892 18.2938L30.0683 18.7093L30.4865 17.8351L29.6074 17.4189Z" fill="white"/>
<path fill-rule="evenodd" clip-rule="evenodd" d="M28.2053 16.7744L27.8918 17.4298L28.5507 17.7422L28.8648 17.0862L28.2053 16.7744Z" fill="white"/>
<path fill-rule="evenodd" clip-rule="evenodd" d="M28.854 19.0322L28.5405 19.6876L29.1994 20L29.5135 19.344L28.854 19.0322Z" fill="white"/>
<path fill-rule="evenodd" clip-rule="evenodd" d="M27.2324 16.4512L26.9189 17.1065L27.5778 17.4189L27.8919 16.7629L27.2324 16.4512Z" fill="white"/>
<path fill-rule="evenodd" clip-rule="evenodd" d="M27.8811 18.0645L27.5676 18.7198L28.2265 19.0322L28.5406 18.3762L27.8811 18.0645Z" fill="white"/>
<path fill-rule="evenodd" clip-rule="evenodd" d="M26.8037 17.4189L26.5945 17.8562L27.0339 18.0641L27.2431 17.6268L26.8037 17.4189Z" fill="white"/>
<path fill-rule="evenodd" clip-rule="evenodd" d="M27.1276 19.0322L26.9189 19.4695L27.3584 19.6774L27.5676 19.2401L27.1276 19.0322Z" fill="white"/>
<path fill-rule="evenodd" clip-rule="evenodd" d="M31.0942 21.29L29.8379 21.976L30.5275 23.2255L31.7838 22.5403L31.0942 21.29Z" fill="white"/>
<path fill-rule="evenodd" clip-rule="evenodd" d="M30.0269 20L29.1892 20.4572L29.6488 21.2903L30.4865 20.8332L30.0269 20Z" fill="white"/>
<path fill-rule="evenodd" clip-rule="evenodd" d="M29.3784 22.2578L28.5405 22.7148L28.9999 23.5481L29.8378 23.0912L29.3784 22.2578Z" fill="white"/>
<path fill-rule="evenodd" clip-rule="evenodd" d="M28.8446 20.9678L28.2163 21.3106L28.561 21.9355L29.1893 21.5927L28.8446 20.9678Z" fill="white"/>
<path fill-rule="evenodd" clip-rule="evenodd" d="M27.8717 22.9033L27.2432 23.2462L27.5882 23.8711L28.2161 23.5282L27.8717 22.9033Z" fill="white"/>
<path fill-rule="evenodd" clip-rule="evenodd" d="M27.8715 20L27.2432 20.3428L27.5878 20.9677L28.2161 20.6249L27.8715 20Z" fill="white"/>
<path fill-rule="evenodd" clip-rule="evenodd" d="M27.5473 21.6133L26.9189 21.9561L27.2636 22.581L27.8919 22.2382L27.5473 21.6133Z" fill="white"/>
<path fill-rule="evenodd" clip-rule="evenodd" d="M27.0136 20.6455L26.5945 20.8741L26.8241 21.2907L27.2431 21.0621L27.0136 20.6455Z" fill="white"/>
<path fill-rule="evenodd" clip-rule="evenodd" d="M26.3651 22.2578L25.946 22.4864L26.1756 22.903L26.5947 22.6744L26.3651 22.2578Z" fill="white"/>
<path fill-rule="evenodd" clip-rule="evenodd" d="M28.2161 26.3065L26.7727 26.1289L26.5945 27.5642L28.0379 27.7418L28.2161 26.3065Z" fill="white"/>
<path fill-rule="evenodd" clip-rule="evenodd" d="M28.2162 24.6588L27.0623 24.5166L26.9189 25.6647L28.0736 25.8069L28.2162 24.6588Z" fill="white"/>
<path fill-rule="evenodd" clip-rule="evenodd" d="M26.2702 25.9487L25.1163 25.8066L24.9729 26.9541L26.1276 27.097L26.2702 25.9487Z" fill="white"/>
<path fill-rule="evenodd" clip-rule="evenodd" d="M26.5946 24.6235L25.7289 24.5166L25.6216 25.3782L26.4873 25.4843L26.5946 24.6235Z" fill="white"/>
<path fill-rule="evenodd" clip-rule="evenodd" d="M24.6488 25.5903L23.7837 25.4834L23.6758 26.345L24.5415 26.4511L24.6488 25.5903Z" fill="white"/>
<path fill-rule="evenodd" clip-rule="evenodd" d="M26.5946 23.3325L25.7288 23.2256L25.6216 24.0865L26.4873 24.1933L26.5946 23.3325Z" fill="white"/>
<path fill-rule="evenodd" clip-rule="evenodd" d="M25.2972 24.3002L24.4308 24.1934L24.3242 25.0542L25.1899 25.1611L25.2972 24.3002Z" fill="white"/>
<path fill-rule="evenodd" clip-rule="evenodd" d="M25.275 23.3145L24.7373 23.248L24.6711 23.7822L25.2082 23.848L25.275 23.3145Z" fill="white"/>
<path fill-rule="evenodd" clip-rule="evenodd" d="M23.9777 24.2823L23.4399 24.2158L23.3738 24.75L23.9109 24.8158L23.9777 24.2823Z" fill="white"/>
<path fill-rule="evenodd" clip-rule="evenodd" d="M23.027 28.6742L22.0175 27.7422L21.0811 28.7464L22.0906 29.6777L23.027 28.6742Z" fill="white"/>
<path fill-rule="evenodd" clip-rule="evenodd" d="M23.027 10.2869L22.0182 9.35449L21.0811 10.3583L22.0906 11.29L23.027 10.2869Z" fill="white"/>
<path fill-rule="evenodd" clip-rule="evenodd" d="M24 27.228L23.1588 26.4512L22.3784 27.288L23.2197 28.0641L24 27.228Z" fill="white"/>
<path fill-rule="evenodd" clip-rule="evenodd" d="M21.7298 27.228L20.8885 26.4512L20.1082 27.288L20.9487 28.0641L21.7298 27.228Z" fill="white"/>
<path fill-rule="evenodd" clip-rule="evenodd" d="M22.7028 26.4283L22.0302 25.8066L21.4055 26.4761L22.0781 27.097L22.7028 26.4283Z" fill="white"/>
<path fill-rule="evenodd" clip-rule="evenodd" d="M20.4326 26.1043L19.7595 25.4834L19.1353 26.1521L19.8083 26.7737L20.4326 26.1043Z" fill="white"/>
<path fill-rule="evenodd" clip-rule="evenodd" d="M23.3513 25.4601L22.6786 24.8389L22.054 25.5079L22.7266 26.1292L23.3513 25.4601Z" fill="white"/>
<path fill-rule="evenodd" clip-rule="evenodd" d="M21.7297 25.4601L21.0571 24.8389L20.4324 25.5079L21.105 26.1292L21.7297 25.4601Z" fill="white"/>
<path fill-rule="evenodd" clip-rule="evenodd" d="M22.3785 24.6592L21.8739 24.1934L21.4055 24.6945L21.9101 25.1611L22.3785 24.6592Z" fill="white"/>
<path fill-rule="evenodd" clip-rule="evenodd" d="M20.7567 24.3369L20.2525 23.8711L19.7837 24.373L20.2879 24.8388L20.7567 24.3369Z" fill="white"/>
<path fill-rule="evenodd" clip-rule="evenodd" d="M17.1892 27.7953L16.9189 26.4512L15.5676 26.72L15.838 28.0641L17.1892 27.7953Z" fill="white"/>
<path fill-rule="evenodd" clip-rule="evenodd" d="M19.1352 27.2045L18.919 26.1289L17.8379 26.3443L18.0541 27.4192L19.1352 27.2045Z" fill="white"/>
<path fill-rule="evenodd" clip-rule="evenodd" d="M16.8649 25.5922L16.6488 24.5166L15.5676 24.732L15.7844 25.8069L16.8649 25.5922Z" fill="white"/>
<path fill-rule="evenodd" clip-rule="evenodd" d="M18.4864 25.3233L18.3248 24.5166L17.5134 24.6777L17.6757 25.4843L18.4864 25.3233Z" fill="white"/>
<path fill-rule="evenodd" clip-rule="evenodd" d="M19.7838 25L19.6215 24.1934L18.8108 24.3544L18.9731 25.1611L19.7838 25Z" fill="white"/>
<path fill-rule="evenodd" clip-rule="evenodd" d="M18.1622 24.0317L17.9999 23.2256L17.1892 23.3872L17.3508 24.1933L18.1622 24.0317Z" fill="white"/>
<path fill-rule="evenodd" clip-rule="evenodd" d="M19.1296 24.0818L19.0232 23.5547L18.4919 23.6599L18.5983 24.1876L19.1296 24.0818Z" fill="white"/>
<path fill-rule="evenodd" clip-rule="evenodd" d="M18.1567 22.7917L18.0503 22.2646L17.519 22.3698L17.6254 22.8976L18.1567 22.7917Z" fill="white"/>
<path fill-rule="evenodd" clip-rule="evenodd" d="M13.4384 23.2262L13.9458 22.1184L12.8317 21.6133L12.3242 22.7211L13.4384 23.2262Z" fill="white"/>
<path fill-rule="evenodd" clip-rule="evenodd" d="M15.1617 23.8714L15.5676 22.9849L14.6762 22.5811L14.2703 23.4675L15.1617 23.8714Z" fill="white"/>
<path fill-rule="evenodd" clip-rule="evenodd" d="M14.1888 21.6126L14.5947 20.7266L13.7039 20.3223L13.2974 21.2089L14.1888 21.6126Z" fill="white"/>
<path fill-rule="evenodd" clip-rule="evenodd" d="M15.5876 22.2578L15.8919 21.5927L15.2239 21.29L14.9189 21.9545L15.5876 22.2578Z" fill="white"/>
<path fill-rule="evenodd" clip-rule="evenodd" d="M16.5605 24.1933L16.8648 23.5282L16.1968 23.2256L15.8918 23.8907L16.5605 24.1933Z" fill="white"/>
<path fill-rule="evenodd" clip-rule="evenodd" d="M14.9389 20L15.2432 19.3349L14.5752 19.0322L14.2703 19.6973L14.9389 20Z" fill="white"/>
<path fill-rule="evenodd" clip-rule="evenodd" d="M16.5605 22.581L16.8648 21.9165L16.1968 21.6133L15.8918 22.2784L16.5605 22.581Z" fill="white"/>
<path fill-rule="evenodd" clip-rule="evenodd" d="M15.9112 20.9677L16.2161 20.3027L15.5475 20L15.2432 20.6651L15.9112 20.9677Z" fill="white"/>
<path fill-rule="evenodd" clip-rule="evenodd" d="M16.9863 21.6129L17.1892 21.1694L16.7435 20.9678L16.5405 21.4107L16.9863 21.6129Z" fill="white"/>
<path fill-rule="evenodd" clip-rule="evenodd" d="M16.662 19.9997L16.865 19.5561L16.4192 19.3545L16.2163 19.798L16.662 19.9997Z" fill="white"/>
<path fill-rule="evenodd" clip-rule="evenodd" d="M12.7069 17.7421L13.9459 17.0399L13.239 15.8066L12 16.5096L12.7069 17.7421Z" fill="white"/>
<path fill-rule="evenodd" clip-rule="evenodd" d="M13.5615 19.0325L14.5945 18.5645L14.0051 17.7422L12.9729 18.2108L13.5615 19.0325Z" fill="white"/>
<path fill-rule="evenodd" clip-rule="evenodd" d="M14.2102 16.7737L15.2432 16.3057L14.6538 15.4834L13.6216 15.952L14.2102 16.7737Z" fill="white"/>
<path fill-rule="evenodd" clip-rule="evenodd" d="M15.0656 18.0644L15.8918 17.7131L15.4206 17.0967L14.5945 17.448L15.0656 18.0644Z" fill="white"/>
<path fill-rule="evenodd" clip-rule="evenodd" d="M16.0388 16.1289L16.8649 15.7773L16.3938 15.1611L15.5676 15.5121L16.0388 16.1289Z" fill="white"/>
<path fill-rule="evenodd" clip-rule="evenodd" d="M15.714 19.0322L16.5405 18.6809L16.0688 18.0645L15.2432 18.4164L15.714 19.0322Z" fill="white"/>
<path fill-rule="evenodd" clip-rule="evenodd" d="M16.363 17.4189L17.1891 17.0676L16.718 16.4512L15.8918 16.8031L16.363 17.4189Z" fill="white"/>
<path fill-rule="evenodd" clip-rule="evenodd" d="M16.7761 18.3873L17.1892 18.153L16.9536 17.7422L16.5405 17.9765L16.7761 18.3873Z" fill="white"/>
<path fill-rule="evenodd" clip-rule="evenodd" d="M17.4248 16.7741L17.8379 16.5397L17.6023 16.1289L17.1892 16.3633L17.4248 16.7741Z" fill="white"/>
<path fill-rule="evenodd" clip-rule="evenodd" d="M15.2432 12.7469L16.7082 12.9029L16.8648 11.4461L15.3997 11.29L15.2432 12.7469Z" fill="white"/>
<path fill-rule="evenodd" clip-rule="evenodd" d="M15.2432 14.3911L16.416 14.5159L16.5405 13.3504L15.3684 13.2256L15.2432 14.3911Z" fill="white"/>
<path fill-rule="evenodd" clip-rule="evenodd" d="M17.1892 13.1004L18.362 13.2259L18.4865 12.0603L17.3145 11.9355L17.1892 13.1004Z" fill="white"/>
<path fill-rule="evenodd" clip-rule="evenodd" d="M17.1892 14.4231L18.0684 14.5166L18.1622 13.6423L17.283 13.5488L17.1892 14.4231Z" fill="white"/>
<path fill-rule="evenodd" clip-rule="evenodd" d="M19.1353 13.4554L20.0144 13.5488L20.1082 12.6752L19.2291 12.5811L19.1353 13.4554Z" fill="white"/>
<path fill-rule="evenodd" clip-rule="evenodd" d="M17.1892 15.7131L18.0676 15.8066L18.1622 14.9324L17.283 14.8389L17.1892 15.7131Z" fill="white"/>
<path fill-rule="evenodd" clip-rule="evenodd" d="M18.4866 14.4231L19.365 14.5166L19.4595 13.6423L18.5804 13.5488L18.4866 14.4231Z" fill="white"/>
<path fill-rule="evenodd" clip-rule="evenodd" d="M18.5127 15.4001L19.0511 15.4575L19.1088 14.9227L18.5704 14.8652L18.5127 15.4001Z" fill="white"/>
<path fill-rule="evenodd" clip-rule="evenodd" d="M19.8101 14.7555L20.3491 14.8123L20.4062 14.2781L19.8678 14.2207L19.8101 14.7555Z" fill="white"/>
<path fill-rule="evenodd" clip-rule="evenodd" d="M25.9399 20.4209C25.8424 20.3654 25.662 20.275 25.4147 20.1975C25.0574 20.0852 24.5607 20.0016 23.9708 20.0934C23.7723 20.1249 23.5633 20.1763 23.3453 20.2523C23.3251 20.2599 23.3042 20.266 23.2833 20.2743C23.1725 20.3147 23.0625 20.364 22.9517 20.4188C22.8577 20.4661 22.7637 20.5175 22.6696 20.573C22.4565 20.6983 22.2454 20.8429 22.04 20.9977C21.808 19.6118 21.9209 18.3259 21.9752 17.6949C21.9759 17.6908 21.9794 17.6894 21.9828 17.6915C22.4823 17.9998 22.3423 18.8623 22.2378 19.1089C22.2357 19.1144 22.2427 19.1171 22.2461 19.113C22.8682 18.3909 22.5645 17.5942 22.437 17.3921C22.4335 17.3873 22.4405 17.3825 22.4447 17.3859C22.5345 17.4578 22.6076 17.5339 22.6696 17.6113C22.8626 17.8531 22.9329 18.1142 22.9517 18.3444C22.9622 18.4656 22.9587 18.5787 22.9517 18.6753C22.9503 18.7013 22.9483 18.726 22.9462 18.7492C22.9455 18.7527 22.949 18.7534 22.9517 18.7527C22.9531 18.752 22.9545 18.7527 22.9552 18.7513C23.1231 18.4279 23.2039 17.9374 22.9517 17.4613C22.8835 17.3332 22.7908 17.205 22.6696 17.0817C22.6348 17.0461 22.5972 17.0105 22.5575 16.9762C22.5533 16.9735 22.5568 16.9666 22.561 16.968C22.5993 16.9769 22.6348 16.9872 22.6696 16.9995C22.7762 17.0358 22.8695 17.0858 22.9517 17.1454C23.1405 17.2818 23.2687 17.4702 23.3453 17.6668C23.4087 17.8285 23.4379 17.9956 23.4372 18.1429C23.4372 18.1491 23.4449 18.1498 23.4463 18.1443C23.5633 17.7216 23.493 17.403 23.3453 17.1694C23.2408 17.0036 23.0959 16.881 22.9517 16.7954C22.8535 16.7378 22.756 16.6967 22.6696 16.672C22.6195 16.657 22.5735 16.6467 22.5345 16.6419C22.5289 16.6419 22.5303 16.6337 22.5359 16.6323C22.5826 16.6282 22.6272 16.6261 22.6696 16.6255C22.7748 16.6234 22.8675 16.6323 22.9517 16.6481C23.1189 16.6789 23.2478 16.7364 23.3453 16.8015C23.5034 16.9063 23.5828 17.029 23.61 17.079C23.6121 17.0838 23.6197 17.081 23.619 17.0756C23.5967 16.8522 23.4916 16.6789 23.3453 16.5528C23.2324 16.4562 23.0952 16.3884 22.9517 16.3494C22.8584 16.324 22.7623 16.311 22.6696 16.3096C22.5429 16.3083 22.421 16.3288 22.3172 16.3713C22.313 16.3733 22.3088 16.3685 22.3116 16.3644C22.4029 16.2356 22.5324 16.1562 22.6696 16.1151C22.7644 16.087 22.8619 16.0774 22.9517 16.0822C23.0388 16.087 23.1189 16.1055 23.183 16.1356C23.1879 16.1377 23.192 16.1322 23.1886 16.1281C23.1182 16.0486 23.0374 15.9856 22.9517 15.939C22.8619 15.8903 22.7665 15.8595 22.6696 15.8486C22.4175 15.8205 22.1612 15.926 21.9905 16.1801C21.9884 16.1829 21.9835 16.1829 21.9815 16.1801C21.9494 16.1226 21.9181 16.0589 21.8881 15.9917C21.8199 15.8369 21.7634 15.6608 21.7342 15.4875C21.7328 15.482 21.7258 15.482 21.7258 15.4875C21.6959 15.6615 21.6388 15.8383 21.5705 15.9945C21.5412 16.0609 21.5099 16.124 21.4772 16.1801C21.4758 16.1829 21.4716 16.1829 21.4695 16.1801C21.1707 15.7362 20.6114 15.7451 20.2708 16.1281C20.2673 16.1322 20.2714 16.1377 20.2763 16.1356C20.5034 16.0294 20.9332 16.0609 21.1477 16.3644C21.1505 16.3685 21.1463 16.3733 21.1414 16.3713C20.8099 16.2343 20.2965 16.324 20.0235 16.644C19.9253 16.7584 19.8577 16.9022 19.8403 17.0756C19.8403 17.081 19.8473 17.0838 19.85 17.079C19.8709 17.0393 19.9239 16.955 20.0235 16.87C20.183 16.7316 20.463 16.5905 20.9234 16.6323C20.929 16.6337 20.9304 16.6419 20.9248 16.6419C20.688 16.6707 20.2025 16.8783 20.0235 17.3517C19.9434 17.5613 19.9239 17.8223 20.013 18.1443C20.0144 18.1498 20.0221 18.1491 20.0221 18.1429C20.0221 18.1361 20.0228 18.1286 20.0235 18.1217C20.0284 17.6915 20.2784 17.1146 20.8976 16.968C20.9025 16.9666 20.906 16.9735 20.9025 16.9762C20.2088 17.5757 20.2777 18.3149 20.5041 18.7513C20.5062 18.7561 20.5138 18.754 20.5131 18.7492C20.4839 18.419 20.4588 17.8305 21.0147 17.3859C21.0188 17.3825 21.0251 17.3873 21.0223 17.3921C20.8949 17.5942 20.5912 18.3909 21.2125 19.113C21.2167 19.1171 21.2236 19.1144 21.2222 19.1089C21.1177 18.8623 20.9777 17.9998 21.4765 17.6915C21.4792 17.6894 21.4834 17.6908 21.4841 17.6949C21.5385 18.3259 21.652 19.6118 21.4193 20.9977C21.0181 20.6956 20.5953 20.4298 20.176 20.2743C20.1245 20.2551 20.0736 20.2373 20.0235 20.2215C19.5909 20.0818 19.1946 20.0427 18.8491 20.0578C18.294 20.0811 17.8705 20.2441 17.6371 20.3585C17.5905 20.3818 17.5508 20.4031 17.5194 20.4209C17.5069 20.4277 17.5159 20.4455 17.5292 20.4414C17.5661 20.4305 17.6016 20.4209 17.6371 20.4106C18.0634 20.2928 18.4674 20.2606 18.8491 20.2935C19.2663 20.3291 19.6571 20.4421 20.0235 20.6045C20.5361 20.8319 21.0014 21.156 21.4207 21.4992C20.8287 22.0069 20.3272 22.5008 20.0235 22.6742C20.0075 22.6824 19.9928 22.6906 19.9782 22.6981C19.9058 22.6002 19.779 22.544 19.6411 22.5734C19.5213 22.5995 19.4231 22.694 19.3959 22.8119C19.3715 22.9167 19.3994 23.0297 19.4593 23.0893C19.6216 23.2476 19.8082 23.2585 20.0235 23.1695C20.433 23.0003 20.9436 22.4666 21.5705 21.9027C21.6227 21.8555 21.6757 21.8082 21.73 21.7616C21.7836 21.8082 21.8359 21.8548 21.8881 21.9021C22.1716 22.1576 22.4321 22.4063 22.6696 22.6187C22.7679 22.7057 22.8619 22.7872 22.9517 22.8598C23.0917 22.9722 23.2234 23.064 23.3453 23.1277C23.5856 23.2524 23.7925 23.2675 23.9708 23.1147C23.9805 23.1065 23.9903 23.0982 23.9993 23.0893C24.0404 23.0489 24.0878 22.9167 24.0634 22.8119C24.0495 22.7509 24.0161 22.6961 23.9708 22.6543C23.9283 22.6146 23.876 22.5858 23.8182 22.5734C23.6796 22.544 23.5536 22.6002 23.4804 22.6981C23.44 22.6783 23.394 22.6502 23.3453 22.6173C23.2331 22.5413 23.1008 22.4337 22.9517 22.3049C22.8633 22.2288 22.7692 22.1453 22.6696 22.0562C22.476 21.8836 22.2643 21.6924 22.0386 21.4992C22.2385 21.3348 22.4488 21.1765 22.6696 21.0299C22.7623 20.9683 22.8556 20.9094 22.9517 20.8532C23.0799 20.7785 23.2115 20.7086 23.3453 20.6456C23.5459 20.551 23.7549 20.4716 23.9708 20.4106C24.418 20.2852 24.8986 20.2414 25.4147 20.3222C25.5826 20.3489 25.7539 20.3873 25.9295 20.4414C25.9434 20.4455 25.9524 20.4277 25.9399 20.4209Z" fill="white"/>
<path fill-rule="evenodd" clip-rule="evenodd" d="M41.1617 31.3633H41.5545V30.9678H41.1617V31.3633ZM37.1022 34.4239H37.4846V30.9678H37.1022V34.4239ZM4.08607 31.8092H3.703V34.0389H2.18195V31.8092H1.57858C1.33934 31.8092 1.12325 31.8424 0.928205 31.9082C0.733864 31.974 0.568289 32.0653 0.430777 32.1821C0.293967 32.2995 0.187325 32.4382 0.112255 32.5989C0.0378859 32.7595 0 32.9329 0 33.119C0 33.3468 0.0434987 33.5429 0.129794 33.7063C0.215388 33.8705 0.330449 34.0049 0.474276 34.1111C0.6174 34.2165 0.784379 34.2958 0.975913 34.3467C1.16745 34.3984 1.3681 34.4239 1.57858 34.4239H4.08607V31.8092ZM1.79888 34.0389H1.42142C1.2776 34.0389 1.14289 34.0184 1.01661 33.9766C0.891021 33.9349 0.780871 33.874 0.686858 33.7955C0.592845 33.7169 0.519177 33.6207 0.464453 33.5068C0.410431 33.3928 0.383069 33.2633 0.383069 33.119C0.383069 32.981 0.412536 32.855 0.471469 32.7411C0.531105 32.6272 0.608981 32.5295 0.705801 32.4467C0.803322 32.3654 0.914173 32.3031 1.03835 32.2592C1.16254 32.216 1.29023 32.1948 1.42142 32.1948H1.79888V34.0389ZM3.09682 35.2766H3.49042V34.881H3.09682V35.2766ZM1.78625 31.3633H2.17984V30.9678H1.78625V31.3633ZM24.743 31.3633H25.1366V30.9678H24.743V31.3633ZM3.76684 35.2766H4.15973V34.881H3.76684V35.2766ZM25.4137 31.3633H25.8066V30.9678H25.4137V31.3633ZM40.4916 31.3633H40.8845V30.9678H40.4916V31.3633ZM1.11693 31.3633H1.50982V30.9678H1.11693V31.3633ZM27.0821 35.2766H27.475V34.881H27.0821V35.2766ZM29.5398 31.8092H29.1567V34.0389H27.7122V31.8092H27.3298V34.0389H25.8087V31.8092H25.2061C24.9668 31.8092 24.7493 31.8424 24.555 31.9082C24.3606 31.974 24.1951 32.0653 24.0576 32.1821C23.9207 32.2995 23.8148 32.4382 23.7397 32.5989C23.6647 32.7595 23.6275 32.9329 23.6275 33.119C23.6275 33.3468 23.6703 33.5429 23.7566 33.7063C23.8429 33.8705 23.9572 34.0049 24.1011 34.1111C24.2442 34.2165 24.4119 34.2958 24.6034 34.3467C24.7942 34.3984 24.9956 34.4239 25.2061 34.4239H29.5398V31.8092ZM25.4264 34.0389H25.0475C24.9044 34.0389 24.7697 34.0184 24.6434 33.9766C24.5178 33.9349 24.4077 33.874 24.3136 33.7955C24.2196 33.7169 24.1453 33.6207 24.0912 33.5068C24.0372 33.3928 24.0099 33.2633 24.0099 33.119C24.0099 32.981 24.0393 32.855 24.0983 32.7411C24.1572 32.6272 24.2351 32.5295 24.3326 32.4467C24.4301 32.3654 24.541 32.3031 24.6651 32.2592C24.7893 32.216 24.917 32.1948 25.0475 32.1948H25.4264V34.0389ZM27.7521 35.2766H28.1457V34.881H27.7521V35.2766ZM6.55427 32.1467C6.45183 32.0342 6.33747 31.95 6.21189 31.8934C6.0863 31.8375 5.93195 31.8092 5.75024 31.8092H5.4682V32.1948H5.80286C5.89547 32.1948 5.98317 32.2146 6.06596 32.255C6.14875 32.2946 6.2175 32.347 6.27152 32.4113C6.32625 32.4786 6.36343 32.5522 6.38378 32.6328C6.40483 32.7128 6.41535 32.809 6.41535 32.9216V34.0389H4.62138V34.4239H6.79772V32.9074C6.79772 32.756 6.77807 32.6151 6.73808 32.4835C6.69809 32.3519 6.63705 32.2394 6.55427 32.1467ZM35.605 34.0389H33.9788L34.6481 32.4255C34.5463 32.3356 34.4376 32.2514 34.3232 32.1729C34.2082 32.0936 34.0903 32.025 33.9689 31.9655C33.8476 31.9061 33.7248 31.8601 33.6006 31.8261C33.4764 31.7922 33.3536 31.7752 33.2323 31.7752C33.1081 31.7752 32.9832 31.7922 32.859 31.8261C32.7341 31.8601 32.6114 31.9054 32.4886 31.9634C32.3658 32.0214 32.2479 32.0901 32.135 32.1708C32.0213 32.2507 31.9154 32.3356 31.8165 32.4255L32.4907 34.0389H31.0658V31.8092H30.6827V34.5059C30.6827 34.6149 30.6771 34.7076 30.6665 34.7826C30.6546 34.8584 30.6357 34.9192 30.609 34.9659C30.5817 35.0119 30.5445 35.0459 30.4982 35.0671C30.4526 35.0876 30.3929 35.0982 30.3193 35.0982C30.2842 35.0982 30.254 35.0961 30.2281 35.0933C30.2028 35.0897 30.1677 35.082 30.1235 35.0692L30.0232 35.44C30.1284 35.469 30.2316 35.4839 30.334 35.4839C30.4708 35.4839 30.5859 35.4613 30.6806 35.416C30.7746 35.3707 30.8504 35.3063 30.9079 35.2207C30.9654 35.1357 31.0061 35.0331 31.03 34.9128C31.0538 34.7918 31.0658 34.6574 31.0658 34.5059V34.4239H35.9881V30.9678H35.605V34.0389ZM32.8927 34.0389L32.2949 32.5607C32.4416 32.4354 32.5917 32.3434 32.7468 32.2861C32.9011 32.2281 33.0632 32.1991 33.2323 32.1991C33.4049 32.1991 33.5753 32.2337 33.7437 32.3031C33.9135 32.3717 34.0566 32.4581 34.1745 32.5607L33.5768 34.0389H32.8927ZM29.1518 35.2723H29.5454V34.8768H29.1518V35.2723ZM57.3474 34.4239H57.7297V30.9678H57.3474V34.4239ZM55.8495 34.0389H54.5347C54.6147 33.862 54.6539 33.6731 54.6539 33.4707C54.6539 33.2718 54.6182 33.0864 54.5466 32.9145C54.4743 32.7425 54.3768 32.5939 54.2519 32.4694C54.1278 32.3434 53.9804 32.2451 53.8099 32.1729C53.6395 32.1007 53.4549 32.0646 53.2571 32.0646C53.0656 32.0646 52.8873 32.1014 52.7218 32.175C52.5555 32.2493 52.411 32.3491 52.2889 32.4765C52.1661 32.6031 52.0693 32.7517 51.9991 32.9216C51.929 33.0921 51.8939 33.2747 51.8939 33.4707C51.8939 33.5733 51.9044 33.6716 51.9255 33.7665C51.9458 33.8613 51.9732 33.9519 52.009 34.0389H50.8226C50.9025 33.862 50.9418 33.6731 50.9418 33.4707C50.9418 33.2718 50.9061 33.0864 50.8345 32.9145C50.7629 32.7425 50.6647 32.5939 50.5398 32.4694C50.4156 32.3434 50.2683 32.2451 50.0978 32.1729C49.9273 32.1007 49.7428 32.0646 49.545 32.0646C49.3534 32.0646 49.1759 32.1014 49.0097 32.175C48.8434 32.2493 48.6995 32.3491 48.5768 32.4765C48.454 32.6031 48.3572 32.7517 48.287 32.9216C48.2169 33.0921 48.1818 33.2747 48.1818 33.4707C48.1818 33.5733 48.1923 33.6716 48.2133 33.7665C48.2337 33.8613 48.2618 33.9519 48.2968 34.0389H47.0817V30.9678H46.6993V34.0389H45.4799V33.4495C45.4799 33.3016 45.4603 33.1607 45.4217 33.027C45.3838 32.894 45.3228 32.7814 45.24 32.688C45.1418 32.5762 45.0295 32.492 44.9053 32.4375C44.7812 32.383 44.6233 32.3562 44.4318 32.3562H42.7381L43.4587 30.9678H43.0426L42.3081 32.3512C42.3207 32.434 42.3403 32.5062 42.3677 32.5677C42.3951 32.6286 42.4322 32.6866 42.4799 32.7411H44.4318C44.5531 32.7411 44.6577 32.7595 44.7454 32.7963C44.8331 32.8331 44.9039 32.884 44.958 32.9477C45.012 33.0121 45.0492 33.0857 45.0681 33.1692C45.0871 33.2527 45.0969 33.3461 45.0969 33.4495V34.0389H41.5566V31.8092H40.954C40.7147 31.8092 40.4979 31.8424 40.3036 31.9082C40.1093 31.974 39.943 32.0653 39.8062 32.1821C39.6687 32.2995 39.5627 32.4382 39.4877 32.5989C39.4133 32.7595 39.3754 32.9329 39.3754 33.119C39.3754 33.3468 39.4182 33.5429 39.5045 33.7063C39.5908 33.8705 39.7059 34.0049 39.8497 34.1111C39.9928 34.2165 40.1605 34.2958 40.3513 34.3467C40.5429 34.3984 40.7442 34.4239 40.954 34.4239H48.5452C48.6694 34.559 48.8174 34.6659 48.9879 34.7444C49.1584 34.823 49.3443 34.8626 49.545 34.8626C49.7491 34.8626 49.94 34.8237 50.1168 34.7465C50.2936 34.6694 50.4458 34.5619 50.5735 34.4239H52.2573C52.3815 34.559 52.5295 34.6659 52.7 34.7444C52.8705 34.823 53.0564 34.8626 53.2571 34.8626C53.4612 34.8626 53.6514 34.8237 53.8289 34.7465C54.0057 34.6694 54.1579 34.5619 54.2856 34.4239H56.2325V30.9678H55.8495V34.0389ZM41.1743 34.0389H40.7961C40.653 34.0389 40.5183 34.0184 40.392 33.9766C40.2657 33.9349 40.1563 33.874 40.0623 33.7955C39.9682 33.7169 39.8939 33.6207 39.8399 33.5068C39.7851 33.3928 39.7585 33.2633 39.7585 33.119C39.7585 32.981 39.7872 32.855 39.8469 32.7411C39.9058 32.6272 39.9837 32.5295 40.0812 32.4467C40.1787 32.3654 40.2896 32.3031 40.4138 32.2592C40.5379 32.216 40.6656 32.1948 40.7961 32.1948H41.1743V34.0389ZM50.4802 33.8677C50.4276 33.9915 50.356 34.0984 50.2648 34.1882C50.1743 34.2781 50.0676 34.3481 49.9449 34.3977C49.8214 34.4472 49.6888 34.472 49.545 34.472C49.4053 34.472 49.2749 34.4458 49.1556 34.3927C49.0356 34.3397 48.9318 34.2675 48.8441 34.1762C48.7564 34.0842 48.6883 33.9781 48.6385 33.8556C48.5894 33.7339 48.5641 33.6037 48.5641 33.4657C48.5641 33.3277 48.5894 33.1968 48.6385 33.073C48.6883 32.9499 48.7557 32.8423 48.842 32.751C48.9283 32.659 49.0307 32.5861 49.15 32.5316C49.2699 32.4772 49.4018 32.4496 49.545 32.4496C49.6916 32.4496 49.8263 32.4757 49.9498 32.5267C50.0726 32.5784 50.1792 32.6491 50.2697 32.7383C50.3609 32.8289 50.4318 32.935 50.483 33.0588C50.5342 33.1827 50.5595 33.3178 50.5595 33.4657C50.5595 33.6101 50.5335 33.7438 50.4802 33.8677ZM54.1923 33.8677C54.1397 33.9915 54.0681 34.0984 53.9769 34.1882C53.8864 34.2781 53.7798 34.3481 53.6563 34.3977C53.5342 34.4472 53.4009 34.472 53.2571 34.472C53.1168 34.472 52.987 34.4458 52.8677 34.3927C52.7477 34.3397 52.6439 34.2675 52.5562 34.1762C52.4685 34.0842 52.4004 33.9781 52.3506 33.8556C52.3015 33.7339 52.2763 33.6037 52.2763 33.4657C52.2763 33.3277 52.3015 33.1968 52.3506 33.073C52.4004 32.9499 52.4678 32.8423 52.5541 32.751C52.6404 32.659 52.7435 32.5861 52.8628 32.5316C52.9821 32.4772 53.114 32.4496 53.2571 32.4496C53.4037 32.4496 53.5384 32.4757 53.6612 32.5267C53.784 32.5784 53.8913 32.6491 53.9818 32.7383C54.073 32.8289 54.1439 32.935 54.1944 33.0588C54.2463 33.1827 54.2716 33.3178 54.2716 33.4657C54.2716 33.6101 54.2449 33.7438 54.1923 33.8677ZM19.8571 34.0389H19.2306C19.0068 34.0389 18.8314 34.0071 18.7037 33.9427C18.5767 33.8783 18.4757 33.782 18.4027 33.654C18.4252 33.5542 18.4364 33.4339 18.4364 33.2924V32.0497H18.0533V33.3546C18.0533 33.5768 17.9944 33.7537 17.8765 33.8875C17.7587 34.0205 17.5798 34.087 17.3405 34.087C17.229 34.087 17.1272 34.0693 17.0346 34.034C16.942 33.9986 16.862 33.9505 16.7954 33.8896C16.7287 33.8287 16.6754 33.7573 16.6375 33.6752C16.5989 33.5938 16.5786 33.5061 16.5751 33.4127V32.0497H16.1927V33.3836C16.1927 33.5025 16.1752 33.603 16.1401 33.6851C16.105 33.7665 16.0566 33.8344 15.997 33.8875C15.9359 33.9398 15.8672 33.9788 15.7907 34.0028C15.7142 34.0269 15.6329 34.0389 15.5466 34.0389H14.8057V32.0497H14.4226V34.0389H12.414L13.0833 32.4255C12.9815 32.3356 12.8728 32.2514 12.7577 32.1729C12.6434 32.0936 12.5255 32.025 12.4041 31.9655C12.2835 31.9061 12.16 31.8601 12.0358 31.8261C11.9116 31.7922 11.7888 31.7752 11.6675 31.7752C11.5433 31.7752 11.4191 31.7922 11.2942 31.8261C11.17 31.8601 11.0466 31.9054 10.9238 31.9634C10.801 32.0214 10.6831 32.0901 10.5695 32.1708C10.4565 32.2507 10.3506 32.3356 10.2516 32.4255L10.9259 34.0389H9.60128V31.8092H8.98879C8.75235 31.8092 8.53766 31.8431 8.34262 31.9103C8.14828 31.9776 7.982 32.0703 7.84309 32.187C7.70417 32.3045 7.59683 32.4439 7.52036 32.6059C7.44388 32.7687 7.40529 32.9442 7.40529 33.1331C7.40529 33.3617 7.44739 33.5563 7.53228 33.7184C7.61647 33.8804 7.73153 34.0141 7.87676 34.1182C8.02129 34.2229 8.19038 34.3 8.38121 34.3489C8.57274 34.3991 8.7755 34.4239 8.98879 34.4239H9.21821V34.535C9.21821 34.7366 9.16068 34.881 9.04632 34.968C8.93126 35.0551 8.76989 35.0982 8.56292 35.0982C8.44505 35.0982 8.33911 35.0869 8.2451 35.065C8.15038 35.0416 8.04304 35.0034 7.92237 34.9489L7.8024 35.3197C7.94903 35.3742 8.07882 35.4153 8.19248 35.4422C8.30544 35.4698 8.4198 35.4839 8.53415 35.4839C8.9074 35.4839 9.17822 35.3947 9.348 35.2164C9.51638 35.0381 9.60128 34.7982 9.60128 34.496V34.4239H15.5466C15.7318 34.4239 15.8967 34.3842 16.0426 34.3036C16.1871 34.2236 16.3043 34.116 16.3934 33.9809C16.486 34.1351 16.6123 34.2554 16.7715 34.3425C16.9315 34.4288 17.1209 34.472 17.3405 34.472C17.5699 34.472 17.7657 34.4324 17.9271 34.3517C18.0877 34.2717 18.2112 34.1479 18.2975 33.9809C18.3291 34.0354 18.3684 34.0892 18.4147 34.1422C18.461 34.1953 18.5206 34.2427 18.5936 34.2845C18.6672 34.3262 18.7556 34.3602 18.8595 34.3857C18.938 34.4055 19.0328 34.4147 19.1345 34.4196V34.4239H20.2395V30.9678H19.8571V34.0389ZM9.21821 34.0389H8.83093C8.6871 34.0389 8.5524 34.0184 8.42681 33.9788C8.30052 33.9384 8.19038 33.8797 8.09426 33.8033C7.99884 33.7261 7.92307 33.6313 7.86975 33.5188C7.81502 33.4063 7.78836 33.2775 7.78836 33.1331C7.78836 32.9959 7.81783 32.8685 7.87676 32.7531C7.935 32.6378 8.01357 32.5387 8.1111 32.4566C8.20792 32.3753 8.31877 32.3116 8.44295 32.267C8.56783 32.2217 8.69692 32.1991 8.83093 32.1991H9.21821V34.0389ZM11.3279 34.0389L10.7301 32.5607C10.8768 32.4354 11.0276 32.3434 11.182 32.2861C11.337 32.2281 11.4984 32.1991 11.6675 32.1991C11.8394 32.1991 12.0098 32.2337 12.1796 32.3031C12.348 32.3717 12.4918 32.4581 12.6097 32.5607L12.0119 34.0389H11.3279ZM21.3543 34.4239H21.7367V30.9678H21.3543V34.4239Z" fill="white"/>
<path fill-rule="evenodd" clip-rule="evenodd" d="M0.324219 36.7744H0.774983V38.0727L1.99435 36.7744H2.54711L1.48107 37.8842L2.59449 39.3551H2.04897L1.17442 38.1942L0.774983 38.607V39.3551H0.324219V36.7744Z" fill="white"/>
<path fill-rule="evenodd" clip-rule="evenodd" d="M3.34546 39.3551H3.78978V36.7744H3.34546V39.3551Z" fill="white"/>
<path fill-rule="evenodd" clip-rule="evenodd" d="M4.54053 36.7744H4.96449L6.36009 38.5586V36.7744H6.8108V39.3551H6.42763L4.99057 37.5191V39.3551H4.54053V36.7744Z" fill="white"/>
<path fill-rule="evenodd" clip-rule="evenodd" d="M7.45947 38.234V38.226C7.45947 37.4399 8.05368 36.7744 8.88913 36.7744C9.37233 36.7744 9.66908 36.9108 9.95444 37.1548L9.64559 37.528C9.43139 37.3439 9.22217 37.2277 8.86921 37.2277C8.35826 37.2277 7.97042 37.6803 7.97042 38.2181V38.226C7.97042 38.8035 8.34687 39.2279 8.91262 39.2279C9.1745 39.2279 9.41218 39.1442 9.58226 39.0157V38.4902H8.87277V38.0614H10.0541V39.2402C9.78009 39.477 9.38798 39.6776 8.89696 39.6776C8.02949 39.6776 7.45947 39.0518 7.45947 38.234Z" fill="white"/>
<path fill-rule="evenodd" clip-rule="evenodd" d="M10.7026 36.7744H11.7727C12.6742 36.7744 13.2972 37.3313 13.2972 38.0574V38.0647C13.2972 38.7915 12.6742 39.3551 11.7727 39.3551H10.7026V36.7744ZM11.7727 38.9422C12.3752 38.9422 12.7684 38.5771 12.7684 38.0727V38.0647C12.7684 37.5596 12.3752 37.1873 11.7727 37.1873H11.2071V38.9422H11.7727Z" fill="white"/>
<path fill-rule="evenodd" clip-rule="evenodd" d="M13.6216 38.234V38.226C13.6216 37.4363 14.2277 36.7744 15.0846 36.7744C15.9422 36.7744 16.5405 37.4277 16.5405 38.2181V38.226C16.5405 39.0157 15.9344 39.6776 15.0767 39.6776C14.2198 39.6776 13.6216 39.0237 13.6216 38.234ZM16.0261 38.234V38.226C16.0261 37.6803 15.6313 37.2277 15.0767 37.2277C14.5229 37.2277 14.136 37.6724 14.136 38.2181V38.226C14.136 38.771 14.5308 39.2243 15.0846 39.2243C15.6392 39.2243 16.0261 38.779 16.0261 38.234Z" fill="white"/>
<path fill-rule="evenodd" clip-rule="evenodd" d="M17.1892 36.7744H17.6832L18.4868 37.995L19.2898 36.7744H19.7838V39.3551H19.3196V37.5045L18.4868 38.7212H18.4719L17.6459 37.5118V39.3551H17.1892V36.7744Z" fill="white"/>
<path fill-rule="evenodd" clip-rule="evenodd" d="M21.4055 38.234V38.226C21.4055 37.4363 22.0117 36.7744 22.8686 36.7744C23.7262 36.7744 24.3244 37.4277 24.3244 38.2181V38.226C24.3244 39.0157 23.7183 39.6776 22.8607 39.6776C22.0038 39.6776 21.4055 39.0237 21.4055 38.234ZM23.81 38.234V38.226C23.81 37.6803 23.4152 37.2277 22.8607 37.2277C22.3068 37.2277 21.9199 37.6724 21.9199 38.2181V38.226C21.9199 38.771 22.3147 39.2243 22.8686 39.2243C23.4231 39.2243 23.81 38.779 23.81 38.234Z" fill="white"/>
<path fill-rule="evenodd" clip-rule="evenodd" d="M24.9729 36.7744H26.9188V37.1879H25.4325V37.8922H26.7504V38.3043H25.4325V39.3551H24.9729V36.7744Z" fill="white"/>
<path fill-rule="evenodd" clip-rule="evenodd" d="M28.5405 39.2261L28.8507 38.8711C29.1307 39.1048 29.4114 39.2384 29.7765 39.2384C30.0942 39.2384 30.2959 39.0969 30.2959 38.8827V38.8754C30.2959 38.6736 30.1785 38.5647 29.6335 38.4435C29.0095 38.2983 28.6572 38.1211 28.6572 37.6006V37.5926C28.6572 37.1084 29.0765 36.7744 29.6591 36.7744C30.0867 36.7744 30.4254 36.8993 30.7227 37.1287L30.4465 37.504C30.1823 37.3146 29.9188 37.2136 29.6508 37.2136C29.349 37.2136 29.1728 37.3632 29.1728 37.5483V37.5563C29.1728 37.7741 29.3076 37.8707 29.8684 37.9999C30.4879 38.1451 30.8108 38.3592 30.8108 38.8268V38.8348C30.8108 39.3626 30.3795 39.6776 29.7637 39.6776C29.3151 39.6776 28.8921 39.5281 28.5405 39.2261Z" fill="white"/>
<path fill-rule="evenodd" clip-rule="evenodd" d="M32.0422 36.7744H32.4976L33.7297 39.3551H33.2096L32.9258 38.7363H31.6018L31.3144 39.3551H30.8108L32.0422 36.7744ZM32.7455 38.3376L32.262 37.3122L31.7821 38.3376H32.7455Z" fill="white"/>
<path fill-rule="evenodd" clip-rule="evenodd" d="M34.054 38.4201V36.7744H34.5204V38.4002C34.5204 38.9309 34.7744 39.2161 35.1905 39.2161C35.6038 39.2161 35.8578 38.9471 35.8578 38.4201V36.7744H36.3242V38.3958C36.3242 39.2491 35.8768 39.6776 35.1836 39.6776C34.4938 39.6776 34.054 39.2491 34.054 38.4201Z" fill="white"/>
<path fill-rule="evenodd" clip-rule="evenodd" d="M36.9729 36.7744H38.043C38.9444 36.7744 39.5675 37.3313 39.5675 38.0574V38.0647C39.5675 38.7915 38.9444 39.3551 38.043 39.3551H36.9729V36.7744ZM38.043 38.9422C38.6454 38.9422 39.0387 38.5771 39.0387 38.0727V38.0647C39.0387 37.5596 38.6454 37.1873 38.043 37.1873H37.4774V38.9422H38.043Z" fill="white"/>
<path fill-rule="evenodd" clip-rule="evenodd" d="M40.3184 39.3551H40.7627V36.7744H40.3184V39.3551Z" fill="white"/>
<path fill-rule="evenodd" clip-rule="evenodd" d="M43.3935 36.7744H43.8489L45.081 39.3551H44.5609L44.2771 38.7363H42.9538L42.6657 39.3551H42.1621L43.3935 36.7744ZM44.0975 38.3376L43.6133 37.3122L43.1334 38.3376H44.0975Z" fill="white"/>
<path fill-rule="evenodd" clip-rule="evenodd" d="M45.7297 36.7744H46.9219C47.2584 36.7744 47.5221 36.8707 47.6944 37.0326C47.8352 37.1727 47.9162 37.3645 47.9162 37.5895V37.5968C47.9162 38.0203 47.6518 38.2751 47.2776 38.3787L48 39.3551H47.4458L46.7886 38.4557H46.7804H46.2001V39.3551H45.7297V36.7744ZM46.8875 38.0541C47.224 38.0541 47.4383 37.8842 47.4383 37.6227V37.6154C47.4383 37.3386 47.2316 37.1873 46.8841 37.1873H46.2001V38.0541H46.8875Z" fill="white"/>
<path fill-rule="evenodd" clip-rule="evenodd" d="M49.5556 36.7744H50.0118L51.2431 39.3551H50.723L50.4392 38.7363H49.1159L48.8278 39.3551H48.3242L49.5556 36.7744ZM50.2596 38.3376L49.7754 37.3122L49.2955 38.3376H50.2596Z" fill="white"/>
<path fill-rule="evenodd" clip-rule="evenodd" d="M51.5676 36.7744H52.7906C53.1019 36.7744 53.3468 36.8561 53.5028 37.0034C53.6231 37.1176 53.6861 37.2576 53.6861 37.4309V37.4382C53.6861 37.7481 53.4986 37.9141 53.2964 38.0136C53.6161 38.1165 53.8379 38.2897 53.8379 38.6402V38.6475C53.8379 39.1088 53.4363 39.3551 52.829 39.3551H51.5676V36.7744ZM52.6926 37.8623C53.0005 37.8623 53.2068 37.7481 53.2068 37.5118V37.5045C53.2068 37.3014 53.0354 37.1766 52.7283 37.1766H52.0392V37.8623H52.6926ZM52.8332 38.9535C53.16 38.9535 53.3587 38.832 53.3587 38.5997V38.5924C53.3587 38.3747 53.1761 38.2453 52.7983 38.2453H52.0392V38.9535H52.8332Z" fill="white"/>
<path fill-rule="evenodd" clip-rule="evenodd" d="M54.5886 39.3551H55.0329V36.7744H54.5886V39.3551Z" fill="white"/>
<path fill-rule="evenodd" clip-rule="evenodd" d="M56.6911 36.7744H57.1467L58.3784 39.3551H57.8589L57.575 38.7363H56.2506L55.9632 39.3551H55.4595L56.6911 36.7744ZM57.3946 38.3376L56.911 37.3122L56.431 38.3376H57.3946Z" fill="white"/>
</g>
<defs>
<clipPath id="clip0_151_7400">
<rect width="60" height="40" fill="white"/>
</clipPath>
</defs>
</svg>
