<svg width="373" height="250" viewBox="0 0 373 250" fill="none" xmlns="http://www.w3.org/2000/svg">
<path d="M223.58 4.52002H219.39V8.70002H223.58V4.52002Z" fill="black"/>
<path d="M310.67 56.49H306.48V60.67H310.67V56.49Z" fill="black"/>
<path d="M357.39 52.01C358.42 51.52 359.25 50.82 359.88 49.89C360.51 48.97 360.95 47.85 361.21 46.55C361.47 45.24 361.6 43.77 361.6 42.14V12.88H357.41V42.14C357.41 43.32 357.35 44.32 357.23 45.14C357.11 45.96 356.9 46.62 356.6 47.13C356.3 47.63 355.9 48 355.4 48.23C354.89 48.46 354.24 48.57 353.44 48.57C353.06 48.57 352.72 48.55 352.45 48.52C352.17 48.49 351.79 48.4 351.3 48.26L350.2 52.28C351.35 52.6 352.49 52.75 353.6 52.75C355.09 52.74 356.36 52.5 357.39 52.01Z" fill="black"/>
<path d="M342.99 5.47H337.24V4.5C337.24 3.97 337.35 3.56 337.58 3.27C337.77 3.03 338.22 2.91 338.87 2.91H341.75V0H338.8C337.2 0 335.95 0.42 335.11 1.25C334.26 2.08 333.83 3.44 333.83 5.27V8.68H343V5.47H342.99Z" fill="black"/>
<path d="M302.29 56.49H298.1V60.67H302.29V56.49Z" fill="black"/>
<path d="M231.96 4.52002H227.77V8.70002H231.96V4.52002Z" fill="black"/>
<path d="M324.12 37.93C325.71 39.06 327.55 39.9 329.64 40.44C331.73 40.98 333.95 41.25 336.29 41.25H337.4L338.81 38.3V42.45C338.81 44.64 338.18 46.21 336.93 47.15C335.67 48.09 333.91 48.56 331.64 48.56C330.35 48.56 329.19 48.44 328.16 48.19C327.13 47.95 325.95 47.53 324.63 46.94L323.32 50.96C324.92 51.55 326.35 52 327.59 52.29C328.83 52.59 330.08 52.73 331.33 52.73C335.41 52.73 338.38 51.76 340.23 49.83C342.08 47.89 343 45.29 343 42.02V12.88H336.3C333.72 12.88 331.36 13.25 329.23 13.98C327.1 14.71 325.28 15.71 323.76 16.98C322.24 18.25 321.06 19.77 320.23 21.53C319.39 23.29 318.97 25.2 318.97 27.25C318.97 29.72 319.43 31.84 320.36 33.6C321.27 35.35 322.53 36.8 324.12 37.93ZM324.12 23.12C324.76 21.87 325.62 20.8 326.68 19.91C327.74 19.02 328.96 18.34 330.32 17.85C331.64 17.38 333.01 17.14 334.43 17.13V17.12H341.2L338.81 18.31V37.08H334.57C333 37.08 331.53 36.86 330.15 36.42C328.77 35.99 327.56 35.35 326.51 34.51C325.46 33.67 324.64 32.65 324.05 31.43C323.46 30.21 323.16 28.82 323.16 27.25C323.15 25.75 323.47 24.37 324.12 23.12Z" fill="black"/>
<path d="M220.53 52.16H229.23V49.03C229.31 49.18 229.4 49.33 229.49 49.46C230.12 50.38 230.95 51.09 231.98 51.58C233.01 52.07 234.27 52.31 235.77 52.31H312.12V12.88H307.93V48.14H303.58H235.92C235.12 48.14 234.46 48.03 233.96 47.8C233.46 47.57 233.05 47.21 232.76 46.7C232.47 46.19 232.26 45.53 232.13 44.71C232.01 43.89 231.95 42.89 231.95 41.71V12.88H220.63C209.05 12.88 201.17 22.05 201.17 32.52V32.63C201.18 43.1 208.95 52.16 220.53 52.16ZM205.64 32.41C205.64 23.78 211.84 16.84 220.53 16.84H230.33L227.76 18.12V41.71C227.76 43.35 227.89 44.82 228.15 46.12C228.3 46.88 228.52 47.57 228.8 48.2H220.63C211.93 48.2 205.63 41.15 205.63 32.52V32.41H205.64Z" fill="black"/>
<path d="M180.23 41.78L182.06 46.6L155.46 12.83H151.31V52.08H155.63V22.5L153.17 16.78L181.02 52.08H184.56V12.83H180.23V41.78Z" fill="black"/>
<path d="M239.87 114.78L264.01 91.77V75.99H199.49V93.96H232.57L244.84 86.08L214.21 116.83L217.49 130.17H226.22C237.95 130.17 244.91 134.53 244.91 142.29V142.56C244.91 149.64 239.32 154.13 231.41 154.13C221.73 154.13 214.91 150.05 208.36 142.69L193.9 156.44C202.08 166.11 213.95 172.91 231.14 172.91C252.42 172.91 265.51 159.7 265.51 141.73V141.46C265.52 123.77 252.83 116.96 239.87 114.78Z" fill="black"/>
<path d="M124.05 12.16C112.09 12.16 103.94 21.63 103.94 32.46V32.57C103.94 43.39 111.97 52.75 123.94 52.75C135.91 52.75 144.05 43.28 144.05 32.46V32.35C144.04 21.52 136.01 12.16 124.05 12.16ZM139.44 32.57C139.44 41.48 133.04 48.66 124.05 48.66C115.06 48.66 108.55 41.37 108.55 32.46V32.35C108.55 23.44 114.96 16.26 123.94 16.26C132.93 16.26 139.44 23.55 139.44 32.46V32.57Z" fill="black"/>
<path d="M321.81 74.35C292.35 74.35 270.93 96.54 270.93 123.63V123.9C270.93 150.99 292.07 172.91 321.53 172.91C350.99 172.91 372.41 150.72 372.41 123.63V123.36C372.42 96.27 351.27 74.35 321.81 74.35ZM350.46 123.9C350.46 140.24 338.73 153.58 321.81 153.58C304.9 153.58 292.89 139.97 292.89 123.63V123.36C292.89 107.02 304.62 93.68 321.53 93.68C338.44 93.68 350.45 107.29 350.45 123.63V123.9H350.46Z" fill="black"/>
<path d="M96.2798 12.83H91.8398V52.07H96.2798V12.83Z" fill="black"/>
<path d="M20.5596 160.39L24.6096 157.27L45.4796 141.19C62.3896 128.12 70.5797 120.23 70.5797 104.3V104.03C70.5797 86.19 57.4897 74.62 37.7097 74.62C20.6597 74.62 11.5196 81.56 2.10965 94.36L16.8396 106.2C23.9296 97.49 28.9797 93.41 36.3497 93.41C43.8497 93.41 49.1696 97.77 49.1696 105.8C49.1696 113.69 44.5296 118.87 32.6696 128.67L0.889648 154.67V171.28H71.5497V153.17H35.1396L20.5596 160.39Z" fill="black"/>
<path d="M20.8498 52.36L37.7498 12.83H32.9798L19.6198 45L20.0398 49.32L18.9398 46.64L7.36977 18.68L4.94976 12.83H0.00976562L16.9198 52.36H20.8498Z" fill="black"/>
<path d="M48.2198 12.83H43.7798V52.07H48.2198V12.83Z" fill="black"/>
<path d="M71.7196 30.32C63.0696 28.47 61.0496 26.4 61.0496 22.7V22.59C61.0496 19.06 64.3096 16.26 69.4196 16.26C73.4596 16.26 77.1196 17.55 80.7696 20.52L83.3496 17.1C79.3596 13.9 75.2596 12.28 69.5296 12.28C62.0596 12.28 56.6096 16.82 56.6096 22.99V23.1C56.6096 29.55 60.7696 32.46 69.8096 34.43C78.0696 36.17 80.0296 38.24 80.0296 41.89V42C80.0296 45.87 76.5496 48.67 71.2696 48.67C65.8196 48.67 61.8896 46.82 57.7896 43.12L55.0396 46.37C59.7596 50.58 64.8696 52.65 71.0996 52.65C78.9096 52.65 84.5196 48.28 84.5196 41.55V41.44C84.5196 35.43 80.4796 32.23 71.7196 30.32Z" fill="black"/>
<path d="M128.6 68.08L133.44 72.71L128.8 77.54L123.96 72.91L128.6 68.08Z" fill="#28316F"/>
<path d="M139.67 72.91L144.5 77.54L149.14 72.71L144.31 68.08L139.67 72.91Z" fill="black"/>
<path d="M132.86 78.99L136.63 82.6L140.24 78.84L136.47 75.23L132.86 78.99Z" fill="#D5D505"/>
<path d="M146.67 81.05L150.43 84.66L154.04 80.9001L150.28 77.3L146.67 81.05Z" fill="#75B12F"/>
<path d="M126.7 84.73L130.47 88.34L134.08 84.58L130.32 80.98L126.7 84.73Z" fill="#D5D505"/>
<path d="M139.34 85.17L143.1 88.78L146.71 85.02L142.95 81.41L139.34 85.17Z" fill="#29B0BA"/>
<path d="M134.4 89.49L137.04 92.03L139.59 89.39L136.94 86.85L134.4 89.49Z" fill="#75B12F"/>
<path d="M144.39 91.49L147.03 94.02L149.58 91.38L146.93 88.84L144.39 91.49Z" fill="#5AAC4C"/>
<path d="M174.417 69.8743L166.204 71.3798L167.708 79.583L175.921 78.0775L174.417 69.8743Z" fill="#2983C6"/>
<path d="M162.039 73.5985L155.449 74.8052L156.654 81.3855L163.244 80.1788L162.039 73.5985Z" fill="#213466"/>
<path d="M174.814 82.7817L168.224 83.9904L169.431 90.5706L176.021 89.362L174.814 82.7817Z" fill="#29B0BA"/>
<path d="M164.249 83.9998L159.114 84.9404L160.053 90.065L165.187 89.1243L164.249 83.9998Z" fill="#D5D505"/>
<path d="M174.238 93.7294L169.104 94.67L170.043 99.7946L175.177 98.854L174.238 93.7294Z" fill="black"/>
<path d="M156.559 86.0899L151.424 87.0305L152.363 92.1551L157.498 91.2144L156.559 86.0899Z" fill="#29B0BA"/>
<path d="M165.879 92.7997L160.744 93.7404L161.683 98.8649L166.817 97.9243L165.879 92.7997Z" fill="#75B12F"/>
<path d="M157.817 93.7088L154.208 94.3705L154.867 97.9705L158.477 97.3088L157.817 93.7088Z" fill="black"/>
<path d="M164.771 101.159L161.161 101.819L161.819 105.419L165.429 104.759L164.771 101.159Z" fill="#5AAC4C"/>
<path d="M190.64 98.24L187.05 105.77L194.59 109.35L198.18 101.83L190.64 98.24Z" fill="#28316F"/>
<path d="M179.93 94.76L177.05 100.8L183.1 103.68L185.98 97.64L179.93 94.76Z" fill="#29B0BA"/>
<path d="M184.88 109.64L182 115.68L188.06 118.55L190.94 112.52L184.88 109.64Z" fill="#75B12F"/>
<path d="M176.95 105.11L174.71 109.82L179.42 112.05L181.67 107.35L176.95 105.11Z" fill="#D5D505"/>
<path d="M179.35 118.84L177.1 123.54L181.81 125.78L184.06 121.07L179.35 118.84Z" fill="#D5D505"/>
<path d="M169.49 102.31L167.25 107.02L171.96 109.25L174.21 104.55L169.49 102.31Z" fill="#2983C6"/>
<path d="M173.12 113.19L170.87 117.9L175.59 120.13L177.83 115.43L173.12 113.19Z" fill="black"/>
<path d="M167.45 109.88L165.87 113.19L169.19 114.76L170.76 111.45L167.45 109.88Z" fill="#75B12F"/>
<path d="M168.719 119.954L167.146 123.259L170.46 124.836L172.033 121.531L168.719 119.954Z" fill="#29B0BA"/>
<path d="M194.7 134.3L187.38 138.3L191.4 145.61L198.72 141.61L194.7 134.3Z" fill="#2983C6"/>
<path d="M188.06 125.22L182.18 128.44L185.41 134.3L191.28 131.08L188.06 125.22Z" fill="#29B0BA"/>
<path d="M183.35 140.18L177.48 143.4L180.7 149.26L186.58 146.04L183.35 140.18Z" fill="#29B0BA"/>
<path d="M179.58 131.87L175 134.38L177.51 138.94L182.09 136.44L179.58 131.87Z" fill="#28316F"/>
<path d="M173.47 144.4L168.9 146.91L171.41 151.47L175.98 148.97L173.47 144.4Z" fill="#5AAC4C"/>
<path d="M175.17 125.25L170.6 127.75L173.1 132.32L177.68 129.81L175.17 125.25Z" fill="#213466"/>
<path d="M171.73 136.19L167.15 138.69L169.66 143.26L174.24 140.75L171.73 136.19Z" fill="#D5D505"/>
<path d="M169.08 130.19L165.86 131.95L167.63 135.16L170.84 133.4L169.08 130.19Z" fill="black"/>
<path d="M164.18 139.11L160.96 140.87L162.73 144.08L165.95 142.32L164.18 139.11Z" fill="#29B0BA"/>
<path d="M168.582 164.837L167.559 173.114L175.846 174.138L176.869 165.86L168.582 164.837Z" fill="#75B12F"/>
<path d="M170.15 153.849L169.327 160.488L175.976 161.312L176.799 154.673L170.15 153.849Z" fill="#213466"/>
<path d="M157.572 163.24L156.749 169.879L163.398 170.703L164.221 164.064L157.572 163.24Z" fill="#29B0BA"/>
<path d="M160.832 154.51L160.193 159.68L165.373 160.321L166.012 155.15L160.832 154.51Z" fill="#75B12F"/>
<path d="M148.537 161.099L147.897 166.27L153.078 166.91L153.717 161.74L148.537 161.099Z" fill="black"/>
<path d="M161.155 146.541L160.515 151.711L165.695 152.353L166.336 147.183L161.155 146.541Z" fill="black"/>
<path d="M151.953 153.393L151.312 158.564L156.493 159.206L157.134 154.035L151.953 153.393Z" fill="#75B12F"/>
<path d="M154.843 147.185L154.394 150.818L158.036 151.268L158.485 147.636L154.843 147.185Z" fill="black"/>
<path d="M145.631 151.564L145.182 155.196L148.824 155.646L149.273 152.014L145.631 151.564Z" fill="black"/>
<path d="M143.87 181.12L137.75 175.45L132.06 181.56L138.18 187.23L143.87 181.12Z" fill="#D5D505"/>
<path d="M142.74 64.34L136.62 58.67L130.93 64.78L137.06 70.4501L142.74 64.34Z" fill="#75B12F"/>
<path d="M150.4 171.97L145.49 167.42L140.93 172.32L145.84 176.87L150.4 171.97Z" fill="#29B0BA"/>
<path d="M134.7 172.23L129.78 167.68L125.22 172.58L130.14 177.13L134.7 172.23Z" fill="#75B12F"/>
<path d="M141.4 166.04L137.58 162.49L134.03 166.31L137.85 169.85L141.4 166.04Z" fill="#2983C6"/>
<path d="M127.56 164.2L123.74 160.66L120.19 164.47L124.02 168.02L127.56 164.2Z" fill="#D5D505"/>
<path d="M146.31 159.77L142.49 156.23L138.94 160.04L142.76 163.59L146.31 159.77Z" fill="#D5D505"/>
<path d="M134.82 159.96L131 156.42L127.45 160.23L131.27 163.78L134.82 159.96Z" fill="black"/>
<path d="M139.69 155.56L137 153.06L134.5 155.75L137.19 158.24L139.69 155.56Z" fill="#213466"/>
<path d="M129.67 153.73L126.98 151.24L124.48 153.92L127.17 156.41L129.67 153.73Z" fill="black"/>
<path d="M106.548 166.02L98.3608 167.661L99.9996 175.838L108.187 174.197L106.548 166.02Z" fill="#2983C6"/>
<path d="M117.531 164.013L110.961 165.328L112.275 171.888L118.845 170.572L117.531 164.013Z" fill="#29B0BA"/>
<path d="M104.677 155.071L98.1074 156.389L99.4233 162.949L105.993 161.631L104.677 155.071Z" fill="#75B12F"/>
<path d="M113.992 155.405L108.874 156.43L109.897 161.539L115.015 160.513L113.992 155.405Z" fill="#D5D505"/>
<path d="M121.65 153.185L116.532 154.211L117.555 159.319L122.674 158.294L121.65 153.185Z" fill="#28316F"/>
<path d="M112.23 146.634L107.112 147.659L108.135 152.767L113.253 151.742L112.23 146.634Z" fill="#2983C6"/>
<path d="M119.076 147.462L115.477 148.182L116.195 151.771L119.794 151.051L119.076 147.462Z" fill="#75B12F"/>
<path d="M112.033 140.109L108.435 140.831L109.155 144.42L112.753 143.698L112.033 140.109Z" fill="black"/>
<path d="M83.31 147.74L86.78 140.15L79.17 136.7L75.71 144.28L83.31 147.74Z" fill="#29B0BA"/>
<path d="M94.08 151.04L96.85 144.96L90.76 142.18L87.98 148.27L94.08 151.04Z" fill="#D5D505"/>
<path d="M88.8798 136.25L91.6598 130.16L85.5598 127.39L82.7798 133.48L88.8798 136.25Z" fill="#2983C6"/>
<path d="M94.2793 133.731L92.1177 138.472L96.8674 140.638L99.029 135.897L94.2793 133.731Z" fill="#29B0BA"/>
<path d="M103.24 152.5L105.4 147.76L100.65 145.6L98.4902 150.34L103.24 152.5Z" fill="black"/>
<path d="M91.6934 120.056L89.5308 124.796L94.2799 126.963L96.4426 122.223L91.6934 120.056Z" fill="#28316F"/>
<path d="M101.823 136.424L99.6602 141.164L104.409 143.33L106.572 138.59L101.823 136.424Z" fill="#5AAC4C"/>
<path d="M97.9958 125.624L95.8315 130.363L100.58 132.531L102.744 127.792L97.9958 125.624Z" fill="#D5D505"/>
<path d="M106.3 135.72L107.83 132.39L104.49 130.87L102.96 134.21L106.3 135.72Z" fill="#213466"/>
<path d="M104.88 125.66L106.4 122.32L103.06 120.8L101.54 124.14L104.88 125.66Z" fill="#75B12F"/>
<path d="M78.6498 111.76L85.9098 107.63L81.7698 100.39L74.5098 104.52L78.6498 111.76Z" fill="#29B0BA"/>
<path d="M85.4401 120.72L91.2701 117.41L87.9401 111.6L82.1201 114.91L85.4401 120.72Z" fill="#75B12F"/>
<path d="M89.9001 105.69L95.7201 102.38L92.4001 96.5699L86.5801 99.8799L89.9001 105.69Z" fill="#213466"/>
<path d="M93.81 113.93L98.34 111.35L95.76 106.83L91.23 109.41L93.81 113.93Z" fill="#2983C6"/>
<path d="M99.7101 101.31L104.24 98.7299L101.66 94.2L97.1201 96.78L99.7101 101.31Z" fill="#75B12F"/>
<path d="M98.3302 120.48L102.86 117.9L100.28 113.38L95.7402 115.96L98.3302 120.48Z" fill="#29B0BA"/>
<path d="M101.59 109.49L106.12 106.91L103.54 102.38L99 104.97L101.59 109.49Z" fill="#D5D505"/>
<path d="M104.34 115.44L107.53 113.63L105.71 110.45L102.52 112.26L104.34 115.44Z" fill="black"/>
<path d="M109.09 106.45L112.28 104.63L110.46 101.45L107.27 103.26L109.09 106.45Z" fill="#75B12F"/>
<path d="M96.8377 71.584L95.9512 79.8765L104.254 80.7641L105.14 72.4716L96.8377 71.584Z" fill="#75B12F"/>
<path d="M96.9169 84.448L96.2051 91.0999L102.867 91.8127L103.579 85.1609L96.9169 84.448Z" fill="black"/>
<path d="M109.353 74.8651L108.641 81.517L115.303 82.2298L116.015 75.578L109.353 74.8651Z" fill="#29B0BA"/>
<path d="M107.538 85.3066L106.983 90.4869L112.174 91.0429L112.729 85.8626L107.538 85.3066Z" fill="#D5D505"/>
<path d="M119.733 78.4671L119.18 83.6479L124.371 84.2018L124.924 79.021L119.733 78.4671Z" fill="#2983C6"/>
<path d="M107.362 93.2533L106.807 98.4336L111.997 98.9895L112.552 93.8092L107.362 93.2533Z" fill="#29B0BA"/>
<path d="M116.45 86.2426L115.896 91.4229L121.086 91.9788L121.641 86.7985L116.45 86.2426Z" fill="#75B12F"/>
<path d="M115.025 94.2202L114.635 97.8594L118.284 98.2499L118.674 94.6107L115.025 94.2202Z" fill="#213466"/>
<path d="M124.15 89.6875L123.763 93.327L127.413 93.7153L127.8 90.0758L124.15 89.6875Z" fill="black"/>
<path d="M163.18 128.07C162.56 127.72 161.43 127.13 159.87 126.64C157.62 125.92 154.48 125.38 150.76 125.97C149.51 126.17 148.19 126.5 146.82 126.99C146.69 127.04 146.56 127.08 146.43 127.13C145.73 127.39 145.04 127.71 144.34 128.06C143.74 128.36 143.15 128.69 142.56 129.05C141.21 129.86 139.88 130.78 138.59 131.78C137.12 122.89 137.84 114.64 138.18 110.59C138.18 110.57 138.21 110.56 138.23 110.57C141.38 112.55 140.5 118.08 139.83 119.67C139.82 119.7 139.86 119.72 139.89 119.7C143.81 115.07 141.9 109.95 141.09 108.66C141.07 108.63 141.11 108.6 141.14 108.62C141.71 109.08 142.17 109.57 142.56 110.07C143.77 111.62 144.22 113.29 144.34 114.77C144.4 115.55 144.38 116.27 144.34 116.89C144.33 117.06 144.32 117.21 144.3 117.36C144.3 117.38 144.32 117.39 144.34 117.38C144.35 117.38 144.36 117.38 144.36 117.37C145.42 115.29 145.93 112.15 144.34 109.1C143.91 108.27 143.33 107.45 142.56 106.66C142.34 106.43 142.1 106.21 141.85 105.98C141.83 105.96 141.85 105.92 141.88 105.93C142.12 105.99 142.34 106.06 142.56 106.13C143.23 106.36 143.82 106.68 144.34 107.07C145.53 107.95 146.34 109.15 146.82 110.41C147.22 111.45 147.4 112.52 147.4 113.47C147.4 113.51 147.45 113.51 147.46 113.48C148.2 110.77 147.75 108.72 146.82 107.23C146.16 106.16 145.25 105.38 144.34 104.83C143.72 104.46 143.1 104.2 142.56 104.04C142.24 103.94 141.96 103.88 141.71 103.85C141.67 103.85 141.68 103.79 141.72 103.79C142.01 103.76 142.29 103.75 142.56 103.74C143.22 103.73 143.81 103.79 144.34 103.88C145.39 104.08 146.21 104.44 146.82 104.86C147.82 105.53 148.32 106.32 148.49 106.64C148.5 106.67 148.55 106.65 148.55 106.62C148.41 105.19 147.75 104.07 146.83 103.27C146.12 102.65 145.25 102.22 144.35 101.96C143.76 101.8 143.16 101.71 142.57 101.7C141.77 101.69 141 101.82 140.35 102.1C140.32 102.11 140.3 102.08 140.31 102.05C140.89 101.22 141.71 100.72 142.57 100.45C143.17 100.27 143.78 100.2 144.35 100.24C144.9 100.27 145.4 100.39 145.81 100.58C145.84 100.59 145.86 100.56 145.84 100.53C145.39 100.02 144.88 99.62 144.35 99.32C143.78 99 143.18 98.81 142.57 98.74C140.98 98.56 139.36 99.24 138.28 100.87C138.27 100.89 138.24 100.89 138.23 100.87C138.02 100.5 137.82 100.09 137.64 99.66C137.21 98.66 136.86 97.54 136.67 96.42C136.66 96.38 136.62 96.38 136.62 96.42C136.43 97.54 136.07 98.67 135.64 99.67C135.45 100.1 135.26 100.5 135.05 100.86C135.04 100.88 135.01 100.88 135 100.86C133.12 98.01 129.59 98.07 127.44 100.53C127.42 100.55 127.44 100.59 127.47 100.58C128.9 99.9 131.61 100.1 132.97 102.05C132.99 102.08 132.96 102.11 132.93 102.1C130.84 101.22 127.6 101.79 125.87 103.85C125.25 104.58 124.83 105.51 124.72 106.62C124.72 106.65 124.76 106.67 124.78 106.64C124.91 106.39 125.25 105.85 125.87 105.3C126.88 104.41 128.64 103.51 131.55 103.78C131.59 103.79 131.59 103.84 131.56 103.84C130.07 104.02 127 105.35 125.87 108.39C125.37 109.73 125.24 111.41 125.8 113.47C125.81 113.5 125.86 113.5 125.86 113.46C125.86 113.41 125.86 113.37 125.87 113.32C125.9 110.56 127.48 106.86 131.39 105.92C131.42 105.91 131.44 105.95 131.42 105.97C127.05 109.81 127.48 114.55 128.91 117.35C128.93 117.38 128.97 117.37 128.97 117.34C128.78 115.22 128.63 111.45 132.13 108.6C132.16 108.58 132.2 108.61 132.18 108.64C131.37 109.94 129.46 115.05 133.38 119.68C133.4 119.71 133.45 119.69 133.44 119.65C132.78 118.07 131.9 112.53 135.04 110.55C135.06 110.54 135.09 110.55 135.09 110.57C135.43 114.62 136.15 122.87 134.68 131.76C132.15 129.82 129.48 128.12 126.84 127.12C126.51 127 126.19 126.89 125.88 126.78C123.15 125.88 120.65 125.63 118.47 125.73C114.97 125.88 112.29 126.93 110.82 127.66C110.52 127.81 110.27 127.95 110.08 128.06C110 128.11 110.06 128.22 110.14 128.19C110.37 128.12 110.59 128.05 110.82 127.99C113.51 127.23 116.06 127.03 118.47 127.24C121.1 127.47 123.57 128.19 125.88 129.23C129.12 130.69 132.05 132.77 134.7 134.97C130.96 138.23 127.8 141.4 125.88 142.51C125.78 142.56 125.69 142.62 125.6 142.67C125.14 142.04 124.34 141.68 123.47 141.87C122.71 142.04 122.09 142.65 121.92 143.4C121.77 144.07 121.94 144.8 122.32 145.18C123.34 146.2 124.52 146.27 125.88 145.7C128.47 144.61 131.69 141.19 135.64 137.57C135.97 137.27 136.3 136.96 136.64 136.66C136.98 136.96 137.31 137.26 137.64 137.56C139.43 139.2 141.07 140.8 142.57 142.16C143.19 142.72 143.78 143.24 144.35 143.7C145.23 144.42 146.06 145.01 146.83 145.42C148.34 146.22 149.65 146.32 150.77 145.33C150.83 145.28 150.89 145.23 150.95 145.17C151.21 144.91 151.51 144.06 151.35 143.39C151.26 143 151.05 142.65 150.76 142.38C150.5 142.13 150.16 141.94 149.8 141.86C148.93 141.67 148.13 142.03 147.67 142.66C147.41 142.53 147.13 142.35 146.82 142.14C146.11 141.65 145.28 140.96 144.34 140.14C143.78 139.65 143.19 139.11 142.56 138.54C141.34 137.43 140 136.21 138.58 134.96C139.84 133.91 141.17 132.89 142.56 131.95C143.14 131.56 143.73 131.18 144.34 130.82C145.15 130.34 145.97 129.9 146.82 129.49C148.09 128.88 149.4 128.37 150.76 127.98C153.58 127.17 156.61 126.9 159.87 127.42C160.93 127.59 162.01 127.84 163.12 128.18C163.2 128.23 163.26 128.12 163.18 128.07Z" fill="#757A81"/>
<path d="M21.8599 218.88H19.3999V221.34H21.8599V218.88Z" fill="black"/>
<path d="M185.03 216.04V199.8H182.63V213.64H173.58V199.8H171.18V213.64H161.65V199.8H157.88C156.38 199.8 155.02 200 153.8 200.41C152.58 200.82 151.54 201.39 150.68 202.11C149.82 202.84 149.16 203.7 148.69 204.7C148.22 205.7 147.99 206.77 147.99 207.93C147.99 209.35 148.26 210.56 148.8 211.58C149.34 212.6 150.06 213.43 150.96 214.09C151.86 214.75 152.91 215.24 154.11 215.55C155.31 215.87 156.57 216.03 157.89 216.03L185.03 216.04ZM154.36 213.26C153.57 213 152.88 212.63 152.29 212.14C151.7 211.65 151.24 211.05 150.9 210.35C150.56 209.64 150.39 208.84 150.39 207.94C150.39 207.08 150.58 206.3 150.95 205.59C151.32 204.88 151.81 204.28 152.42 203.77C153.03 203.26 153.72 202.87 154.5 202.6C155.28 202.33 156.08 202.2 156.9 202.2H159.27V213.65H156.9C156 213.65 155.15 213.52 154.36 213.26Z" fill="black"/>
<path d="M136.16 194.58H133.76V216.04H136.16V194.58Z" fill="black"/>
<path d="M161.65 194.58H159.19V197.04H161.65V194.58Z" fill="black"/>
<path d="M185.06 218.85H182.6V221.31H185.06V218.85Z" fill="black"/>
<path d="M26.0601 218.88H23.6001V221.34H26.0601V218.88Z" fill="black"/>
<path d="M124.38 213.65H120.46C119.06 213.65 117.96 213.45 117.16 213.05C116.36 212.65 115.73 212.05 115.27 211.26C115.41 210.64 115.48 209.89 115.48 209.02V201.3H113.08V209.4C113.08 210.78 112.71 211.88 111.97 212.71C111.23 213.54 110.11 213.95 108.61 213.95C107.91 213.95 107.27 213.84 106.69 213.62C106.11 213.4 105.61 213.1 105.19 212.72C104.77 212.34 104.44 211.9 104.2 211.39C103.96 210.88 103.83 210.34 103.81 209.76V201.3H101.41V209.58C101.41 210.32 101.3 210.94 101.08 211.45C100.86 211.96 100.56 212.38 100.18 212.71C99.8001 213.04 99.3701 213.28 98.8901 213.43C98.4101 213.58 97.9001 213.65 97.3601 213.65H92.7201V201.3H90.3201V213.65H77.7601L81.9501 203.63C81.3101 203.07 80.6301 202.55 79.9101 202.06C79.1901 201.57 78.4501 201.14 77.6901 200.77C76.9301 200.4 76.1601 200.11 75.3801 199.9C74.6001 199.69 73.8301 199.59 73.0701 199.59C72.2901 199.59 71.5101 199.7 70.7301 199.9C69.9501 200.11 69.1801 200.39 68.4101 200.75C67.6401 201.11 66.9001 201.54 66.1901 202.04C65.4801 202.54 64.8201 203.06 64.2001 203.62L68.4201 213.64H60.1201V199.8H56.2901C54.8101 199.8 53.4601 200.01 52.2401 200.43C51.0201 200.85 49.9801 201.42 49.1101 202.15C48.2401 202.88 47.5701 203.75 47.0901 204.75C46.6101 205.76 46.3701 206.85 46.3701 208.03C46.3701 209.45 46.6301 210.66 47.1601 211.66C47.6901 212.67 48.4101 213.5 49.3201 214.14C50.2301 214.79 51.2801 215.27 52.4801 215.57C53.6801 215.88 54.9501 216.03 56.2901 216.03H57.7301V216.72C57.7301 217.98 57.3701 218.87 56.6501 219.41C55.9301 219.95 54.9201 220.22 53.6201 220.22C52.8801 220.22 52.2201 220.15 51.6301 220.01C51.0401 219.87 50.3701 219.63 49.6101 219.29L48.8601 221.59C49.7801 221.93 50.5901 222.18 51.3001 222.35C52.0101 222.52 52.7201 222.61 53.4401 222.61C55.7801 222.61 57.4701 222.06 58.5301 220.95C59.5901 219.84 60.1201 218.35 60.1201 216.48V216.03H97.3601C98.5201 216.03 99.5501 215.78 100.46 215.28C101.37 214.78 102.1 214.11 102.66 213.28C103.24 214.24 104.03 214.99 105.03 215.52C106.03 216.06 107.22 216.33 108.6 216.33C110.04 216.33 111.26 216.08 112.27 215.58C113.28 215.08 114.05 214.32 114.59 213.28C114.79 213.62 115.03 213.95 115.32 214.28C115.61 214.61 115.98 214.9 116.44 215.16C116.9 215.42 117.46 215.63 118.1 215.79C118.59 215.91 119.18 215.97 119.82 216V216.03H126.74V194.57H124.34V213.65H124.38ZM57.7401 213.65H55.3101C54.4101 213.65 53.5701 213.53 52.7801 213.28C51.9901 213.03 51.3001 212.67 50.7001 212.19C50.1001 211.71 49.6301 211.12 49.2901 210.43C48.9501 209.73 48.7801 208.93 48.7801 208.04C48.7801 207.18 48.9601 206.4 49.3301 205.68C49.7001 204.96 50.1901 204.35 50.8001 203.84C51.4101 203.33 52.1001 202.94 52.8801 202.66C53.6601 202.38 54.4701 202.24 55.3101 202.24H57.7401V213.65ZM70.9601 213.65L67.2201 204.47C68.1401 203.69 69.0801 203.12 70.0501 202.77C71.0201 202.41 72.0301 202.23 73.0901 202.23C74.1701 202.23 75.2401 202.44 76.3001 202.87C77.3601 203.3 78.2601 203.83 79.0001 204.47L75.2601 213.65H70.9601Z" fill="black"/>
<path d="M13.6602 194.58H11.2002V197.04H13.6602V194.58Z" fill="black"/>
<path d="M256.09 194.58H253.63V197.04H256.09V194.58Z" fill="black"/>
<path d="M234.8 194.58H232.4V216.04H234.8V194.58Z" fill="black"/>
<path d="M157.45 194.58H154.99V197.04H157.45V194.58Z" fill="black"/>
<path d="M42.5802 206.63C42.5802 205.69 42.4602 204.82 42.2002 204C41.9502 203.18 41.5702 202.49 41.0502 201.91C40.4102 201.21 39.7002 200.69 38.9102 200.34C38.1202 199.99 37.1602 199.82 36.0202 199.82H34.2502V202.21H36.3502C36.9302 202.21 37.4802 202.34 38.0002 202.58C38.5202 202.83 38.9502 203.15 39.2902 203.55C39.6302 203.97 39.8602 204.43 39.9902 204.93C40.1202 205.43 40.1902 206.03 40.1902 206.72V213.66H28.9502V216.05H42.5802V206.63Z" fill="black"/>
<path d="M361.6 194.58H359.2V216.04H361.6V194.58Z" fill="black"/>
<path d="M260.29 194.58H257.83V197.04H260.29V194.58Z" fill="black"/>
<path d="M352.22 194.58H349.82V213.65H341.58C342.08 212.55 342.33 211.38 342.33 210.12C342.33 208.89 342.1 207.73 341.66 206.67C341.21 205.6 340.6 204.68 339.82 203.91C339.04 203.13 338.12 202.52 337.05 202.07C335.98 201.62 334.83 201.4 333.59 201.4C332.39 201.4 331.27 201.63 330.23 202.09C329.19 202.55 328.29 203.17 327.52 203.96C326.75 204.75 326.15 205.67 325.71 206.73C325.27 207.79 325.05 208.92 325.05 210.14C325.05 210.78 325.12 211.39 325.25 211.98C325.38 212.57 325.55 213.13 325.77 213.67H318.34C318.84 212.57 319.09 211.4 319.09 210.14C319.09 208.91 318.86 207.75 318.42 206.69C317.97 205.62 317.36 204.7 316.58 203.93C315.8 203.15 314.88 202.54 313.81 202.09C312.74 201.64 311.59 201.42 310.35 201.42C309.15 201.42 308.04 201.65 307 202.11C305.96 202.57 305.06 203.19 304.29 203.98C303.52 204.77 302.92 205.69 302.48 206.75C302.04 207.81 301.82 208.94 301.82 210.16C301.82 210.8 301.89 211.41 302.02 212C302.15 212.59 302.32 213.15 302.54 213.69H294.93V194.62H292.53V213.69H284.89V210.03C284.89 209.11 284.77 208.24 284.53 207.41C284.29 206.58 283.91 205.88 283.39 205.3C282.77 204.6 282.07 204.08 281.29 203.74C280.51 203.4 279.52 203.23 278.32 203.23H267.71L272.22 194.61H269.61L265.01 203.2C265.09 203.72 265.21 204.17 265.39 204.55C265.56 204.93 265.79 205.29 266.09 205.63H278.31C279.07 205.63 279.72 205.74 280.27 205.98C280.82 206.21 281.26 206.52 281.6 206.92C281.94 207.32 282.17 207.78 282.29 208.3C282.41 208.82 282.47 209.4 282.47 210.03V213.69H260.3V199.85H256.52C255.02 199.85 253.66 200.05 252.45 200.46C251.23 200.87 250.19 201.44 249.33 202.16C248.47 202.89 247.81 203.75 247.34 204.75C246.87 205.75 246.64 206.82 246.64 207.98C246.64 209.4 246.91 210.61 247.45 211.63C247.99 212.65 248.71 213.48 249.61 214.14C250.51 214.8 251.56 215.29 252.76 215.6C253.96 215.92 255.22 216.08 256.53 216.08H304.08C304.86 216.92 305.78 217.58 306.85 218.07C307.92 218.56 309.08 218.8 310.34 218.8C311.62 218.8 312.81 218.56 313.92 218.08C315.03 217.6 315.98 216.93 316.78 216.08H327.33C328.11 216.92 329.03 217.58 330.1 218.07C331.17 218.56 332.33 218.8 333.59 218.8C334.87 218.8 336.06 218.56 337.17 218.08C338.28 217.6 339.23 216.93 340.03 216.08H352.22V194.58ZM257.9 213.65H255.53C254.63 213.65 253.79 213.52 253 213.26C252.21 213 251.52 212.63 250.93 212.14C250.34 211.65 249.88 211.05 249.54 210.35C249.2 209.64 249.03 208.84 249.03 207.94C249.03 207.08 249.21 206.3 249.58 205.59C249.95 204.88 250.44 204.28 251.05 203.77C251.66 203.26 252.35 202.87 253.13 202.6C253.91 202.33 254.71 202.2 255.53 202.2H257.9V213.65ZM316.19 212.59C315.86 213.36 315.41 214.02 314.84 214.58C314.27 215.14 313.6 215.57 312.83 215.88C312.06 216.19 311.23 216.34 310.33 216.34C309.45 216.34 308.64 216.17 307.89 215.85C307.14 215.52 306.49 215.07 305.94 214.5C305.39 213.93 304.96 213.27 304.65 212.51C304.34 211.75 304.19 210.94 304.19 210.09C304.19 209.23 304.35 208.42 304.65 207.65C304.96 206.88 305.39 206.22 305.93 205.65C306.47 205.08 307.11 204.63 307.86 204.29C308.61 203.95 309.43 203.78 310.33 203.78C311.25 203.78 312.09 203.94 312.86 204.26C313.63 204.58 314.3 205.02 314.87 205.58C315.44 206.14 315.88 206.8 316.2 207.57C316.52 208.34 316.68 209.18 316.68 210.1C316.69 210.99 316.52 211.82 316.19 212.59ZM339.44 212.59C339.11 213.36 338.66 214.02 338.09 214.58C337.52 215.14 336.85 215.57 336.08 215.88C335.31 216.19 334.48 216.34 333.58 216.34C332.7 216.34 331.89 216.17 331.14 215.85C330.39 215.52 329.74 215.07 329.19 214.5C328.64 213.93 328.21 213.27 327.9 212.51C327.59 211.75 327.43 210.94 327.43 210.09C327.43 209.23 327.59 208.42 327.9 207.65C328.21 206.88 328.63 206.22 329.17 205.65C329.71 205.08 330.35 204.63 331.1 204.29C331.85 203.95 332.67 203.78 333.57 203.78C334.49 203.78 335.33 203.94 336.1 204.26C336.87 204.58 337.54 205.02 338.11 205.58C338.68 206.14 339.12 206.8 339.44 207.57C339.76 208.34 339.92 209.18 339.92 210.1C339.94 210.99 339.77 211.82 339.44 212.59Z" fill="black"/>
<path d="M6.12 215.56C7.32 215.88 8.58 216.04 9.89 216.04H25.59V199.8H23.19V213.64H13.66V199.8H9.88C8.38 199.8 7.03 200 5.81 200.41C4.59 200.82 3.55 201.39 2.69 202.11C1.83 202.84 1.17 203.7 0.699997 204.7C0.229997 205.7 0 206.77 0 207.93C0 209.35 0.269998 210.56 0.809998 211.58C1.35 212.6 2.07 213.43 2.97 214.09C3.87 214.76 4.92 215.25 6.12 215.56ZM2.4 207.94C2.4 207.08 2.59 206.3 2.96 205.59C3.33 204.88 3.82 204.28 4.43 203.77C5.04 203.26 5.73 202.87 6.51 202.6C7.29 202.33 8.09 202.2 8.91 202.2H11.28V213.65H8.91C8.01 213.65 7.17 213.52 6.38 213.26C5.59 213 4.9 212.63 4.31 212.14C3.72 211.65 3.26 211.05 2.92 210.35C2.57 209.64 2.4 208.84 2.4 207.94Z" fill="black"/>
<path d="M176.3 218.88H173.84V221.34H176.3V218.88Z" fill="black"/>
<path d="M172.1 218.88H169.64V221.34H172.1V218.88Z" fill="black"/>
<path d="M194.36 219.08C194.51 218.33 194.59 217.49 194.59 216.55V216.04H225.42V194.58H223.02V213.65H212.83L217.02 203.63C216.38 203.07 215.7 202.55 214.98 202.06C214.26 201.57 213.52 201.14 212.76 200.77C212 200.4 211.23 200.11 210.45 199.9C209.67 199.69 208.9 199.59 208.14 199.59C207.36 199.59 206.58 199.7 205.8 199.9C205.02 200.11 204.25 200.39 203.48 200.75C202.71 201.11 201.97 201.54 201.26 202.04C200.55 202.54 199.89 203.06 199.27 203.62L203.49 213.64H194.56V199.8H192.16V216.55C192.16 217.23 192.13 217.8 192.06 218.27C191.99 218.74 191.87 219.12 191.7 219.41C191.53 219.7 191.3 219.91 191.01 220.04C190.72 220.17 190.35 220.24 189.89 220.24C189.67 220.24 189.48 220.23 189.32 220.21C189.16 220.19 188.94 220.14 188.66 220.06L188.03 222.36C188.69 222.54 189.34 222.63 189.98 222.63C190.84 222.63 191.56 222.49 192.15 222.21C192.74 221.93 193.21 221.53 193.57 221C193.96 220.47 194.21 219.83 194.36 219.08ZM202.29 204.47C203.21 203.69 204.15 203.12 205.12 202.77C206.09 202.41 207.1 202.23 208.16 202.23C209.24 202.23 210.31 202.44 211.37 202.87C212.43 203.3 213.33 203.83 214.07 204.47L210.33 213.65H206.05L202.29 204.47Z" fill="black"/>
<path d="M9.46 194.58H7V197.04H9.46V194.58Z" fill="black"/>
<path d="M17.2001 231.76H13.5101L5.3601 240.36V231.76H2.3501V248.85H5.3601V243.9L8.0301 241.16L13.8701 248.85H17.5201L10.0801 239.11L17.2001 231.76Z" fill="black"/>
<path d="M23.2698 231.76H20.2598V248.85H23.2698V231.76Z" fill="black"/>
<path d="M39.8599 243.58L30.6899 231.76H27.8999V248.85H30.8599V236.69L40.2999 248.85H42.8199V231.76H39.8599V243.58Z" fill="black"/>
<path d="M55.2798 241.92H59.6598V245.12C58.6098 245.9 57.1398 246.41 55.5298 246.41C52.0298 246.41 49.7098 243.82 49.7098 240.31V240.26C49.7098 236.99 52.0998 234.23 55.2598 234.23C57.4398 234.23 58.7298 234.94 60.0498 236.06L61.9598 233.79C60.1998 232.3 58.3598 231.47 55.3798 231.47C50.2198 231.47 46.5498 235.52 46.5498 240.31V240.36C46.5498 245.34 50.0698 249.15 55.4298 249.15C58.4598 249.15 60.8898 247.93 62.5698 246.49V239.31H55.2798V241.92Z" fill="black"/>
<path d="M73.1002 231.76H66.7202V248.85H73.1002C78.4802 248.85 82.2002 245.12 82.2002 240.3V240.25C82.2002 235.45 78.4802 231.76 73.1002 231.76ZM79.0502 240.36C79.0502 243.7 76.7002 246.12 73.1102 246.12H69.7402V234.5H73.1102C76.7102 234.5 79.0502 236.97 79.0502 240.31V240.36Z" fill="black"/>
<path d="M93.9998 231.47C88.7398 231.47 85.0298 235.5 85.0298 240.31V240.36C85.0298 245.17 88.6998 249.15 93.9598 249.15C99.2198 249.15 102.94 245.12 102.94 240.31V240.26C102.92 235.45 99.2498 231.47 93.9998 231.47ZM99.7698 240.36C99.7698 243.68 97.3998 246.39 93.9998 246.39C90.5998 246.39 88.1798 243.63 88.1798 240.31V240.26C88.1798 236.94 90.5498 234.23 93.9498 234.23C97.3498 234.23 99.7698 236.99 99.7698 240.31V240.36Z" fill="black"/>
<path d="M115.07 239.84L109.86 231.76H106.66V248.85H109.62V236.65L114.98 244.65H115.07L120.48 236.6V248.85H123.49V231.76H120.28L115.07 239.84Z" fill="black"/>
<path d="M143.45 231.47C138.19 231.47 134.48 235.5 134.48 240.31V240.36C134.48 245.17 138.15 249.15 143.41 249.15C148.67 249.15 152.39 245.12 152.39 240.31V240.26C152.38 235.45 148.71 231.47 143.45 231.47ZM149.22 240.36C149.22 243.68 146.85 246.39 143.45 246.39C140.05 246.39 137.63 243.63 137.63 240.31V240.26C137.63 236.94 140 234.23 143.4 234.23C146.8 234.23 149.22 236.99 149.22 240.31V240.36Z" fill="black"/>
<path d="M156.12 248.85H159.13V241.89H167.76V239.16H159.13V234.5H168.86V231.76H156.12V248.85Z" fill="black"/>
<path d="M186.11 238.94C182.83 238.16 182.05 237.57 182.05 236.26V236.21C182.05 235.09 183.08 234.18 184.84 234.18C186.41 234.18 187.95 234.79 189.49 235.94L191.1 233.67C189.36 232.28 187.38 231.52 184.89 231.52C181.49 231.52 179.04 233.55 179.04 236.47V236.52C179.04 239.67 181.1 240.74 184.74 241.62C187.92 242.35 188.6 243.01 188.6 244.23V244.29C188.6 245.59 187.43 246.44 185.57 246.44C183.44 246.44 181.8 245.63 180.16 244.22L178.35 246.37C180.41 248.2 182.87 249.1 185.49 249.1C189.09 249.1 191.6 247.2 191.6 244V243.95C191.61 241.11 189.73 239.82 186.11 238.94Z" fill="black"/>
<path d="M200.83 231.64L193.3 248.85H196.38L198.14 244.72H206.24L207.98 248.85H211.16L203.63 231.64H200.83ZM199.24 242.07L202.18 235.23L205.14 242.07H199.24Z" fill="black"/>
<path d="M224.56 241.6C224.56 244.75 222.92 246.36 220.25 246.36C217.56 246.36 215.92 244.65 215.92 241.48V231.76H212.91V241.6C212.91 246.55 215.75 249.12 220.2 249.12C224.68 249.12 227.56 246.56 227.56 241.46V231.77H224.55V241.6H224.56Z" fill="black"/>
<path d="M238.36 231.76H231.98V248.85H238.36C243.74 248.85 247.46 245.12 247.46 240.3V240.25C247.46 235.45 243.74 231.76 238.36 231.76ZM244.3 240.36C244.3 243.7 241.95 246.12 238.36 246.12H234.99V234.5H238.36C241.96 234.5 244.3 236.97 244.3 240.31V240.36Z" fill="black"/>
<path d="M254.28 231.76H251.27V248.85H254.28V231.76Z" fill="black"/>
<path d="M272.25 231.64L264.72 248.85H267.8L269.56 244.72H277.66L279.4 248.85H282.58L275.05 231.64H272.25ZM270.66 242.07L273.6 235.23L276.56 242.07H270.66Z" fill="black"/>
<path d="M299.41 237.21V237.16C299.41 235.67 298.9 234.4 297.99 233.47C296.89 232.4 295.2 231.76 293.05 231.76H285.42V248.85H288.43V242.89H292.15H292.2L296.41 248.85H299.96L295.34 242.38C297.72 241.7 299.41 240.01 299.41 237.21ZM288.43 240.23V234.49H292.81C295.04 234.49 296.36 235.49 296.36 237.32V237.37C296.36 239.1 294.99 240.23 292.84 240.23H288.43Z" fill="black"/>
<path d="M309.69 231.64L302.16 248.85H305.24L307 244.72H315.1L316.84 248.85H320.02L312.49 231.64H309.69ZM308.1 242.07L311.04 235.23L314 242.07H308.1Z" fill="black"/>
<path d="M333.71 239.97C334.98 239.31 336.16 238.21 336.16 236.16V236.11C336.16 234.96 335.77 234.04 335.01 233.28C334.03 232.3 332.49 231.77 330.53 231.77H322.85V248.86H330.77C334.59 248.86 337.1 247.23 337.1 244.17V244.12C337.11 241.8 335.72 240.65 333.71 239.97ZM325.81 234.42H330.14C332.07 234.42 333.15 235.25 333.15 236.59V236.64C333.15 238.2 331.85 238.96 329.92 238.96H325.81V234.42ZM334.1 243.85C334.1 245.39 332.85 246.19 330.8 246.19H325.81V241.5H330.58C332.95 241.5 334.1 242.36 334.1 243.8V243.85Z" fill="black"/>
<path d="M343.85 231.76H340.84V248.85H343.85V231.76Z" fill="black"/>
<path d="M357.04 231.64H354.25L346.72 248.85H349.8L351.56 244.72H359.66L361.4 248.85H364.58L357.04 231.64ZM352.66 242.07L355.6 235.23L358.56 242.07H352.66Z" fill="black"/>
</svg>
