<svg width="106" height="42" viewBox="0 0 106 42" fill="none" xmlns="http://www.w3.org/2000/svg">
<path d="M103.554 41.9943V24.2544H100.418V41.9943H103.554ZM106 1.21215C104.323 1.26959 102.678 1.78662 101.209 2.76323L97.448 5.2737V0H94.3979V5.26795L90.6374 2.75749C89.1684 1.78088 87.5285 1.26385 85.8459 1.2064V4.48666C86.9623 4.54411 88.052 4.89454 89.0296 5.5437L93.6661 8.63439L89.0296 11.7251C88.052 12.3742 86.9623 12.7247 85.8459 12.7821V16.0624C87.5232 16.0049 89.1684 15.4879 90.6374 14.5113L94.3979 12.0008V15.62C94.3979 17.3262 93.8264 18.998 92.71 20.2101L88.6984 24.5244C86.8608 26.5006 85.8459 29.1317 85.8459 31.9294V41.9828H88.9014V35.4682H94.3979V41.9828H97.448V12.0123L101.209 14.5228C102.672 15.4994 104.317 16.0164 106 16.0739V12.7936C104.884 12.7362 103.794 12.3857 102.816 11.7366L98.1798 8.64588L102.816 5.55519C103.794 4.90603 104.884 4.54986 106 4.49815V1.21215ZM94.3926 32.1994H88.896V31.9467C88.896 30.0279 89.5904 28.224 90.8511 26.8625L94.3926 23.0538V32.1994ZM99.793 20.3595L101.924 22.6516L104.056 20.3595L101.924 18.0673L99.793 20.3595Z" fill="url(#paint0_radial_3002_7809)"/>
<path d="M78.1058 11.8515H76.5033V21.9795H78.1058V11.8515Z" fill="#0C2746"/>
<path d="M46.1486 11.8505L45.0155 13.0692L46.1486 14.2878L47.2817 13.0692L46.1486 11.8505Z" fill="#0C2746"/>
<path d="M67.0806 33.8367V27.1498H63.4483C62.0862 27.1498 60.7988 27.7185 59.8373 28.7583L57.7434 31.0103C57.7007 31.0562 57.6526 31.1022 57.6045 31.1481V27.1555H56.002V32.0328C55.7617 32.0903 55.5159 32.119 55.2649 32.119H52.8024V27.1555H48.7374C47.3752 27.1555 46.0879 27.7243 45.1264 28.7641L43.3263 30.7V23.7087H41.7238V31.9007C41.3498 32.0443 40.9599 32.119 40.5539 32.119H38.5241V27.1555H36.9216V32.119H33.7166V23.7087H32.1141V33.8367H40.5486C41.9107 33.8367 43.1981 33.268 44.1596 32.2281L44.245 32.1362V33.8367H55.2595C56.6217 33.8367 57.909 33.268 58.8705 32.2281L58.9506 32.142V33.8367H67.0806ZM46.2588 29.9762C46.9212 29.2639 47.8026 28.8732 48.7374 28.8732H51.1999V32.1133H44.2717L46.2588 29.9762ZM60.9698 29.9762C61.6321 29.2639 62.5135 28.8732 63.4483 28.8732H65.4781V32.1133H58.9827L60.9698 29.9762Z" fill="#0C2746"/>
<path d="M78.1058 23.7087H76.5033V33.8367H78.1058V23.7087Z" fill="#0C2746"/>
<path d="M37.7229 23.7094L36.5898 24.928L37.7229 26.1467L38.8561 24.928L37.7229 23.7094Z" fill="#0C2746"/>
<path d="M13.5974 31.4022L12.4643 32.6209L13.5974 33.8395L14.7306 32.6209L13.5974 31.4022Z" fill="#0C2746"/>
<path d="M15.8666 31.4033L14.7335 32.622L15.8666 33.8406L16.9998 32.622L15.8666 31.4033Z" fill="#0C2746"/>
<path d="M16.041 29.9762L18.135 32.2281C19.1018 33.268 20.3838 33.8367 21.7459 33.8367H30.5169V32.1133H21.9863L23.9734 29.9762C24.6358 29.2639 25.5171 28.8732 26.4519 28.8732H30.5169V27.1498H26.4519C25.0898 27.1498 23.8025 27.7185 22.841 28.7583L20.747 31.0103C20.5227 31.2515 20.277 31.4526 20.0099 31.6192C19.7428 31.4526 19.4917 31.2515 19.2674 31.0103L17.1735 28.7583C16.2066 27.7185 14.9246 27.1498 13.5625 27.1498H9.93016V32.1133H2.45717L2.84711 31.6939C3.50413 30.9873 4.39619 30.5909 5.32564 30.5909H8.32766V28.8675H5.32564C3.96886 28.8675 2.67083 29.4477 1.71467 30.476L0.00534179 32.3143V33.8367H0.854667L0.908083 33.7792V33.8367H11.5273V28.8732H13.5571C14.4919 28.8732 15.3733 29.2639 16.0357 29.9762H16.041Z" fill="#0C2746"/>
<path d="M74.8902 33.8367C74.8154 32.4982 74.2972 31.2458 73.4052 30.2864L72.9244 29.7694L73.4052 29.2524C74.372 28.2126 74.9008 26.8338 74.9008 25.3689V23.7029H73.2983V25.3689C73.2983 26.3742 72.9351 27.3221 72.2727 28.0345L71.792 28.5515L71.3112 28.0345C70.6489 27.3221 70.2856 26.3742 70.2856 25.3689V23.7029H68.6831V25.3689C68.6831 26.8338 69.212 28.2183 70.1788 29.2524L70.6596 29.7694L70.1788 30.2864C69.2867 31.2458 68.7686 32.4924 68.6938 33.8367H74.8902ZM70.8625 32.1133C70.9961 31.895 71.1403 31.6939 71.3112 31.5043L71.792 30.9873L72.2727 31.5043C72.4437 31.6881 72.5932 31.895 72.7214 32.1133H70.8625Z" fill="#0C2746"/>
<path d="M12.3873 8.51949L12.4781 8.42183V10.128H20.5921V3.44686H16.9598C15.5977 3.44686 14.3103 4.01559 13.3488 5.0554L11.2549 7.30735C10.5925 8.0197 9.71115 8.41034 8.77636 8.41034H0.00534179V10.1338H8.77636C10.1385 10.1338 11.4258 9.56504 12.3873 8.52524V8.51949ZM14.4813 6.27329C15.1436 5.56094 16.025 5.17029 16.9598 5.17029H18.9896V8.41034H12.4942L14.4813 6.27329Z" fill="#0C2746"/>
<path d="M74.0408 5.16455H78.1058V3.44112H74.0408C72.6787 3.44112 71.3914 4.00985 70.4299 5.04965L68.3359 7.3016C68.2344 7.41075 68.1329 7.50267 68.0261 7.59458C67.9941 7.62331 67.962 7.64629 67.9246 7.67501C67.8445 7.7382 67.759 7.8014 67.6736 7.8531C67.6362 7.87608 67.6041 7.89906 67.5667 7.92204C67.4546 7.99097 67.3424 8.04842 67.2249 8.10587C67.2142 8.10587 67.2088 8.11736 67.1982 8.11736C67.0753 8.17481 66.9418 8.22076 66.8136 8.26098C66.5037 8.35289 66.1832 8.4046 65.8521 8.4046H23.7971V0H22.1946V10.128H78.1058V8.4046H69.5752L71.5623 6.26754C72.2247 5.55519 73.106 5.16455 74.0408 5.16455Z" fill="#0C2746"/>
<path d="M45.0196 21.9852H74.9062V11.8572H73.3037V20.2675H57.268C56.9368 20.2675 56.6163 20.2158 56.3065 20.1239C56.1783 20.0837 56.0448 20.0378 55.9219 19.9803C55.9112 19.9803 55.9059 19.9688 55.8952 19.9688C55.7777 19.9171 55.6655 19.8539 55.5533 19.785C55.5159 19.762 55.4839 19.739 55.4465 19.716C55.361 19.6586 55.2756 19.6011 55.1954 19.538C55.1634 19.5092 55.1313 19.4863 55.0939 19.4575C54.9871 19.3656 54.8803 19.268 54.7841 19.1645L52.6902 16.9126C51.7234 15.8728 50.4414 15.3041 49.0792 15.3041H45.0142V17.0275H49.0792C50.014 17.0275 50.8954 17.4181 51.5578 18.1305L53.5449 20.2675H45.0142V21.991L45.0196 21.9852Z" fill="#0C2746"/>
<path d="M10.2774 20.2618H5.67819L7.66529 18.1247C8.32766 17.4124 9.20903 17.0217 10.1438 17.0217H10.2774V15.2983H10.1438C8.7817 15.2983 7.49436 15.8671 6.53286 16.9069L4.43892 19.1588C4.00091 19.6299 3.30115 20.2618 2.68152 20.2618H0V21.9852H10.272V20.2618H10.2774Z" fill="#0C2746"/>
<path d="M40.9599 20.2618H13.4824V11.8515H11.8799V21.9795H43.4064V20.4571L41.697 18.6188C40.7409 17.5905 39.4375 17.0103 38.0861 17.0103H22.9264L23.498 16.3956C24.1604 15.6832 25.0417 15.2926 25.9765 15.2926H41.7184V13.5691H25.9765C24.6144 13.5691 23.3271 14.1379 22.3656 15.1777L20.6616 17.0103V18.7337H38.0861C39.0155 18.7337 39.9076 19.1301 40.5646 19.8367L40.9599 20.2618Z" fill="#0C2746"/>
<path d="M1.9871 39.5527H1.27132V41.9483H0.721125V39.5527H0.00534179V39.0472H1.9871V39.5527Z" fill="#0A2745"/>
<path d="M3.9742 41.9483V40.7247H2.90587V41.9483H2.35567V39.0472H2.90587V40.2191H3.9742V39.0472H4.52439V41.9483H3.9742Z" fill="#0A2745"/>
<path d="M6.76255 41.4428V41.9483H5.08527V39.0472H6.76255V39.5527H5.63546V40.2249H6.59696V40.7304H5.63546V41.4428H6.76255Z" fill="#0A2745"/>
<path d="M8.99002 41.9483H8.43983V40.7879C8.00182 40.11 7.70268 39.5298 7.54777 39.0472H8.11399C8.25822 39.4608 8.4612 39.8802 8.7176 40.3053C8.96866 39.8974 9.1663 39.4781 9.31587 39.0472H9.88208C9.71115 39.547 9.41202 40.1272 8.99002 40.7879V41.9483Z" fill="#0A2745"/>
<path d="M11.8585 41.4428V41.9483H10.1812V39.0472H11.8585V39.5527H10.7314V40.2249H11.6929V40.7304H10.7314V41.4428H11.8585Z" fill="#0A2745"/>
<path d="M13.9738 41.9483L13.8135 41.3106H12.82C12.7666 41.506 12.7132 41.7185 12.6597 41.9483H12.0935C12.4033 40.7362 12.7132 39.771 13.0283 39.0472H13.5999C13.9257 39.7883 14.2409 40.7591 14.54 41.9483H13.9738ZM13.3114 39.6791C13.2206 39.8917 13.0978 40.2708 12.9482 40.8051H13.6693C13.5144 40.2478 13.3969 39.8744 13.3114 39.6791Z" fill="#0A2745"/>
<path d="M15.4267 40.8683V41.9426H14.8712V39.0414H15.6671C15.9983 39.0414 16.26 39.1161 16.447 39.2655C16.6339 39.4149 16.7301 39.6274 16.7301 39.9032C16.7301 40.3225 16.5538 40.581 16.1959 40.6787C16.3134 40.7304 16.4203 40.8568 16.5164 41.0636L16.9117 41.9426H16.3188L15.9502 41.1211C15.9075 41.0291 15.8594 40.9659 15.806 40.9257C15.7526 40.8855 15.6831 40.8683 15.5977 40.8683H15.4267ZM15.6404 39.5527H15.4267V40.3742H15.6404C15.9876 40.3742 16.1639 40.2364 16.1639 39.9606C16.1639 39.8112 16.1211 39.7078 16.0303 39.6446C15.9449 39.5815 15.8113 39.5527 15.6351 39.5527H15.6404Z" fill="#0A2745"/>
<path d="M20.1808 39.4091C20.3945 39.6849 20.5067 40.0468 20.5067 40.4949C20.5067 40.943 20.3998 41.3049 20.1808 41.5806C19.9671 41.8564 19.668 41.9943 19.2888 41.9943C18.9095 41.9943 18.6104 41.8564 18.3914 41.5806C18.1723 41.3049 18.0655 40.943 18.0655 40.4949C18.0655 40.0468 18.1723 39.6849 18.3914 39.4091C18.605 39.1334 18.9042 38.9955 19.2888 38.9955C19.6734 38.9955 19.9671 39.1334 20.1808 39.4091ZM18.7973 39.7825C18.6851 39.9549 18.6317 40.1961 18.6317 40.5006C18.6317 40.8051 18.6851 41.0406 18.7973 41.2187C18.9095 41.3911 19.0697 41.4772 19.2834 41.4772C19.4971 41.4772 19.652 41.3911 19.7642 41.2187C19.8763 41.0464 19.9298 40.8051 19.9298 40.5006C19.9298 40.1961 19.8763 39.9606 19.7642 39.7825C19.652 39.6102 19.4917 39.524 19.2834 39.524C19.0751 39.524 18.9095 39.6102 18.7973 39.7825Z" fill="#0A2745"/>
<path d="M21.4949 41.9483H20.9447V39.0472H22.5846V39.5527H21.4949V40.3398H22.4136V40.8453H21.4949V41.9483Z" fill="#0A2745"/>
<path d="M25.5706 41.9483L25.4103 41.3106H24.4168C24.3633 41.506 24.3099 41.7185 24.2565 41.9483H23.6903C24.0001 40.7362 24.3099 39.771 24.6251 39.0472H25.1966C25.5225 39.7883 25.8376 40.7591 26.1368 41.9483H25.5706ZM24.9135 39.6791C24.8227 39.8917 24.6999 40.2708 24.5503 40.8051H25.2714C25.1165 40.2478 24.999 39.8744 24.9135 39.6791Z" fill="#0A2745"/>
<path d="M27.0288 40.8683V41.9426H26.4733V39.0414H27.2692C27.6004 39.0414 27.8621 39.1161 28.0491 39.2655C28.236 39.4149 28.3322 39.6274 28.3322 39.9032C28.3322 40.3225 28.1559 40.581 27.798 40.6787C27.9155 40.7304 28.0224 40.8568 28.1185 41.0636L28.5138 41.9426H27.9209L27.5523 41.1211C27.5096 41.0291 27.4615 40.9659 27.4081 40.9257C27.3547 40.8855 27.2852 40.8683 27.1998 40.8683H27.0288ZM27.2372 39.5527H27.0235V40.3742H27.2372C27.5844 40.3742 27.7606 40.2364 27.7606 39.9606C27.7606 39.8112 27.7179 39.7078 27.6271 39.6446C27.5416 39.5815 27.4081 39.5527 27.2318 39.5527H27.2372Z" fill="#0A2745"/>
<path d="M30.4368 39.5527H29.721V41.9483H29.1708V39.5527H28.4551V39.0472H30.4368V39.5527Z" fill="#0A2745"/>
<path d="M30.8001 41.9483V39.0472H31.3502V41.9483H30.8001Z" fill="#0A2745"/>
<path d="M32.456 41.9483H31.9058V39.0472H33.5457V39.5527H32.456V40.3398H33.3747V40.8453H32.456V41.9483Z" fill="#0A2745"/>
<path d="M33.973 41.9483V39.0472H34.5232V41.9483H33.973Z" fill="#0A2745"/>
<path d="M36.2325 41.9943C35.8319 41.9943 35.5167 41.8621 35.2977 41.5921C35.0787 41.3279 34.9665 40.9659 34.9665 40.5121C34.9665 40.0583 35.0787 39.6849 35.2977 39.4034C35.5221 39.1276 35.8372 38.9897 36.2539 38.9897C36.4729 38.9897 36.6866 39.0414 36.9056 39.1391L36.7827 39.6389C36.553 39.5527 36.3821 39.5125 36.2592 39.5125C35.7785 39.5125 35.5328 39.8457 35.5328 40.5064C35.5328 41.167 35.7731 41.4657 36.2539 41.4657C36.4355 41.4657 36.6225 41.414 36.8201 41.3049L36.9269 41.8162C36.724 41.9311 36.4943 41.9885 36.2272 41.9885L36.2325 41.9943Z" fill="#0A2745"/>
<path d="M37.3329 41.9483V39.0472H37.8831V41.9483H37.3329Z" fill="#0A2745"/>
<path d="M40.0999 41.9483L39.9396 41.3106H38.9461C38.8927 41.506 38.8393 41.7185 38.7858 41.9483H38.2196C38.5294 40.7362 38.8393 39.771 39.1544 39.0472H39.726C40.0518 39.7883 40.367 40.7591 40.6661 41.9483H40.0999ZM39.4429 39.6791C39.3521 39.8917 39.2292 40.2708 39.0796 40.8051H39.8008C39.6458 40.2478 39.5283 39.8744 39.4429 39.6791Z" fill="#0A2745"/>
<path d="M41.0026 41.9483V39.0472H41.5528V41.4428H42.6425V41.9483H41.0026Z" fill="#0A2745"/>
<path d="M43.9512 41.9483V39.0472H44.5014V41.9483H43.9512Z" fill="#0A2745"/>
<path d="M45.5644 41.9483H45.0569V39.0472H45.5911C45.9223 39.7308 46.3122 40.4202 46.7663 41.1211C46.7556 41.0234 46.7503 40.9028 46.7503 40.7591V39.0472H47.2577V41.9483H46.7236C46.4672 41.5806 46.2535 41.2532 46.0772 40.9774C45.9009 40.6959 45.73 40.3857 45.5537 40.0468C45.5644 40.1904 45.5698 40.357 45.5698 40.5408V41.954L45.5644 41.9483Z" fill="#0A2745"/>
<path d="M49.5974 39.5527H48.8816V41.9483H48.3314V39.5527H47.6156V39.0472H49.5974V39.5527Z" fill="#0A2745"/>
<path d="M51.6432 41.4428V41.9483H49.9659V39.0472H51.6432V39.5527H50.5161V40.2249H51.4776V40.7304H50.5161V41.4428H51.6432Z" fill="#0A2745"/>
<path d="M52.0973 41.9483V39.0472H52.6475V41.4428H53.7372V41.9483H52.0973Z" fill="#0A2745"/>
<path d="M54.0523 41.9483V39.0472H54.6025V41.4428H55.6922V41.9483H54.0523Z" fill="#0A2745"/>
<path d="M56.1035 41.9483V39.0472H56.6537V41.9483H56.1035Z" fill="#0A2745"/>
<path d="M59.2765 41.7702C59.004 41.9196 58.7156 42 58.4271 42C58.0105 42 57.6847 41.8679 57.4496 41.5979C57.2146 41.3336 57.0971 40.9774 57.0971 40.5293C57.0971 40.0813 57.2199 39.7021 57.4603 39.4206C57.7007 39.1391 58.0319 38.9955 58.4485 38.9955C58.7209 38.9955 58.9667 39.0472 59.1803 39.1449L59.0575 39.6446C58.8705 39.5642 58.6675 39.5183 58.4592 39.5183C58.1975 39.5183 58.0052 39.6102 57.8716 39.7883C57.7381 39.9664 57.6686 40.2134 57.6686 40.5293C57.6686 40.8281 57.7381 41.0579 57.8716 41.2245C58.0052 41.3911 58.1974 41.4715 58.4538 41.4715C58.5607 41.4715 58.6729 41.46 58.7797 41.4313V40.7879H58.3363V40.2996H59.2818V41.7645L59.2765 41.7702Z" fill="#0A2745"/>
<path d="M61.4398 41.4428V41.9483H59.7626V39.0472H61.4398V39.5527H60.3128V40.2249H61.2743V40.7304H60.3128V41.4428H61.4398Z" fill="#0A2745"/>
<path d="M62.4013 41.9483H61.8939V39.0472H62.428C62.7592 39.7308 63.1492 40.4202 63.6032 41.1211C63.5925 41.0234 63.5872 40.9028 63.5872 40.7591V39.0472H64.0947V41.9483H63.5605C63.3041 41.5806 63.0904 41.2532 62.9141 40.9774C62.7379 40.6959 62.5669 40.3857 62.3907 40.0468C62.4013 40.1904 62.4067 40.357 62.4067 40.5408V41.954L62.4013 41.9483Z" fill="#0A2745"/>
<path d="M65.7986 41.9943C65.398 41.9943 65.0829 41.8621 64.8639 41.5921C64.6448 41.3279 64.5327 40.9659 64.5327 40.5121C64.5327 40.0583 64.6448 39.6849 64.8639 39.4034C65.0882 39.1276 65.4034 38.9897 65.82 38.9897C66.039 38.9897 66.2527 39.0414 66.4717 39.1391L66.3488 39.6389C66.1191 39.5527 65.9482 39.5125 65.8254 39.5125C65.3446 39.5125 65.0989 39.8457 65.0989 40.5064C65.0989 41.167 65.3393 41.4657 65.82 41.4657C66.0016 41.4657 66.1886 41.414 66.3862 41.3049L66.4931 41.8162C66.2901 41.9311 66.0604 41.9885 65.7933 41.9885L65.7986 41.9943Z" fill="#0A2745"/>
<path d="M68.5763 41.4428V41.9483H66.899V39.0472H68.5763V39.5527H67.4492V40.2249H68.4107V40.7304H67.4492V41.4428H68.5763Z" fill="#0A2745"/>
<path d="M71.5302 41.9483H69.7835V41.4657L70.1895 41.0521C70.4299 40.8108 70.6008 40.6098 70.7023 40.4604C70.8038 40.311 70.8519 40.1559 70.8519 39.9951C70.8519 39.7423 70.7343 39.6159 70.494 39.6159C70.3391 39.6159 70.1681 39.6849 69.9919 39.8227L69.7568 39.4149C69.9812 39.2195 70.2482 39.1219 70.5634 39.1219C70.8305 39.1219 71.0388 39.1966 71.1884 39.3402C71.3379 39.4838 71.4074 39.6849 71.4074 39.9434C71.4074 40.2019 71.3326 40.4317 71.1777 40.6672C71.0228 40.9028 70.8091 41.144 70.542 41.4025L70.4833 41.46H71.5409V41.954L71.5302 41.9483Z" fill="#0A2745"/>
<path d="M72.871 41.9943C72.6894 41.9943 72.5345 41.954 72.4009 41.8794C72.2674 41.8047 72.1606 41.7013 72.0858 41.5634C72.0057 41.4313 71.9469 41.2762 71.9095 41.1096C71.8721 40.943 71.8508 40.7591 71.8508 40.5581C71.8508 40.357 71.8721 40.1732 71.9095 40.0008C71.9469 39.8342 72.0057 39.6791 72.0858 39.5412C72.1659 39.4034 72.2727 39.3 72.4009 39.2195C72.5345 39.1449 72.6894 39.1046 72.871 39.1046C73.1061 39.1046 73.3037 39.1736 73.4586 39.3057C73.6135 39.4436 73.7257 39.6102 73.7844 39.8227C73.8485 40.0295 73.8806 40.2708 73.8806 40.5523C73.8806 40.7591 73.8646 40.943 73.8272 41.1096C73.7898 41.2762 73.731 41.4255 73.6562 41.5634C73.5815 41.7013 73.4746 41.7989 73.3411 41.8736C73.2075 41.9483 73.0526 41.9828 72.8764 41.9828L72.871 41.9943ZM72.871 41.5002C73.1755 41.5002 73.3251 41.19 73.3251 40.5638C73.3251 39.9376 73.1755 39.6159 72.871 39.6159C72.5665 39.6159 72.4063 39.9319 72.4063 40.5638C72.4063 41.1957 72.5612 41.5002 72.871 41.5002Z" fill="#0A2745"/>
<path d="M75.857 41.9483H74.1103V41.4657L74.5163 41.0521C74.7566 40.8108 74.9276 40.6098 75.029 40.4604C75.1305 40.311 75.1786 40.1559 75.1786 39.9951C75.1786 39.7423 75.0611 39.6159 74.8207 39.6159C74.6658 39.6159 74.4949 39.6849 74.3186 39.8227L74.0836 39.4149C74.3079 39.2195 74.575 39.1219 74.8902 39.1219C75.1572 39.1219 75.3656 39.1966 75.5151 39.3402C75.6647 39.4838 75.7341 39.6849 75.7341 39.9434C75.7341 40.2019 75.6594 40.4317 75.5044 40.6672C75.3495 40.9028 75.1359 41.144 74.8688 41.4025L74.81 41.46H75.8677V41.954L75.857 41.9483Z" fill="#0A2745"/>
<path d="M78.1059 41.0119C78.1059 41.3164 78.0257 41.5577 77.8601 41.73C77.6945 41.9081 77.4755 41.9943 77.1871 41.9943C76.8719 41.9943 76.6262 41.8736 76.4499 41.6266C76.2683 41.3796 76.1828 41.0693 76.1828 40.6959C76.1828 40.4834 76.2042 40.2823 76.2523 40.0927C76.3004 39.9089 76.3698 39.7366 76.4606 39.5929C76.5514 39.4436 76.6743 39.3287 76.8345 39.2425C76.9894 39.1563 77.1657 39.1161 77.3687 39.1161C77.5717 39.1161 77.7212 39.1391 77.8548 39.1851L77.7533 39.6504C77.6304 39.6217 77.5183 39.6044 77.4168 39.6044C77.0375 39.6044 76.8132 39.8457 76.7491 40.3225C76.92 40.2076 77.1123 40.1502 77.3206 40.1502C77.5663 40.1502 77.7586 40.2306 77.8975 40.3857C78.0364 40.5466 78.1112 40.7534 78.1112 41.0062L78.1059 41.0119ZM77.1924 41.5002C77.3099 41.5002 77.4007 41.46 77.4648 41.3796C77.5289 41.2991 77.561 41.19 77.561 41.0579C77.561 40.7879 77.4221 40.6557 77.1497 40.6557C77.0215 40.6557 76.8826 40.6959 76.7224 40.7821C76.733 41.0062 76.7758 41.1842 76.8559 41.3106C76.936 41.437 77.0482 41.506 77.1924 41.506V41.5002Z" fill="#0A2745"/>
<defs>
<radialGradient id="paint0_radial_3002_7809" cx="0" cy="0" r="1" gradientUnits="userSpaceOnUse" gradientTransform="translate(86.4556 43.0834) scale(44.7762 48.1552)">
<stop stop-color="#272660"/>
<stop offset="0.2" stop-color="#225978"/>
<stop offset="0.3" stop-color="#236C76"/>
<stop offset="0.49" stop-color="#258B75"/>
<stop offset="0.67" stop-color="#27A173"/>
<stop offset="0.84" stop-color="#28AE73"/>
<stop offset="1" stop-color="#29B373"/>
</radialGradient>
</defs>
</svg>
