<svg width="32" height="46" viewBox="0 0 32 46" fill="none" xmlns="http://www.w3.org/2000/svg">
<g id="Group">
<path id="Vector" d="M17.4394 22.3226C17.2097 22.4883 17.0635 22.7575 17.0635 23.0475V30.3995C17.0635 30.8966 17.4603 31.2901 17.9616 31.2901C18.4629 31.2901 18.8597 30.8966 18.8597 30.3995V23.5031L26.734 18.0356C27.0055 18.1806 27.2979 18.2427 27.6321 18.2427C28.6973 18.2427 29.5746 17.3936 29.5746 16.3167C29.5746 15.2605 28.7182 14.3906 27.6321 14.3906C26.5669 14.3906 25.6896 15.2397 25.6896 16.3167C25.6896 16.3995 25.6897 16.4824 25.7105 16.5445L17.4394 22.3226Z" fill="url(#paint0_linear_3649_19701)"/>
<path id="Vector_2" d="M11.8627 20.3749V27.7063C11.2361 28.0376 10.8184 28.6589 10.8184 29.4045C10.8184 30.4607 11.6747 31.3305 12.7608 31.3305C13.826 31.3305 14.7033 30.4814 14.7033 29.4045C14.7033 28.6589 14.2855 28.0169 13.6589 27.7063V20.8512L25.3137 12.7743C25.5434 12.6086 25.6896 12.3394 25.6896 12.0494V6.58194C25.6896 6.0849 25.2928 5.69141 24.7915 5.69141C24.2902 5.69141 23.8934 6.0849 23.8934 6.58194V11.5731L12.2386 19.65C11.988 19.795 11.8418 20.0642 11.8627 20.3749Z" fill="url(#paint1_linear_3649_19701)"/>
<path id="Vector_3" d="M25.8147 22.8201L22.8488 24.8911C22.431 25.1811 22.3475 25.7195 22.6399 26.1337C22.807 26.3823 23.0994 26.5065 23.3709 26.5065C23.5589 26.5065 23.726 26.4651 23.8931 26.3408L26.859 24.2698C27.2767 23.9799 27.3603 23.4414 27.0679 23.0272C26.7964 22.6337 26.2324 22.5302 25.8147 22.8201Z" fill="url(#paint2_linear_3649_19701)"/>
<path id="Vector_4" d="M31.4961 28.0174C31.2037 27.6032 30.6397 27.4997 30.222 27.7896L16.1653 37.5441L2.10858 27.7896C1.69085 27.4997 1.12691 27.6032 0.834493 28.0174C0.54208 28.4316 0.646521 28.9908 1.06425 29.2808L14.5779 38.6624L10.6303 41.4169C10.3588 41.2719 10.0455 41.2098 9.7322 41.2098C8.6461 41.2098 7.76885 42.0796 7.76885 43.1565C7.76885 44.2335 8.6461 45.1033 9.7322 45.1033C10.8183 45.1033 11.6955 44.2335 11.6955 43.1565C11.6955 43.0737 11.6955 42.9909 11.6747 42.908L16.1862 39.7808L20.6977 42.908C20.6977 42.9909 20.6768 43.0737 20.6768 43.1565C20.6768 44.2335 21.554 45.1033 22.6401 45.1033C23.7262 45.1033 24.6035 44.2335 24.6035 43.1565C24.6035 42.0796 23.7262 41.2098 22.6401 41.2098C22.3059 41.2098 22.0135 41.2926 21.742 41.4169L17.7944 38.6624L31.3081 29.2808C31.684 28.9908 31.7885 28.4316 31.4961 28.0174Z" fill="url(#paint3_linear_3649_19701)"/>
<path id="Vector_5" d="M6.51567 6.87194L9.48158 4.80093C9.89931 4.51099 9.98285 3.97253 9.69044 3.55833C9.52335 3.3098 9.23094 3.18555 8.95941 3.18555C8.77143 3.18555 8.60434 3.22696 8.43724 3.35123L5.47134 5.42224C5.0536 5.71218 4.97006 6.25064 5.26247 6.66484C5.534 7.05834 6.09794 7.16189 6.51567 6.87194Z" fill="url(#paint4_linear_3649_19701)"/>
<path id="Vector_6" d="M18.6718 3.95239V8.86069L7.01707 16.9376C6.78732 17.1033 6.64111 17.3725 6.64111 17.6625V23.13C6.64111 23.627 7.03796 24.0205 7.53924 24.0205C8.04051 24.0205 8.43736 23.627 8.43736 23.13V18.1388L20.0921 10.0619C20.3218 9.8962 20.468 9.62696 20.468 9.33702V3.95239C21.0946 3.62103 21.5124 2.99973 21.5124 2.25417C21.5124 1.19795 20.656 0.328125 19.5699 0.328125C18.5047 0.328125 17.6275 1.17724 17.6275 2.25417C17.6484 2.97902 18.0661 3.62103 18.6718 3.95239Z" fill="url(#paint5_linear_3649_19701)"/>
<path id="Vector_7" d="M4.6778 15.2609C5.74302 15.2609 6.62026 14.4118 6.62026 13.3349C6.62026 13.252 6.62026 13.1692 6.59938 13.107L14.8705 7.37034C15.1002 7.20466 15.2464 6.93542 15.2464 6.64548V1.24014C15.2464 0.743099 14.8496 0.349609 14.3483 0.349609C13.847 0.349609 13.4502 0.743099 13.4502 1.24014V6.18986L5.57593 11.6366C5.3044 11.4916 5.01199 11.4295 4.6778 11.4295C3.61259 11.4295 2.73535 12.2786 2.73535 13.3556C2.75624 14.4118 3.61259 15.2609 4.6778 15.2609Z" fill="url(#paint6_linear_3649_19701)"/>
</g>
<defs>
<linearGradient id="paint0_linear_3649_19701" x1="23.3234" y1="6.12484" x2="23.3234" y2="40.9997" gradientUnits="userSpaceOnUse">
<stop stop-color="#00ABAF"/>
<stop offset="0.24" stop-color="#0093B4"/>
<stop offset="0.48" stop-color="#0080BA"/>
<stop offset="1" stop-color="#774896"/>
</linearGradient>
<linearGradient id="paint1_linear_3649_19701" x1="18.2526" y1="6.12387" x2="18.2526" y2="40.9987" gradientUnits="userSpaceOnUse">
<stop stop-color="#00ABAF"/>
<stop offset="0.24" stop-color="#0093B4"/>
<stop offset="0.48" stop-color="#0080BA"/>
<stop offset="1" stop-color="#774896"/>
</linearGradient>
<linearGradient id="paint2_linear_3649_19701" x1="24.8513" y1="6.12534" x2="24.8513" y2="41.0002" gradientUnits="userSpaceOnUse">
<stop stop-color="#00ABAF"/>
<stop offset="0.24" stop-color="#0093B4"/>
<stop offset="0.48" stop-color="#0080BA"/>
<stop offset="1" stop-color="#774896"/>
</linearGradient>
<linearGradient id="paint3_linear_3649_19701" x1="16.1642" y1="6.12442" x2="16.1642" y2="40.9992" gradientUnits="userSpaceOnUse">
<stop stop-color="#29B2B2"/>
<stop offset="0.27" stop-color="#1091B3"/>
<stop offset="0.48" stop-color="#017EB5"/>
<stop offset="1" stop-color="#704B98"/>
</linearGradient>
<linearGradient id="paint4_linear_3649_19701" x1="7.47681" y1="6.12394" x2="7.47681" y2="40.9987" gradientUnits="userSpaceOnUse">
<stop stop-color="#00ABAF"/>
<stop offset="0.24" stop-color="#0093B4"/>
<stop offset="0.48" stop-color="#0080BA"/>
<stop offset="1" stop-color="#774896"/>
</linearGradient>
<linearGradient id="paint5_linear_3649_19701" x1="14.0784" y1="6.12451" x2="14.0784" y2="40.9993" gradientUnits="userSpaceOnUse">
<stop stop-color="#00ABAF"/>
<stop offset="0.24" stop-color="#0093B4"/>
<stop offset="0.48" stop-color="#0080BA"/>
<stop offset="1" stop-color="#774896"/>
</linearGradient>
<linearGradient id="paint6_linear_3649_19701" x1="9.00509" y1="6.12529" x2="9.00509" y2="41.0001" gradientUnits="userSpaceOnUse">
<stop stop-color="#00ABAF"/>
<stop offset="0.24" stop-color="#0093B4"/>
<stop offset="0.48" stop-color="#0080BA"/>
<stop offset="1" stop-color="#774896"/>
</linearGradient>
</defs>
</svg>
