<svg width="48" height="48" viewBox="0 0 48 48" fill="none" xmlns="http://www.w3.org/2000/svg">
<path d="M47.9659 30.6167C47.4062 30.2784 46.3862 29.7082 44.9781 29.2347C42.9471 28.5389 40.1127 28.017 36.7547 28.5872C35.6264 28.7805 34.4349 29.0994 33.1982 29.5729C33.0808 29.6213 32.9635 29.6599 32.8462 29.7082C32.2143 29.9595 31.5915 30.2688 30.9596 30.607C30.418 30.897 29.8854 31.2159 29.3528 31.5638C28.1342 32.3466 26.9337 33.2357 25.7692 34.2022C24.4423 25.6106 25.0922 17.6375 25.3991 13.7234C25.3991 13.7041 25.4262 13.6944 25.4443 13.7041C28.2877 15.6176 27.4933 20.962 26.8885 22.4986C26.8795 22.5276 26.9156 22.547 26.9427 22.5276C30.4812 18.053 28.7571 13.1049 28.0259 11.8582C28.0079 11.8292 28.044 11.8002 28.071 11.8195C28.5856 12.2641 29.0008 12.7376 29.3528 13.2208C30.4451 14.7188 30.8513 16.3328 30.9596 17.7631C31.0138 18.5169 30.9957 19.2127 30.9596 19.8119C30.9506 19.9762 30.9415 20.1212 30.9235 20.2662C30.9235 20.2855 30.9415 20.2951 30.9596 20.2855C30.9686 20.2855 30.9776 20.2855 30.9776 20.2758C31.9345 18.2656 32.3948 15.231 30.9596 12.2834C30.5714 11.4813 30.0479 10.6888 29.3528 9.92529C29.1543 9.70301 28.9376 9.4904 28.7119 9.26812C28.6939 9.24879 28.7119 9.21013 28.739 9.21979C28.9556 9.27778 29.1543 9.34543 29.3528 9.41308C29.9576 9.63536 30.4902 9.94462 30.9596 10.3215C32.0338 11.172 32.7649 12.3317 33.1982 13.5494C33.5593 14.5545 33.7218 15.5886 33.7218 16.5067C33.7218 16.5454 33.7669 16.5454 33.7759 16.5164C34.4439 13.8973 34.0377 11.9162 33.1982 10.4762C32.6024 9.44208 31.781 8.68825 30.9596 8.15671C30.3999 7.79913 29.8403 7.54786 29.3528 7.39323C29.064 7.29659 28.8112 7.2386 28.5856 7.20961C28.5495 7.20961 28.5585 7.15162 28.5946 7.15162C28.8563 7.12263 29.1091 7.11296 29.3528 7.1033C29.9486 7.09363 30.4812 7.15162 30.9596 7.2386C31.9074 7.43188 32.6476 7.77981 33.1982 8.18571C34.1009 8.83323 34.5522 9.59671 34.7057 9.90597C34.7147 9.93496 34.7598 9.91563 34.7598 9.88664C34.6335 8.50463 34.0377 7.42222 33.2072 6.64907C32.5663 6.04988 31.781 5.63432 30.9686 5.38304C30.436 5.22841 29.8944 5.14144 29.3618 5.13177C28.6397 5.12211 27.9447 5.24774 27.3579 5.51834C27.3308 5.52801 27.3128 5.49901 27.3218 5.47002C27.8454 4.66788 28.5856 4.18467 29.3618 3.92373C29.9035 3.74977 30.4541 3.68211 30.9686 3.72077C31.4651 3.74976 31.9164 3.86573 32.2865 4.04936C32.3136 4.05902 32.3317 4.03004 32.3136 4.00105C31.9074 3.50816 31.447 3.12158 30.9686 2.83165C30.4541 2.52239 29.9125 2.33877 29.3618 2.27112C27.9266 2.09716 26.4643 2.75434 25.4894 4.32963C25.4804 4.34896 25.4533 4.34896 25.4443 4.32963C25.2547 3.97205 25.0742 3.5758 24.9117 3.16024C24.5235 2.1938 24.2076 1.1114 24.0361 0.0289931C24.0271 -0.00966436 23.991 -0.00966436 23.991 0.0289931C23.8195 1.1114 23.4945 2.20347 23.1064 3.16991C22.9348 3.58548 22.7633 3.97205 22.5738 4.31997C22.5648 4.3393 22.5377 4.3393 22.5286 4.31997C20.8316 1.56563 17.6452 1.62361 15.7045 4.00105C15.6864 4.02037 15.7045 4.05902 15.7315 4.04936C17.0224 3.39218 19.4686 3.58547 20.6962 5.47002C20.7143 5.49901 20.6872 5.52801 20.6601 5.51834C18.7735 4.66788 15.8489 5.21875 14.2873 7.20961C13.7276 7.9151 13.3485 8.81389 13.2492 9.88664C13.2492 9.91563 13.2853 9.93496 13.3034 9.90597C13.4207 9.66436 13.7276 9.14247 14.2873 8.61093C15.199 7.75081 16.7877 6.88102 19.4144 7.14196C19.4505 7.15163 19.4505 7.19995 19.4235 7.19995C18.0785 7.3739 15.3073 8.65927 14.2873 11.5972C13.8359 12.8923 13.7186 14.5159 14.2241 16.5067C14.2331 16.5357 14.2782 16.5357 14.2782 16.4971C14.2782 16.4487 14.2782 16.4101 14.2873 16.3618C14.3143 13.6944 15.7406 10.1186 19.27 9.21013C19.2971 9.20047 19.3151 9.23912 19.2971 9.25844C15.3524 12.9696 15.7406 17.5505 17.0314 20.2565C17.0494 20.2855 17.0855 20.2758 17.0855 20.2468C16.914 18.198 16.7786 14.5545 19.938 11.8002C19.9651 11.7808 20.0012 11.8098 19.9831 11.8388C19.252 13.0952 17.5279 18.0337 21.0663 22.5083C21.0844 22.5373 21.1295 22.518 21.1205 22.4793C20.5247 20.9523 19.7304 15.5983 22.5647 13.6847C22.5828 13.6751 22.6099 13.6847 22.6099 13.7041C22.9168 17.6181 23.5667 25.5912 22.2398 34.1828C19.956 32.3079 17.5459 30.665 15.1629 29.6986C14.865 29.5826 14.5761 29.4763 14.2963 29.37C11.832 28.5002 9.57533 28.2586 7.60751 28.3552C4.44816 28.5002 2.02901 29.5149 0.702082 30.2204C0.431281 30.3654 0.205609 30.5007 0.0341014 30.607C-0.0381122 30.6553 0.0160458 30.7616 0.0882595 30.7327C0.295874 30.665 0.494468 30.5974 0.702082 30.5394C3.13027 29.8049 5.43207 29.6116 7.60751 29.8145C9.98153 30.0368 12.2111 30.7327 14.2963 31.7378C17.2209 33.1488 19.8658 35.1589 22.2578 37.2851C18.8819 40.4357 16.0294 43.4993 14.2963 44.572C14.206 44.6203 14.1248 44.6783 14.0435 44.7267C13.6283 44.1178 12.9062 43.7699 12.1209 43.9535C11.4348 44.1178 10.8752 44.7073 10.7217 45.4322C10.5863 46.0797 10.7398 46.7852 11.0828 47.1524C12.0035 48.1382 13.0687 48.2058 14.2963 47.655C16.6342 46.6015 19.5408 43.2963 23.1064 39.7978C23.4042 39.5079 23.7021 39.2083 24.009 38.9184C24.3159 39.2083 24.6138 39.4982 24.9117 39.7882C26.5275 41.3731 28.0078 42.9194 29.3618 44.2338C29.9215 44.775 30.4541 45.2775 30.9686 45.7221C31.763 46.4179 32.5122 46.9881 33.2072 47.3844C34.5703 48.1575 35.7528 48.2541 36.7638 47.2974C36.8179 47.249 36.8721 47.2007 36.9262 47.1427C37.1609 46.8915 37.4317 46.07 37.2873 45.4225C37.2061 45.0456 37.0165 44.7073 36.7547 44.4464C36.52 44.2048 36.2131 44.0212 35.8882 43.9438C35.1028 43.7602 34.3807 44.1081 33.9655 44.717C33.7308 44.5913 33.478 44.4174 33.1982 44.2144C32.5573 43.7409 31.8081 43.0741 30.9596 42.2816C30.4541 41.808 29.9215 41.2861 29.3528 40.7353C28.2516 39.6625 27.042 38.4835 25.7602 37.2754C26.8976 36.2607 28.0981 35.2749 29.3528 34.3665C29.8764 33.9896 30.409 33.6223 30.9596 33.2744C31.6908 32.8105 32.4309 32.3853 33.1982 31.989C34.3446 31.3995 35.5271 30.9066 36.7547 30.5297C39.3003 29.7469 42.0354 29.486 44.9781 29.9885C45.9349 30.1528 46.9098 30.3944 47.9117 30.723C47.984 30.7713 48.0381 30.665 47.9659 30.6167Z" fill="#9DA4AE"/>
</svg>
