<svg width="622" height="43" viewBox="0 0 622 43" fill="none" xmlns="http://www.w3.org/2000/svg">
<path d="M600.461 41.6062L602.467 43H607.846L603.014 39.6548L600.621 32.5462L595.561 27.5284L593.419 29.7353L597.977 34.242L600.461 41.6062Z" fill="#E5E7EB"/>
<path d="M571.31 37.564H571.196L571.242 43H574.296V42.4192H574.364V26.6688L599.276 12.08L602.011 13.6364L602.695 20.443L607.504 25.2053L614 27.8768L617.054 32.5927L620.199 34.939L622 32.4533L619.311 30.4322L616.028 25.3911L609.214 22.5802L605.612 19.0259L604.883 11.7315L599.253 8.52566L571.31 24.8801V37.564Z" fill="#E5E7EB"/>
<path d="M512.825 21.2328L512.802 21.1632L522.831 15.309L543.982 27.5981V36.356H547.036V25.8093L522.831 11.7547L510.022 19.235L510.067 19.3047L497.965 26.5527L471.868 11.3598L470.363 14.0313L497.987 30.107L512.825 21.2328Z" fill="#E5E7EB"/>
<path d="M485.315 9.22258L500.472 3.04322L501.931 0.278768H498.466L498.307 0.603998L485.68 5.76121L477.976 0.394922L477.953 0.278768H474.717L475.423 2.3463L485.315 9.22258Z" fill="#E5E7EB"/>
<path d="M546.74 13.9616L558.159 20.5824V43H561.213V18.8169L547.059 10.6164L547.036 10.6397L536.187 4.48352V0.278768H533.133V6.27229L546.74 13.9849V13.9616Z" fill="#E5E7EB"/>
<path d="M617.897 19.5835H620.952V9.03674L605.909 0.278768H599.8L617.897 10.8255V19.5835Z" fill="#E5E7EB"/>
<path d="M586.649 4.43706V4.41383L593.738 0.278768H587.652L583.937 2.46245L583.96 2.48568L571.789 9.75689L555.538 0.278768H549.452L571.812 13.3112L586.649 4.43706Z" fill="#E5E7EB"/>
<path d="M495.685 15.8433L522.398 0.278768H516.29L494.158 13.1718L495.685 15.8433Z" fill="#E5E7EB"/>
<path d="M528.096 30.409L528.78 37.2388L533.589 41.9778L536.073 43H542.66L542.113 42.1637L535.298 39.3528L531.697 35.8217L530.968 28.5041L525.338 25.3214L497.395 41.6759V43H501.178L525.361 28.8525L528.096 30.409Z" fill="#E5E7EB"/>
<path d="M472.916 30.7574L484.335 37.3782V43H487.389V35.6126L473.235 27.4122L473.212 27.4354L462.363 21.2793V0.278768H459.309V23.0913L472.893 30.7807L472.916 30.7574Z" fill="#E5E7EB"/>
<path d="M587.401 30.1534H584.347V43H587.401V30.1534Z" fill="#E5E7EB"/>
<path d="M227.58 8.40951L234.076 11.081L237.13 15.7969L240.276 18.1432L242.076 15.6575L239.387 13.6364L236.105 8.59535L229.29 5.78444L225.689 2.23015L225.506 0.278768H222.429L222.771 3.67045L227.58 8.40951Z" fill="#E5E7EB"/>
<path d="M191.386 8.08428V20.7682H191.364L191.386 23.8811V25.6234H191.409L191.546 37.2388L181.631 43H187.74L194.623 39.0043L194.441 23.8811V9.87304L210.805 0.278768H204.72L191.386 8.08428Z" fill="#E5E7EB"/>
<path d="M146.714 41.6062L148.719 43H154.098L149.266 39.6548L146.873 32.5462L141.813 27.5284L139.671 29.7353L144.229 34.242L146.714 41.6062Z" fill="#E5E7EB"/>
<path d="M172.241 0.278768L178.326 3.80983V30.9897L172.423 34.4976L169.597 39.8639L161.893 43H170.03L171.762 42.3031L174.725 36.7045L181.381 32.7553V2.02107L178.372 0.278768H172.241Z" fill="#E5E7EB"/>
<path d="M117.562 37.564H117.448L117.494 43H120.548V42.4192H120.616V26.6688L145.528 12.08L148.263 13.6364L148.947 20.443L153.756 25.2053L160.252 27.8768L163.306 32.5927L166.452 34.939L168.275 32.4533L165.563 30.4322L162.281 25.3911L155.466 22.5802L151.887 19.0259L151.135 11.7315L145.506 8.52566L117.562 24.8801V37.564Z" fill="#E5E7EB"/>
<path d="M207.478 13.3576H204.424V43H207.478V13.3576Z" fill="#E5E7EB"/>
<path d="M265.21 8.89735H265.233L265.37 20.443L239.273 35.6359L240.8 38.2842L268.447 22.2085L268.265 6.89951V0.278768H265.21V3.99568H265.188L265.21 6.89951V8.89735Z" fill="#E5E7EB"/>
<path d="M220.538 24.8104L230.429 31.6867L245.586 25.5073L248.549 19.9087L255.205 15.9595V0.278768H252.15V14.1939L246.247 17.7018L243.421 23.0681L230.794 28.2253L223.09 22.859L220.697 15.7504L215.637 10.7326L213.495 12.9395L218.053 17.4462L220.538 24.8104Z" fill="#E5E7EB"/>
<path d="M259.125 43L268.037 37.7963L276.994 43H283.08L268.037 34.242L256.39 41.0486L256.299 41.0951L255.227 41.7223V41.7455L253.108 43H259.125Z" fill="#E5E7EB"/>
<path d="M232.777 43L216.982 33.8239L215.455 36.4722L226.669 43H232.777Z" fill="#E5E7EB"/>
<path d="M291.877 36.4257L303.205 43H306.396V41.3042L292.242 33.1037L292.196 33.1967L281.302 27.0173V0.278768H278.248V28.806L291.832 36.4954L291.877 36.4257Z" fill="#E5E7EB"/>
<path d="M313.097 18.8865L314.624 21.5581L342.271 5.45921L342.203 0.278768H339.148L339.194 3.69368L313.097 18.8865Z" fill="#E5E7EB"/>
<path d="M294.362 8.06105L304.231 14.9606L319.41 8.75797L322.373 3.1826L327.228 0.278768H321.211L320.071 0.975689L317.222 6.34198L304.618 11.476L296.914 6.10967L294.954 0.278768H291.444L291.877 0.696921L294.362 8.06105Z" fill="#E5E7EB"/>
<path d="M331.331 27.2264L341.861 21.0702L362.989 33.3593V42.1405H366.043V31.5937L341.861 17.5159L330.214 24.3225L329.781 24.5548L329.029 24.9962V25.0194L316.903 32.2674L290.806 17.0746L289.279 19.7461L316.926 35.8449L331.331 27.2264Z" fill="#E5E7EB"/>
<path d="M365.656 19.6996L377.166 26.3668V43H380.22V24.5781L366.066 16.3776L366.043 16.4009L355.126 10.2215V0.278768H352.072V12.0103L365.656 19.6996Z" fill="#E5E7EB"/>
<path d="M347.103 36.1702L347.787 43H352.163L350.727 41.5829L349.975 34.2885L344.345 31.0827L323.992 43H330.054L344.368 34.637L347.103 36.1702Z" fill="#E5E7EB"/>
<path d="M396.129 0.278768H390.043L386.921 2.09076L388.448 4.76229L396.129 0.278768Z" fill="#E5E7EB"/>
<path d="M405.474 10.2215L415.685 4.27445L436.813 16.5635V25.3214H439.867V14.7979L415.685 0.720151L404.038 7.52674L403.947 7.5732L402.853 8.20043L402.875 8.22366L390.727 15.4716L364.63 0.278768L363.103 2.9503L390.75 19.0492L405.474 10.2215Z" fill="#E5E7EB"/>
<path d="M406.34 35.8914H403.286V43H406.34V35.8914Z" fill="#E5E7EB"/>
<path d="M450.99 33.2896L454.044 35.0319V35.0086L467.765 43H473.212V42.6051L454.044 31.4776V7.48028L441.121 0H439.48L438.363 1.95138L450.99 9.26904V33.2896Z" fill="#E5E7EB"/>
<path d="M417.918 43H421.132L419.559 38.3074L414.477 33.2896L412.334 35.4733L416.893 39.98L417.918 43Z" fill="#E5E7EB"/>
<path d="M440.939 38.2145L438.226 36.1934L434.944 31.1291L428.129 28.3414L424.551 24.7871L423.799 17.4927L418.169 14.2869L390.249 30.6413V43H393.28V32.4068L418.192 17.8179L420.927 19.3744L421.634 26.2042L426.42 30.9433L432.916 33.6148L435.97 38.3306L439.115 40.6769L440.939 38.2145Z" fill="#E5E7EB"/>
<path d="M19.4646 43V42.6051L0 31.2917V34.846L14.04 43H19.4646Z" fill="#E5E7EB"/>
<path d="M59.0775 21.2328L59.0547 21.1632L69.106 15.309L90.2344 27.5981V36.356H93.2886V25.8093L69.0833 11.7547L56.274 19.235L56.3196 19.3047L44.2169 26.5527L18.1198 11.3598L16.6155 14.0313L44.2397 30.107L59.0775 21.2328Z" fill="#E5E7EB"/>
<path d="M31.5672 9.22258L46.7241 3.04322L48.1828 0.278768H44.7184L44.5588 0.603998L31.9319 5.76121L24.2281 0.394922L24.2054 0.278768H20.9916L21.6754 2.3463L31.5672 9.22258Z" fill="#E5E7EB"/>
<path d="M92.9923 13.9616L104.411 20.5824V43H107.465V18.8169L93.3114 10.6164L93.2886 10.6397L82.4395 4.48352V0.278768H79.4081V6.27229L92.9923 13.9849V13.9616Z" fill="#E5E7EB"/>
<path d="M164.15 19.5835H167.204V9.03674L152.161 0.278768H146.053L164.15 10.8255V19.5835Z" fill="#E5E7EB"/>
<path d="M132.902 4.43706V4.41383L139.99 0.278768H133.904L130.189 2.46245L130.212 2.48568L118.041 9.75689L101.79 0.278768H95.7046L118.064 13.3112L132.902 4.43706Z" fill="#E5E7EB"/>
<path d="M41.9377 15.8433L68.6502 0.278768H62.5419L40.4106 13.1718L41.9377 15.8433Z" fill="#E5E7EB"/>
<path d="M74.3483 30.409L75.032 37.2388L79.8412 41.9778L82.3255 43H88.9125L88.3655 42.1637L81.5506 39.3528L77.9494 35.8217L77.2201 28.5041L71.5904 25.3214L43.6471 41.6759V43H47.4534L71.6132 28.8525L74.3483 30.409Z" fill="#E5E7EB"/>
<path d="M19.1683 30.7574L30.5872 37.3782V43H33.6413V35.6126L19.4874 27.4122L19.4646 27.4354L8.61546 21.2793V0.278768H5.5613V23.0913L19.1455 30.7807L19.1683 30.7574Z" fill="#E5E7EB"/>
<path d="M133.654 30.1534H130.599V43H133.654V30.1534Z" fill="#E5E7EB"/>
</svg>
