<svg width="20" height="14" viewBox="0 0 20 14" fill="none" xmlns="http://www.w3.org/2000/svg"><rect width="20" height="14" fill="#006923"/><path fill-rule="evenodd" clip-rule="evenodd" d="M8.1 3C8.1 3 8.1 3 8.1 3C8 3.1 7.9 3.2 7.9 3.4C7.9 3.5 7.8 3.5 7.9 3.5C7.9 3.6 8 3.6 8.1 3.5C8.1 3.5 8.1 3.5 8.2 3.4C8.2 3.3 8 3.5 8 3.3C8 3.2 8.1 3.2 8.2 3.1C8.2 3 8.2 3 8.1 3V3ZM9.4 3C9.4 3 9.4 3 9.3 3.1C9.3 3.2 9.2 3.3 9.3 3.6C9.3 3.7 9.4 4 9.3 4.3C9.3 4.3 9.3 4.4 9.2 4.4C9.1 4.6 9 4.5 8.9 4.5C8.8 4.4 8.8 4.4 8.7 4.2C8.7 4 8.8 3.6 8.7 3.5C8.6 3.3 8.5 3.4 8.5 3.4C8.2 3.7 8.1 4 8.1 4.3C8 4.5 7.9 4.4 7.9 4.4C7.8 4.3 7.8 3.4 7.6 3.5C7.4 4.2 7.7 4.9 8 4.8C8.2 4.9 8.3 4.6 8.4 4.2C8.4 4.1 8.4 4.1 8.5 4.1C8.5 4.6 8.5 4.7 8.6 4.9C8.9 5.1 9.2 4.9 9.2 4.9L9.4 4.7C9.5 4.6 9.5 4.6 9.6 4.7C9.7 4.7 9.6 4.8 9.8 4.9C9.9 5 10.2 4.9 10.2 4.8C10.3 4.7 10.3 4.6 10.4 4.6C10.4 4.5 10.5 4.5 10.5 4.6C10.5 4.6 10.5 4.6 10.5 4.7C10.6 4.8 10.6 4.7 10.6 4.7C10.8 4.7 10.9 4.3 10.9 4.3C10.9 4.2 10.8 4.2 10.8 4.3C10.7 4.3 10.7 4.3 10.7 4.3C10.6 4.3 10.5 4.4 10.4 4.3C10.3 4.2 10.3 4 10.3 3.9C10.3 3.8 10.2 3.7 10.3 3.6C10.3 3.6 10.4 3.7 10.4 3.6C10.5 3.5 10.3 3.3 10.2 3.2C10.1 3.1 10 3.1 9.9 3.2C9.8 3.3 9.8 3.3 9.8 3.4C9.8 3.5 9.8 3.6 9.9 3.7C10 3.9 10.1 4.1 10.1 4.4C10.1 4.4 10 4.5 9.8 4.5C9.8 4.5 9.7 4.5 9.6 4.1C9.6 3.8 9.6 3.3 9.5 3.2C9.5 3.1 9.5 3 9.4 3L9.4 3ZM9 3C9 3 8.9 3.1 8.9 3.2C8.9 3.2 8.8 3.6 8.8 3.6C8.8 3.7 8.9 3.7 9 3.6C9.1 3.4 9.1 3.3 9.1 3.2C9.1 3.1 9 3 9 3ZM10.5 3.1C10.5 3.1 10.4 3.1 10.4 3.2C10.4 3.3 10.4 3.4 10.4 3.5C10.5 3.6 10.6 3.7 10.6 3.7C10.9 4.1 11.1 4.4 11.4 4.8C11.4 5.1 11.4 5.3 11.4 5.6C11.5 6.2 11.5 6.9 11.5 7.5C11.6 7.5 11.7 7.3 11.8 7.1C11.8 6.7 11.8 6 11.8 5.7L11.8 5.4C12.1 5.9 12.3 6.4 12.6 6.9C12.7 6.9 12.7 6.3 12.6 6.2C12.4 5.8 12.1 5.3 12 5.2C12 5.1 11.9 4.9 11.7 4.7C11.7 4.4 11.7 4.2 11.6 4.1C11.6 3.8 11.8 4.1 11.8 4C11.7 3.7 11.5 3.5 11.3 3.2C11.3 3.1 11.3 3.1 11.2 3.2C11.1 3.3 11.1 3.4 11.1 3.6C11.1 3.5 11.1 3.5 11 3.4L10.7 3.1C10.7 3.1 10.6 3.1 10.5 3.1ZM14.9 3.1C14.9 3.1 14.9 3.1 14.9 3.2C14.8 3.2 14.8 3.3 14.8 3.4C14.8 3.5 14.8 3.7 14.8 3.8L14.8 3.9C14.8 3.9 14.8 3.9 14.8 3.9C14.5 3.5 14.9 3.8 14.7 3.5C14.6 3.4 14.5 3.3 14.4 3.2C14.3 3.1 14.2 3 14.2 3.2C14.2 3.3 14.2 3.5 14.2 3.6C14.2 3.7 14.3 3.8 14.3 3.9C14.5 4.1 14.8 4.4 15 4.7C15 5.3 15 5.8 15.1 6.4C15.1 6.6 15 7 14.9 7C14.9 7 14.8 7.1 14.7 7C14.7 7 14.5 6.6 14.5 6.6C14.4 6.5 14.3 6.6 14.2 6.6C14 6.8 13.9 7.2 13.7 7.5C13.7 7.6 13.6 7.6 13.5 7.5C13.2 7.1 13.3 6.5 13.3 6.6C13 6.9 13.2 7.4 13.2 7.6C13.3 7.7 13.4 7.8 13.6 7.9C13.7 8 13.8 8 13.9 7.9C14.1 7.7 14.1 7.3 14.1 7.2C14.2 7.1 14.3 7.1 14.4 7.2C14.4 7.3 14.5 7.3 14.6 7.4C14.8 7.5 14.9 7.5 15.1 7.4C15.2 7.3 15.3 7.2 15.4 7.1C15.4 6.9 15.4 5.8 15.4 5.3L15.7 5.7C15.8 6.2 15.8 6.7 15.8 7.2C15.8 7.3 16.1 6.9 16.1 6.8C16.1 6.6 16.1 6.5 16.1 6.3C16.3 6.6 16.4 6.9 16.6 7.1C16.7 7.1 16.7 6.6 16.6 6.5C16.4 6.2 16.2 5.9 16.1 5.7C16 5.4 16 5.1 16 5C15.9 4.8 15.9 4.6 15.9 4.4C15.9 4.3 15.8 4.1 15.8 4.1C15.8 4 15.9 4.1 16 4C16 3.9 15.8 3.3 15.7 3.2C15.6 3.1 15.5 3.1 15.4 3.2C15.3 3.3 15.4 3.5 15.4 3.7C15.5 4.1 15.6 4.6 15.6 5.1C15.5 4.9 15.4 4.7 15.2 4.5L15.2 4.4C15.2 4.4 15.2 4 15.2 3.9C15.2 3.9 15.2 3.9 15.2 3.9C15.3 3.9 15.3 3.9 15.3 4C15.3 4 15.4 3.9 15.3 3.8L15 3.1C15 3.1 14.9 3.1 14.9 3.1L14.9 3.1ZM3.5 3.1C3.4 3.1 3.4 3.2 3.4 3.2C3.4 3.3 3.5 3.4 3.6 3.5C3.6 3.6 3.5 3.8 3.6 3.8C3.6 3.8 3.7 3.7 3.7 3.5C3.7 3.4 3.7 3.2 3.5 3.1C3.5 3.1 3.5 3.1 3.5 3.1L3.5 3.1ZM16.5 3.1C16.5 3.1 16.5 3.2 16.5 3.2C16.4 3.3 16.4 3.5 16.4 3.7C16.6 4.8 16.7 5.9 16.7 6.9C16.7 7 16.7 7.1 16.6 7.2C16.5 7.3 16.4 7.5 16.3 7.6C16.2 7.6 16 7.7 15.9 7.8C15.7 7.9 15.7 8.1 15.9 8.1C16.2 8 16.6 8 16.8 7.6C16.9 7.5 17 7.2 17 7C17 6 17 4.9 16.8 4.2C16.8 4.1 16.8 3.9 16.8 3.9C16.8 3.8 16.9 3.9 16.9 3.8C17 3.8 16.7 3.4 16.6 3.2C16.5 3.2 16.5 3.1 16.5 3.1L16.5 3.1ZM13.2 3.1C13.2 3.1 13.2 3.2 13.1 3.2C13 3.5 13 3.7 13.1 3.9C13.3 5.1 13.5 6.2 13.5 7.3C13.6 7.3 13.7 7.1 13.8 6.8C13.8 6.5 13.7 6.3 13.7 6.1C13.7 5.9 13.5 4.3 13.5 4.1C13.4 3.8 13.7 4.1 13.6 3.9C13.6 3.7 13.3 3.4 13.3 3.2C13.2 3.2 13.2 3.1 13.2 3.1L13.2 3.1ZM5.1 3.2C5.1 3.2 5.1 3.2 5.1 3.2C5.1 3.3 5.1 3.3 5.1 3.3C5.1 3.3 5 3.3 5 3.2C5 3.2 5 3.2 5 3.2C5 3.2 5 3.2 4.9 3.2C4.9 3.2 4.9 3.2 4.9 3.2C4.9 3.2 4.9 3.2 4.9 3.3C4.9 3.3 4.9 3.3 4.9 3.3C4.9 3.3 4.9 3.3 4.8 3.3C4.8 3.3 4.8 3.3 4.8 3.3C4.8 3.2 4.8 3.2 4.8 3.2C4.8 3.2 4.8 3.2 4.8 3.2C4.7 3.2 4.7 3.3 4.7 3.3C4.7 3.3 4.7 3.5 4.8 3.5C4.9 3.6 5.2 3.6 5.2 3.3C5.2 3.3 5.2 3.2 5.2 3.2C5.2 3.2 5.2 3.2 5.1 3.2L5.1 3.2ZM7.2 3.2C7.2 3.2 7.1 3.2 7.1 3.2C7 3.3 6.9 3.5 7 3.6C7.1 3.6 7.2 3.7 7.1 3.7C6.9 4 6.3 4.3 6.3 4.4V4.4H6.3V4.4C6.3 4.5 6.7 4.5 6.7 4.4H6.7C6.9 4.4 7.5 3.7 7.5 3.7C7.4 3.7 7.4 3.7 7.4 3.6C7.3 3.6 7.3 3.6 7.4 3.6C7.5 3.5 7.5 3.3 7.4 3.2C7.3 3.2 7.3 3.2 7.2 3.2V3.2ZM12.6 3.2C12.6 3.2 12.6 3.2 12.6 3.3C12.5 3.4 12.4 3.6 12.4 3.8C12.6 4.8 12.6 5.7 12.7 6.8C12.8 6.9 12.7 7 12.7 7.1C12.4 7.3 12.1 7.6 11.7 7.8C11.6 7.8 11.8 8 12 8C12.3 8 12.6 7.8 12.8 7.4C12.9 7.2 13 7 13 6.8C13 5.8 13 4.9 12.8 4.2C12.8 4.1 12.8 4 12.8 4C12.8 4 12.9 4 12.9 3.9C13 3.9 12.8 3.4 12.7 3.2C12.7 3.2 12.6 3.2 12.6 3.2ZM4.2 3.2C4.2 3.2 4.2 3.2 4.1 3.3C4.1 3.5 4.1 3.6 4.2 3.8C4.2 4 4.2 4.3 4.3 4.6C4.3 4.9 4.1 4.7 4.1 4.5C4.1 4.3 4.1 3.9 4.1 3.8C4 3.7 4 3.7 3.9 3.7C3.8 3.7 3.7 3.9 3.6 4.2C3.6 4.2 3.6 4.4 3.5 4.6C3.5 4.7 3.4 4.9 3.3 4.5C3.3 4.3 3.2 3.8 3.1 3.9C3.1 4.3 3 5.1 3.4 5.2C3.9 5.2 3.6 4.4 3.8 4.3C3.8 4.2 3.9 4.2 3.9 4.3V5C3.9 5.2 4 5.3 4.1 5.3C4.2 5.3 4.3 5.3 4.4 5.4L4.4 6.6C4.4 6.6 4.7 6.7 4.7 5.9C4.7 5.5 4.6 5.1 4.7 5C4.7 5 4.8 5 4.9 5C5 5.1 5 5.2 5.2 5.1C5.5 5.1 5.7 4.9 5.7 4.7C5.6 4.5 5.6 4.3 5.5 4.1C5.5 4.1 5.5 4 5.5 3.9C5.5 4 5.6 4 5.6 3.9C5.6 3.8 5.5 3.6 5.4 3.6C5.3 3.5 5.2 3.5 5.1 3.7C5.1 3.9 5.2 4.1 5.3 4.3C5.4 4.4 5.4 4.5 5.4 4.7C5.3 4.7 5.2 4.7 5.2 4.6C5.2 4.6 4.9 4.5 4.9 4.4C5 4 4.9 4 4.9 3.9C4.9 3.7 4.8 3.7 4.8 3.6C4.7 3.5 4.6 3.5 4.6 3.6C4.5 3.8 4.5 4.1 4.6 4.3C4.7 4.4 4.7 4.5 4.7 4.5C4.7 4.6 4.6 4.6 4.6 4.5C4.5 4.3 4.5 4 4.5 3.9C4.5 3.7 4.5 3.3 4.3 3.2C4.3 3.2 4.3 3.2 4.2 3.2L4.2 3.2ZM5.8 3.2C5.8 3.2 5.8 3.2 5.7 3.2C5.7 3.3 5.6 3.3 5.6 3.5C5.7 4.2 5.8 4.7 5.9 5.4C5.9 5.5 5.8 5.6 5.8 5.6C5.6 5.5 5.6 5.3 5.3 5.3C5.1 5.3 4.9 5.5 4.9 5.7C4.9 5.8 4.9 6 4.9 6.1C5 6.3 5.2 6.3 5.3 6.2C5.4 6.2 5.5 6.1 5.6 6.1C5.6 6.1 5.6 6.5 5 6.8C4.7 6.9 4.5 7 4.3 6.7C4.2 6.5 4.3 5.9 4.1 6.1C3.5 7.6 5.6 7.9 5.8 6.1C5.8 6.1 5.9 6 5.9 6C5.9 6 5.9 6.1 5.9 6.1C5.9 7.7 4.3 7.8 4.1 7.3C4 7.2 4 6.9 4 6.8C4 6.7 3.9 6.6 3.9 6.6C3.8 6.5 3.8 6.7 3.7 6.9C3.7 7 3.7 7.1 3.7 7.3C3.8 8.5 5.8 8 6.1 6.9C6.3 6.4 6.1 6 6.2 5.9L6.2 5.9H6.2L6.2 5.9C6.4 6.2 6.7 6 6.7 5.9C6.8 5.9 6.8 5.8 6.9 5.9C7 6 7.3 5.9 7.3 5.7C7.4 5.6 7.4 5.4 7.4 5.2C7.3 5.2 7.2 5.2 7.2 5.2C7.2 5.2 7.2 5.3 7.2 5.3L7.2 5.4C7.2 5.4 7.2 5.4 7.2 5.5C7.1 5.5 7.1 5.5 7.1 5.5C7.1 5.5 7 5.5 7 5.4C7 5.2 6.8 5.2 6.7 5.5C6.6 5.6 6.4 5.6 6.4 5.5C6.4 5.3 6.4 5.2 6.2 5.3L6 4C6.1 4 6.1 4.1 6.2 4C6.1 3.8 6 3.3 5.9 3.2H5.9L5.9 3.2C5.9 3.2 5.9 3.2 5.9 3.2L5.9 3.2C5.9 3.2 5.8 3.2 5.8 3.2C5.8 3.2 5.8 3.2 5.8 3.2ZM12 3.2C11.9 3.2 11.8 3.3 11.9 3.4C11.8 3.4 12 3.6 12.1 3.7C12.1 3.8 12 4 12.1 4C12.1 4 12.2 3.9 12.2 3.7C12.3 3.5 12.2 3.3 12 3.2L12 3.2V3.2ZM7.2 3.4C7.2 3.4 7.3 3.4 7.3 3.5C7.3 3.5 7.3 3.5 7.3 3.6C7.2 3.6 7.2 3.5 7.2 3.5C7.1 3.4 7.1 3.4 7.2 3.4H7.2V3.4ZM16.1 3.6C16 3.6 15.9 3.7 16 3.8C16 3.8 16.1 4 16.2 4.1C16.2 4.2 16.1 4.5 16.2 4.5C16.2 4.5 16.3 4.3 16.3 4.1C16.3 4 16.2 3.7 16.1 3.6C16.1 3.6 16.1 3.6 16.1 3.6L16.1 3.6ZM11.2 3.7C11.2 3.8 11.2 3.8 11.2 3.8C11.2 3.9 11.2 3.9 11.2 4C11.2 3.9 11.1 3.9 11.1 3.8C11 3.7 11.1 3.7 11.2 3.7ZM12.3 4.3C12.3 4.3 12.2 4.3 12.2 4.4C12.2 4.4 12.2 4.4 12.2 4.4C12.2 4.4 12.2 4.4 12.2 4.4C12.2 4.3 12.1 4.3 12.1 4.3C12.1 4.3 12.1 4.3 12.1 4.3C12.1 4.3 12.1 4.3 12.1 4.3C12.1 4.3 12.1 4.4 12.1 4.4C12.1 4.4 12 4.4 12 4.4C12 4.4 12 4.4 12 4.4C12 4.4 12 4.4 12 4.4C12 4.4 12 4.3 12 4.3C12 4.3 11.9 4.3 11.9 4.3C11.8 4.3 11.8 4.4 11.8 4.4C11.8 4.4 11.8 4.6 11.9 4.7C12.1 4.7 12.4 4.7 12.4 4.4C12.4 4.4 12.4 4.4 12.4 4.3C12.4 4.3 12.3 4.3 12.3 4.3L12.3 4.3ZM7.1 4.3C7.1 4.3 7.1 4.3 7 4.4C6.9 4.4 6.9 4.7 6.9 4.8C7 4.9 7.1 4.9 7.2 4.9C7.3 4.9 7.4 4.6 7.4 4.6C7.4 4.6 7.4 4.5 7.2 4.7C7.2 4.7 7.1 4.7 7.1 4.6C7.1 4.6 7.1 4.5 7.2 4.4C7.2 4.4 7.2 4.3 7.1 4.3V4.3ZM14.4 4.4C14.4 4.4 14.3 4.4 14.3 4.5C14.3 4.6 14.3 4.6 14.3 4.7C14.3 4.7 14.2 4.7 14.2 4.7C14.2 4.7 14.1 4.6 14.1 4.6C14.1 4.5 14 4.6 13.9 4.6C13.9 4.7 13.9 4.8 13.9 4.9C14 5 14.3 5.3 14.4 5.3C14.4 5.2 14.5 5 14.5 4.8C14.5 4.8 14.5 4.7 14.5 4.7C14.6 4.7 14.6 4.8 14.6 4.7C14.6 4.6 14.6 4.5 14.6 4.4C14.5 4.4 14.5 4.4 14.4 4.4H14.4ZM8.4 4.9L8.4 4.9C8.4 4.9 8.4 4.9 8.4 4.9C8.4 4.9 8.3 4.9 8.3 4.9C8.2 5 8.2 5.1 8.2 5.2C8.2 5.2 8.4 5.6 8.5 5.8C8.5 6.1 8.6 6.4 8.5 6.6C8.4 7 8 7.3 7.7 7.5C7.6 7.5 7.4 7.5 7.4 7.5C7.3 7.4 7.3 7.3 7.3 7.3V7.3C7.6 7.1 7.9 7 8.1 6.4C8.2 6.3 8.2 6.1 8.1 5.8C8.1 5.7 8.1 5.6 8 5.5H8C8 5.5 8.2 5.6 8.2 5.6C8.2 5.4 8.1 5.2 7.9 5.1C7.9 5 7.7 5 7.7 5.1C7.6 5.2 7.5 5.4 7.6 5.5C7.6 5.7 7.8 5.7 7.9 6C7.9 6 7.9 6.1 7.9 6.2C7.8 6.4 7.3 6.8 7.3 6.8L7.2 6.8L7.2 6.8H7.2H7.2V6.8C7.2 6.8 7.2 6.8 7.2 6.7C7.2 6.6 7.3 6.5 7.3 6.4V6.4C7.1 6.5 7 6.9 7 7C6.5 7.3 6 7.5 5.7 7.9C5.6 8.1 6.8 7.6 6.9 7.5L6.9 7.5C7 7.5 7 7.7 7.1 7.7C7.2 7.9 7.4 8 7.7 8C8.1 7.8 8.4 7.5 8.6 7.2C8.7 7.1 8.7 7.1 8.8 7.1C9 7.5 9.5 7.8 10.1 7.8C10.3 7.6 10.2 7.5 10.1 7.5C10.1 7.5 9.8 7.4 9.8 7.3C9.7 7.1 9.8 7 10 7C10.4 6.9 10.8 6.9 11.2 6.7C11.2 6.6 11.3 6.4 11.3 6.3C11.4 6.3 11.4 6.2 11.4 6.2V6.2H11.4V6.2V6.2L11.3 6.2L10 6.2C10 6.2 10 6.2 10 6.2L10 6.2C10 6.2 9.9 6.2 9.9 6.2C9.9 6.1 9.9 6.1 9.9 6.1V6.1V6.1V6.1L9.9 6.1C10 6.1 10 6.1 10 6.1C10.3 6.1 10.9 6 10.9 5.4C10.9 5.1 10.8 5 10.4 4.9C10.2 4.9 10 5.2 10 5.4C10 5.5 10.1 5.7 10 5.7C9.5 5.7 9 6 8.9 6.3H8.9H8.9H8.9C8.9 6.3 8.9 6.3 8.9 6.3H8.9H8.9H8.9C8.9 6.2 8.8 6.2 8.8 6.1C8.8 5.7 8.7 5.3 8.5 5C8.4 4.9 8.4 4.9 8.4 4.9H8.4H8.4H8.4ZM9.7 5.1C9.6 5.1 9.6 5.1 9.6 5.1C9.6 5.2 9.6 5.2 9.6 5.2C9.6 5.2 9.5 5.2 9.5 5.2C9.5 5.1 9.5 5.1 9.5 5.1C9.5 5.1 9.5 5.1 9.5 5.1C9.4 5.1 9.4 5.1 9.4 5.1C9.4 5.1 9.4 5.2 9.4 5.2C9.4 5.2 9.4 5.2 9.4 5.2C9.4 5.2 9.4 5.2 9.4 5.2C9.4 5.2 9.3 5.2 9.3 5.2C9.3 5.1 9.3 5.1 9.3 5.1C9.3 5.1 9.3 5.1 9.3 5.1C9.2 5.1 9.2 5.2 9.2 5.2C9.2 5.2 9.2 5.4 9.3 5.4C9.5 5.5 9.8 5.5 9.7 5.2C9.7 5.2 9.7 5.1 9.7 5.1C9.7 5.1 9.7 5.1 9.7 5.1L9.7 5.1ZM14.8 5.3H14.8C14.8 5.3 14.1 5.8 14.1 5.8C14 5.9 14.1 6.1 14.1 6.1C14.1 6.1 14.9 5.6 14.8 5.5C14.9 5.6 14.9 5.3 14.8 5.3L14.8 5.3ZM10.3 5.4C10.4 5.4 10.4 5.4 10.4 5.4C10.5 5.4 10.5 5.5 10.5 5.5V5.5C10.5 5.5 10.5 5.5 10.5 5.5V5.5C10.5 5.5 10.5 5.5 10.5 5.5C10.5 5.5 10.5 5.5 10.5 5.5C10.5 5.6 10.4 5.5 10.4 5.5C10.3 5.5 10.3 5.4 10.3 5.4V5.4L10.3 5.4C10.3 5.4 10.3 5.4 10.3 5.4L10.3 5.4C10.3 5.4 10.3 5.4 10.3 5.4V5.4ZM4.1 5.5C3.7 5.5 3.2 6 3.2 6.2L4.3 5.7C4.3 5.6 4.3 5.5 4.1 5.5ZM5.3 5.7C5.3 5.7 5.4 5.7 5.4 5.7C5.4 5.8 5.4 5.8 5.4 5.8V5.9C5.3 5.9 5.3 5.9 5.2 5.9C5.2 5.9 5.2 5.9 5.1 5.8C5.1 5.8 5.2 5.7 5.2 5.7L5.2 5.7C5.2 5.7 5.2 5.7 5.3 5.7L5.3 5.7L5.3 5.7ZM14.7 5.8C14.6 5.8 14.6 5.9 14.6 6C14.6 6 14.7 6.2 14.7 6.3C14.7 6.4 14.7 6.6 14.7 6.7C14.8 6.7 14.9 6.5 14.9 6.3C14.9 6.2 14.9 5.9 14.7 5.8C14.7 5.8 14.7 5.8 14.7 5.8ZM6.7 6.2C6.6 6.2 6.6 6.2 6.6 6.3C6.6 6.3 6.8 6.4 6.8 6.6C6.8 6.6 6.7 6.8 6.8 6.8C6.8 6.8 6.9 6.7 6.9 6.6C6.9 6.5 6.9 6.2 6.8 6.2C6.7 6.2 6.7 6.2 6.7 6.2L6.7 6.2ZM9.1 6.5H9.1C9.3 6.5 9.5 6.5 9.7 6.6C9.8 6.6 9.9 6.7 9.8 6.7C9.6 6.8 9.5 6.8 9.5 7C9.5 7.1 9.5 7.2 9.5 7.2C9.5 7.2 9.5 7.2 9.5 7.2C9.5 7.2 9.5 7.2 9.5 7.2V7.2H9.5L9.5 7.2H9.4C9.4 7.2 9.4 7.2 9.3 7.2C9.2 7.1 9 7 8.9 6.6C8.9 6.6 9 6.5 9.1 6.5L9.1 6.5ZM3.2 6.7C3.2 6.7 3.2 6.8 3.2 6.8C3 7.2 3 7.7 3.1 7.8C3.1 7.9 3.2 7.9 3.3 7.9C3.5 7.9 3.5 7.6 3.5 7.5C3.4 7.4 3.4 7.4 3.4 7.5C3.3 7.7 3.2 7.5 3.2 7.4C3.2 7.2 3.2 7 3.2 6.9C3.3 6.8 3.3 6.7 3.2 6.7L3.2 6.7ZM10.8 7.2C10.7 7.2 10.7 7.2 10.7 7.2C10.7 7.2 10.5 7.3 10.5 7.4C10.5 7.4 10.5 7.4 10.5 7.5C10.5 7.5 10.5 7.5 10.6 7.5C10.7 7.5 10.7 7.5 10.7 7.6C10.6 7.7 10.7 7.7 10.7 7.7C10.7 7.7 10.7 7.8 10.8 7.8C11 7.7 11.1 7.6 11.3 7.6C11.3 7.6 11.3 7.4 11.2 7.4C11.1 7.4 11 7.5 10.9 7.5C10.8 7.6 10.8 7.5 10.8 7.5C10.8 7.4 10.8 7.3 10.8 7.2C10.8 7.2 10.8 7.2 10.7 7.2L10.8 7.2ZM15.6 7.4L15.5 7.4C15.4 7.4 15.4 7.4 15.4 7.5C15.4 7.6 15.4 7.6 15.5 7.6C15.5 7.6 15.5 7.7 15.5 7.7C15.4 7.8 15.4 7.8 15.4 7.9C15.3 7.9 15.3 8 15.4 8C15.5 8 15.8 7.8 15.8 7.8C15.9 7.8 15.9 7.7 15.9 7.7C15.8 7.7 15.8 7.7 15.7 7.7C15.7 7.7 15.6 7.7 15.7 7.6C15.7 7.6 15.7 7.5 15.7 7.5C15.7 7.5 15.7 7.4 15.6 7.4C15.6 7.4 15.6 7.4 15.6 7.4H15.6Z" fill="white"/><path d="M15.5 9.9H15.3L14.2 9.9V9.6C14.2 9.5 14.1 9.4 14 9.4C13.9 9.4 13.8 9.5 13.8 9.6V9.9L3.9 9.9C4.3 10.4 5 10.6 5.6 10.6C6 10.6 11 10.6 13.8 10.6V11.1C13.8 11.3 13.9 11.4 14 11.4H15.5C15.8 11.4 16.1 11.1 16.1 10.6C16.1 10.2 15.8 9.9 15.5 9.9ZM15.5 10.9L14.2 10.9V10.6C15.1 10.6 15.7 10.6 15.7 10.6L15.7 10.5C15.7 10.5 15.7 10.6 15.7 10.6C15.7 10.8 15.6 10.9 15.5 10.9Z" fill="white"/></svg>
