<svg width="24" height="24" viewBox="0 0 24 24" fill="none" xmlns="http://www.w3.org/2000/svg">
<path d="M19.6045 10.9105C19.6164 10.9105 19.6282 10.9105 19.6401 10.9105C19.6282 10.8986 19.6282 10.8986 19.6164 10.8867C19.6045 10.8986 19.6045 10.9105 19.6045 10.9105Z" fill="#231F20"/>
<path d="M13.9973 2.96311C13.7241 2.53545 13.3321 2.2741 12.8094 2.30974C12.5599 2.32162 12.3223 2.3929 12.1204 2.51169C12.1441 2.41666 12.1679 2.32162 12.2154 2.22658C12.3936 1.90584 12.655 1.8108 13.0113 1.89395C13.1301 1.91771 13.2727 1.89395 13.3796 1.84644C13.4152 1.83456 13.5697 1.7514 13.4509 1.72764C12.9995 1.62072 12.5005 1.66824 12.0966 1.90583C12.0135 1.95335 11.9303 2.01275 11.8709 2.08403C11.7996 1.98899 11.7165 1.91771 11.6096 1.84644C11.2532 1.6326 10.8017 1.65637 10.4097 1.7514C10.3741 1.76328 10.1365 1.8108 10.1602 1.88207C10.184 1.95335 10.3978 1.90583 10.4454 1.89395C10.9443 1.78704 11.3126 2.03651 11.4908 2.41665C11.3007 2.3335 11.0987 2.30974 10.8611 2.3335C10.7305 2.34538 10.6117 2.36913 10.5048 2.41665C10.4572 2.46417 10.4335 2.49981 10.3978 2.53545C10.3622 2.52357 10.3384 2.51169 10.3028 2.49981C10.0415 2.63049 9.82762 2.82056 9.6613 3.08191C9.61379 3.15319 9.85138 3.14131 9.86326 3.12943C9.94641 3.11755 10.1246 3.09379 10.184 3.01063C10.3384 2.76116 10.576 2.46417 10.9087 2.54733C11.1225 2.60673 11.3126 2.74928 11.4551 2.9156C11.1819 2.93935 10.8968 3.02251 10.6711 3.17695C10.4572 3.33138 10.3266 3.53333 10.2553 3.75904C10.279 3.7828 10.3028 3.81844 10.2909 3.85408C10.2909 3.91348 10.2553 3.94911 10.2196 3.96099C10.2078 4.12731 10.2196 4.29362 10.2553 4.45994C10.279 4.56685 10.8136 4.44806 10.7899 4.34114C10.6592 3.77092 10.8611 2.99875 11.5739 3.10567V3.27198C11.5739 3.27198 11.5739 3.27198 11.562 3.27198C11.5264 3.28386 11.5026 3.29574 11.4789 3.30762C11.4551 3.33138 11.4314 3.35514 11.4195 3.39078C11.372 3.48581 11.3482 3.59273 11.3601 3.69965C11.372 3.80656 11.3957 3.91348 11.467 3.99663C11.5026 4.03227 11.5383 4.06791 11.5739 4.10355V4.86384C11.5739 4.947 12.0728 4.92324 12.0728 4.78069V4.09167C12.0966 4.07979 12.1204 4.05603 12.1441 4.04415C12.251 3.94912 12.3223 3.80656 12.2986 3.66401C12.2986 3.61649 12.2748 3.58085 12.2629 3.54521C12.2629 3.58085 12.2392 3.60461 12.2154 3.64025C12.1441 3.60461 12.0729 3.55709 12.0966 3.46206C12.0966 3.4383 12.1323 3.39078 12.1441 3.39078H12.156C12.1322 3.36702 12.1085 3.34326 12.0847 3.33138L12.0728 3.3195V3.15319C12.0847 3.14131 12.1085 3.12943 12.1085 3.11755C12.7262 3.20071 13.0113 3.8422 12.8688 4.47182C12.8569 4.51933 13.3677 4.50745 13.4034 4.35302C13.4509 4.15107 13.4628 3.93724 13.4152 3.74716C13.4034 3.75904 13.3796 3.75904 13.3677 3.77092C13.3677 3.75904 13.3558 3.73528 13.3558 3.7234C13.3677 3.7234 13.3915 3.72341 13.4152 3.71153C13.3677 3.50957 13.2727 3.33138 13.1064 3.17695C12.8331 2.93936 12.4768 2.89184 12.1322 2.9156C12.3104 2.66612 12.548 2.45229 12.8807 2.57109C13.142 2.66613 13.3321 2.86808 13.4746 3.10567C13.5459 3.20071 14.033 3.02251 13.9973 2.96311ZM11.5145 2.04839C11.5026 2.03651 11.4908 2.03651 11.4789 2.02463C11.4908 2.00087 11.5145 1.98899 11.5264 1.96523C11.5383 1.97711 11.5502 1.97711 11.562 1.98899C11.5383 2.00087 11.5264 2.02463 11.5145 2.04839ZM11.9897 3.2007C11.9541 3.2007 11.9184 3.2007 11.8828 3.18882C11.8828 3.17694 11.8828 3.16507 11.8828 3.14131C11.9065 3.11755 11.9303 3.10567 11.9897 3.07003V3.2007Z" fill="#231F20"/>
<path d="M13.4626 20.8776C13.32 21.1033 13.13 21.3052 12.8686 21.4122C12.536 21.531 12.3103 21.3171 12.1202 21.0676C12.4647 21.0914 12.833 21.0439 13.0943 20.8063C13.4388 20.5093 13.4863 20.0579 13.3913 19.6302C13.3557 19.4758 12.8448 19.4758 12.8567 19.5114C12.9993 20.141 12.7142 20.7825 12.0964 20.8657C12.0846 20.8538 12.0727 20.8419 12.0608 20.8301V20.6637L12.0727 20.6519C12.1796 20.5568 12.2746 20.438 12.2865 20.3074C12.2984 20.1648 12.239 20.0223 12.1321 19.9272C12.1083 19.9153 12.0846 19.8916 12.0608 19.8797V19.1907C12.0608 19.0481 11.5619 19.0244 11.5619 19.1075V19.8678C11.5143 19.8916 11.4787 19.9272 11.4549 19.9747C11.3955 20.0579 11.3599 20.1648 11.348 20.2717C11.3361 20.3786 11.3599 20.4856 11.4074 20.5806C11.4193 20.6162 11.4431 20.64 11.4668 20.6637C11.4906 20.6875 11.5262 20.6994 11.55 20.6994C11.55 20.6994 11.55 20.6994 11.5619 20.6994V20.8657C10.8491 20.9607 10.6471 20.1886 10.7778 19.6302C10.8016 19.5233 10.267 19.4045 10.2432 19.5114C10.1363 19.9866 10.2314 20.4974 10.659 20.7944C10.8966 20.9489 11.1698 21.032 11.4431 21.0558C11.3005 21.2221 11.1223 21.3646 10.8966 21.424C10.564 21.5072 10.3264 21.2102 10.1719 20.9607C10.1244 20.8776 9.94624 20.8538 9.85121 20.8419C9.82745 20.8419 9.60173 20.8182 9.64925 20.8895C9.92248 21.3171 10.3383 21.5666 10.8491 21.626C11.0748 21.6497 11.2886 21.6141 11.4787 21.5428C11.3005 21.923 10.9322 22.1843 10.4333 22.0655C10.3858 22.0537 10.172 22.0061 10.1482 22.0774C10.1244 22.1487 10.362 22.1962 10.3977 22.2081C10.7897 22.3031 11.2411 22.3269 11.5975 22.113C11.7044 22.0536 11.7876 21.9705 11.8588 21.8755C11.9182 21.9467 12.0014 22.0061 12.0846 22.0536C12.4885 22.2912 12.9993 22.3269 13.4388 22.2318C13.5576 22.2081 13.4032 22.1249 13.3675 22.113C13.2606 22.0655 13.1062 22.0418 12.9993 22.0655C12.6548 22.1487 12.3815 22.0537 12.2034 21.7329C12.1558 21.6379 12.1202 21.5428 12.1083 21.4478C12.3103 21.5666 12.5479 21.626 12.7973 21.6497C13.32 21.6854 13.7121 21.4359 13.9853 20.9964C14.0328 20.9489 13.5457 20.7588 13.4626 20.8776ZM12.0489 21.0082C11.9658 20.937 11.9658 20.937 12.0489 20.8538V21.0082Z" fill="#231F20"/>
<path d="M22.0753 13.1323C22.0991 13.1205 22.1228 13.1086 22.1466 13.0848C22.1347 12.7878 22.0634 12.5027 21.9209 12.2414C21.8734 12.1582 21.814 12.0751 21.7427 12.0157C21.8377 11.9444 21.909 11.8612 21.9803 11.7543C22.1941 11.3979 22.1703 10.9465 22.0753 10.5545C22.0634 10.5188 22.0159 10.2813 21.9446 10.305C21.8734 10.3288 21.9209 10.5426 21.9209 10.5901C22.0397 11.0891 21.7783 11.4573 21.3982 11.6355C21.4813 11.4454 21.5051 11.2435 21.4813 11.0178C21.4457 10.697 21.3269 10.4119 21.1487 10.1743C21.0537 10.1149 20.9824 10.0318 20.923 9.94863C20.8636 9.90111 20.8042 9.85359 20.7448 9.81795C20.6616 9.77044 20.6854 9.99614 20.6973 10.0199C20.7092 10.1031 20.7329 10.2813 20.8161 10.3407C21.0656 10.4951 21.3744 10.7327 21.2794 11.0653C21.22 11.2791 21.0774 11.4692 20.9111 11.6118C20.8874 11.3267 20.8042 11.0534 20.6498 10.8277C20.4359 10.507 20.0914 10.3763 19.7469 10.3763C19.6638 10.3882 19.5925 10.4001 19.4974 10.4001C19.4856 10.4001 19.4737 10.4001 19.4499 10.4001C19.4262 10.4001 19.4024 10.4119 19.3668 10.4119C19.2717 10.4357 19.343 10.8396 19.4381 10.9346C19.4381 10.9228 19.4499 10.9109 19.4499 10.9109C19.5569 10.8752 19.5687 10.7802 19.6044 10.697C19.64 10.7208 19.6163 10.8158 19.7113 10.7564C19.735 10.7446 19.7944 10.7921 19.8301 10.8158C19.8182 10.8515 19.7944 10.8752 19.7826 10.9109C20.2815 10.899 20.8042 11.1366 20.721 11.7306H20.5547C20.5547 11.7306 20.5547 11.7306 20.5547 11.7187C20.5429 11.6949 20.531 11.6593 20.5191 11.6355C20.4953 11.6118 20.4716 11.588 20.4359 11.5761C20.3409 11.5286 20.234 11.5048 20.1271 11.5167C20.0202 11.5286 19.9132 11.5524 19.8301 11.6236C19.7944 11.6593 19.7588 11.6949 19.7232 11.7306H18.9629C18.8797 11.7306 18.9035 12.2295 19.046 12.2295H19.735C19.7469 12.2533 19.7707 12.277 19.7826 12.3008C19.8776 12.4077 20.0202 12.479 20.1627 12.4552C20.3053 12.4315 20.4122 12.3483 20.5072 12.2414L20.5191 12.2295H20.6854C20.6973 12.2414 20.7092 12.2651 20.721 12.2651C20.6379 12.8829 19.9964 13.168 19.3668 13.0254C19.3193 13.0136 19.3311 13.5244 19.4856 13.56C19.5331 13.5719 19.5925 13.5838 19.64 13.5838C19.6519 13.5838 19.6638 13.5838 19.6756 13.5838C19.735 13.5838 19.7944 13.5838 19.842 13.5957C20.1389 13.5957 20.4359 13.5006 20.6498 13.263C20.8874 12.9898 20.9349 12.6334 20.9111 12.277C21.1606 12.4552 21.3744 12.6928 21.2556 13.0254C21.1606 13.2868 20.9586 13.4768 20.7329 13.6194C20.6022 13.7026 20.7923 14.1896 20.8517 14.154C20.9111 14.1183 20.9586 14.0827 21.0062 14.0352C21.0656 13.9639 21.1249 13.8926 21.2081 13.8451C21.4101 13.6075 21.517 13.3105 21.4932 12.966C21.4813 12.7166 21.4101 12.479 21.2913 12.277C21.3863 12.3008 21.4813 12.3245 21.5764 12.3839C21.8971 12.5621 21.9922 12.8235 21.909 13.1799C21.8852 13.2987 21.909 13.4412 21.9565 13.5481C21.9684 13.5838 22.0516 13.7382 22.0753 13.6194C22.0872 13.5838 22.0872 13.5481 22.0991 13.5125L22.0872 13.5244C22.0634 13.3937 22.0516 13.3105 22.0397 13.2274C22.0516 13.1917 22.0634 13.1442 22.0753 13.1323ZM21.7664 11.5999C21.8021 11.5524 21.8377 11.493 21.8971 11.588C21.8496 11.588 21.8021 11.5999 21.7664 11.5999C21.7546 11.5999 21.7546 11.5999 21.7664 11.5999Z" fill="#231F20"/>
<path d="M4.69575 11.7183H3.93545C3.91169 11.6708 3.87606 11.6351 3.82854 11.6114C3.74538 11.552 3.63847 11.5163 3.53155 11.5045C3.42464 11.4926 3.31772 11.5163 3.22268 11.5639C3.18704 11.5757 3.16329 11.5995 3.13953 11.6233C3.11577 11.647 3.10388 11.6827 3.10388 11.7064C3.10388 11.7064 3.10388 11.7064 3.10388 11.7183H2.93757C2.93757 11.7064 2.93757 11.7064 2.93757 11.6945C2.91382 11.6827 2.86629 11.6708 2.86629 11.6708C2.87817 11.6233 2.89006 11.5876 2.90194 11.5401C2.91382 11.5401 2.91381 11.5401 2.92569 11.552C2.96133 10.9699 3.65034 10.8154 4.17304 10.9342C4.27996 10.958 4.39875 10.4234 4.29184 10.3997C3.81666 10.2927 3.30584 10.3878 3.00885 10.8154C2.85442 11.053 2.77126 11.3263 2.7475 11.5995C2.58118 11.4569 2.43863 11.2787 2.37923 11.053C2.2842 10.7323 2.59307 10.4828 2.84254 10.3284C2.9257 10.269 2.94946 10.1027 2.96134 10.0076C2.96134 9.98388 2.98509 9.75817 2.91381 9.80569C2.47427 10.0789 2.23668 10.4947 2.17728 11.0055C2.15352 11.2312 2.18916 11.4451 2.26044 11.6233C1.88029 11.4451 1.61894 11.0768 1.73774 10.5779C1.74962 10.5303 1.79714 10.3165 1.71398 10.2927C1.64271 10.269 1.59518 10.5066 1.5833 10.5422C1.50015 10.9342 1.46451 11.3857 1.67834 11.742C1.73774 11.849 1.82089 11.9321 1.91593 12.0034C1.85653 12.0628 1.79713 12.146 1.73774 12.2291C1.65458 12.3717 1.60707 12.5142 1.57143 12.6687C1.58331 12.6687 1.60706 12.6687 1.61894 12.6805C1.63082 12.6924 1.61894 12.7518 1.61894 12.8231C1.59518 12.8112 1.57143 12.7875 1.54767 12.7756C1.50015 13.0488 1.51203 13.3339 1.57143 13.5953C1.59519 13.7141 1.67834 13.5596 1.69022 13.524C1.73774 13.4171 1.7615 13.2626 1.73774 13.1557C1.65458 12.8112 1.74962 12.538 2.07037 12.3598C2.16541 12.3123 2.26044 12.2766 2.35547 12.2529C2.29608 12.3598 2.24856 12.4786 2.21292 12.5974C2.23668 12.6093 2.24856 12.633 2.26044 12.6687C2.23668 12.6805 2.21292 12.6805 2.20104 12.6805C2.17728 12.7637 2.1654 12.8587 2.1654 12.9419C2.12977 13.4646 2.39112 13.8566 2.81878 14.1298C2.8663 14.1655 3.05637 13.6784 2.93757 13.5953C2.83066 13.524 2.72374 13.4408 2.6287 13.3458C2.6287 13.3577 2.61683 13.3695 2.61683 13.3814C2.60495 13.3695 2.58119 13.3577 2.58119 13.3458C2.58119 13.3101 2.58119 13.2983 2.59307 13.2864C2.52179 13.2032 2.45051 13.0963 2.41487 12.9894C2.29608 12.6568 2.50991 12.4311 2.75938 12.241C2.7475 12.4548 2.75938 12.6687 2.81878 12.8706C2.81878 12.8587 2.84254 12.8468 2.84254 12.8468C2.85442 12.8587 2.87817 12.8706 2.89005 12.8825C2.89005 12.8825 2.87818 12.9062 2.85442 12.9419C2.89006 13.0369 2.94946 13.132 3.02073 13.227C3.31772 13.5715 3.76914 13.619 4.1968 13.524C4.35124 13.4883 4.35124 12.9775 4.3156 12.9894C3.68598 13.132 3.04449 12.8468 2.96134 12.2291C2.97321 12.2172 2.98509 12.2054 2.99697 12.1935H3.16328L3.17517 12.2054C3.2702 12.3123 3.37711 12.4073 3.51967 12.4192C3.66222 12.4311 3.80478 12.3717 3.89982 12.2648C3.92357 12.241 3.93546 12.2172 3.94734 12.1935H4.63635C4.74326 12.2291 4.76702 11.7183 4.69575 11.7183ZM2.14164 12.1222C2.18916 12.0866 2.23668 12.0628 2.2842 12.039C2.30796 12.0628 2.33172 12.0984 2.36736 12.1341C2.2842 12.1341 2.21292 12.1222 2.14164 12.1222ZM4.26809 13.0844C4.27996 13.1082 4.29184 13.132 4.30372 13.1438C4.30372 13.1438 4.27996 13.1676 4.26809 13.1676C4.25621 13.1676 4.23244 13.1438 4.23244 13.132C4.23244 13.1201 4.25621 13.1082 4.26809 13.0844Z" fill="#231F20"/>
<path d="M6.96454 5.20837C6.95267 5.19649 6.95267 5.1965 6.94079 5.18462C6.91703 5.16086 6.89327 5.1371 6.86951 5.11334C6.86951 5.11334 6.86951 5.11334 6.85763 5.11334C6.81011 5.08958 6.77447 5.05394 6.72695 5.0183C6.66756 4.97079 6.62004 4.93515 6.57252 4.88763C6.53688 4.85199 6.50125 4.81635 6.47749 4.76883C6.29929 4.62628 6.1211 4.51936 5.95478 4.45996C5.71719 4.38869 5.49148 4.38869 5.24201 4.38869H5.21826C5.12322 4.38869 5.04006 4.38869 4.96878 4.37681C4.88563 4.37681 4.81435 4.36493 4.71932 4.36493C4.70744 4.36493 4.68367 4.36493 4.67179 4.36493C4.65991 4.36493 4.63616 4.36493 4.62428 4.36493C4.58864 4.36493 4.56488 4.36493 4.52924 4.37681C4.44608 4.40056 4.38669 4.44808 4.32729 4.50748C4.30353 4.53124 4.26789 4.56688 4.24413 4.60252C4.29165 4.62628 4.32729 4.67379 4.35104 4.73319L4.36293 4.72132C4.37481 4.7332 4.38669 4.74507 4.38669 4.75695L4.37481 4.78071C4.38668 4.82823 4.39856 4.88763 4.41044 4.95891C4.33917 4.99455 4.26789 5.00642 4.2085 5.0183V5.36281C4.2085 5.62416 4.23225 5.89739 4.35104 6.15874C4.44608 6.37257 4.60052 6.55077 4.79059 6.74084L4.80247 6.75271C4.80247 6.75271 4.80247 6.75272 4.80247 6.76459C4.82623 6.78835 4.90939 6.87151 5.0163 6.96655C5.09946 7.02595 5.15886 7.08534 5.21826 7.15662C5.39645 7.33482 5.57464 7.51301 5.61028 7.54865C5.70532 7.64368 6.01418 7.25166 5.95478 7.19226C5.88351 7.12098 5.63404 6.83587 5.56276 6.76459C5.32517 6.527 4.81435 5.98055 4.73119 5.73108C4.65991 5.51724 4.64803 5.30341 4.64803 5.11334V4.88763C4.64803 4.80447 4.64804 4.73319 4.63616 4.67379V4.66192H4.88562C5.14697 4.66192 5.43209 4.67379 5.70532 4.79259C5.94291 4.89951 6.1211 5.06582 6.28742 5.22025L6.62004 5.50536C6.7032 5.61228 7.02394 5.25589 6.96454 5.20837ZM6.6438 5.2559C6.6438 5.24402 6.6438 5.23213 6.63192 5.22025H6.89327C6.89327 5.23213 6.89327 5.24402 6.89327 5.2559H6.6438Z" fill="#231F20"/>
<path d="M4.20857 19.2145C4.20857 19.2501 4.20857 19.2739 4.22045 19.3095C4.24421 19.3927 4.29173 19.4521 4.35112 19.5115C4.37488 19.5352 4.4224 19.5828 4.45804 19.6065C4.46992 19.6065 4.46992 19.6184 4.46992 19.6184L4.4818 19.6303H5.18269C5.44404 19.6303 5.71727 19.6065 5.97862 19.4877C6.19245 19.3927 6.37065 19.2383 6.56072 19.0482L6.5726 19.0363C6.5726 19.0363 6.5726 19.0363 6.58448 19.0363C6.64388 18.9769 7.30913 18.2998 7.36853 18.2404C7.46357 18.1453 7.07154 17.8365 7.01214 17.8959C6.94087 17.9671 6.65576 18.2166 6.58448 18.2879C6.34689 18.5255 5.80043 19.0363 5.55096 19.1195C5.33713 19.1907 5.1233 19.2026 4.93322 19.2026H4.70751C4.62435 19.2026 4.55308 19.2026 4.49368 19.2145H4.4818V19.0957H4.46992V19.0719H4.4818V18.9769C4.4818 18.7156 4.49368 18.4304 4.61248 18.1572C4.71939 17.9196 4.88571 17.7414 5.04014 17.5751L5.32525 17.2425C5.42028 17.1475 5.0639 16.8386 5.01638 16.8861C4.93323 16.9693 4.98074 16.9217 4.89759 17.0049C4.58872 17.3256 4.36301 17.6108 4.27985 17.8959C4.20857 18.1335 4.20857 18.3592 4.20857 18.6086V18.6324C4.20857 18.7274 4.20857 18.8106 4.19669 18.8819C4.19669 18.965 4.18481 19.0363 4.18481 19.1313C4.18481 19.1432 4.18481 19.167 4.18481 19.1789C4.20857 19.1789 4.20857 19.1907 4.20857 19.2145ZM6.13306 19.1076C6.20433 19.0601 6.25185 19.0244 6.29937 19.0125C6.34689 19.0007 6.39441 19.0719 6.39441 19.1313C6.38253 19.1907 6.34689 19.2264 6.2875 19.2145C6.23998 19.2026 6.20433 19.1551 6.13306 19.1076Z" fill="#231F20"/>
<path d="M19.4381 4.61481C19.4144 4.53166 19.3669 4.47226 19.3075 4.41286C19.2837 4.3891 19.2362 4.34158 19.2005 4.31782C19.1887 4.31782 19.1887 4.30595 19.1887 4.30595L19.1768 4.29407H18.4759C18.2145 4.29407 17.9413 4.31782 17.68 4.43662C17.4661 4.53166 17.2879 4.68609 17.0979 4.87616L17.086 4.88804C17.086 4.88804 17.086 4.88804 17.0741 4.88804C17.0147 4.94744 16.3494 5.62457 16.2901 5.68397C16.195 5.77901 16.587 6.08788 16.6464 6.02848C16.7177 5.9572 17.0028 5.70773 17.0741 5.63645C17.1929 5.51766 17.3948 5.31571 17.5968 5.14939C17.5849 5.12563 17.5612 5.10188 17.5374 5.07812C17.573 5.04248 17.5968 5.01872 17.6206 4.98308C17.6443 5.00684 17.6681 5.0306 17.7037 5.06624C17.8582 4.94744 18.0007 4.85241 18.0957 4.81677C18.3096 4.74549 18.5234 4.73361 18.7135 4.73361H18.9392C19.0224 4.73361 19.0936 4.73361 19.153 4.72173H19.1649V4.9712C19.1649 5.23255 19.153 5.51766 19.0342 5.79089C18.9273 6.02848 18.761 6.20667 18.6066 6.37299L18.3215 6.70561C18.2264 6.80065 18.5828 7.10952 18.6303 7.062C18.7135 6.97884 18.666 7.02636 18.761 6.9432C19.0699 6.62246 19.2956 6.33735 19.3787 6.05224C19.45 5.81465 19.45 5.58894 19.45 5.33947V5.31571C19.45 5.22067 19.45 5.13751 19.4619 5.06624C19.4619 4.99496 19.4738 4.9118 19.4738 4.81677C19.4738 4.80489 19.4738 4.78113 19.4738 4.76925C19.4738 4.74549 19.4738 4.73361 19.4738 4.72173C19.45 4.67421 19.45 4.63857 19.4381 4.61481ZM16.9197 5.64833C16.9078 5.63645 16.9078 5.63645 16.8959 5.62457C16.9078 5.61269 16.9197 5.58894 16.9315 5.57706C16.9434 5.56518 16.9672 5.56518 16.9791 5.5533C16.9909 5.56518 16.9909 5.57706 17.0028 5.58894C16.9672 5.6127 16.9434 5.63645 16.9197 5.64833ZM17.3355 4.98308C17.2761 4.9712 17.2048 4.94744 17.1216 4.93556C17.2285 4.85241 17.2761 4.93556 17.3473 4.94744C17.3355 4.95932 17.3355 4.9712 17.3355 4.98308ZM17.8344 4.82865C17.775 4.79301 17.7394 4.75737 17.68 4.72173C17.7394 4.70985 17.7869 4.69797 17.8582 4.67421C17.8582 4.73361 17.8463 4.76925 17.8344 4.82865Z" fill="#231F20"/>
<path d="M16.8248 18.7988L16.7654 18.7869L16.8129 18.8344C17.1336 19.1433 17.4187 19.369 17.7038 19.4521C17.9414 19.5234 18.1671 19.5234 18.4166 19.5234H18.4404C18.5354 19.5234 18.6186 19.5234 18.6898 19.5353C18.773 19.5353 18.8443 19.5472 18.9393 19.5472C18.9512 19.5472 18.9749 19.5472 18.9868 19.5472C18.9987 19.5472 19.0225 19.5472 19.0343 19.5472C19.07 19.5472 19.0937 19.5472 19.1294 19.5353C19.2125 19.5115 19.2719 19.464 19.3313 19.4046C19.3551 19.3808 19.4026 19.3333 19.4264 19.2977C19.4264 19.2858 19.4382 19.2858 19.4382 19.2858L19.4501 19.2739V18.573C19.4501 18.3117 19.4264 18.0385 19.3076 17.7771C19.2601 17.6583 19.1888 17.5514 19.1056 17.4564C18.9631 17.3613 18.9868 17.3732 18.8799 17.2425C18.8443 17.195 18.8086 17.1594 18.7849 17.1237C18.6898 17.0287 18.5235 16.8743 18.381 16.7198C18.3216 16.6723 18.2622 16.6248 18.2265 16.5654C18.1434 16.4822 18.084 16.4228 18.0721 16.411C17.9771 16.3159 17.6682 16.7079 17.7276 16.7673C17.7989 16.8386 18.0483 17.1237 18.1196 17.195C18.3572 17.4326 18.868 17.9791 18.9512 18.2285C19.0225 18.4424 19.0343 18.6562 19.0343 18.8463V19.072C19.0343 19.1551 19.0343 19.2264 19.0462 19.2858V19.2977H18.7968C18.5354 19.2977 18.2503 19.2858 17.9771 19.167C17.7395 19.0601 17.5613 18.8938 17.395 18.7394L17.0623 18.4542C16.9673 18.3592 16.6703 18.6918 16.706 18.7631C16.7416 18.7156 16.7891 18.7512 16.8248 18.7988ZM19.0343 19.2858C19.0819 19.2383 19.1294 19.1908 19.165 19.1433C19.2363 19.2621 19.2125 19.2858 19.0343 19.2858Z" fill="#231F20"/>
<path d="M14.0093 6.31321C14.0093 6.28945 13.9974 6.05186 13.9736 6.05186C13.8548 6.07562 13.7361 6.0875 13.6173 6.0875C13.6291 6.11126 13.6291 6.1469 13.6291 6.19442C13.6173 6.19442 13.6054 6.19442 13.5935 6.2063C13.5816 6.17066 13.5579 6.13502 13.546 6.09938C13.5341 6.09938 13.5222 6.09938 13.5103 6.09938C13.3797 6.09938 13.249 6.07562 13.1302 6.03998C13.0114 6.00434 12.9045 5.94495 12.7976 5.89743C12.6313 5.81427 12.4531 5.70736 12.2749 5.67172C12.2274 5.65984 12.168 5.65984 12.1323 5.69547C12.0848 5.75487 12.0492 5.83803 12.0135 5.89743C11.966 5.98058 11.9185 6.05186 11.871 6.12314C11.8591 6.1469 11.8353 6.17066 11.8234 6.19442V6.2063C11.8234 6.2063 11.8234 6.2063 11.8234 6.19442C11.7997 6.13502 11.7403 6.06374 11.7047 6.01622C11.6571 5.93307 11.5977 5.86179 11.5502 5.77863C11.5265 5.73111 11.5027 5.67172 11.4433 5.67172C11.3839 5.65984 11.3007 5.69547 11.2413 5.70735C11.0988 5.75487 10.9681 5.82615 10.8374 5.89743C10.8493 5.90931 10.8731 5.93307 10.8731 5.94495C10.8731 5.95682 10.8493 5.9687 10.8256 5.99246C10.8018 5.95682 10.7899 5.94494 10.778 5.92118C10.7424 5.93306 10.7068 5.95683 10.6711 5.96871C10.588 6.00434 10.5167 6.0281 10.4335 6.05186C10.4573 6.0875 10.4811 6.11126 10.5048 6.13502C10.4098 6.13502 10.3741 6.13502 10.3623 6.06374C10.2316 6.0875 10.1009 6.09938 9.97024 6.09938C9.94648 6.11126 9.92272 6.13502 9.88708 6.1469C9.88708 6.13502 9.8752 6.12314 9.8752 6.11126C9.88708 6.11126 9.88708 6.09938 9.89896 6.09938C9.8158 6.0875 9.73265 6.07562 9.64949 6.06374C9.63761 6.06374 9.62573 6.21817 9.62573 6.28945C9.64949 6.31321 9.66137 6.32509 9.68513 6.34885C9.67325 6.42013 9.64949 6.49141 9.63761 6.5508C9.63761 6.57456 9.64949 6.58644 9.66137 6.58644C9.80392 6.62208 9.9346 6.62208 10.0772 6.62208C10.1841 6.58644 10.3029 6.56268 10.4335 6.56268C10.4454 6.56268 10.4573 6.56268 10.4811 6.56268C10.5642 6.53892 10.6474 6.50328 10.7424 6.46764C10.9206 6.38449 11.0988 6.27757 11.2889 6.21817C11.3364 6.20629 11.4077 6.18254 11.4671 6.2063C11.5146 6.23006 11.5502 6.31321 11.574 6.36073C11.5621 6.39637 11.5502 6.43201 11.5383 6.46764L11.4908 6.59832C11.4789 6.63396 11.4908 6.68148 11.5265 6.70524L11.7522 6.83591C11.7759 6.84779 11.8116 6.84779 11.8472 6.83591L12.0729 6.70524C12.1086 6.68148 12.1323 6.63396 12.1086 6.59832L12.0492 6.43201C12.0373 6.40825 12.0373 6.38449 12.0254 6.37261C12.0373 6.34885 12.061 6.32509 12.0729 6.28945C12.1086 6.24193 12.1204 6.19442 12.1798 6.18254C12.2511 6.17066 12.3224 6.20629 12.3818 6.23005C12.5719 6.30133 12.7619 6.40825 12.952 6.49141C13.1064 6.56268 13.2609 6.59832 13.4272 6.6102C13.4628 6.58644 13.4866 6.5508 13.4985 6.56268C13.6054 6.65772 13.6529 6.5508 13.7361 6.47952C13.7361 6.53892 13.7361 6.57456 13.7361 6.6102C13.8073 6.59832 13.8786 6.59832 13.9499 6.57456C14.033 6.56268 14.0093 6.33697 14.0093 6.31321ZM12.7263 6.1469C12.7144 6.12314 12.7025 6.0875 12.6907 6.06374C12.7025 6.06374 12.7025 6.05186 12.7144 6.05186C12.7382 6.06374 12.7619 6.0875 12.7738 6.11126C12.7501 6.12314 12.7382 6.13502 12.7263 6.1469Z" fill="#231F20"/>
<path d="M13.9854 17.4444C13.8667 17.4206 13.7597 17.4088 13.6409 17.3969C13.5697 17.4088 13.4984 17.4206 13.4152 17.4206C13.3915 17.4206 13.3677 17.4206 13.3321 17.4206C13.2133 17.4444 13.0945 17.48 12.9757 17.5276C12.7856 17.6107 12.6074 17.7176 12.4055 17.7889C12.3461 17.8127 12.2629 17.8364 12.2035 17.8364C12.1441 17.8364 12.1204 17.7889 12.0966 17.7295C12.0847 17.7057 12.061 17.682 12.0491 17.6463C12.061 17.6226 12.061 17.6107 12.0728 17.587L12.1322 17.4206C12.1441 17.385 12.1322 17.3375 12.0966 17.3137L11.8709 17.183C11.8471 17.1712 11.8115 17.1712 11.7758 17.183L11.5501 17.3137C11.5145 17.3375 11.5026 17.385 11.5145 17.4206L11.562 17.5513C11.5739 17.587 11.5858 17.6226 11.5977 17.6701C11.5739 17.7176 11.5383 17.8008 11.4907 17.8245C11.4313 17.8483 11.3601 17.8245 11.3126 17.8127C11.265 17.8008 11.2294 17.777 11.1819 17.7651C11.1462 17.7651 11.1106 17.7533 11.075 17.7295C11.0631 17.7295 11.0631 17.7176 11.0512 17.7057C10.9562 17.6582 10.8611 17.6107 10.7661 17.5632C10.6354 17.5038 10.5047 17.4563 10.3622 17.4206C10.3265 17.4206 10.3028 17.4206 10.2672 17.4206C10.184 17.4206 10.1008 17.4088 10.0296 17.3969C9.91077 17.3969 9.80385 17.4088 9.68505 17.4325C9.64941 17.4444 9.64941 17.6582 9.64941 17.6939C9.64941 17.7176 9.64942 17.9552 9.67317 17.9552C9.97016 17.8839 10.2909 17.8958 10.576 18.0027C10.6473 18.0146 10.7067 18.0384 10.7661 18.0621C10.7304 18.0027 10.7067 17.9552 10.6711 17.8958C10.7898 17.9196 10.8017 17.979 10.7898 18.074C10.8492 18.0978 10.8968 18.1334 10.9443 18.1691C11.0393 18.2166 11.1462 18.2641 11.2532 18.3116C11.3126 18.3354 11.3838 18.3591 11.4551 18.3591C11.5145 18.3472 11.5383 18.2997 11.562 18.2522C11.6095 18.169 11.6571 18.0978 11.7165 18.0146C11.7521 17.9552 11.8115 17.8958 11.8352 17.8364C11.8471 17.8602 11.8709 17.8839 11.8828 17.9077C11.9303 17.979 11.9778 18.0621 12.0253 18.1334C12.061 18.1928 12.0966 18.2878 12.1441 18.3354C12.1798 18.371 12.2392 18.371 12.2867 18.3591C12.4767 18.3235 12.6431 18.2166 12.8094 18.1334C12.9163 18.0859 13.0232 18.0265 13.142 17.9909C13.2608 17.9552 13.3915 17.9315 13.5221 17.9315C13.6766 17.9315 13.831 17.9433 13.9736 17.979C13.9973 17.979 14.0092 17.7414 14.0092 17.7176C14.0092 17.682 14.033 17.4563 13.9854 17.4444ZM11.1938 18.0027C11.1344 18.0146 11.0393 17.9671 10.9799 17.979C11.2175 17.8245 11.3244 17.8127 11.3601 17.9077C11.3007 17.9077 11.265 17.9909 11.1938 18.0027Z" fill="#231F20"/>
<path d="M18.155 12.3245C18.0956 12.277 18.0125 12.2414 17.9531 12.1939C17.8818 12.1463 17.7987 12.0988 17.7274 12.0513C17.7036 12.0394 17.6799 12.0157 17.6561 12.0038H17.6442C17.6442 12.0038 17.6442 12.0038 17.6561 12.0038C17.7155 11.98 17.7868 11.9206 17.8343 11.885C17.9174 11.8375 17.9887 11.7781 18.0719 11.7306C18.1194 11.7068 18.1669 11.683 18.1788 11.6355C18.1669 11.5761 18.155 11.5167 18.155 11.4692C18.155 11.4573 18.1432 11.4455 18.1432 11.4336C18.0719 11.2435 17.965 11.0653 17.8818 10.8752C17.7393 10.5545 17.7155 10.1981 17.7868 9.86547C17.7868 9.84171 17.5492 9.84171 17.5254 9.84171C17.4898 9.84171 17.276 9.82984 17.2641 9.87735C17.2522 9.94863 17.2403 10.0199 17.2284 10.0912C17.2522 10.1149 17.276 10.1268 17.2878 10.1506C17.2522 10.305 17.169 10.4713 17.3354 10.602C17.3116 10.6376 17.2878 10.6495 17.2522 10.6376C17.276 10.7446 17.3235 10.8515 17.371 10.9584C17.4541 11.1366 17.5611 11.3148 17.6205 11.5048C17.6323 11.5524 17.6561 11.6355 17.6323 11.683C17.6086 11.7306 17.5254 11.7662 17.4779 11.79C17.4423 11.7781 17.4066 11.7662 17.3591 11.7543L17.2284 11.7068C17.1928 11.6949 17.1453 11.7068 17.1215 11.7424L16.9908 11.9682C16.979 11.9919 16.979 12.0275 16.9908 12.0632L17.1215 12.2889C17.1453 12.3245 17.1809 12.3483 17.2284 12.3245L17.3948 12.2651C17.4185 12.2651 17.4304 12.2533 17.4541 12.2414C17.4779 12.2533 17.5017 12.277 17.5373 12.2889C17.5848 12.3245 17.6323 12.3364 17.6442 12.3958C17.6442 12.4671 17.6205 12.5384 17.5967 12.5978C17.5254 12.7878 17.4185 12.9779 17.3354 13.168C17.3354 13.1799 17.3353 13.1799 17.3235 13.1917C17.3116 13.3224 17.276 13.4412 17.2284 13.5481C17.2047 13.7501 17.2166 13.9639 17.2522 14.1659C17.2641 14.2015 17.4898 14.1896 17.5135 14.1896C17.5373 14.1896 17.7868 14.1777 17.7749 14.154C17.7393 13.9996 17.7274 13.8451 17.7274 13.6907C17.7274 13.56 17.7393 13.4293 17.7868 13.3105C17.8224 13.1917 17.8818 13.0848 17.9293 12.9779C17.965 12.8829 18.0006 12.7878 18.06 12.7047C18.0956 12.6215 18.1313 12.5384 18.155 12.4552C18.1788 12.4196 18.1907 12.3602 18.155 12.3245ZM17.6086 11.3148C17.6086 11.2791 17.5967 11.2435 17.5967 11.2197C17.6086 11.2197 17.6086 11.2197 17.6205 11.2079C17.6323 11.2435 17.6442 11.2673 17.6442 11.3029C17.6323 11.3148 17.6205 11.3148 17.6086 11.3148Z" fill="#231F20"/>
<path d="M6.6558 11.9562L6.52512 11.7305C6.50136 11.6949 6.45384 11.683 6.4182 11.6949L6.28753 11.7424C6.25189 11.7543 6.21625 11.7661 6.18061 11.778C6.1331 11.7543 6.04994 11.7186 6.02618 11.6711C6.00242 11.6236 6.02618 11.5404 6.03806 11.4929C6.09746 11.3028 6.20438 11.1246 6.28753 10.9464C6.38257 10.7445 6.44196 10.5544 6.45384 10.3287C6.45384 10.1743 6.44197 10.0198 6.40633 9.86541C6.39445 9.82977 6.18062 9.82977 6.14498 9.82977C6.12122 9.82977 5.87175 9.82977 5.88363 9.85353C5.9549 10.198 5.94302 10.5544 5.78859 10.8633C5.70543 11.0534 5.59852 11.2316 5.52724 11.4216C5.52724 11.4216 5.52724 11.4335 5.51536 11.4454C5.52724 11.4573 5.53912 11.4691 5.53912 11.481C5.53912 11.5048 5.52724 11.5167 5.4916 11.5404C5.4916 11.5642 5.47972 11.5998 5.4916 11.6236C5.50348 11.683 5.55099 11.7067 5.59851 11.7305C5.68167 11.778 5.75295 11.8255 5.8361 11.8849C5.8955 11.9206 5.9549 11.98 6.0143 12.0037H6.02618C6.02618 12.0037 6.02618 12.0037 6.0143 12.0037C5.99054 12.0156 5.96678 12.0394 5.94302 12.0512C5.87175 12.0988 5.78859 12.1463 5.71731 12.1938C5.65791 12.2294 5.56288 12.2651 5.51536 12.3126C5.47972 12.3482 5.47972 12.4076 5.4916 12.4551C5.52724 12.6452 5.63415 12.8115 5.71731 12.9779C5.72919 12.9897 5.72919 13.0016 5.74107 13.0135C5.77671 13.0016 5.82422 13.0016 5.8361 13.0254C5.91926 13.0848 5.99054 13.156 6.08558 13.2392C6.00242 13.2748 5.94303 13.3105 5.87175 13.3461C5.87175 13.3461 5.87175 13.3461 5.88363 13.3461C5.90738 13.3699 5.91927 13.3818 5.93115 13.3818C5.97866 13.4055 6.02618 13.4174 6.0143 13.4768C6.00242 13.5243 5.96678 13.5599 5.93115 13.5718C5.93115 13.6075 5.94302 13.655 5.94302 13.6906C5.94302 13.8451 5.93114 13.9995 5.8955 14.1539C5.8955 14.1777 6.13309 14.1896 6.15685 14.1896C6.19249 14.1896 6.40632 14.2014 6.4182 14.1658C6.46572 13.952 6.4776 13.7263 6.44197 13.5124V13.5005C6.41821 13.3818 6.39444 13.2748 6.33505 13.1679C6.25189 12.9778 6.14497 12.7997 6.07369 12.5977C6.04994 12.5383 6.0143 12.467 6.02618 12.3958C6.02618 12.3364 6.07369 12.3126 6.13309 12.2888C6.15685 12.277 6.18061 12.2532 6.21625 12.2413C6.24001 12.2413 6.25189 12.2532 6.27565 12.2651L6.44197 12.3245C6.4776 12.3364 6.52512 12.3245 6.54888 12.2888L6.67956 12.0631C6.66768 12.0156 6.66767 11.98 6.6558 11.9562ZM5.99054 11.0771C6.00242 11.0652 6.0143 11.0415 6.03806 11.0415C6.04994 11.0415 6.06182 11.0534 6.08558 11.0652C6.06182 11.089 6.04994 11.1128 6.03806 11.1128C6.0143 11.1128 6.00242 11.089 5.99054 11.0771Z" fill="#231F20"/>
<path d="M8.86554 7.84582C8.7705 7.69139 8.55668 7.3944 8.426 7.27561C8.3666 7.21621 8.29532 7.22809 8.23592 7.27561C8.22405 7.28749 8.20029 7.31125 8.18841 7.33501C8.12901 7.43004 8.05773 7.52508 7.99833 7.62011C7.97457 7.65575 7.9627 7.65575 7.92706 7.63199C7.89142 7.60824 7.85578 7.5726 7.80826 7.56072C7.73699 7.53696 7.66571 7.52508 7.59443 7.5132C7.47564 7.48944 7.3806 7.41816 7.34496 7.29936C7.33308 7.26373 7.33308 7.22809 7.3806 7.21621C7.46375 7.18057 7.54691 7.14493 7.63007 7.12117C7.72511 7.09741 7.83202 7.12117 7.9033 7.19245L8.18841 6.94298C8.18841 6.91922 8.17653 6.90734 8.15277 6.89546C8.09337 6.8717 8.04586 6.84794 7.98646 6.8123C7.8439 6.74103 7.71323 6.65787 7.59443 6.53907C7.58255 6.5272 7.54691 6.51532 7.52315 6.50344C7.47563 6.49156 7.44 6.47968 7.39248 6.4678C7.34496 6.45592 7.29744 6.43216 7.24992 6.43216C7.20241 6.42028 7.15489 6.43216 7.10737 6.43216C7.09549 6.43216 7.08361 6.43216 7.07173 6.44404C7.03609 6.45592 7.00046 6.49156 6.9767 6.51531C6.94106 6.55095 6.90542 6.58659 6.86978 6.62223C6.48963 7.02614 6.31144 7.59635 6.29956 8.14281C6.29956 8.28537 6.43024 8.13093 6.46588 8.0953C6.54903 7.98838 6.62031 7.82207 6.62031 7.67951C6.62031 7.43004 6.69159 7.22809 6.82226 7.08553L6.96481 7.06177C6.91729 7.14493 6.88166 7.22809 6.8579 7.27561C6.81038 7.4538 6.88166 7.59635 6.9767 7.72703C7.05985 7.83395 7.10737 7.9171 7.21429 8.00026C7.27368 8.04778 7.33308 8.0953 7.3806 8.15469C7.45187 8.23785 7.48752 8.40416 7.45188 8.53484C7.29744 8.66551 7.11925 8.76055 6.92917 8.81995C6.90542 8.83183 7.03609 9.04566 7.04797 9.05754C7.07173 9.0813 7.17865 9.27137 7.21429 9.25949C7.35684 9.21197 7.49939 9.1407 7.61819 9.05754C7.59443 9.03378 7.57067 9.0219 7.53504 8.99814C7.54692 8.92686 7.57067 8.85559 7.58255 8.79619C7.7251 8.79619 7.77262 8.81995 7.79638 8.91498C7.87954 8.84371 7.95082 8.76055 8.01022 8.66551C8.0815 8.57048 8.14089 8.46356 8.17653 8.34477C8.21217 8.23785 8.20029 8.13093 8.18841 8.02402C8.16465 7.83395 8.22405 7.65575 8.30721 7.48944C8.31909 7.46568 8.34285 7.44192 8.3666 7.47756C8.426 7.54884 8.56855 7.77455 8.61607 7.84582C8.65171 7.9171 8.65171 8.00026 8.6042 8.07154C8.56856 8.11905 8.54479 8.16657 8.50915 8.21409C8.48539 8.24973 8.47351 8.27349 8.50915 8.29725C8.53291 8.30913 8.54479 8.33288 8.55667 8.35664C8.61607 8.42792 8.66359 8.4992 8.72299 8.57048C8.73487 8.5586 8.73486 8.54672 8.74674 8.54672C8.80614 8.3804 8.86554 8.21409 8.8893 8.04778C8.91306 7.96462 8.90118 7.90522 8.86554 7.84582ZM7.13113 6.47968C7.17865 6.50344 7.22616 6.5272 7.28556 6.55096C7.13113 6.59847 7.13113 6.59847 7.13113 6.47968ZM7.33308 7.43004C7.3212 7.43004 7.30932 7.41816 7.29745 7.3944C7.3212 7.38252 7.33308 7.37064 7.34496 7.38252C7.35684 7.38252 7.36872 7.40628 7.36872 7.41816C7.36872 7.41816 7.35684 7.43004 7.33308 7.43004Z" fill="#231F20"/>
<path d="M16.1119 17.4685C16.1594 17.4803 16.195 17.4922 16.2426 17.5041C16.2901 17.516 16.3376 17.5397 16.397 17.5397C16.4445 17.5516 16.5277 17.5397 16.5752 17.5279C16.5871 17.5279 16.5871 17.516 16.599 17.516C16.6584 17.4685 16.7177 17.4209 16.7771 17.3615C17.1573 16.9576 17.3355 16.3874 17.3474 15.8528C17.3474 15.7103 17.2167 15.8647 17.181 15.9004C17.0979 16.0073 17.0266 16.1736 17.0266 16.3161C17.0266 16.5656 16.9553 16.7676 16.8247 16.9101L16.6821 16.9339C16.7296 16.8507 16.7653 16.7676 16.789 16.7082C16.8365 16.53 16.7653 16.3874 16.6702 16.2567C16.5871 16.1498 16.5396 16.0667 16.4326 15.9835C16.3732 15.936 16.3138 15.8885 16.2663 15.8291C16.195 15.7459 16.1594 15.5796 16.195 15.4489C16.3495 15.3183 16.5277 15.2232 16.7177 15.1638C16.7415 15.1519 16.6108 14.9381 16.599 14.9262C16.5871 14.9025 16.4683 14.7124 16.4326 14.7243C16.2901 14.7718 16.1475 14.8431 16.0169 14.9262C15.8505 15.0332 15.7317 15.1519 15.6248 15.3064C15.5536 15.4014 15.4942 15.5083 15.4585 15.6271C15.4229 15.734 15.4348 15.841 15.4466 15.9479C15.4704 16.138 15.411 16.3161 15.3278 16.4825C15.316 16.5062 15.2922 16.53 15.2684 16.4943C15.209 16.4231 15.0665 16.1974 15.019 16.1261C14.9833 16.0548 14.9833 15.9716 15.0309 15.9004C15.0665 15.8528 15.0902 15.8053 15.1259 15.7578C15.1496 15.7222 15.1615 15.6984 15.1259 15.6747C15.1021 15.6628 15.0903 15.639 15.0784 15.6153C15.019 15.544 14.9715 15.4727 14.9121 15.4014C14.9002 15.4133 14.9002 15.4133 14.8883 15.4252C14.8289 15.5915 14.7695 15.7578 14.7457 15.9241C14.7339 15.9954 14.7457 16.0548 14.7933 16.1142C14.8289 16.1736 14.8883 16.2567 14.9477 16.3399C14.9715 16.3399 14.9952 16.3399 15.019 16.3399L15.0309 16.3637C15.019 16.3637 14.9952 16.3755 14.9833 16.3755C15.0784 16.4943 15.1734 16.625 15.2447 16.6963C15.3041 16.7557 15.3754 16.7438 15.4348 16.6963C15.4466 16.6844 15.4704 16.6607 15.4823 16.6369C15.5417 16.5419 15.613 16.4468 15.6723 16.3518C15.6961 16.3161 15.708 16.3161 15.7436 16.3399C15.7793 16.3637 15.8149 16.3993 15.8624 16.4112C15.9337 16.4349 16.005 16.4468 16.0762 16.4587C16.195 16.4825 16.302 16.5537 16.3257 16.6725C16.3376 16.7082 16.3376 16.7438 16.2901 16.7557C16.2069 16.7913 16.1238 16.827 16.0406 16.8507C15.9456 16.8745 15.8505 16.8507 15.7674 16.7794L15.6486 16.8864C15.6486 16.9101 15.6367 16.922 15.6011 16.9458H15.5892L15.4823 17.0408C15.4823 17.0646 15.4942 17.0883 15.5179 17.0883C15.5773 17.1121 15.6248 17.1358 15.6842 17.1715C15.8268 17.2427 15.9693 17.3259 16.0762 17.4447C16.0644 17.4566 16.0881 17.4566 16.1119 17.4685Z" fill="#231F20"/>
<path d="M17.3831 7.27546C17.3831 7.26358 17.3831 7.2517 17.3712 7.23982C17.3475 7.16854 17.2525 7.08539 17.2049 7.03787C16.801 6.65773 16.2308 6.46765 15.6844 6.46765C15.5418 6.46765 15.6962 6.59833 15.7319 6.63396C15.8388 6.71712 16.0051 6.7884 16.1477 6.7884C16.3971 6.7884 16.5991 6.85968 16.7416 6.99035L16.7654 7.12103C16.6822 7.07351 16.5991 7.03787 16.5516 7.02599C16.3734 6.97847 16.2308 7.03787 16.1001 7.14479C15.9932 7.22794 15.9101 7.27546 15.8269 7.38238C15.7794 7.44178 15.7319 7.50117 15.6725 7.54869C15.5893 7.61997 15.423 7.65561 15.2923 7.61997C15.2092 7.51305 15.1379 7.40613 15.0785 7.28734C14.9953 7.28734 14.9478 7.22794 14.9478 7.16854C14.9478 7.14478 14.9597 7.12103 14.9597 7.09727C14.9003 7.12103 14.7815 7.19231 14.7696 7.20418C14.7459 7.21606 14.5558 7.33486 14.5677 7.3705C14.6152 7.51305 14.6865 7.65561 14.7696 7.78628C14.7934 7.8338 14.829 7.86944 14.8528 7.90508C14.8647 7.88132 14.8647 7.85756 14.8765 7.82192C14.8884 7.82192 14.9122 7.82192 14.9241 7.8338C14.9359 7.88132 14.9359 7.94071 14.9478 8.01199C15.0072 8.07139 15.0785 8.13079 15.1498 8.17831C15.2448 8.24958 15.3517 8.30898 15.4705 8.34462C15.5774 8.38026 15.6844 8.36838 15.7913 8.3565C15.9813 8.33274 16.1595 8.39214 16.3259 8.47529C16.3496 8.48717 16.3734 8.51093 16.3377 8.53469C16.2665 8.59409 16.0407 8.73664 15.9695 8.78416C15.8982 8.8198 15.815 8.8198 15.7438 8.77228C15.6962 8.73664 15.6487 8.71289 15.6012 8.67725C15.5656 8.65349 15.5418 8.64161 15.518 8.67725C15.5062 8.70101 15.4824 8.71289 15.4586 8.72476C15.3874 8.78416 15.3161 8.84356 15.2448 8.89108C15.2567 8.90296 15.2686 8.90296 15.2686 8.90296C15.4349 8.96236 15.6012 9.02175 15.7675 9.04551C15.8388 9.05739 15.8982 9.03364 15.9576 8.998C16.112 8.90296 16.409 8.68913 16.5278 8.55845C16.5872 8.49905 16.5753 8.42778 16.5278 8.36838C16.5159 8.3565 16.4922 8.33274 16.4684 8.32086C16.3734 8.26146 16.2783 8.19019 16.1833 8.13079C16.1477 8.10703 16.1477 8.09515 16.1714 8.05951C16.1952 8.02387 16.2308 7.98823 16.2427 7.94071C16.2665 7.86944 16.2783 7.79816 16.2902 7.72688C16.314 7.60809 16.3852 7.50117 16.504 7.47741C16.5397 7.46553 16.5753 7.46554 16.5872 7.51305C16.6228 7.59621 16.6585 7.67936 16.6822 7.76252C16.706 7.85756 16.6822 7.9526 16.611 8.03575L16.8604 8.32086C16.8842 8.32086 16.8961 8.30898 16.9079 8.28522C16.9317 8.23771 16.9555 8.17831 16.9911 8.13079C17.0624 7.98823 17.1455 7.84568 17.2643 7.73876C17.2762 7.72688 17.2881 7.69125 17.3 7.66749C17.3118 7.61997 17.3237 7.58433 17.3356 7.53681C17.3831 7.46553 17.395 7.38238 17.3831 7.27546ZM15.6962 8.89108C15.7319 8.79604 15.7319 8.79604 15.815 8.83168C15.7794 8.85544 15.7437 8.8792 15.6962 8.89108ZM16.6466 7.45366C16.706 7.47741 16.7416 7.48929 16.7891 7.50117C16.7298 7.51305 16.6822 7.56057 16.6466 7.45366ZM17.0267 7.04975C17.1099 7.04975 17.1693 7.03787 17.1693 7.13291C17.1218 7.10915 17.0743 7.08539 17.0267 7.04975ZM17.2287 7.27546C17.2406 7.3111 17.2525 7.34674 17.2881 7.40613C17.1693 7.3705 17.1455 7.34674 17.2287 7.27546Z" fill="#231F20"/>
<path d="M8.90084 16.1852C8.79392 16.0189 8.67513 15.9001 8.52069 15.7932C8.42566 15.7219 8.31874 15.6625 8.19994 15.6269C8.09303 15.5913 7.98611 15.6031 7.87919 15.615C7.68912 15.6388 7.51093 15.5794 7.34461 15.4962C7.32086 15.4843 7.2971 15.4606 7.33274 15.4368C7.40402 15.3893 7.62972 15.2349 7.701 15.1992C7.77228 15.1636 7.85544 15.1636 7.92672 15.2111C7.97423 15.2467 8.02175 15.2705 8.06927 15.3061C8.10491 15.3299 8.12866 15.3418 8.15242 15.3061C8.1643 15.2824 8.18806 15.2705 8.21182 15.2586C8.2831 15.1992 8.35438 15.1517 8.42566 15.0923C8.41378 15.0804 8.41378 15.0804 8.4019 15.0804C8.23558 15.021 8.06927 14.9616 7.90295 14.9379C7.83168 14.926 7.77228 14.9379 7.71288 14.9854C7.55845 15.0804 7.26146 15.2943 7.14266 15.4249C7.08326 15.4843 7.09514 15.5556 7.14266 15.615C7.15454 15.6269 7.1783 15.6506 7.20206 15.6625C7.2971 15.7219 7.39213 15.7932 7.48717 15.8526C7.52281 15.8764 7.52281 15.8882 7.49905 15.9239C7.47529 15.9595 7.43965 15.9952 7.42777 16.0427C7.40401 16.114 7.39213 16.1852 7.38025 16.2565C7.35649 16.3753 7.28522 16.4703 7.16642 16.506C7.13078 16.5179 7.09514 16.5179 7.08326 16.4703C7.04762 16.3872 7.01199 16.304 6.98823 16.2209C6.96447 16.1258 6.98823 16.0189 7.05951 15.9476L6.81004 15.6625C6.78628 15.6625 6.76252 15.6744 6.75064 15.6982C6.72688 15.7576 6.70312 15.8051 6.66748 15.8645C6.5962 16.007 6.51305 16.1496 6.39425 16.2565C6.38237 16.2684 6.37049 16.304 6.35861 16.3278C6.34673 16.3753 6.33486 16.4109 6.32298 16.4585C6.29922 16.5535 6.27546 16.6485 6.28734 16.7554C6.29922 16.8505 6.40614 16.9336 6.46553 16.993C6.86944 17.3732 7.43965 17.5514 7.97423 17.5633C8.11678 17.5633 7.96235 17.4326 7.92672 17.3969C7.8198 17.3138 7.65349 17.2425 7.51093 17.2425C7.26146 17.2425 7.05951 17.1712 6.91695 17.0406L6.89319 16.898C6.97635 16.9455 7.05951 16.9812 7.11891 17.0049C7.2971 17.0524 7.43965 16.9812 7.57033 16.8861C7.67724 16.803 7.7604 16.7554 7.84356 16.6485C7.89108 16.5891 7.93859 16.5297 7.99799 16.4822C8.08115 16.4109 8.24746 16.3753 8.37814 16.4109C8.4019 16.4347 8.41377 16.4585 8.43753 16.4941V16.4822C8.46129 16.4941 8.49693 16.506 8.52069 16.5179C8.50881 16.5297 8.49693 16.5535 8.48506 16.5654L8.47317 16.5535C8.54445 16.6723 8.61573 16.803 8.65136 16.9336C8.66324 16.9574 8.87708 16.8267 8.88896 16.8148C8.91271 16.7911 9.10279 16.6842 9.09091 16.6485C9.04339 16.4466 8.97212 16.304 8.90084 16.1852ZM8.8058 16.209C8.79392 16.1852 8.78204 16.1734 8.78204 16.1496C8.78204 16.1377 8.81768 16.1258 8.81768 16.1258C8.82956 16.1377 8.84144 16.1496 8.85332 16.1733C8.84144 16.1733 8.82956 16.1852 8.8058 16.209Z" fill="#231F20"/>
<path d="M12.0253 9.10528C12.0609 9.04588 11.7758 8.49943 11.5857 8.6895L11.5738 9.08152C11.1224 9.08152 11.063 9.69926 11.455 9.86557V10.0675C11.0987 10.1388 10.8135 10.0556 10.469 10.0556V10.2101C10.3859 10.0675 10.2077 10.0438 10.1245 9.92497C9.17416 9.60422 8.63958 9.6161 8.43763 10.115C8.43763 10.1388 8.44951 10.1626 8.44951 10.1744C8.44951 10.3051 8.42575 10.4358 8.36636 10.5427V10.5546C8.35448 10.7328 8.36635 10.9347 8.39011 11.1842C8.40199 11.4099 8.36635 11.7069 8.39011 11.9801C8.41387 12.0633 8.42575 12.1464 8.43763 12.2296C8.46139 12.3128 8.49703 12.384 8.54455 12.4553C8.92469 13.0968 9.25732 12.1821 10.279 12.7285C10.3859 12.7642 10.5047 12.7998 10.6116 12.8355C10.6947 12.7642 10.8373 12.7523 10.8373 12.883C11.0393 12.9186 11.2531 12.9186 11.455 12.9186C11.5144 13.6433 11.3125 14.0828 11.5738 14.463C11.6332 14.4392 11.7045 14.4154 11.7758 14.3917C11.8114 14.463 11.8471 14.5224 11.8827 14.5936C11.7401 14.6768 11.5738 14.7124 11.4432 14.7956C11.455 14.9263 11.3838 15.0926 11.6095 15.0926C11.752 15.0926 12.1797 15.0094 12.1797 14.8787C12.1797 14.5936 12.1797 14.1897 12.1797 13.7383C12.1797 13.7264 12.1678 13.7145 12.1678 13.7027C12.1559 13.6195 12.144 13.5363 12.1322 13.4413C12.1322 13.3463 12.144 13.2512 12.1797 13.1562C12.1797 12.5622 12.1797 11.9207 12.1797 11.3386C12.1678 11.2674 12.1559 11.1961 12.1559 11.1248C12.1559 11.0416 12.1678 10.9704 12.1797 10.8991C12.1797 10.5189 12.1797 10.1744 12.1797 9.91309C12.1797 9.91309 12.1797 9.87745 12.1797 9.84181C12.548 9.59234 12.3341 9.24784 12.0253 9.10528ZM10.6235 10.3051C10.576 10.3408 10.5284 10.3764 10.4928 10.412C10.4928 10.3289 10.5284 10.2814 10.6235 10.3051ZM9.76814 12.3365V12.1821H9.80378C9.80378 12.2296 9.80377 12.289 9.81565 12.3365C9.7919 12.3365 9.78002 12.3365 9.76814 12.3365ZM11.455 11.101V12.2177C11.3838 12.2296 11.3125 12.2415 11.2412 12.2534C11.0986 12.2652 10.9442 12.2652 10.8017 12.2534C10.8017 12.2534 10.8017 12.2534 10.7898 12.2534C10.5997 12.2296 10.3978 12.194 10.2077 12.1346H10.1958C10.1364 12.1108 10.0651 12.0989 10.0057 12.0752C9.97009 12.0633 9.94634 12.0514 9.9107 12.0395C9.7919 11.992 9.67311 11.9564 9.55431 11.9326C9.51867 11.9207 9.49491 11.9207 9.45927 11.9089C9.39987 11.897 9.34048 11.8851 9.2692 11.8851C9.23356 11.8851 9.2098 11.8851 9.17416 11.8851C9.1504 11.8851 9.12664 11.8851 9.10288 11.8851C9.05536 11.8851 8.99597 11.897 8.94845 11.9089C8.92469 11.9089 8.90093 11.9207 8.87717 11.9326V11.7069L8.86529 11.7188C8.85341 11.6713 8.84153 11.6356 8.82965 11.6C8.79401 11.5881 8.75838 11.5881 8.72274 11.5762C8.72274 11.5643 8.72274 11.5525 8.72274 11.5406C8.75838 11.5287 8.78214 11.5287 8.81778 11.5168C8.81778 11.5406 8.82965 11.5643 8.82965 11.6H8.88905C8.90093 11.4812 8.90093 11.3505 8.88905 11.2436C8.87717 11.0535 8.86529 10.8872 8.88905 10.7447C8.90093 10.6496 8.93657 10.5783 9.00785 10.5189C9.091 10.4477 9.2098 10.412 9.39987 10.4002H9.41175C9.44739 10.4002 9.48303 10.4002 9.53055 10.4002H9.54243C9.56619 10.3645 9.58994 10.3526 9.63746 10.3289C9.63746 10.3645 9.62559 10.3883 9.61371 10.4002C9.7919 10.4239 9.95821 10.4714 10.1364 10.5189C10.1483 10.5189 10.1602 10.5189 10.172 10.5308C10.4096 10.6021 10.6472 10.6853 10.8848 10.7328C10.9205 10.7447 10.9442 10.7447 10.9799 10.7447C11.1462 10.7803 11.3006 10.7922 11.4669 10.7684V10.9229C11.5026 10.9229 11.5382 10.9704 11.5976 11.0179C11.5263 11.0416 11.4907 11.0773 11.455 11.101ZM11.6689 13.9521C11.6332 13.8927 11.5976 13.869 11.6689 13.8333C11.7045 13.869 11.7283 13.8927 11.6689 13.9521ZM11.7758 13.9521C11.8471 13.9521 11.8946 13.9403 11.9302 13.9521C12.1678 14.0947 11.7401 14.2135 11.7758 13.9521ZM12.0253 12.3009H11.9896C12.0015 12.2415 11.8946 12.1821 12.0253 12.1227V12.3009Z" fill="#231F20"/>
<path d="M14.7578 13.275C14.734 13.0255 14.8409 12.776 14.5439 12.5622C14.3539 12.4196 14.4014 12.0157 14.3539 11.8019C14.3182 11.6356 14.2707 11.4693 14.2351 11.3148C14.2232 11.3267 14.1875 11.3267 14.1875 11.3148C14.14 11.2792 14.1519 11.2317 14.2113 11.1842C14.1638 11.006 14.1163 10.8278 14.0569 10.6496C14.045 10.614 14.0331 10.5783 14.0094 10.5546C13.9856 10.5308 13.9499 10.5308 13.9143 10.5308C13.6767 10.507 13.4391 10.4833 13.2015 10.4833C13.1184 10.4833 13.0471 10.4833 12.9639 10.4833C12.9402 10.4952 12.9283 10.5189 12.9045 10.5308C12.9045 10.507 12.9045 10.4952 12.9045 10.4833C12.7976 10.4952 12.6907 10.507 12.5838 10.5427C12.5244 10.5664 12.465 10.5902 12.4294 10.6496C12.4175 10.6852 12.4175 10.7327 12.4056 10.7684C12.3937 11.0297 12.3937 11.2911 12.3819 11.5406C12.37 11.8613 12.37 12.1939 12.4888 12.4909C12.6313 12.8354 12.9402 13.0968 13.2728 13.2631C13.4035 12.7879 13.6054 12.3365 13.8668 11.9207C13.8787 11.9088 13.8787 11.8969 13.9024 11.8969C13.9143 11.8969 13.9262 11.9088 13.9381 11.9088C14.0093 11.9682 14.0806 12.0395 14.1519 12.1108C14.1638 12.1108 14.1638 12.1108 14.1757 12.0989C14.1757 12.1108 14.1875 12.1345 14.1875 12.1464C14.2113 12.2177 14.2232 12.289 14.2469 12.3484C14.2588 12.3959 14.2707 12.4434 14.2826 12.4909C14.2945 12.5503 14.2707 12.586 14.2113 12.6097C14.1994 12.6097 14.1994 12.6097 14.1875 12.6097C14.1994 12.6454 14.2113 12.681 14.2232 12.7285C14.3063 12.978 14.4133 13.2393 14.3539 13.4888C14.3301 13.5957 14.2826 13.6789 14.2113 13.762C14.2232 13.6908 14.2113 13.6314 14.1757 13.572C14.0212 13.37 13.843 13.5007 13.8193 13.7145C13.8074 13.8808 13.8549 14.0471 13.8787 14.2134C13.843 14.356 13.8074 14.4867 13.7955 14.6292C13.7836 14.6886 13.7836 14.748 13.8074 14.7955C13.8787 14.9619 14.0806 14.8431 14.14 14.7362C14.2707 14.5223 14.045 14.1184 14.342 13.9759C14.4489 13.9283 14.5202 13.8689 14.5796 13.8095C14.5677 13.7264 14.5558 13.6551 14.5439 13.5957C14.5439 13.572 14.5558 13.5244 14.5677 13.5126C14.6746 13.4769 14.6865 13.3819 14.7221 13.2987L14.734 13.3106C14.7696 13.3225 14.7696 13.2987 14.7578 13.275ZM12.9402 11.2317C12.9164 11.2079 12.8927 11.196 12.857 11.1723L12.8689 11.1604L12.9402 11.2198C12.9521 11.2198 12.9402 11.2198 12.9402 11.2317ZM13.1184 12.5028C13.0827 12.4909 13.059 12.4553 12.9996 12.4196C13.059 12.384 13.0827 12.3602 13.1184 12.3484C13.1659 12.3365 13.2015 12.3721 13.2015 12.4196C13.2015 12.479 13.1778 12.5028 13.1184 12.5028ZM13.2966 12.681V12.479C13.356 12.5622 13.356 12.6097 13.2966 12.681ZM13.4867 12.5622C13.451 12.5384 13.4272 12.5266 13.3797 12.4909C13.4629 12.4434 13.5104 12.4434 13.5223 12.4909C13.5223 12.5147 13.4985 12.5384 13.4867 12.5622ZM13.95 13.8333C13.9975 13.8689 14.045 13.9046 14.1044 13.9402C13.9737 13.9759 13.9737 13.9759 13.95 13.8333Z" fill="#231F20"/>
<path d="M12.453 10.1861V10.293C12.4768 10.3287 12.5243 10.3762 12.5599 10.3762C12.8332 10.3881 13.0945 10.3881 13.3677 10.3881C13.3677 10.3881 13.6885 10.4 13.8429 10.3643C13.9023 10.3524 13.9379 10.293 13.9736 10.2337V10.1386C13.9142 10.1149 13.8548 10.0792 13.7954 10.0792C13.3915 10.0673 12.9757 10.0673 12.5718 10.0911C12.5362 10.0792 12.4768 10.1386 12.453 10.1861Z" fill="#231F20"/>
<path d="M12.7499 9.67539C12.7024 9.67539 12.6668 9.74667 12.6193 9.81795V9.88923C12.6787 9.92487 12.7262 9.97238 12.7975 9.98426C12.9281 10.008 13.0707 9.98426 13.2014 9.98426C13.332 9.98426 13.4746 9.99614 13.6053 9.98426C13.6765 9.98426 13.7478 9.9605 13.8072 9.93674V9.86547C13.7478 9.78231 13.7003 9.68727 13.629 9.68727C13.5102 9.67539 13.3914 9.67539 13.2726 9.66351C13.2726 9.67539 13.2845 9.67539 13.2845 9.68727C13.2845 9.71103 13.2489 9.73479 13.2251 9.75855C13.2014 9.73479 13.1657 9.69915 13.1657 9.69915C13.1776 9.68727 13.1776 9.67539 13.1895 9.66351C13.0469 9.66351 12.8925 9.66351 12.7499 9.67539Z" fill="#231F20"/>
<path d="M23.6672 11.2908C23.6434 11.1839 23.6196 11.077 23.6196 10.9701C23.6196 10.9939 23.6196 11.0057 23.6078 11.0295C23.5365 10.9107 23.5008 10.8513 23.4533 10.78C23.5484 10.7681 23.5959 10.7563 23.6196 10.78C23.6196 10.7681 23.6196 10.7563 23.6196 10.7325C23.5008 9.50891 23.2157 8.32096 22.7406 7.26368C22.5624 7.27556 22.4673 7.03797 22.5861 6.91918C21.3031 4.16312 19.0104 2.01292 16.2662 0.884365C16.2781 0.991281 16.2543 1.08632 16.2543 1.20511C15.5534 0.53986 14.6031 0.23099 13.5814 0.100315C13.2132 0.100315 12.8568 0.0884366 12.4885 0.0646775C12.3816 0.0646775 12.2866 0.0409184 12.2034 0.0052798C11.7995 -0.00659975 11.4075 0.0052798 11.0273 0.0052798C11.0154 0.0409184 11.0036 0.0646761 10.9917 0.100315C10.6115 -0.0303603 9.86312 0.0171586 9.5899 0.349786C9.57802 0.337906 9.56614 0.337908 9.55426 0.326029C9.56614 0.278511 9.56613 0.230992 9.60177 0.195353C9.34042 0.242871 9.06719 0.30227 8.80584 0.385427C8.48509 0.516102 8.23563 0.623017 7.98616 0.729933C7.99804 0.694294 8.00991 0.658656 8.03367 0.623017C7.71292 0.729933 7.39218 0.860606 7.08331 1.00316C7.09519 1.02692 7.11895 1.05068 7.13083 1.07444C7.07143 1.08632 7.03579 1.07444 7.00016 1.05068C6.29926 1.37143 5.65776 1.73969 5.06379 2.1436C5.07566 2.16736 5.05191 2.17924 5.04003 2.21488C5.02815 2.203 5.01627 2.19111 5.01627 2.17923C4.87372 2.28615 4.73116 2.38119 4.5886 2.4881C4.56484 2.53562 4.54109 2.57126 4.51733 2.6069C4.52921 2.61878 4.55297 2.61878 4.57673 2.63066C4.57673 2.64254 4.56485 2.65442 4.55297 2.67818C4.52921 2.6663 4.51733 2.65442 4.49357 2.64254C4.38665 2.77321 4.2441 2.88013 4.05402 2.92765C3.82831 3.11772 3.61449 3.31967 3.41253 3.53351C3.41253 3.54539 3.42441 3.54538 3.42441 3.55726C3.40065 3.55726 3.38878 3.56914 3.3769 3.58102C3.3769 3.58102 3.37689 3.56914 3.38877 3.56914C3.35313 3.58102 3.32937 3.5929 3.30561 3.5929V3.60478C3.30561 3.61666 3.3175 3.62854 3.3175 3.64042C3.32938 3.67606 3.35314 3.72358 3.3769 3.80673C3.30562 3.7711 3.26998 3.74733 3.23434 3.72358C2.94923 4.02056 2.68788 4.34131 2.43841 4.66206C2.52157 4.73334 2.52157 4.7571 2.43841 4.86401C2.40277 4.80461 2.36713 4.78086 2.36713 4.7571C1.97511 5.2798 1.64248 5.82626 1.34549 6.3846C1.38113 6.42023 1.40489 6.45587 1.44052 6.49151C1.42864 6.50339 1.41677 6.51527 1.39301 6.52715C1.36925 6.50339 1.34549 6.46775 1.32173 6.44399C1.26233 6.55091 1.20294 6.6697 1.15542 6.7885C1.19106 6.81226 1.21482 6.83602 1.25045 6.85978C1.2267 6.95481 1.20294 7.04985 1.17918 7.16864C0.65648 7.26368 0.525804 8.68922 0.323851 9.18816C0.347611 9.21192 0.359486 9.23568 0.371365 9.25944C0.359486 9.25944 0.32385 9.25944 0.300091 9.25944C0.181295 9.97222 -0.0562954 10.7444 0.0625001 11.4453C0.0506205 11.4809 0.0268614 11.5047 0.00310234 11.5284C0.0149819 12.3362 -0.0681735 13.2391 0.205056 13.9756C0.181297 13.9875 0.169417 13.9994 0.145658 13.9994C0.205056 14.3914 0.28821 14.7716 0.395126 15.1517C0.502042 15.2824 0.561444 15.4487 0.585203 15.615C0.597082 15.615 0.597077 15.615 0.608956 15.615C0.810908 17.0287 1.70188 18.3354 2.54533 19.4996C2.59285 19.4877 2.62848 19.4877 2.676 19.4877C2.7354 19.5828 2.93735 19.7134 2.7948 19.8085C3.62636 20.8064 4.74304 21.7211 5.97851 22.4339C6.13295 22.4814 6.28738 22.5527 6.42993 22.6239C6.50121 22.6596 6.56061 22.719 6.62001 22.7665C7.22587 23.0635 7.85548 23.3129 8.49698 23.503C8.59201 23.4317 8.67517 23.4199 8.79396 23.4436C9.2929 23.9426 12.049 24.2158 12.5004 23.7881C12.5123 23.8832 12.5479 23.9069 12.5598 23.9544C13.4745 23.895 14.3773 23.7169 15.2446 23.4555C15.3871 23.3961 15.5297 23.3367 15.6722 23.2892C16.0999 23.0278 16.5394 22.7902 17.0146 22.7427C17.2878 22.6121 17.5611 22.4576 17.8224 22.3032L17.8105 22.2913C17.8581 22.2557 17.8581 22.22 17.8937 22.2557C18.0362 22.1725 18.1788 22.0775 18.3214 21.9824C18.3689 21.8161 18.3808 21.626 18.5233 21.8399C18.951 21.5429 19.3668 21.2221 19.7588 20.8658C19.6875 20.842 19.6519 20.7945 19.6519 20.6994C19.7469 20.6638 19.8301 20.6757 19.8895 20.747C20.8398 19.8679 21.6476 18.8344 22.2772 17.682C22.1466 17.4444 22.2772 17.4682 22.4198 17.3613C22.4198 17.3732 22.4198 17.3969 22.4198 17.4088C22.4317 17.3851 22.4436 17.3494 22.4554 17.3257C22.4554 17.3138 22.4554 17.29 22.4554 17.2781C22.4673 17.2781 22.4673 17.2781 22.4792 17.2781C23.3702 15.5675 23.7741 13.4054 23.6672 11.2908ZM0.0743767 10.7206C0.121895 10.7087 0.157538 10.685 0.205056 10.6731C0.216936 10.685 0.216937 10.7087 0.228817 10.7206C0.169419 10.7206 0.110015 10.8038 0.0743767 10.7206ZM0.25257 11.1721C0.228811 11.1602 0.205055 11.1602 0.181295 11.1483C0.193175 11.0889 0.228815 11.1245 0.264454 11.1245C0.264454 11.1483 0.264449 11.1602 0.25257 11.1721ZM23.192 9.4614C23.1801 9.47328 23.1682 9.48515 23.1563 9.48515C23.1207 9.43764 23.0732 9.402 23.0375 9.35448C23.1207 9.35448 23.1682 9.402 23.192 9.4614ZM21.6357 5.51739C21.6476 5.51739 21.6595 5.51739 21.6714 5.51739C21.6714 5.55303 21.6714 5.58867 21.6833 5.61243C21.6714 5.61243 21.6595 5.61243 21.6476 5.61243V5.51739H21.6357ZM17.9293 1.94164C17.9531 1.95352 17.9887 1.95352 18.0125 1.9654C18.0125 1.97728 18.0125 1.98916 18.0125 2.00104H17.9293C17.9293 1.98916 17.9293 1.9654 17.9293 1.94164ZM17.169 1.53774C17.1928 1.53774 17.2284 1.57338 17.2522 1.59714C17.2284 1.6209 17.2047 1.65653 17.169 1.70405C17.074 1.63278 17.0621 1.57338 17.169 1.53774ZM15.2089 0.623017C15.1733 0.587379 15.1376 0.55174 15.102 0.504222C15.197 0.492343 15.197 0.56362 15.2089 0.623017ZM14.71 0.385427C14.7219 0.385427 14.7337 0.409184 14.7456 0.421064C14.6981 0.444823 14.6862 0.492341 14.6387 0.421064C14.6743 0.409184 14.6862 0.385427 14.71 0.385427ZM14.4605 0.801211C14.5555 0.860608 14.4486 0.920004 14.3892 0.824968C14.4249 0.813088 14.4367 0.801211 14.4605 0.801211ZM12.3103 0.302268C12.3816 0.349787 12.3697 0.397305 12.346 0.432944C12.2509 0.468583 12.2509 0.349787 12.3103 0.302268ZM11.6569 0.409184C11.5263 0.421063 11.5263 0.421062 11.4787 0.278508C11.6213 0.242869 11.6213 0.24287 11.6569 0.409184ZM9.07908 0.468581V0.646774C8.889 0.623015 8.889 0.397304 9.07908 0.468581ZM6.09731 1.91789C6.12107 1.94165 6.13295 1.96541 6.14483 1.98917C6.08543 2.03668 6.07355 2.00104 6.02603 1.94164C6.06167 1.92976 6.09731 1.91789 6.09731 1.91789ZM4.90935 2.82073C4.94499 2.83261 4.96875 2.84449 5.00439 2.84449C4.99251 2.85637 4.99251 2.88013 4.98063 2.89201C4.95687 2.86825 4.87371 2.85637 4.90935 2.82073ZM0.632717 8.58231C0.644596 8.58231 0.668358 8.58231 0.680238 8.58231C0.680238 8.64171 0.692114 8.7011 0.692114 8.78426C0.656476 8.78426 0.632718 8.78426 0.59708 8.77238C0.608959 8.71298 0.620837 8.65359 0.632717 8.58231ZM0.430763 9.03373C0.490161 9.06937 0.478286 9.08125 0.442647 9.14065C0.395129 9.09313 0.383245 9.06937 0.430763 9.03373ZM1.77316 17.7533C1.70188 17.7177 1.61872 17.7177 1.67812 17.5751C1.74939 17.587 1.82067 17.5989 1.92759 17.6108C1.85631 17.682 1.82068 17.7177 1.77316 17.7533ZM2.21269 18.6205C2.12954 18.573 2.12954 18.5492 2.21269 18.5017V18.6205ZM4.03027 20.8182C3.95899 20.8182 3.94711 20.7826 3.93523 20.7232C3.97087 20.7113 3.99463 20.6994 4.05402 20.6757C4.04214 20.7351 4.04215 20.7707 4.03027 20.8182ZM6.19234 22.3982C6.1567 22.3863 6.10919 22.3982 6.12107 22.3507H6.19234C6.19234 22.3745 6.19234 22.3863 6.19234 22.3982ZM14.2467 23.1704C14.2348 22.9566 14.3417 23.0753 14.4011 23.1823C14.3536 23.1823 14.3061 23.1823 14.2467 23.1704ZM22.6693 16.601C22.6574 16.5654 22.6455 16.5416 22.6336 16.506C22.6455 16.506 22.6574 16.506 22.6693 16.506C22.6811 16.5416 22.6812 16.5654 22.693 16.601C22.6812 16.601 22.6811 16.601 22.6693 16.601ZM22.7168 15.0685C22.7287 15.0091 22.7287 14.9616 22.7406 14.9022C22.7168 15.1042 22.6574 15.2705 22.5505 15.4249C22.2297 16.4703 21.7783 17.4563 21.1962 18.3592C21.1725 18.4423 21.1487 18.5136 21.1012 18.5968C21.018 18.7868 20.8755 18.9413 20.7804 19.1195C20.7091 19.2858 20.4953 19.4402 20.3171 19.5234C19.3905 20.6163 18.2263 21.4954 16.8839 22.0775C16.7533 22.22 16.5751 22.3151 16.385 22.3507L16.3969 22.3863C16.3256 22.3982 16.2662 22.4101 16.1949 22.4339C16.1949 22.422 16.1949 22.3982 16.1949 22.3863H16.183C16.1118 22.4339 16.0286 22.4695 15.9336 22.4933C15.886 22.5051 15.8385 22.5051 15.791 22.517C14.4486 23.016 13.0112 23.2773 11.55 23.2535C11.5144 23.3129 11.4431 23.3367 11.3837 23.3248C11.2887 23.3605 11.1817 23.3723 11.063 23.3723C10.8254 23.3723 10.6353 23.3011 10.4809 23.1823C8.80585 23.0041 7.13083 22.4339 5.59836 21.4479C5.58648 21.4479 5.58649 21.4479 5.57461 21.4479C5.52709 21.436 5.38453 21.3766 5.30138 21.3291C5.24198 21.2934 5.13506 21.2103 5.08755 21.1627C5.06379 21.139 5.05191 21.1152 5.02815 21.0915C4.99251 21.1033 4.94499 21.1033 4.90935 21.0915C4.88559 21.1033 4.86184 21.1271 4.83808 21.1509C4.79056 21.0083 4.65988 20.9014 4.65988 20.7707C3.36501 19.761 2.31962 18.4542 1.59496 17.0049C1.47617 16.8742 1.39301 16.696 1.36925 16.5178C1.01286 15.7219 0.763395 14.8903 0.62084 14.0588C0.502045 13.7143 0.430769 13.3698 0.40701 13.0134C0.39513 12.8827 0.418889 12.7639 0.466407 12.657C0.418889 11.7779 0.478283 10.8988 0.632717 10.0316C0.585199 9.8653 0.585203 9.69899 0.644601 9.55643C0.692119 9.42576 0.739633 9.33072 0.81091 9.23569C0.929705 8.7605 1.07226 8.2972 1.26233 7.84578C1.27421 7.75074 1.29797 7.66758 1.33361 7.58443C1.33361 7.57255 1.33361 7.56067 1.33361 7.53691C1.33361 7.53691 1.34549 7.53691 1.34549 7.54879C1.36925 7.48939 1.40489 7.44188 1.44052 7.39436C2.0939 5.69558 3.61448 4.36507 4.75492 3.04644C4.84996 2.99893 4.945 2.95141 5.04003 3.0108C5.77656 2.46434 6.54873 2.03668 7.33278 1.69218C7.62977 1.43083 8.00991 1.25263 8.37818 1.21699C8.4851 1.20512 8.59201 1.20511 8.71081 1.20511C10.2433 0.777451 11.8351 0.694292 13.4389 0.931883C13.4983 0.920003 13.5695 0.920005 13.6289 0.908126C13.6408 0.908126 13.6527 0.908126 13.6765 0.908126C13.6883 0.824969 13.6765 0.813088 13.5577 0.76557C13.6883 0.634895 13.7477 0.813087 13.7952 0.931883C13.8309 0.931883 13.8546 0.943763 13.8784 0.943763C13.9853 0.979402 14.0804 1.02692 14.1754 1.06256C15.5297 1.35955 16.8245 1.88225 18.0006 2.63066C18.0956 2.6663 18.1907 2.70194 18.2857 2.74945C18.4164 2.80885 18.5352 2.89201 18.654 2.97517C18.8916 3.1296 19.0816 3.29591 19.2242 3.49786H19.3905C19.343 3.54538 19.3074 3.55726 19.2598 3.54538C19.8895 4.02056 20.4478 4.56702 20.9111 5.161C21.018 5.24416 21.1131 5.33919 21.1962 5.45799C21.3269 5.6243 21.41 5.8025 21.517 5.98069C21.5407 6.02821 21.5645 6.07573 21.5882 6.13512C22.4554 7.56067 22.9306 9.20005 23.0613 10.8632C23.0969 11.0889 23.1088 11.3027 23.1207 11.5284C23.1207 11.6116 23.1088 11.6948 23.0969 11.7779C23.0969 12.6926 23.0019 13.6074 22.7999 14.5102C22.7881 14.6646 22.7524 14.8666 22.7168 15.0685ZM23.2276 14.7122C23.2514 14.7122 23.2632 14.724 23.287 14.7359C23.287 14.7834 23.2751 14.8428 23.2751 14.8903C23.2276 14.8785 23.1801 14.8785 23.1088 14.8547C23.1563 14.7953 23.192 14.7478 23.2276 14.7122ZM23.192 15.1161C23.1801 15.1042 23.1801 15.0923 23.1682 15.0804C23.2038 15.0567 23.2395 15.0329 23.2751 15.0091C23.287 15.021 23.287 15.0329 23.2989 15.0448C23.2632 15.0685 23.2276 15.0923 23.192 15.1161ZM23.192 9.03373C23.192 9.02185 23.192 8.99809 23.192 8.98621C23.2276 8.97434 23.2632 8.97433 23.2989 8.96245C23.3583 9.06937 23.2632 9.11689 23.192 9.03373Z" fill="#231F20"/>
</svg>
