<svg width="1440" height="22" viewBox="0 0 1440 22" fill="none" xmlns="http://www.w3.org/2000/svg">
    <g opacity="0.3">
        <path
            d="M13.0436 9.87947C12.7386 9.19235 11.8698 9.02895 11.1471 9.06666C10.6793 9.08342 10.1905 9.26776 9.8104 9.55685C9.6099 9.70349 9.46787 9.86271 9.34256 10.0471C8.6742 11.4213 9.41356 12.3472 9.41356 12.3472C9.46786 12.4729 9.55977 12.5819 9.63078 12.674C10.0276 13.181 10.696 13.4701 11.3267 13.3821C11.9408 13.3109 12.4838 12.8919 12.8974 12.4059L12.9893 12.3137C13.1146 12.1336 13.1689 11.8235 13.2232 11.6266C13.2775 11.4255 13.2942 11.2453 13.2942 11.0652C13.2942 10.6671 13.2023 10.2524 13.0436 9.88785V9.87947ZM-4.7138 9.87947C-5.05633 9.19235 -5.92518 9.02895 -6.61024 9.06666C-7.11569 9.08342 -7.58353 9.26776 -7.96366 9.55685C-8.14328 9.70349 -8.3062 9.86271 -8.41481 10.0471C-9.09987 11.4213 -8.3605 12.3472 -8.3605 12.3472C-8.28949 12.4729 -8.23518 12.5819 -8.14328 12.674C-7.72973 13.181 -7.07809 13.4701 -6.44733 13.3821C-5.81657 13.3109 -5.27355 12.8919 -4.87671 12.4059L-4.7848 12.3137C-4.65949 12.1336 -4.5843 11.8235 -4.55088 11.6266C-4.51328 11.4255 -4.45899 11.2453 -4.45899 11.0652C-4.45899 10.6671 -4.55088 10.2524 -4.70962 9.88785L-4.7138 9.87947ZM3.44432 0.393839L3.33571 0.322607C3.1728 0.196914 2.88457 0.121509 2.68407 0.0712316C2.48356 0.0167647 2.30393 0 2.12431 0C1.72747 0 1.33065 0.0921815 0.988117 0.255582C0.303054 0.561435 0.140141 1.4329 0.177736 2.12002C0.215331 2.58927 0.378241 3.07947 0.645582 3.43979C0.791785 3.63671 0.950513 3.78336 1.13431 3.90906C2.48773 4.54171 3.39002 3.83783 3.39002 3.83783C3.49863 3.78336 3.60722 3.69119 3.71583 3.61996C4.20456 3.22194 4.4928 2.56832 4.4009 1.93567C4.32989 1.33653 3.93306 0.79606 3.44432 0.398033V0.393839ZM3.44432 18.2422L3.33571 18.1333C3.1728 18.0076 2.88457 17.9531 2.68407 17.8987C2.48356 17.861 2.30393 17.8442 2.12431 17.8275C1.72747 17.8275 1.33065 17.8987 0.988117 18.0788C0.303054 18.4056 0.140141 19.2562 0.177736 19.9433C0.215331 20.3958 0.378241 20.886 0.645582 21.2631C0.791785 21.4432 0.950513 21.5899 1.13431 21.7156C2.48773 22.3859 3.39002 21.6611 3.39002 21.6611C3.49863 21.5899 3.60722 21.5354 3.71583 21.4432C4.20456 21.0284 4.4928 20.3916 4.4009 19.7757C4.32989 19.143 3.93306 18.6361 3.44432 18.238V18.2422Z"
            fill="#181010" />
        <path
            d="M71.7836 11.5166C71.7836 11.337 71.7036 9.18488 71.489 9.23622C70.2142 9.53144 68.8678 9.64268 67.5635 9.61701C66.4612 9.59562 65.3462 9.46298 64.2986 9.10359C63.3267 8.76987 62.3968 8.29496 61.4754 7.84144C60.0449 7.13122 58.5513 6.20708 56.9735 5.88619C56.5485 5.80062 56.0605 5.74928 55.7407 6.10012C55.299 6.5793 55.0087 7.32376 54.6721 7.87996C54.2639 8.5474 53.8474 9.20627 53.4309 9.86516C53.3046 10.0662 53.1153 10.2802 53.0227 10.4984C53.0059 10.5369 52.9975 10.5668 52.9933 10.5839C52.9933 10.5625 52.9849 10.5326 52.9723 10.4941C52.7745 9.95073 52.2612 9.39453 51.9541 8.9025C51.5207 8.21367 51.0873 7.52485 50.675 6.82318C50.4268 6.39961 50.2543 5.9247 49.7199 5.84769C49.1561 5.76212 48.5292 6.01027 48.0159 6.20708C46.3582 6.84029 44.8141 7.75588 43.2069 8.50889C40.4679 9.79243 37.4301 9.98067 34.4933 9.31323C34.304 9.27045 34.2914 11.4396 34.2956 11.6065C34.2998 11.8889 34.2409 13.8099 34.5901 13.8869C35.8691 14.1778 37.2113 14.2805 38.5156 14.2506C40.4342 14.2078 42.1003 13.6687 43.8169 12.8344C45.3653 12.0814 46.8841 11.1701 48.525 10.631C48.971 10.4855 49.5895 10.2759 50.0523 10.4813C50.4983 10.6781 50.7549 11.4567 50.999 11.8546C51.0074 11.8675 51.0116 11.876 51.02 11.8889C50.919 12.2183 50.8096 12.5478 50.7045 12.8729L50.3468 13.9982C50.229 14.349 50.3721 14.7383 50.6876 14.9266L52.5978 16.0689C52.8376 16.2101 53.1321 16.2144 53.3762 16.0689L55.3578 14.9137C55.6734 14.7298 55.8207 14.3404 55.7113 13.9896L55.24 12.5135C55.24 12.5135 55.24 12.5093 55.24 12.505C55.1854 12.3253 55.1264 12.1499 55.0717 11.9702C55.2106 11.7391 55.3536 11.5124 55.4925 11.2813C55.7533 10.8364 55.8796 10.4385 56.4391 10.3914C57.0282 10.3401 57.6593 10.5968 58.1978 10.8107C59.8598 11.4653 61.4165 12.3723 63.0406 13.1125C65.7207 14.3319 68.7332 14.4645 71.59 13.8013C71.9434 13.7201 71.792 11.7733 71.7878 11.5081L71.7836 11.5166Z"
            fill="#181010" />
        <path
            d="M115.562 9.87947C115.243 9.19235 114.334 9.02895 113.579 9.06666C113.09 9.08342 112.579 9.26776 112.181 9.55685C111.972 9.70349 111.823 9.86271 111.692 10.0471C110.994 11.4213 111.767 12.3472 111.767 12.3472C111.823 12.4729 111.919 12.5819 111.994 12.674C112.409 13.181 113.107 13.4701 113.767 13.3821C114.409 13.3109 114.976 12.8919 115.409 12.4059L115.505 12.3137C115.636 12.1336 115.693 11.8235 115.749 11.6266C115.806 11.4255 115.824 11.2453 115.824 11.0652C115.824 10.6671 115.728 10.2524 115.562 9.88785V9.87947ZM96.9971 9.87947C96.639 9.19235 95.7306 9.02895 95.0144 9.06666C94.486 9.08342 93.9969 9.26776 93.5995 9.55685C93.4117 9.70349 93.2414 9.86271 93.1278 10.0471C92.4116 11.4213 93.1846 12.3472 93.1846 12.3472C93.2589 12.4729 93.3156 12.5819 93.4117 12.674C93.8441 13.181 94.5253 13.4701 95.1848 13.3821C95.8442 13.3109 96.4119 12.8919 96.8268 12.4059L96.9228 12.3137C97.0539 12.1336 97.1325 11.8235 97.1674 11.6266C97.2067 11.4255 97.2635 11.2453 97.2635 11.0652C97.2635 10.6671 97.1674 10.2524 97.0014 9.88785L96.9971 9.87947ZM105.526 0.393839L105.412 0.322607C105.242 0.196914 104.941 0.121509 104.731 0.0712316C104.522 0.0167647 104.334 0 104.146 0C103.731 0 103.316 0.0921815 102.958 0.255582C102.242 0.561435 102.072 1.4329 102.111 2.12002C102.15 2.58927 102.321 3.07947 102.6 3.43979C102.753 3.63671 102.919 3.78336 103.111 3.90906C104.526 4.54171 105.469 3.83783 105.469 3.83783C105.583 3.78336 105.696 3.69119 105.81 3.61996C106.321 3.22194 106.622 2.56832 106.526 1.93567C106.452 1.33653 106.037 0.79606 105.526 0.398033V0.393839ZM105.526 18.2422L105.412 18.1333C105.242 18.0076 104.941 17.9531 104.731 17.8987C104.522 17.861 104.334 17.8442 104.146 17.8275C103.731 17.8275 103.316 17.8987 102.958 18.0788C102.242 18.4056 102.072 19.2562 102.111 19.9433C102.15 20.3958 102.321 20.886 102.6 21.2631C102.753 21.4432 102.919 21.5899 103.111 21.7156C104.526 22.3859 105.469 21.6611 105.469 21.6611C105.583 21.5899 105.696 21.5354 105.81 21.4432C106.321 21.0284 106.622 20.3916 106.526 19.7757C106.452 19.143 106.037 18.6361 105.526 18.238V18.2422Z"
            fill="#181010" />
        <path
            d="M174.313 11.5166C174.313 11.337 174.233 9.18488 174.018 9.23622C172.744 9.53144 171.397 9.64268 170.093 9.61701C168.991 9.59562 167.876 9.46298 166.828 9.10359C165.856 8.76987 164.926 8.29496 164.005 7.84144C162.574 7.13122 161.081 6.20708 159.503 5.88619C159.078 5.80062 158.59 5.74928 158.27 6.10012C157.828 6.5793 157.538 7.32376 157.201 7.87996C156.793 8.5474 156.377 9.20627 155.96 9.86516C155.834 10.0662 155.645 10.2802 155.552 10.4984C155.535 10.5369 155.527 10.5668 155.523 10.5839C155.523 10.5625 155.514 10.5326 155.502 10.4941C155.304 9.95073 154.791 9.39453 154.483 8.9025C154.05 8.21367 153.617 7.52485 153.204 6.82318C152.956 6.39961 152.784 5.9247 152.249 5.84769C151.686 5.76212 151.059 6.01027 150.545 6.20708C148.888 6.84029 147.344 7.75588 145.736 8.50889C142.997 9.79243 139.96 9.98067 137.023 9.31323C136.833 9.27045 136.821 11.4396 136.825 11.6065C136.829 11.8889 136.77 13.8099 137.12 13.8869C138.399 14.1778 139.741 14.2805 141.045 14.2506C142.964 14.2078 144.63 13.6687 146.346 12.8344C147.895 12.0814 149.414 11.1701 151.054 10.631C151.5 10.4855 152.119 10.2759 152.582 10.4813C153.028 10.6781 153.284 11.4567 153.528 11.8546C153.537 11.8675 153.541 11.876 153.549 11.8889C153.448 12.2183 153.339 12.5478 153.234 12.8729L152.876 13.9982C152.758 14.349 152.901 14.7383 153.217 14.9266L155.127 16.0689C155.367 16.2101 155.662 16.2144 155.906 16.0689L157.887 14.9137C158.203 14.7298 158.35 14.3404 158.241 13.9896L157.769 12.5135C157.769 12.5135 157.769 12.5093 157.769 12.505C157.715 12.3253 157.656 12.1499 157.601 11.9702C157.74 11.7391 157.883 11.5124 158.022 11.2813C158.283 10.8364 158.409 10.4385 158.969 10.3914C159.558 10.3401 160.189 10.5968 160.727 10.8107C162.389 11.4653 163.946 12.3723 165.57 13.1125C168.25 14.3319 171.263 14.4645 174.119 13.8013C174.473 13.7201 174.321 11.7733 174.317 11.5081L174.313 11.5166Z"
            fill="#181010" />
        <path
            d="M218.091 9.87947C217.772 9.19235 216.864 9.02895 216.108 9.06666C215.619 9.08342 215.108 9.26776 214.711 9.55685C214.501 9.70349 214.353 9.86271 214.222 10.0471C213.523 11.4213 214.296 12.3472 214.296 12.3472C214.353 12.4729 214.449 12.5819 214.523 12.674C214.938 13.181 215.637 13.4701 216.296 13.3821C216.938 13.3109 217.506 12.8919 217.938 12.4059L218.034 12.3137C218.165 12.1336 218.222 11.8235 218.279 11.6266C218.336 11.4255 218.353 11.2453 218.353 11.0652C218.353 10.6671 218.257 10.2524 218.091 9.88785V9.87947ZM199.526 9.87947C199.168 9.19235 198.26 9.02895 197.544 9.06666C197.015 9.08342 196.526 9.26776 196.129 9.55685C195.941 9.70349 195.771 9.86271 195.657 10.0471C194.941 11.4213 195.714 12.3472 195.714 12.3472C195.788 12.4729 195.845 12.5819 195.941 12.674C196.373 13.181 197.055 13.4701 197.714 13.3821C198.374 13.3109 198.941 12.8919 199.356 12.4059L199.452 12.3137C199.583 12.1336 199.662 11.8235 199.697 11.6266C199.736 11.4255 199.793 11.2453 199.793 11.0652C199.793 10.6671 199.697 10.2524 199.531 9.88785L199.526 9.87947ZM208.055 0.393839L207.942 0.322607C207.772 0.196914 207.47 0.121509 207.261 0.0712316C207.051 0.0167647 206.863 0 206.675 0C206.261 0 205.846 0.0921815 205.488 0.255582C204.771 0.561435 204.601 1.4329 204.64 2.12002C204.68 2.58927 204.85 3.07947 205.129 3.43979C205.282 3.63671 205.448 3.78336 205.64 3.90906C207.055 4.54171 207.999 3.83783 207.999 3.83783C208.112 3.78336 208.226 3.69119 208.339 3.61996C208.85 3.22194 209.152 2.56832 209.055 1.93567C208.981 1.33653 208.566 0.79606 208.055 0.398033V0.393839ZM208.055 18.2422L207.942 18.1333C207.772 18.0076 207.47 17.9531 207.261 17.8987C207.051 17.861 206.863 17.8442 206.675 17.8275C206.261 17.8275 205.846 17.8987 205.488 18.0788C204.771 18.4056 204.601 19.2562 204.64 19.9433C204.68 20.3958 204.85 20.886 205.129 21.2631C205.282 21.4432 205.448 21.5899 205.64 21.7156C207.055 22.3859 207.999 21.6611 207.999 21.6611C208.112 21.5899 208.226 21.5354 208.339 21.4432C208.85 21.0284 209.152 20.3916 209.055 19.7757C208.981 19.143 208.566 18.6361 208.055 18.238V18.2422Z"
            fill="#181010" />
        <path
            d="M276.842 11.5166C276.842 11.337 276.762 9.18488 276.548 9.23622C275.273 9.53144 273.927 9.64268 272.622 9.61701C271.52 9.59562 270.405 9.46298 269.357 9.10359C268.386 8.76987 267.456 8.29496 266.534 7.84144C265.104 7.13122 263.61 6.20708 262.032 5.88619C261.607 5.80062 261.119 5.74928 260.8 6.10012C260.358 6.5793 260.067 7.32376 259.731 7.87996C259.323 8.5474 258.906 9.20627 258.49 9.86516C258.363 10.0662 258.174 10.2802 258.082 10.4984C258.065 10.5369 258.056 10.5668 258.052 10.5839C258.052 10.5625 258.044 10.5326 258.031 10.4941C257.833 9.95073 257.32 9.39453 257.013 8.9025C256.58 8.21367 256.146 7.52485 255.734 6.82318C255.486 6.39961 255.313 5.9247 254.779 5.84769C254.215 5.76212 253.588 6.01027 253.075 6.20708C251.417 6.84029 249.873 7.75588 248.266 8.50889C245.527 9.79243 242.489 9.98067 239.552 9.31323C239.363 9.27045 239.35 11.4396 239.354 11.6065C239.359 11.8889 239.3 13.8099 239.649 13.8869C240.928 14.1778 242.27 14.2805 243.574 14.2506C245.493 14.2078 247.159 13.6687 248.876 12.8344C250.424 12.0814 251.943 11.1701 253.584 10.631C254.03 10.4855 254.648 10.2759 255.111 10.4813C255.557 10.6781 255.814 11.4567 256.058 11.8546C256.066 11.8675 256.07 11.876 256.079 11.8889C255.978 12.2183 255.868 12.5478 255.763 12.8729L255.406 13.9982C255.288 14.349 255.431 14.7383 255.746 14.9266L257.657 16.0689C257.896 16.2101 258.191 16.2144 258.435 16.0689L260.417 14.9137C260.732 14.7298 260.88 14.3404 260.77 13.9896L260.299 12.5135C260.299 12.5135 260.299 12.5093 260.299 12.505C260.244 12.3253 260.185 12.1499 260.131 11.9702C260.269 11.7391 260.412 11.5124 260.551 11.2813C260.812 10.8364 260.938 10.4385 261.498 10.3914C262.087 10.3401 262.718 10.5968 263.257 10.8107C264.919 11.4653 266.475 12.3723 268.099 13.1125C270.78 14.3319 273.792 14.4645 276.649 13.8013C277.002 13.7201 276.851 11.7733 276.847 11.5081L276.842 11.5166Z"
            fill="#181010" />
        <path
            d="M320.62 9.87947C320.302 9.19235 319.393 9.02895 318.638 9.06666C318.149 9.08342 317.638 9.26776 317.24 9.55685C317.031 9.70349 316.882 9.86271 316.751 10.0471C316.052 11.4213 316.825 12.3472 316.825 12.3472C316.882 12.4729 316.978 12.5819 317.053 12.674C317.467 13.181 318.166 13.4701 318.826 13.3821C319.468 13.3109 320.035 12.8919 320.468 12.4059L320.564 12.3137C320.695 12.1336 320.751 11.8235 320.808 11.6266C320.865 11.4255 320.882 11.2453 320.882 11.0652C320.882 10.6671 320.786 10.2524 320.62 9.88785V9.87947ZM302.056 9.87947C301.698 9.19235 300.789 9.02895 300.073 9.06666C299.545 9.08342 299.056 9.26776 298.658 9.55685C298.471 9.70349 298.3 9.86271 298.187 10.0471C297.47 11.4213 298.243 12.3472 298.243 12.3472C298.318 12.4729 298.374 12.5819 298.471 12.674C298.903 13.181 299.584 13.4701 300.244 13.3821C300.903 13.3109 301.471 12.8919 301.886 12.4059L301.982 12.3137C302.113 12.1336 302.191 11.8235 302.226 11.6266C302.266 11.4255 302.322 11.2453 302.322 11.0652C302.322 10.6671 302.226 10.2524 302.06 9.88785L302.056 9.87947ZM310.585 0.393839L310.471 0.322607C310.301 0.196914 310 0.121509 309.79 0.0712316C309.58 0.0167647 309.393 0 309.205 0C308.79 0 308.375 0.0921815 308.017 0.255582C307.301 0.561435 307.13 1.4329 307.17 2.12002C307.209 2.58927 307.379 3.07947 307.659 3.43979C307.812 3.63671 307.978 3.78336 308.17 3.90906C309.585 4.54171 310.528 3.83783 310.528 3.83783C310.642 3.78336 310.755 3.69119 310.869 3.61996C311.38 3.22194 311.681 2.56832 311.585 1.93567C311.511 1.33653 311.096 0.79606 310.585 0.398033V0.393839ZM310.585 18.2422L310.471 18.1333C310.301 18.0076 310 17.9531 309.79 17.8987C309.58 17.861 309.393 17.8442 309.205 17.8275C308.79 17.8275 308.375 17.8987 308.017 18.0788C307.301 18.4056 307.13 19.2562 307.17 19.9433C307.209 20.3958 307.379 20.886 307.659 21.2631C307.812 21.4432 307.978 21.5899 308.17 21.7156C309.585 22.3859 310.528 21.6611 310.528 21.6611C310.642 21.5899 310.755 21.5354 310.869 21.4432C311.38 21.0284 311.681 20.3916 311.585 19.7757C311.511 19.143 311.096 18.6361 310.585 18.238V18.2422Z"
            fill="#181010" />
        <path
            d="M379.372 11.5166C379.372 11.337 379.292 9.18488 379.077 9.23622C377.802 9.53144 376.456 9.64268 375.152 9.61701C374.049 9.59562 372.934 9.46298 371.887 9.10359C370.915 8.76987 369.985 8.29496 369.064 7.84144C367.633 7.13122 366.14 6.20708 364.562 5.88619C364.137 5.80062 363.649 5.74928 363.329 6.10012C362.887 6.5793 362.597 7.32376 362.26 7.87996C361.852 8.5474 361.436 9.20627 361.019 9.86516C360.893 10.0662 360.704 10.2802 360.611 10.4984C360.594 10.5369 360.586 10.5668 360.582 10.5839C360.582 10.5625 360.573 10.5326 360.561 10.4941C360.363 9.95073 359.849 9.39453 359.542 8.9025C359.109 8.21367 358.676 7.52485 358.263 6.82318C358.015 6.39961 357.843 5.9247 357.308 5.84769C356.744 5.76212 356.118 6.01027 355.604 6.20708C353.946 6.84029 352.402 7.75588 350.795 8.50889C348.056 9.79243 345.018 9.98067 342.082 9.31323C341.892 9.27045 341.88 11.4396 341.884 11.6065C341.888 11.8889 341.829 13.8099 342.178 13.8869C343.457 14.1778 344.8 14.2805 346.104 14.2506C348.022 14.2078 349.689 13.6687 351.405 12.8344C352.954 12.0814 354.472 11.1701 356.113 10.631C356.559 10.4855 357.178 10.2759 357.641 10.4813C358.087 10.6781 358.343 11.4567 358.587 11.8546C358.596 11.8675 358.6 11.876 358.608 11.8889C358.507 12.2183 358.398 12.5478 358.293 12.8729L357.935 13.9982C357.817 14.349 357.96 14.7383 358.276 14.9266L360.186 16.0689C360.426 16.2101 360.72 16.2144 360.964 16.0689L362.946 14.9137C363.262 14.7298 363.409 14.3404 363.3 13.9896L362.828 12.5135C362.828 12.5135 362.828 12.5093 362.828 12.505C362.774 12.3253 362.715 12.1499 362.66 11.9702C362.799 11.7391 362.942 11.5124 363.081 11.2813C363.342 10.8364 363.468 10.4385 364.027 10.3914C364.616 10.3401 365.248 10.5968 365.786 10.8107C367.448 11.4653 369.005 12.3723 370.629 13.1125C373.309 14.3319 376.321 14.4645 379.178 13.8013C379.532 13.7201 379.38 11.7733 379.376 11.5081L379.372 11.5166Z"
            fill="#181010" />
        <path
            d="M423.15 9.87947C422.831 9.19235 421.923 9.02895 421.167 9.06666C420.678 9.08342 420.167 9.26776 419.77 9.55685C419.56 9.70349 419.412 9.86271 419.281 10.0471C418.582 11.4213 419.355 12.3472 419.355 12.3472C419.412 12.4729 419.508 12.5819 419.582 12.674C419.997 13.181 420.696 13.4701 421.355 13.3821C421.997 13.3109 422.565 12.8919 422.997 12.4059L423.093 12.3137C423.224 12.1336 423.281 11.8235 423.338 11.6266C423.394 11.4255 423.412 11.2453 423.412 11.0652C423.412 10.6671 423.316 10.2524 423.15 9.88785V9.87947ZM404.585 9.87947C404.227 9.19235 403.319 9.02895 402.603 9.06666C402.074 9.08342 401.585 9.26776 401.188 9.55685C401 9.70349 400.83 9.86271 400.716 10.0471C400 11.4213 400.773 12.3472 400.773 12.3472C400.847 12.4729 400.904 12.5819 401 12.674C401.432 13.181 402.114 13.4701 402.773 13.3821C403.432 13.3109 404 12.8919 404.415 12.4059L404.511 12.3137C404.642 12.1336 404.721 11.8235 404.756 11.6266C404.795 11.4255 404.852 11.2453 404.852 11.0652C404.852 10.6671 404.756 10.2524 404.59 9.88785L404.585 9.87947ZM413.114 0.393839L413.001 0.322607C412.83 0.196914 412.529 0.121509 412.319 0.0712316C412.11 0.0167647 411.922 0 411.734 0C411.319 0 410.905 0.0921815 410.546 0.255582C409.83 0.561435 409.66 1.4329 409.699 2.12002C409.739 2.58927 409.909 3.07947 410.188 3.43979C410.341 3.63671 410.507 3.78336 410.699 3.90906C412.114 4.54171 413.058 3.83783 413.058 3.83783C413.171 3.78336 413.285 3.69119 413.398 3.61996C413.909 3.22194 414.21 2.56832 414.114 1.93567C414.04 1.33653 413.625 0.79606 413.114 0.398033V0.393839ZM413.114 18.2422L413.001 18.1333C412.83 18.0076 412.529 17.9531 412.319 17.8987C412.11 17.861 411.922 17.8442 411.734 17.8275C411.319 17.8275 410.905 17.8987 410.546 18.0788C409.83 18.4056 409.66 19.2562 409.699 19.9433C409.739 20.3958 409.909 20.886 410.188 21.2631C410.341 21.4432 410.507 21.5899 410.699 21.7156C412.114 22.3859 413.058 21.6611 413.058 21.6611C413.171 21.5899 413.285 21.5354 413.398 21.4432C413.909 21.0284 414.21 20.3916 414.114 19.7757C414.04 19.143 413.625 18.6361 413.114 18.238V18.2422Z"
            fill="#181010" />
        <path
            d="M481.901 11.5166C481.901 11.337 481.821 9.18488 481.607 9.23622C480.332 9.53144 478.986 9.64268 477.681 9.61701C476.579 9.59562 475.464 9.46298 474.416 9.10359C473.444 8.76987 472.515 8.29496 471.593 7.84144C470.163 7.13122 468.669 6.20708 467.091 5.88619C466.666 5.80062 466.178 5.74928 465.858 6.10012C465.417 6.5793 465.126 7.32376 464.79 7.87996C464.382 8.5474 463.965 9.20627 463.549 9.86516C463.422 10.0662 463.233 10.2802 463.14 10.4984C463.124 10.5369 463.115 10.5668 463.111 10.5839C463.111 10.5625 463.103 10.5326 463.09 10.4941C462.892 9.95073 462.379 9.39453 462.072 8.9025C461.638 8.21367 461.205 7.52485 460.793 6.82318C460.544 6.39961 460.372 5.9247 459.838 5.84769C459.274 5.76212 458.647 6.01027 458.134 6.20708C456.476 6.84029 454.932 7.75588 453.325 8.50889C450.586 9.79243 447.548 9.98067 444.611 9.31323C444.422 9.27045 444.409 11.4396 444.413 11.6065C444.417 11.8889 444.359 13.8099 444.708 13.8869C445.987 14.1778 447.329 14.2805 448.633 14.2506C450.552 14.2078 452.218 13.6687 453.935 12.8344C455.483 12.0814 457.002 11.1701 458.643 10.631C459.089 10.4855 459.707 10.2759 460.17 10.4813C460.616 10.6781 460.873 11.4567 461.117 11.8546C461.125 11.8675 461.129 11.876 461.138 11.8889C461.037 12.2183 460.927 12.5478 460.822 12.8729L460.465 13.9982C460.347 14.349 460.49 14.7383 460.805 14.9266L462.715 16.0689C462.955 16.2101 463.25 16.2144 463.494 16.0689L465.476 14.9137C465.791 14.7298 465.938 14.3404 465.829 13.9896L465.358 12.5135C465.358 12.5135 465.358 12.5093 465.358 12.505C465.303 12.3253 465.244 12.1499 465.189 11.9702C465.328 11.7391 465.471 11.5124 465.61 11.2813C465.871 10.8364 465.997 10.4385 466.557 10.3914C467.146 10.3401 467.777 10.5968 468.316 10.8107C469.977 11.4653 471.534 12.3723 473.158 13.1125C475.838 14.3319 478.851 14.4645 481.708 13.8013C482.061 13.7201 481.91 11.7733 481.905 11.5081L481.901 11.5166Z"
            fill="#181010" />
        <path
            d="M525.679 9.87947C525.36 9.19235 524.452 9.02895 523.697 9.06666C523.208 9.08342 522.697 9.26776 522.299 9.55685C522.09 9.70349 521.941 9.86271 521.81 10.0471C521.111 11.4213 521.884 12.3472 521.884 12.3472C521.941 12.4729 522.037 12.5819 522.111 12.674C522.526 13.181 523.225 13.4701 523.884 13.3821C524.526 13.3109 525.094 12.8919 525.526 12.4059L525.622 12.3137C525.754 12.1336 525.81 11.8235 525.867 11.6266C525.924 11.4255 525.941 11.2453 525.941 11.0652C525.941 10.6671 525.845 10.2524 525.679 9.88785V9.87947ZM507.115 9.87947C506.757 9.19235 505.848 9.02895 505.132 9.06666C504.604 9.08342 504.115 9.26776 503.717 9.55685C503.529 9.70349 503.359 9.86271 503.246 10.0471C502.529 11.4213 503.302 12.3472 503.302 12.3472C503.377 12.4729 503.433 12.5819 503.529 12.674C503.962 13.181 504.643 13.4701 505.302 13.3821C505.962 13.3109 506.53 12.8919 506.944 12.4059L507.041 12.3137C507.172 12.1336 507.25 11.8235 507.285 11.6266C507.324 11.4255 507.381 11.2453 507.381 11.0652C507.381 10.6671 507.285 10.2524 507.119 9.88785L507.115 9.87947ZM515.644 0.393839L515.53 0.322607C515.36 0.196914 515.059 0.121509 514.849 0.0712316C514.639 0.0167647 514.451 0 514.264 0C513.849 0 513.434 0.0921815 513.076 0.255582C512.36 0.561435 512.189 1.4329 512.229 2.12002C512.268 2.58927 512.438 3.07947 512.718 3.43979C512.871 3.63671 513.037 3.78336 513.229 3.90906C514.644 4.54171 515.587 3.83783 515.587 3.83783C515.7 3.78336 515.814 3.69119 515.928 3.61996C516.438 3.22194 516.74 2.56832 516.644 1.93567C516.57 1.33653 516.155 0.79606 515.644 0.398033V0.393839ZM515.644 18.2422L515.53 18.1333C515.36 18.0076 515.059 17.9531 514.849 17.8987C514.639 17.861 514.451 17.8442 514.264 17.8275C513.849 17.8275 513.434 17.8987 513.076 18.0788C512.36 18.4056 512.189 19.2562 512.229 19.9433C512.268 20.3958 512.438 20.886 512.718 21.2631C512.871 21.4432 513.037 21.5899 513.229 21.7156C514.644 22.3859 515.587 21.6611 515.587 21.6611C515.7 21.5899 515.814 21.5354 515.928 21.4432C516.438 21.0284 516.74 20.3916 516.644 19.7757C516.57 19.143 516.155 18.6361 515.644 18.238V18.2422Z"
            fill="#181010" />
        <path
            d="M584.431 11.5166C584.431 11.337 584.351 9.18488 584.136 9.23622C582.861 9.53144 581.515 9.64268 580.211 9.61701C579.108 9.59562 577.993 9.46298 576.946 9.10359C575.974 8.76987 575.044 8.29496 574.123 7.84144C572.692 7.13122 571.198 6.20708 569.621 5.88619C569.196 5.80062 568.708 5.74928 568.388 6.10012C567.946 6.5793 567.656 7.32376 567.319 7.87996C566.911 8.5474 566.494 9.20627 566.078 9.86516C565.952 10.0662 565.762 10.2802 565.67 10.4984C565.653 10.5369 565.645 10.5668 565.64 10.5839C565.64 10.5625 565.632 10.5326 565.619 10.4941C565.422 9.95073 564.908 9.39453 564.601 8.9025C564.168 8.21367 563.734 7.52485 563.322 6.82318C563.074 6.39961 562.901 5.9247 562.367 5.84769C561.803 5.76212 561.176 6.01027 560.663 6.20708C559.005 6.84029 557.461 7.75588 555.854 8.50889C553.115 9.79243 550.077 9.98067 547.14 9.31323C546.951 9.27045 546.938 11.4396 546.943 11.6065C546.947 11.8889 546.888 13.8099 547.237 13.8869C548.516 14.1778 549.858 14.2805 551.163 14.2506C553.081 14.2078 554.747 13.6687 556.464 12.8344C558.012 12.0814 559.531 11.1701 561.172 10.631C561.618 10.4855 562.237 10.2759 562.699 10.4813C563.145 10.6781 563.402 11.4567 563.646 11.8546C563.654 11.8675 563.659 11.876 563.667 11.8889C563.566 12.2183 563.457 12.5478 563.352 12.8729L562.994 13.9982C562.876 14.349 563.019 14.7383 563.335 14.9266L565.245 16.0689C565.485 16.2101 565.779 16.2144 566.023 16.0689L568.005 14.9137C568.32 14.7298 568.468 14.3404 568.358 13.9896L567.887 12.5135C567.887 12.5135 567.887 12.5093 567.887 12.505C567.832 12.3253 567.774 12.1499 567.719 11.9702C567.858 11.7391 568.001 11.5124 568.14 11.2813C568.4 10.8364 568.527 10.4385 569.086 10.3914C569.675 10.3401 570.306 10.5968 570.845 10.8107C572.507 11.4653 574.064 12.3723 575.688 13.1125C578.368 14.3319 581.38 14.4645 584.237 13.8013C584.591 13.7201 584.439 11.7733 584.435 11.5081L584.431 11.5166Z"
            fill="#181010" />
        <path
            d="M628.209 9.87947C627.89 9.19235 626.982 9.02895 626.226 9.06666C625.737 9.08342 625.226 9.26776 624.829 9.55685C624.619 9.70349 624.47 9.86271 624.339 10.0471C623.641 11.4213 624.414 12.3472 624.414 12.3472C624.47 12.4729 624.567 12.5819 624.641 12.674C625.056 13.181 625.754 13.4701 626.414 13.3821C627.056 13.3109 627.624 12.8919 628.056 12.4059L628.152 12.3137C628.283 12.1336 628.34 11.8235 628.396 11.6266C628.453 11.4255 628.471 11.2453 628.471 11.0652C628.471 10.6671 628.375 10.2524 628.209 9.88785V9.87947ZM609.644 9.87947C609.286 9.19235 608.378 9.02895 607.662 9.06666C607.133 9.08342 606.644 9.26776 606.247 9.55685C606.059 9.70349 605.888 9.86271 605.775 10.0471C605.059 11.4213 605.832 12.3472 605.832 12.3472C605.906 12.4729 605.963 12.5819 606.059 12.674C606.491 13.181 607.172 13.4701 607.832 13.3821C608.491 13.3109 609.059 12.8919 609.474 12.4059L609.57 12.3137C609.701 12.1336 609.78 11.8235 609.814 11.6266C609.854 11.4255 609.911 11.2453 609.911 11.0652C609.911 10.6671 609.814 10.2524 609.649 9.88785L609.644 9.87947ZM618.173 0.393839L618.06 0.322607C617.889 0.196914 617.588 0.121509 617.378 0.0712316C617.169 0.0167647 616.981 0 616.793 0C616.378 0 615.963 0.0921815 615.605 0.255582C614.889 0.561435 614.719 1.4329 614.758 2.12002C614.797 2.58927 614.968 3.07947 615.247 3.43979C615.4 3.63671 615.566 3.78336 615.758 3.90906C617.173 4.54171 618.116 3.83783 618.116 3.83783C618.23 3.78336 618.343 3.69119 618.457 3.61996C618.968 3.22194 619.269 2.56832 619.173 1.93567C619.099 1.33653 618.684 0.79606 618.173 0.398033V0.393839ZM618.173 18.2422L618.06 18.1333C617.889 18.0076 617.588 17.9531 617.378 17.8987C617.169 17.861 616.981 17.8442 616.793 17.8275C616.378 17.8275 615.963 17.8987 615.605 18.0788C614.889 18.4056 614.719 19.2562 614.758 19.9433C614.797 20.3958 614.968 20.886 615.247 21.2631C615.4 21.4432 615.566 21.5899 615.758 21.7156C617.173 22.3859 618.116 21.6611 618.116 21.6611C618.23 21.5899 618.343 21.5354 618.457 21.4432C618.968 21.0284 619.269 20.3916 619.173 19.7757C619.099 19.143 618.684 18.6361 618.173 18.238V18.2422Z"
            fill="#181010" />
        <path
            d="M686.96 11.5166C686.96 11.337 686.88 9.18488 686.666 9.23622C685.391 9.53144 684.044 9.64268 682.74 9.61701C681.638 9.59562 680.523 9.46298 679.475 9.10359C678.503 8.76987 677.573 8.29496 676.652 7.84144C675.221 7.13122 673.728 6.20708 672.15 5.88619C671.725 5.80062 671.237 5.74928 670.917 6.10012C670.475 6.5793 670.185 7.32376 669.849 7.87996C669.44 8.5474 669.024 9.20627 668.607 9.86516C668.481 10.0662 668.292 10.2802 668.199 10.4984C668.182 10.5369 668.174 10.5668 668.17 10.5839C668.17 10.5625 668.161 10.5326 668.149 10.4941C667.951 9.95073 667.438 9.39453 667.131 8.9025C666.697 8.21367 666.264 7.52485 665.852 6.82318C665.603 6.39961 665.431 5.9247 664.896 5.84769C664.333 5.76212 663.706 6.01027 663.192 6.20708C661.535 6.84029 659.991 7.75588 658.383 8.50889C655.644 9.79243 652.607 9.98067 649.67 9.31323C649.481 9.27045 649.468 11.4396 649.472 11.6065C649.476 11.8889 649.417 13.8099 649.767 13.8869C651.046 14.1778 652.388 14.2805 653.692 14.2506C655.611 14.2078 657.277 13.6687 658.993 12.8344C660.542 12.0814 662.061 11.1701 663.702 10.631C664.148 10.4855 664.766 10.2759 665.229 10.4813C665.675 10.6781 665.931 11.4567 666.175 11.8546C666.184 11.8675 666.188 11.876 666.197 11.8889C666.096 12.2183 665.986 12.5478 665.881 12.8729L665.523 13.9982C665.406 14.349 665.549 14.7383 665.864 14.9266L667.774 16.0689C668.014 16.2101 668.309 16.2144 668.553 16.0689L670.534 14.9137C670.85 14.7298 670.997 14.3404 670.888 13.9896L670.417 12.5135C670.417 12.5135 670.417 12.5093 670.417 12.505C670.362 12.3253 670.303 12.1499 670.248 11.9702C670.387 11.7391 670.53 11.5124 670.669 11.2813C670.93 10.8364 671.056 10.4385 671.616 10.3914C672.205 10.3401 672.836 10.5968 673.374 10.8107C675.036 11.4653 676.593 12.3723 678.217 13.1125C680.897 14.3319 683.91 14.4645 686.767 13.8013C687.12 13.7201 686.969 11.7733 686.964 11.5081L686.96 11.5166Z"
            fill="#181010" />
        <path
            d="M730.738 9.87947C730.419 9.19235 729.511 9.02895 728.755 9.06666C728.266 9.08342 727.755 9.26776 727.358 9.55685C727.148 9.70349 727 9.86271 726.869 10.0471C726.17 11.4213 726.943 12.3472 726.943 12.3472C727 12.4729 727.096 12.5819 727.17 12.674C727.585 13.181 728.284 13.4701 728.943 13.3821C729.585 13.3109 730.153 12.8919 730.585 12.4059L730.681 12.3137C730.812 12.1336 730.869 11.8235 730.926 11.6266C730.983 11.4255 731 11.2453 731 11.0652C731 10.6671 730.904 10.2524 730.738 9.88785V9.87947ZM712.173 9.87947C711.815 9.19235 710.907 9.02895 710.191 9.06666C709.662 9.08342 709.173 9.26776 708.776 9.55685C708.588 9.70349 708.418 9.86271 708.304 10.0471C707.588 11.4213 708.361 12.3472 708.361 12.3472C708.435 12.4729 708.492 12.5819 708.588 12.674C709.02 13.181 709.702 13.4701 710.361 13.3821C711.021 13.3109 711.588 12.8919 712.003 12.4059L712.099 12.3137C712.23 12.1336 712.309 11.8235 712.344 11.6266C712.383 11.4255 712.44 11.2453 712.44 11.0652C712.44 10.6671 712.344 10.2524 712.178 9.88785L712.173 9.87947ZM720.702 0.393839L720.589 0.322607C720.419 0.196914 720.117 0.121509 719.908 0.0712316C719.698 0.0167647 719.51 0 719.322 0C718.908 0 718.493 0.0921815 718.135 0.255582C717.418 0.561435 717.248 1.4329 717.287 2.12002C717.327 2.58927 717.497 3.07947 717.776 3.43979C717.929 3.63671 718.095 3.78336 718.287 3.90906C719.702 4.54171 720.646 3.83783 720.646 3.83783C720.759 3.78336 720.873 3.69119 720.986 3.61996C721.497 3.22194 721.799 2.56832 721.702 1.93567C721.628 1.33653 721.213 0.79606 720.702 0.398033V0.393839ZM720.702 18.2422L720.589 18.1333C720.419 18.0076 720.117 17.9531 719.908 17.8987C719.698 17.861 719.51 17.8442 719.322 17.8275C718.908 17.8275 718.493 17.8987 718.135 18.0788C717.418 18.4056 717.248 19.2562 717.287 19.9433C717.327 20.3958 717.497 20.886 717.776 21.2631C717.929 21.4432 718.095 21.5899 718.287 21.7156C719.702 22.3859 720.646 21.6611 720.646 21.6611C720.759 21.5899 720.873 21.5354 720.986 21.4432C721.497 21.0284 721.799 20.3916 721.702 19.7757C721.628 19.143 721.213 18.6361 720.702 18.238V18.2422Z"
            fill="#181010" />
        <path
            d="M789.489 11.5166C789.489 11.337 789.409 9.18488 789.195 9.23622C787.92 9.53144 786.574 9.64268 785.269 9.61701C784.167 9.59562 783.052 9.46298 782.004 9.10359C781.032 8.76987 780.103 8.29496 779.181 7.84144C777.751 7.13122 776.257 6.20708 774.679 5.88619C774.254 5.80062 773.766 5.74928 773.447 6.10012C773.005 6.5793 772.714 7.32376 772.378 7.87996C771.97 8.5474 771.553 9.20627 771.137 9.86516C771.01 10.0662 770.821 10.2802 770.729 10.4984C770.712 10.5369 770.703 10.5668 770.699 10.5839C770.699 10.5625 770.691 10.5326 770.678 10.4941C770.48 9.95073 769.967 9.39453 769.66 8.9025C769.227 8.21367 768.793 7.52485 768.381 6.82318C768.133 6.39961 767.96 5.9247 767.426 5.84769C766.862 5.76212 766.235 6.01027 765.722 6.20708C764.064 6.84029 762.52 7.75588 760.913 8.50889C758.174 9.79243 755.136 9.98067 752.199 9.31323C752.01 9.27045 751.997 11.4396 752.001 11.6065C752.006 11.8889 751.947 13.8099 752.296 13.8869C753.575 14.1778 754.917 14.2805 756.221 14.2506C758.14 14.2078 759.806 13.6687 761.523 12.8344C763.071 12.0814 764.59 11.1701 766.231 10.631C766.677 10.4855 767.295 10.2759 767.758 10.4813C768.204 10.6781 768.461 11.4567 768.705 11.8546C768.713 11.8675 768.717 11.876 768.726 11.8889C768.625 12.2183 768.515 12.5478 768.41 12.8729L768.053 13.9982C767.935 14.349 768.078 14.7383 768.393 14.9266L770.304 16.0689C770.543 16.2101 770.838 16.2144 771.082 16.0689L773.064 14.9137C773.379 14.7298 773.526 14.3404 773.417 13.9896L772.946 12.5135C772.946 12.5135 772.946 12.5093 772.946 12.505C772.891 12.3253 772.832 12.1499 772.778 11.9702C772.916 11.7391 773.059 11.5124 773.198 11.2813C773.459 10.8364 773.585 10.4385 774.145 10.3914C774.734 10.3401 775.365 10.5968 775.904 10.8107C777.566 11.4653 779.122 12.3723 780.746 13.1125C783.426 14.3319 786.439 14.4645 789.296 13.8013C789.649 13.7201 789.498 11.7733 789.494 11.5081L789.489 11.5166Z"
            fill="#181010" />
        <path
            d="M833.268 9.87947C832.949 9.19235 832.04 9.02895 831.285 9.06666C830.796 9.08342 830.285 9.26776 829.887 9.55685C829.678 9.70349 829.529 9.86271 829.398 10.0471C828.7 11.4213 829.473 12.3472 829.473 12.3472C829.529 12.4729 829.625 12.5819 829.7 12.674C830.114 13.181 830.813 13.4701 831.473 13.3821C832.115 13.3109 832.682 12.8919 833.115 12.4059L833.211 12.3137C833.342 12.1336 833.399 11.8235 833.455 11.6266C833.512 11.4255 833.53 11.2453 833.53 11.0652C833.53 10.6671 833.433 10.2524 833.268 9.88785V9.87947ZM814.703 9.87947C814.345 9.19235 813.437 9.02895 812.72 9.06666C812.192 9.08342 811.703 9.26776 811.305 9.55685C811.118 9.70349 810.947 9.86271 810.834 10.0471C810.118 11.4213 810.891 12.3472 810.891 12.3472C810.965 12.4729 811.022 12.5819 811.118 12.674C811.55 13.181 812.231 13.4701 812.891 13.3821C813.55 13.3109 814.118 12.8919 814.533 12.4059L814.629 12.3137C814.76 12.1336 814.838 11.8235 814.873 11.6266C814.913 11.4255 814.969 11.2453 814.969 11.0652C814.969 10.6671 814.873 10.2524 814.707 9.88785L814.703 9.87947ZM823.232 0.393839L823.118 0.322607C822.948 0.196914 822.647 0.121509 822.437 0.0712316C822.228 0.0167647 822.04 0 821.852 0C821.437 0 821.022 0.0921815 820.664 0.255582C819.948 0.561435 819.778 1.4329 819.817 2.12002C819.856 2.58927 820.027 3.07947 820.306 3.43979C820.459 3.63671 820.625 3.78336 820.817 3.90906C822.232 4.54171 823.175 3.83783 823.175 3.83783C823.289 3.78336 823.402 3.69119 823.516 3.61996C824.027 3.22194 824.328 2.56832 824.232 1.93567C824.158 1.33653 823.743 0.79606 823.232 0.398033V0.393839ZM823.232 18.2422L823.118 18.1333C822.948 18.0076 822.647 17.9531 822.437 17.8987C822.228 17.861 822.04 17.8442 821.852 17.8275C821.437 17.8275 821.022 17.8987 820.664 18.0788C819.948 18.4056 819.778 19.2562 819.817 19.9433C819.856 20.3958 820.027 20.886 820.306 21.2631C820.459 21.4432 820.625 21.5899 820.817 21.7156C822.232 22.3859 823.175 21.6611 823.175 21.6611C823.289 21.5899 823.402 21.5354 823.516 21.4432C824.027 21.0284 824.328 20.3916 824.232 19.7757C824.158 19.143 823.743 18.6361 823.232 18.238V18.2422Z"
            fill="#181010" />
        <path
            d="M892.019 11.5166C892.019 11.337 891.939 9.18488 891.724 9.23622C890.45 9.53144 889.103 9.64268 887.799 9.61701C886.697 9.59562 885.582 9.46298 884.534 9.10359C883.562 8.76987 882.632 8.29496 881.711 7.84144C880.28 7.13122 878.787 6.20708 877.209 5.88619C876.784 5.80062 876.296 5.74928 875.976 6.10012C875.534 6.5793 875.244 7.32376 874.907 7.87996C874.499 8.5474 874.083 9.20627 873.666 9.86516C873.54 10.0662 873.351 10.2802 873.258 10.4984C873.241 10.5369 873.233 10.5668 873.229 10.5839C873.229 10.5625 873.22 10.5326 873.208 10.4941C873.01 9.95073 872.497 9.39453 872.189 8.9025C871.756 8.21367 871.323 7.52485 870.91 6.82318C870.662 6.39961 870.49 5.9247 869.955 5.84769C869.391 5.76212 868.765 6.01027 868.251 6.20708C866.594 6.84029 865.049 7.75588 863.442 8.50889C860.703 9.79243 857.665 9.98067 854.729 9.31323C854.539 9.27045 854.527 11.4396 854.531 11.6065C854.535 11.8889 854.476 13.8099 854.825 13.8869C856.104 14.1778 857.447 14.2805 858.751 14.2506C860.67 14.2078 862.336 13.6687 864.052 12.8344C865.601 12.0814 867.119 11.1701 868.76 10.631C869.206 10.4855 869.825 10.2759 870.288 10.4813C870.734 10.6781 870.99 11.4567 871.234 11.8546C871.243 11.8675 871.247 11.876 871.255 11.8889C871.154 12.2183 871.045 12.5478 870.94 12.8729L870.582 13.9982C870.464 14.349 870.607 14.7383 870.923 14.9266L872.833 16.0689C873.073 16.2101 873.367 16.2144 873.612 16.0689L875.593 14.9137C875.909 14.7298 876.056 14.3404 875.947 13.9896L875.475 12.5135C875.475 12.5135 875.475 12.5093 875.475 12.505C875.421 12.3253 875.362 12.1499 875.307 11.9702C875.446 11.7391 875.589 11.5124 875.728 11.2813C875.989 10.8364 876.115 10.4385 876.675 10.3914C877.264 10.3401 877.895 10.5968 878.433 10.8107C880.095 11.4653 881.652 12.3723 883.276 13.1125C885.956 14.3319 888.969 14.4645 891.825 13.8013C892.179 13.7201 892.027 11.7733 892.023 11.5081L892.019 11.5166Z"
            fill="#181010" />
        <path
            d="M935.797 9.87947C935.478 9.19235 934.57 9.02895 933.814 9.06666C933.325 9.08342 932.814 9.26776 932.417 9.55685C932.207 9.70349 932.059 9.86271 931.928 10.0471C931.229 11.4213 932.002 12.3472 932.002 12.3472C932.059 12.4729 932.155 12.5819 932.229 12.674C932.644 13.181 933.343 13.4701 934.002 13.3821C934.644 13.3109 935.212 12.8919 935.644 12.4059L935.74 12.3137C935.871 12.1336 935.928 11.8235 935.985 11.6266C936.042 11.4255 936.059 11.2453 936.059 11.0652C936.059 10.6671 935.963 10.2524 935.797 9.88785V9.87947ZM917.233 9.87947C916.874 9.19235 915.966 9.02895 915.25 9.06666C914.721 9.08342 914.232 9.26776 913.835 9.55685C913.647 9.70349 913.477 9.86271 913.363 10.0471C912.647 11.4213 913.42 12.3472 913.42 12.3472C913.494 12.4729 913.551 12.5819 913.647 12.674C914.08 13.181 914.761 13.4701 915.42 13.3821C916.08 13.3109 916.647 12.8919 917.062 12.4059L917.158 12.3137C917.289 12.1336 917.368 11.8235 917.403 11.6266C917.442 11.4255 917.499 11.2453 917.499 11.0652C917.499 10.6671 917.403 10.2524 917.237 9.88785L917.233 9.87947ZM925.761 0.393839L925.648 0.322607C925.478 0.196914 925.176 0.121509 924.967 0.0712316C924.757 0.0167647 924.569 0 924.381 0C923.967 0 923.552 0.0921815 923.194 0.255582C922.477 0.561435 922.307 1.4329 922.346 2.12002C922.386 2.58927 922.556 3.07947 922.836 3.43979C922.988 3.63671 923.154 3.78336 923.346 3.90906C924.761 4.54171 925.705 3.83783 925.705 3.83783C925.818 3.78336 925.932 3.69119 926.045 3.61996C926.556 3.22194 926.858 2.56832 926.762 1.93567C926.687 1.33653 926.272 0.79606 925.761 0.398033V0.393839ZM925.761 18.2422L925.648 18.1333C925.478 18.0076 925.176 17.9531 924.967 17.8987C924.757 17.861 924.569 17.8442 924.381 17.8275C923.967 17.8275 923.552 17.8987 923.194 18.0788C922.477 18.4056 922.307 19.2562 922.346 19.9433C922.386 20.3958 922.556 20.886 922.836 21.2631C922.988 21.4432 923.154 21.5899 923.346 21.7156C924.761 22.3859 925.705 21.6611 925.705 21.6611C925.818 21.5899 925.932 21.5354 926.045 21.4432C926.556 21.0284 926.858 20.3916 926.762 19.7757C926.687 19.143 926.272 18.6361 925.761 18.238V18.2422Z"
            fill="#181010" />
        <path
            d="M994.548 11.5166C994.548 11.337 994.469 9.18488 994.254 9.23622C992.979 9.53144 991.633 9.64268 990.328 9.61701C989.226 9.59562 988.111 9.46298 987.063 9.10359C986.092 8.76987 985.162 8.29496 984.24 7.84144C982.81 7.13122 981.316 6.20708 979.738 5.88619C979.313 5.80062 978.825 5.74928 978.506 6.10012C978.064 6.5793 977.774 7.32376 977.437 7.87996C977.029 8.5474 976.612 9.20627 976.196 9.86516C976.07 10.0662 975.88 10.2802 975.788 10.4984C975.771 10.5369 975.762 10.5668 975.758 10.5839C975.758 10.5625 975.75 10.5326 975.737 10.4941C975.539 9.95073 975.026 9.39453 974.719 8.9025C974.286 8.21367 973.852 7.52485 973.44 6.82318C973.192 6.39961 973.019 5.9247 972.485 5.84769C971.921 5.76212 971.294 6.01027 970.781 6.20708C969.123 6.84029 967.579 7.75588 965.972 8.50889C963.233 9.79243 960.195 9.98067 957.258 9.31323C957.069 9.27045 957.056 11.4396 957.06 11.6065C957.065 11.8889 957.006 13.8099 957.355 13.8869C958.634 14.1778 959.976 14.2805 961.281 14.2506C963.199 14.2078 964.865 13.6687 966.582 12.8344C968.13 12.0814 969.649 11.1701 971.29 10.631C971.736 10.4855 972.354 10.2759 972.817 10.4813C973.263 10.6781 973.52 11.4567 973.764 11.8546C973.772 11.8675 973.776 11.876 973.785 11.8889C973.684 12.2183 973.575 12.5478 973.469 12.8729L973.112 13.9982C972.994 14.349 973.137 14.7383 973.453 14.9266L975.363 16.0689C975.603 16.2101 975.897 16.2144 976.141 16.0689L978.123 14.9137C978.438 14.7298 978.586 14.3404 978.476 13.9896L978.005 12.5135C978.005 12.5135 978.005 12.5093 978.005 12.505C977.95 12.3253 977.891 12.1499 977.837 11.9702C977.975 11.7391 978.119 11.5124 978.257 11.2813C978.518 10.8364 978.644 10.4385 979.204 10.3914C979.793 10.3401 980.424 10.5968 980.963 10.8107C982.625 11.4653 984.181 12.3723 985.805 13.1125C988.486 14.3319 991.498 14.4645 994.355 13.8013C994.708 13.7201 994.557 11.7733 994.553 11.5081L994.548 11.5166Z"
            fill="#181010" />
        <path
            d="M1038.33 9.87947C1038.01 9.19235 1037.1 9.02895 1036.34 9.06666C1035.85 9.08342 1035.34 9.26776 1034.95 9.55685C1034.74 9.70349 1034.59 9.86271 1034.46 10.0471C1033.76 11.4213 1034.53 12.3472 1034.53 12.3472C1034.59 12.4729 1034.68 12.5819 1034.76 12.674C1035.17 13.181 1035.87 13.4701 1036.53 13.3821C1037.17 13.3109 1037.74 12.8919 1038.17 12.4059L1038.27 12.3137C1038.4 12.1336 1038.46 11.8235 1038.51 11.6266C1038.57 11.4255 1038.59 11.2453 1038.59 11.0652C1038.59 10.6671 1038.49 10.2524 1038.33 9.88785V9.87947ZM1019.76 9.87947C1019.4 9.19235 1018.5 9.02895 1017.78 9.06666C1017.25 9.08342 1016.76 9.26776 1016.36 9.55685C1016.18 9.70349 1016.01 9.86271 1015.89 10.0471C1015.18 11.4213 1015.95 12.3472 1015.95 12.3472C1016.02 12.4729 1016.08 12.5819 1016.18 12.674C1016.61 13.181 1017.29 13.4701 1017.95 13.3821C1018.61 13.3109 1019.18 12.8919 1019.59 12.4059L1019.69 12.3137C1019.82 12.1336 1019.9 11.8235 1019.93 11.6266C1019.97 11.4255 1020.03 11.2453 1020.03 11.0652C1020.03 10.6671 1019.93 10.2524 1019.77 9.88785L1019.76 9.87947ZM1028.29 0.393839L1028.18 0.322607C1028.01 0.196914 1027.71 0.121509 1027.5 0.0712316C1027.29 0.0167647 1027.1 0 1026.91 0C1026.5 0 1026.08 0.0921815 1025.72 0.255582C1025.01 0.561435 1024.84 1.4329 1024.88 2.12002C1024.92 2.58927 1025.09 3.07947 1025.36 3.43979C1025.52 3.63671 1025.68 3.78336 1025.88 3.90906C1027.29 4.54171 1028.23 3.83783 1028.23 3.83783C1028.35 3.78336 1028.46 3.69119 1028.57 3.61996C1029.09 3.22193 1029.39 2.56832 1029.29 1.93567C1029.22 1.33653 1028.8 0.79606 1028.29 0.398033V0.393839ZM1028.29 18.2422L1028.18 18.1333C1028.01 18.0076 1027.71 17.9531 1027.5 17.8987C1027.29 17.861 1027.1 17.8442 1026.91 17.8275C1026.5 17.8275 1026.08 17.8987 1025.72 18.0788C1025.01 18.4056 1024.84 19.2562 1024.88 19.9433C1024.92 20.3958 1025.09 20.886 1025.36 21.2631C1025.52 21.4432 1025.68 21.5899 1025.88 21.7156C1027.29 22.3859 1028.23 21.6611 1028.23 21.6611C1028.35 21.5899 1028.46 21.5354 1028.57 21.4432C1029.09 21.0284 1029.39 20.3916 1029.29 19.7757C1029.22 19.143 1028.8 18.6361 1028.29 18.238V18.2422Z"
            fill="#181010" />
        <path
            d="M1097.08 11.5166C1097.08 11.337 1097 9.18488 1096.78 9.23622C1095.51 9.53144 1094.16 9.64268 1092.86 9.61701C1091.76 9.59562 1090.64 9.46298 1089.59 9.10359C1088.62 8.76987 1087.69 8.29496 1086.77 7.84144C1085.34 7.13122 1083.85 6.20708 1082.27 5.88619C1081.84 5.80062 1081.35 5.74928 1081.03 6.10012C1080.59 6.5793 1080.3 7.32376 1079.97 7.87996C1079.56 8.5474 1079.14 9.20627 1078.73 9.86516C1078.6 10.0662 1078.41 10.2802 1078.32 10.4984C1078.3 10.5369 1078.29 10.5668 1078.29 10.5839C1078.29 10.5625 1078.28 10.5326 1078.27 10.4941C1078.07 9.95073 1077.56 9.39453 1077.25 8.9025C1076.81 8.21367 1076.38 7.52485 1075.97 6.82318C1075.72 6.39961 1075.55 5.9247 1075.01 5.84769C1074.45 5.76212 1073.82 6.01027 1073.31 6.20708C1071.65 6.84029 1070.11 7.75588 1068.5 8.50889C1065.76 9.79243 1062.72 9.98067 1059.79 9.31323C1059.6 9.27045 1059.59 11.4396 1059.59 11.6065C1059.59 11.8889 1059.54 13.8099 1059.88 13.8869C1061.16 14.1778 1062.51 14.2805 1063.81 14.2506C1065.73 14.2078 1067.39 13.6687 1069.11 12.8344C1070.66 12.0814 1072.18 11.1701 1073.82 10.631C1074.27 10.4855 1074.88 10.2759 1075.35 10.4813C1075.79 10.6781 1076.05 11.4567 1076.29 11.8546C1076.3 11.8675 1076.31 11.876 1076.31 11.8889C1076.21 12.2183 1076.1 12.5478 1076 12.8729L1075.64 13.9982C1075.52 14.349 1075.67 14.7383 1075.98 14.9266L1077.89 16.0689C1078.13 16.2101 1078.43 16.2144 1078.67 16.0689L1080.65 14.9137C1080.97 14.7298 1081.11 14.3404 1081.01 13.9896L1080.53 12.5135C1080.53 12.5135 1080.53 12.5093 1080.53 12.505C1080.48 12.3253 1080.42 12.1499 1080.37 11.9702C1080.5 11.7391 1080.65 11.5124 1080.79 11.2813C1081.05 10.8364 1081.17 10.4385 1081.73 10.3914C1082.32 10.3401 1082.95 10.5968 1083.49 10.8107C1085.15 11.4653 1086.71 12.3723 1088.33 13.1125C1091.01 14.3319 1094.03 14.4645 1096.88 13.8013C1097.24 13.7201 1097.09 11.7733 1097.08 11.5081L1097.08 11.5166Z"
            fill="#181010" />
        <path
            d="M1140.86 9.87947C1140.54 9.19235 1139.63 9.02895 1138.87 9.06666C1138.38 9.08342 1137.87 9.26776 1137.48 9.55685C1137.27 9.70349 1137.12 9.86271 1136.99 10.0471C1136.29 11.4213 1137.06 12.3472 1137.06 12.3472C1137.12 12.4729 1137.21 12.5819 1137.29 12.674C1137.7 13.181 1138.4 13.4701 1139.06 13.3821C1139.7 13.3109 1140.27 12.8919 1140.7 12.4059L1140.8 12.3137C1140.93 12.1336 1140.99 11.8235 1141.04 11.6266C1141.1 11.4255 1141.12 11.2453 1141.12 11.0652C1141.12 10.6671 1141.02 10.2524 1140.86 9.88785V9.87947ZM1122.29 9.87947C1121.93 9.19235 1121.02 9.02895 1120.31 9.06666C1119.78 9.08342 1119.29 9.26776 1118.89 9.55685C1118.71 9.70349 1118.54 9.86271 1118.42 10.0471C1117.71 11.4213 1118.48 12.3472 1118.48 12.3472C1118.55 12.4729 1118.61 12.5819 1118.71 12.674C1119.14 13.181 1119.82 13.4701 1120.48 13.3821C1121.14 13.3109 1121.71 12.8919 1122.12 12.4059L1122.22 12.3137C1122.35 12.1336 1122.43 11.8235 1122.46 11.6266C1122.5 11.4255 1122.56 11.2453 1122.56 11.0652C1122.56 10.6671 1122.46 10.2524 1122.3 9.88785L1122.29 9.87947ZM1130.82 0.393839L1130.71 0.322607C1130.54 0.196914 1130.23 0.121509 1130.03 0.0712316C1129.82 0.0167647 1129.63 0 1129.44 0C1129.03 0 1128.61 0.0921815 1128.25 0.255582C1127.54 0.561435 1127.37 1.4329 1127.41 2.12002C1127.44 2.58927 1127.61 3.07947 1127.89 3.43979C1128.05 3.63671 1128.21 3.78336 1128.41 3.90906C1129.82 4.54171 1130.76 3.83783 1130.76 3.83783C1130.88 3.78336 1130.99 3.69119 1131.1 3.61996C1131.61 3.22193 1131.92 2.56832 1131.82 1.93567C1131.75 1.33653 1131.33 0.79606 1130.82 0.398033V0.393839ZM1130.82 18.2422L1130.71 18.1333C1130.54 18.0076 1130.23 17.9531 1130.03 17.8987C1129.82 17.861 1129.63 17.8442 1129.44 17.8275C1129.03 17.8275 1128.61 17.8987 1128.25 18.0788C1127.54 18.4056 1127.37 19.2562 1127.41 19.9433C1127.44 20.3958 1127.61 20.886 1127.89 21.2631C1128.05 21.4432 1128.21 21.5899 1128.41 21.7156C1129.82 22.3859 1130.76 21.6611 1130.76 21.6611C1130.88 21.5899 1130.99 21.5354 1131.1 21.4432C1131.61 21.0284 1131.92 20.3916 1131.82 19.7757C1131.75 19.143 1131.33 18.6361 1130.82 18.238V18.2422Z"
            fill="#181010" />
        <path
            d="M1199.61 11.5166C1199.61 11.337 1199.53 9.18488 1199.31 9.23622C1198.04 9.53144 1196.69 9.64268 1195.39 9.61701C1194.28 9.59562 1193.17 9.46298 1192.12 9.10359C1191.15 8.76987 1190.22 8.29496 1189.3 7.84144C1187.87 7.13122 1186.37 6.20708 1184.8 5.88619C1184.37 5.80062 1183.88 5.74928 1183.56 6.10012C1183.12 6.5793 1182.83 7.32376 1182.5 7.87996C1182.09 8.5474 1181.67 9.20627 1181.25 9.86516C1181.13 10.0662 1180.94 10.2802 1180.85 10.4984C1180.83 10.5369 1180.82 10.5668 1180.82 10.5839C1180.82 10.5625 1180.81 10.5326 1180.8 10.4941C1180.6 9.95073 1180.08 9.39453 1179.78 8.9025C1179.34 8.21367 1178.91 7.52485 1178.5 6.82318C1178.25 6.39961 1178.08 5.9247 1177.54 5.84769C1176.98 5.76212 1176.35 6.01027 1175.84 6.20708C1174.18 6.84029 1172.64 7.75588 1171.03 8.50889C1168.29 9.79243 1165.25 9.98067 1162.32 9.31323C1162.13 9.27045 1162.11 11.4396 1162.12 11.6065C1162.12 11.8889 1162.06 13.8099 1162.41 13.8869C1163.69 14.1778 1165.03 14.2805 1166.34 14.2506C1168.26 14.2078 1169.92 13.6687 1171.64 12.8344C1173.19 12.0814 1174.71 11.1701 1176.35 10.631C1176.79 10.4855 1177.41 10.2759 1177.88 10.4813C1178.32 10.6781 1178.58 11.4567 1178.82 11.8546C1178.83 11.8675 1178.84 11.876 1178.84 11.8889C1178.74 12.2183 1178.63 12.5478 1178.53 12.8729L1178.17 13.9982C1178.05 14.349 1178.2 14.7383 1178.51 14.9266L1180.42 16.0689C1180.66 16.2101 1180.96 16.2144 1181.2 16.0689L1183.18 14.9137C1183.5 14.7298 1183.64 14.3404 1183.53 13.9896L1183.06 12.5135C1183.06 12.5135 1183.06 12.5093 1183.06 12.505C1183.01 12.3253 1182.95 12.1499 1182.9 11.9702C1183.03 11.7391 1183.18 11.5124 1183.32 11.2813C1183.58 10.8364 1183.7 10.4385 1184.26 10.3914C1184.85 10.3401 1185.48 10.5968 1186.02 10.8107C1187.68 11.4653 1189.24 12.3723 1190.86 13.1125C1193.54 14.3319 1196.56 14.4645 1199.41 13.8013C1199.77 13.7201 1199.62 11.7733 1199.61 11.5081L1199.61 11.5166Z"
            fill="#241F20" />
        <path
            d="M1243.39 9.87947C1243.07 9.19235 1242.16 9.02895 1241.4 9.06666C1240.91 9.08342 1240.4 9.26776 1240.01 9.55685C1239.8 9.70349 1239.65 9.86271 1239.52 10.0471C1238.82 11.4213 1239.59 12.3472 1239.59 12.3472C1239.65 12.4729 1239.74 12.5819 1239.82 12.674C1240.23 13.181 1240.93 13.4701 1241.59 13.3821C1242.23 13.3109 1242.8 12.8919 1243.23 12.4059L1243.33 12.3137C1243.46 12.1336 1243.52 11.8235 1243.57 11.6266C1243.63 11.4255 1243.65 11.2453 1243.65 11.0652C1243.65 10.6671 1243.55 10.2524 1243.39 9.88785V9.87947ZM1224.82 9.87947C1224.46 9.19235 1223.55 9.02895 1222.84 9.06666C1222.31 9.08342 1221.82 9.26776 1221.42 9.55685C1221.24 9.70349 1221.06 9.86271 1220.95 10.0471C1220.24 11.4213 1221.01 12.3472 1221.01 12.3472C1221.08 12.4729 1221.14 12.5819 1221.24 12.674C1221.67 13.181 1222.35 13.4701 1223.01 13.3821C1223.67 13.3109 1224.24 12.8919 1224.65 12.4059L1224.75 12.3137C1224.88 12.1336 1224.96 11.8235 1224.99 11.6266C1225.03 11.4255 1225.09 11.2453 1225.09 11.0652C1225.09 10.6671 1224.99 10.2524 1224.83 9.88785L1224.82 9.87947ZM1233.35 0.393839L1233.24 0.322607C1233.07 0.196914 1232.76 0.121509 1232.55 0.0712316C1232.35 0.0167647 1232.16 0 1231.97 0C1231.55 0 1231.14 0.0921815 1230.78 0.255582C1230.07 0.561435 1229.9 1.4329 1229.93 2.12002C1229.97 2.58927 1230.14 3.07947 1230.42 3.43979C1230.58 3.63671 1230.74 3.78336 1230.93 3.90906C1232.35 4.54171 1233.29 3.83783 1233.29 3.83783C1233.41 3.78336 1233.52 3.69119 1233.63 3.61996C1234.14 3.22193 1234.45 2.56832 1234.35 1.93567C1234.28 1.33653 1233.86 0.79606 1233.35 0.398033V0.393839ZM1233.35 18.2422L1233.24 18.1333C1233.07 18.0076 1232.76 17.9531 1232.55 17.8987C1232.35 17.861 1232.16 17.8442 1231.97 17.8275C1231.55 17.8275 1231.14 17.8987 1230.78 18.0788C1230.07 18.4056 1229.9 19.2562 1229.93 19.9433C1229.97 20.3958 1230.14 20.886 1230.42 21.2631C1230.58 21.4432 1230.74 21.5899 1230.93 21.7156C1232.35 22.3859 1233.29 21.6611 1233.29 21.6611C1233.41 21.5899 1233.52 21.5354 1233.63 21.4432C1234.14 21.0284 1234.45 20.3916 1234.35 19.7757C1234.28 19.143 1233.86 18.6361 1233.35 18.238V18.2422Z"
            fill="#241F20" />
        <path
            d="M1302.14 11.5166C1302.14 11.337 1302.06 9.18488 1301.84 9.23622C1300.57 9.53144 1299.22 9.64268 1297.92 9.61701C1296.81 9.59562 1295.7 9.46298 1294.65 9.10359C1293.68 8.76987 1292.75 8.29496 1291.83 7.84144C1290.4 7.13122 1288.9 6.20708 1287.33 5.88619C1286.9 5.80062 1286.41 5.74928 1286.09 6.10012C1285.65 6.5793 1285.36 7.32376 1285.03 7.87996C1284.62 8.5474 1284.2 9.20627 1283.78 9.86516C1283.66 10.0662 1283.47 10.2802 1283.38 10.4984C1283.36 10.5369 1283.35 10.5668 1283.35 10.5839C1283.35 10.5625 1283.34 10.5326 1283.33 10.4941C1283.13 9.95073 1282.61 9.39453 1282.31 8.9025C1281.87 8.21367 1281.44 7.52485 1281.03 6.82318C1280.78 6.39961 1280.61 5.9247 1280.07 5.84769C1279.51 5.76212 1278.88 6.01027 1278.37 6.20708C1276.71 6.84029 1275.17 7.75588 1273.56 8.50889C1270.82 9.79243 1267.78 9.98067 1264.85 9.31323C1264.66 9.27045 1264.64 11.4396 1264.65 11.6065C1264.65 11.8889 1264.59 13.8099 1264.94 13.8869C1266.22 14.1778 1267.56 14.2805 1268.87 14.2506C1270.79 14.2078 1272.45 13.6687 1274.17 12.8344C1275.72 12.0814 1277.24 11.1701 1278.88 10.631C1279.32 10.4855 1279.94 10.2759 1280.41 10.4813C1280.85 10.6781 1281.11 11.4567 1281.35 11.8546C1281.36 11.8675 1281.36 11.876 1281.37 11.8889C1281.27 12.2183 1281.16 12.5478 1281.06 12.8729L1280.7 13.9982C1280.58 14.349 1280.73 14.7383 1281.04 14.9266L1282.95 16.0689C1283.19 16.2101 1283.49 16.2144 1283.73 16.0689L1285.71 14.9137C1286.03 14.7298 1286.17 14.3404 1286.06 13.9896L1285.59 12.5135C1285.59 12.5135 1285.59 12.5093 1285.59 12.505C1285.54 12.3253 1285.48 12.1499 1285.42 11.9702C1285.56 11.7391 1285.71 11.5124 1285.85 11.2813C1286.11 10.8364 1286.23 10.4385 1286.79 10.3914C1287.38 10.3401 1288.01 10.5968 1288.55 10.8107C1290.21 11.4653 1291.77 12.3723 1293.39 13.1125C1296.07 14.3319 1299.09 14.4645 1301.94 13.8013C1302.3 13.7201 1302.15 11.7733 1302.14 11.5081L1302.14 11.5166Z"
            fill="#241F20" />
        <path
            d="M1345.91 9.87947C1345.6 9.19235 1344.69 9.02895 1343.93 9.06666C1343.44 9.08342 1342.93 9.26776 1342.53 9.55685C1342.32 9.70349 1342.18 9.86271 1342.05 10.0471C1341.35 11.4213 1342.12 12.3472 1342.12 12.3472C1342.18 12.4729 1342.27 12.5819 1342.35 12.674C1342.76 13.181 1343.46 13.4701 1344.12 13.3821C1344.76 13.3109 1345.33 12.8919 1345.76 12.4059L1345.86 12.3137C1345.99 12.1336 1346.05 11.8235 1346.1 11.6266C1346.16 11.4255 1346.18 11.2453 1346.18 11.0652C1346.18 10.6671 1346.08 10.2524 1345.91 9.88785V9.87947ZM1327.35 9.87947C1326.99 9.19235 1326.08 9.02895 1325.37 9.06666C1324.84 9.08342 1324.35 9.26776 1323.95 9.55685C1323.76 9.70349 1323.59 9.86271 1323.48 10.0471C1322.76 11.4213 1323.54 12.3472 1323.54 12.3472C1323.61 12.4729 1323.67 12.5819 1323.76 12.674C1324.2 13.181 1324.88 13.4701 1325.54 13.3821C1326.2 13.3109 1326.77 12.8919 1327.18 12.4059L1327.28 12.3137C1327.41 12.1336 1327.49 11.8235 1327.52 11.6266C1327.56 11.4255 1327.62 11.2453 1327.62 11.0652C1327.62 10.6671 1327.52 10.2524 1327.35 9.88785L1327.35 9.87947ZM1335.88 0.393839L1335.77 0.322607C1335.6 0.196914 1335.29 0.121509 1335.08 0.0712316C1334.87 0.0167647 1334.69 0 1334.5 0C1334.08 0 1333.67 0.0921815 1333.31 0.255582C1332.6 0.561435 1332.42 1.4329 1332.46 2.12002C1332.5 2.58927 1332.67 3.07947 1332.95 3.43979C1333.11 3.63671 1333.27 3.78336 1333.46 3.90906C1334.88 4.54171 1335.82 3.83783 1335.82 3.83783C1335.94 3.78336 1336.05 3.69119 1336.16 3.61996C1336.67 3.22193 1336.98 2.56832 1336.88 1.93567C1336.8 1.33653 1336.39 0.79606 1335.88 0.398033V0.393839ZM1335.88 18.2422L1335.77 18.1333C1335.6 18.0076 1335.29 17.9531 1335.08 17.8987C1334.87 17.861 1334.69 17.8442 1334.5 17.8275C1334.08 17.8275 1333.67 17.8987 1333.31 18.0788C1332.6 18.4056 1332.42 19.2562 1332.46 19.9433C1332.5 20.3958 1332.67 20.886 1332.95 21.2631C1333.11 21.4432 1333.27 21.5899 1333.46 21.7156C1334.88 22.3859 1335.82 21.6611 1335.82 21.6611C1335.94 21.5899 1336.05 21.5354 1336.16 21.4432C1336.67 21.0284 1336.98 20.3916 1336.88 19.7757C1336.8 19.143 1336.39 18.6361 1335.88 18.238V18.2422Z"
            fill="#241F20" />
        <path
            d="M1404.67 11.5166C1404.67 11.337 1404.59 9.18488 1404.37 9.23622C1403.1 9.53144 1401.75 9.64268 1400.45 9.61701C1399.34 9.59562 1398.23 9.46298 1397.18 9.10359C1396.21 8.76987 1395.28 8.29496 1394.36 7.84144C1392.93 7.13122 1391.43 6.20708 1389.86 5.88619C1389.43 5.80062 1388.94 5.74928 1388.62 6.10012C1388.18 6.5793 1387.89 7.32376 1387.55 7.87996C1387.15 8.5474 1386.73 9.20627 1386.31 9.86516C1386.19 10.0662 1386 10.2802 1385.91 10.4984C1385.89 10.5369 1385.88 10.5668 1385.88 10.5839C1385.88 10.5625 1385.87 10.5326 1385.85 10.4941C1385.66 9.95073 1385.14 9.39453 1384.84 8.9025C1384.4 8.21367 1383.97 7.52485 1383.56 6.82318C1383.31 6.39961 1383.14 5.9247 1382.6 5.84769C1382.04 5.76212 1381.41 6.01027 1380.9 6.20708C1379.24 6.84029 1377.7 7.75588 1376.09 8.50889C1373.35 9.79243 1370.31 9.98067 1367.38 9.31323C1367.19 9.27045 1367.17 11.4396 1367.18 11.6065C1367.18 11.8889 1367.12 13.8099 1367.47 13.8869C1368.75 14.1778 1370.09 14.2805 1371.4 14.2506C1373.32 14.2078 1374.98 13.6687 1376.7 12.8344C1378.25 12.0814 1379.77 11.1701 1381.41 10.631C1381.85 10.4855 1382.47 10.2759 1382.93 10.4813C1383.38 10.6781 1383.64 11.4567 1383.88 11.8546C1383.89 11.8675 1383.89 11.876 1383.9 11.8889C1383.8 12.2183 1383.69 12.5478 1383.59 12.8729L1383.23 13.9982C1383.11 14.349 1383.25 14.7383 1383.57 14.9266L1385.48 16.0689C1385.72 16.2101 1386.01 16.2144 1386.26 16.0689L1388.24 14.9137C1388.56 14.7298 1388.7 14.3404 1388.59 13.9896L1388.12 12.5135C1388.12 12.5135 1388.12 12.5093 1388.12 12.505C1388.07 12.3253 1388.01 12.1499 1387.95 11.9702C1388.09 11.7391 1388.24 11.5124 1388.38 11.2813C1388.64 10.8364 1388.76 10.4385 1389.32 10.3914C1389.91 10.3401 1390.54 10.5968 1391.08 10.8107C1392.74 11.4653 1394.3 12.3723 1395.92 13.1125C1398.6 14.3319 1401.62 14.4645 1404.47 13.8013C1404.83 13.7201 1404.67 11.7733 1404.67 11.5081L1404.67 11.5166Z"
            fill="#241F20" />
        <path
            d="M1448.44 9.87947C1448.13 9.19235 1447.22 9.02895 1446.46 9.06666C1445.97 9.08342 1445.46 9.26776 1445.06 9.55685C1444.85 9.70349 1444.71 9.86271 1444.57 10.0471C1443.88 11.4213 1444.65 12.3472 1444.65 12.3472C1444.71 12.4729 1444.8 12.5819 1444.88 12.674C1445.29 13.181 1445.99 13.4701 1446.65 13.3821C1447.29 13.3109 1447.86 12.8919 1448.29 12.4059L1448.39 12.3137C1448.52 12.1336 1448.58 11.8235 1448.63 11.6266C1448.69 11.4255 1448.71 11.2453 1448.71 11.0652C1448.71 10.6671 1448.61 10.2524 1448.44 9.88785V9.87947ZM1429.88 9.87947C1429.52 9.19235 1428.61 9.02895 1427.9 9.06666C1427.37 9.08342 1426.88 9.26776 1426.48 9.55685C1426.29 9.70349 1426.12 9.86271 1426.01 10.0471C1425.29 11.4213 1426.07 12.3472 1426.07 12.3472C1426.14 12.4729 1426.2 12.5819 1426.29 12.674C1426.73 13.181 1427.41 13.4701 1428.07 13.3821C1428.73 13.3109 1429.29 12.8919 1429.71 12.4059L1429.81 12.3137C1429.94 12.1336 1430.01 11.8235 1430.05 11.6266C1430.09 11.4255 1430.15 11.2453 1430.15 11.0652C1430.15 10.6671 1430.05 10.2524 1429.88 9.88785L1429.88 9.87947ZM1438.41 0.393839L1438.29 0.322607C1438.12 0.196914 1437.82 0.121509 1437.61 0.0712316C1437.4 0.0167647 1437.22 0 1437.03 0C1436.61 0 1436.2 0.0921815 1435.84 0.255582C1435.12 0.561435 1434.95 1.4329 1434.99 2.12002C1435.03 2.58927 1435.2 3.07947 1435.48 3.43979C1435.64 3.63671 1435.8 3.78336 1435.99 3.90906C1437.41 4.54171 1438.35 3.83783 1438.35 3.83783C1438.47 3.78336 1438.58 3.69119 1438.69 3.61996C1439.2 3.22193 1439.5 2.56832 1439.41 1.93567C1439.33 1.33653 1438.92 0.79606 1438.41 0.398033V0.393839ZM1438.41 18.2422L1438.29 18.1333C1438.12 18.0076 1437.82 17.9531 1437.61 17.8987C1437.4 17.861 1437.22 17.8442 1437.03 17.8275C1436.61 17.8275 1436.2 17.8987 1435.84 18.0788C1435.12 18.4056 1434.95 19.2562 1434.99 19.9433C1435.03 20.3958 1435.2 20.886 1435.48 21.2631C1435.64 21.4432 1435.8 21.5899 1435.99 21.7156C1437.41 22.3859 1438.35 21.6611 1438.35 21.6611C1438.47 21.5899 1438.58 21.5354 1438.69 21.4432C1439.2 21.0284 1439.5 20.3916 1439.41 19.7757C1439.33 19.143 1438.92 18.6361 1438.41 18.238V18.2422Z"
            fill="#241F20" />
    </g>
</svg>